<svg width="31" height="30" viewBox="0 0 31 30" fill="none" xmlns="http://www.w3.org/2000/svg">
<path d="M14.0182 6.44995C19.236 6.44995 23.4658 10.6798 23.4658 15.8976H14.0182V6.44995Z" fill="#4D4D4D"/>
<path fill-rule="evenodd" clip-rule="evenodd" d="M10.1122 0C4.54324 0 0.0286865 4.51455 0.0286865 10.0835L0.0286865 19.8945C0.0286865 25.4635 4.54324 29.9781 10.1122 29.9781H15.0177V29.978H19.9233C25.4923 29.978 30.0069 25.4635 30.0069 19.8945V17.7143C30.0069 16.2091 28.7867 14.989 27.2816 14.989H15.0177V2.72528C15.0177 1.22015 13.7976 0 12.2924 0L10.1122 0Z" fill="#333333"/>
<path fill-rule="evenodd" clip-rule="evenodd" d="M14.6736 30.0001C14.88 29.1098 14.9891 28.1823 14.9891 27.2293C14.9891 20.4813 9.51874 15.011 2.77073 15.011C1.81774 15.011 0.890222 15.1201 0 15.3265V19.9165V19.9165C0 25.4855 4.51455 30.0001 10.0835 30.0001H14.6736Z" fill="#999999"/>
</svg>
