<svg width="31" height="30" viewBox="0 0 31 30" fill="none" xmlns="http://www.w3.org/2000/svg">
<path d="M14.0183 6.44983C19.2361 6.44983 23.466 10.6797 23.466 15.8975H14.0183V6.44983Z" fill="#9992F6"/>
<path fill-rule="evenodd" clip-rule="evenodd" d="M10.1121 0C4.54312 0 0.0285645 4.51455 0.0285645 10.0835L0.0285645 14.989L0.0285645 19.8945C0.0285645 25.4635 4.54312 29.9781 10.1121 29.9781H15.0176H19.9231C25.4921 29.9781 30.0066 25.4635 30.0066 19.8945V17.7143C30.0066 16.2092 28.7865 14.989 27.2814 14.989H15.0176V2.72528C15.0176 1.22015 13.7975 0 12.2923 0L10.1121 0Z" fill="#554AF0"/>
<path fill-rule="evenodd" clip-rule="evenodd" d="M14.6735 30C14.8799 29.1098 14.989 28.1823 14.989 27.2293C14.989 20.4813 9.51871 15.011 2.7707 15.011C1.81772 15.011 0.890212 15.1201 0 15.3265V19.9165C0 25.4855 4.51455 30 10.0835 30H14.6735Z" fill="#FAAD14"/>
</svg>
