<svg width="50" height="50" viewBox="0 0 50 50" fill="none" xmlns="http://www.w3.org/2000/svg">
<circle cx="25" cy="25" r="25" fill="#8787F8"/>
<path d="M34.5946 32.089C34.0969 30.9103 33.3748 29.8396 32.4683 28.9366C31.5647 28.031 30.4941 27.309 29.3159 26.8104C29.3054 26.8051 29.2948 26.8025 29.2843 26.7972C30.9278 25.6101 31.9961 23.6765 31.9961 21.4948C31.9961 17.8808 29.068 14.9526 25.4539 14.9526C21.8399 14.9526 18.9117 17.8808 18.9117 21.4948C18.9117 23.6765 19.9801 25.6101 21.6236 26.7998C21.613 26.8051 21.6025 26.8078 21.5919 26.813C20.4101 27.3116 19.3496 28.0265 18.4395 28.9392C17.5339 29.8429 16.8119 30.9134 16.3133 32.0916C15.8235 33.2451 15.5593 34.4818 15.5351 35.7347C15.5344 35.7629 15.5393 35.7909 15.5496 35.8171C15.5599 35.8433 15.5753 35.8672 15.595 35.8874C15.6147 35.9075 15.6382 35.9235 15.6641 35.9345C15.6901 35.9454 15.718 35.951 15.7461 35.951H17.3289C17.445 35.951 17.5373 35.8587 17.54 35.7453C17.5927 33.7087 18.4105 31.8015 19.8561 30.3558C21.3519 28.8601 23.3383 28.0371 25.4539 28.0371C27.5696 28.0371 29.556 28.8601 31.0517 30.3558C32.4974 31.8015 33.3151 33.7087 33.3679 35.7453C33.3705 35.8613 33.4629 35.951 33.5789 35.951H35.1617C35.1899 35.951 35.2178 35.9454 35.2437 35.9345C35.2697 35.9235 35.2932 35.9075 35.3128 35.8874C35.3325 35.8672 35.3479 35.8433 35.3582 35.8171C35.3685 35.7909 35.3735 35.7629 35.3728 35.7347C35.3464 34.4737 35.0852 33.2471 34.5946 32.089ZM25.4539 26.0322C24.2431 26.0322 23.1035 25.56 22.2461 24.7026C21.3888 23.8453 20.9166 22.7057 20.9166 21.4948C20.9166 20.284 21.3888 19.1444 22.2461 18.2871C23.1035 17.4297 24.2431 16.9575 25.4539 16.9575C26.6648 16.9575 27.8044 17.4297 28.6617 18.2871C29.5191 19.1444 29.9913 20.284 29.9913 21.4948C29.9913 22.7057 29.5191 23.8453 28.6617 24.7026C27.8044 25.56 26.6648 26.0322 25.4539 26.0322Z" fill="white"/>
</svg>
