<svg width="20" height="23" viewBox="0 0 20 23" fill="none" xmlns="http://www.w3.org/2000/svg">
<path d="M18.5715 10.1385H16.7501V4.13853C16.7501 2.24478 15.2153 0.709961 13.3215 0.709961H6.67868C4.78493 0.709961 3.2501 2.24478 3.2501 4.13853V10.1385H1.42868C0.954569 10.1385 0.571533 10.5216 0.571533 10.9957V21.2814C0.571533 21.7555 0.954569 22.1385 1.42868 22.1385H18.5715C19.0456 22.1385 19.4287 21.7555 19.4287 21.2814V10.9957C19.4287 10.5216 19.0456 10.1385 18.5715 10.1385ZM5.17868 4.13853C5.17868 3.31085 5.851 2.63853 6.67868 2.63853H13.3215C14.1492 2.63853 14.8215 3.31085 14.8215 4.13853V10.1385H5.17868V4.13853ZM17.5001 20.21H2.5001V12.0671H17.5001V20.21ZM9.2501 16.4867V17.9064C9.2501 18.0242 9.34653 18.1207 9.46439 18.1207H10.5358C10.6537 18.1207 10.7501 18.0242 10.7501 17.9064V16.4867C10.9712 16.328 11.1362 16.1032 11.2215 15.8447C11.3067 15.5862 11.3076 15.3073 11.2243 15.0482C11.1409 14.7891 10.9774 14.5631 10.7575 14.4028C10.5375 14.2425 10.2723 14.1561 10.0001 14.1561C9.72791 14.1561 9.46274 14.2425 9.24276 14.4028C9.02277 14.5631 8.85933 14.7891 8.77595 15.0482C8.69256 15.3073 8.69355 15.5862 8.77876 15.8447C8.86396 16.1032 9.029 16.328 9.2501 16.4867Z" fill="#4D4D4D"/>
</svg>
