<svg width="26" height="29" viewBox="0 0 26 29" fill="none" xmlns="http://www.w3.org/2000/svg">
<path d="M0 2.20366V26.7662C0.000164555 26.8195 0.0160587 26.8715 0.0456893 26.9158C0.07532 26.9601 0.117368 26.9947 0.166561 27.0151C0.215754 27.0356 0.269902 27.0411 0.322215 27.031C0.374528 27.0208 0.422677 26.9955 0.460625 26.958L13.25 14.4855L0.460625 2.01179C0.422677 1.97437 0.374528 1.949 0.322215 1.93884C0.269902 1.92868 0.215754 1.93419 0.166561 1.95468C0.117368 1.97517 0.07532 2.00973 0.0456893 2.05402C0.0160587 2.09832 0.000164555 2.15037 0 2.20366ZM18.6125 9.36054L2.57625 0.525538L2.56625 0.519913C2.29 0.369913 2.0275 0.743663 2.25375 0.961163L14.8244 12.9812L18.6125 9.36054ZM2.255 28.0099C2.0275 28.2274 2.29 28.6012 2.5675 28.4512L2.5775 28.4455L18.6125 19.6105L14.8244 15.9887L2.255 28.0099ZM25.0863 12.923L20.6081 10.4568L16.3975 14.4855L20.6081 18.5124L25.0863 16.048C26.3044 15.3749 26.3044 13.5962 25.0863 12.923Z" fill="white"/>
</svg>
