<svg width="28" height="28" viewBox="0 0 28 28" fill="none" xmlns="http://www.w3.org/2000/svg">
<path d="M20.071 16.666C20.1776 15.786 20.2576 14.906 20.2576 13.9993C20.2576 13.0927 20.1776 12.2127 20.071 11.3327H24.5776C24.791 12.186 24.9243 13.0793 24.9243 13.9993C24.9243 14.9193 24.791 15.8127 24.5776 16.666M17.711 24.0793C18.511 22.5993 19.1243 20.9993 19.551 19.3327H23.4843C22.1925 21.557 20.1431 23.242 17.711 24.0793ZM17.3776 16.666H11.1376C11.0043 15.786 10.9243 14.906 10.9243 13.9993C10.9243 13.0927 11.0043 12.1993 11.1376 11.3327H17.3776C17.4976 12.1993 17.591 13.0927 17.591 13.9993C17.591 14.906 17.4976 15.786 17.3776 16.666ZM14.2576 24.6127C13.151 23.0127 12.2576 21.2393 11.711 19.3327H16.8043C16.2576 21.2393 15.3643 23.0127 14.2576 24.6127ZM8.92432 8.66602H5.03098C6.30946 6.43563 8.35738 4.748 10.791 3.91935C9.99098 5.39935 9.39098 6.99935 8.92432 8.66602ZM5.03098 19.3327H8.92432C9.39098 20.9993 9.99098 22.5993 10.791 24.0793C8.36248 23.2416 6.31744 21.5563 5.03098 19.3327ZM3.93765 16.666C3.72432 15.8127 3.59098 14.9193 3.59098 13.9993C3.59098 13.0793 3.72432 12.186 3.93765 11.3327H8.44432C8.33765 12.2127 8.25765 13.0927 8.25765 13.9993C8.25765 14.906 8.33765 15.786 8.44432 16.666M14.2576 3.37268C15.3643 4.97268 16.2576 6.75935 16.8043 8.66602H11.711C12.2576 6.75935 13.151 4.97268 14.2576 3.37268ZM23.4843 8.66602H19.551C19.1337 7.01463 18.5157 5.42054 17.711 3.91935C20.1643 4.75935 22.2043 6.45268 23.4843 8.66602ZM14.2576 0.666016C6.88432 0.666016 0.924316 6.66602 0.924316 13.9993C0.924316 17.5356 2.32907 20.927 4.82956 23.4274C6.06767 24.6656 7.53753 25.6477 9.1552 26.3177C10.7729 26.9878 12.5067 27.3327 14.2576 27.3327C17.7939 27.3327 21.1853 25.9279 23.6857 23.4274C26.1862 20.927 27.591 17.5356 27.591 13.9993C27.591 12.2484 27.2461 10.5146 26.576 8.8969C25.906 7.27923 24.9239 5.80937 23.6857 4.57126C22.4476 3.33314 20.9778 2.35102 19.3601 1.68096C17.7424 1.01089 16.0086 0.666016 14.2576 0.666016Z" fill="white"/>
</svg>
