<svg width="20" height="20" viewBox="0 0 20 20" fill="none" xmlns="http://www.w3.org/2000/svg">
<path d="M4.32352 15.356C4.36816 15.356 4.41281 15.3516 4.45745 15.3449L8.21191 14.6864C8.25656 14.6775 8.29897 14.6574 8.33022 14.6239L17.7923 5.16183C17.813 5.14118 17.8294 5.11665 17.8406 5.08965C17.8518 5.06265 17.8575 5.0337 17.8575 5.00446C17.8575 4.97523 17.8518 4.94628 17.8406 4.91928C17.8294 4.89228 17.813 4.86775 17.7923 4.8471L14.0825 1.13504C14.04 1.09263 13.9842 1.07031 13.924 1.07031C13.8637 1.07031 13.8079 1.09263 13.7655 1.13504L4.30343 10.5971C4.26995 10.6306 4.24986 10.6708 4.24093 10.7154L3.58245 14.4699C3.56074 14.5894 3.56849 14.7125 3.60505 14.8284C3.64162 14.9443 3.70587 15.0496 3.79227 15.135C3.93959 15.2779 4.12486 15.356 4.32352 15.356ZM5.82799 11.4632L13.924 3.36942L15.5601 5.00558L7.46415 13.0993L5.47977 13.4498L5.82799 11.4632ZM18.2141 17.231H1.78557C1.39049 17.231 1.07129 17.5502 1.07129 17.9453V18.7489C1.07129 18.8471 1.15165 18.9275 1.24986 18.9275H18.7499C18.8481 18.9275 18.9284 18.8471 18.9284 18.7489V17.9453C18.9284 17.5502 18.6092 17.231 18.2141 17.231Z" fill="#333333"/>
</svg>
