<svg width="24" height="24" viewBox="0 0 24 24" fill="none" xmlns="http://www.w3.org/2000/svg">
<path d="M7.92817 3.21177H7.71388C7.83174 3.21177 7.92817 3.11535 7.92817 2.99749V3.21177H16.071V2.99749C16.071 3.11535 16.1675 3.21177 16.2853 3.21177H16.071V5.14035H17.9996V2.99749C17.9996 2.05195 17.2308 1.2832 16.2853 1.2832H7.71388C6.76834 1.2832 5.99959 2.05195 5.99959 2.99749V5.14035H7.92817V3.21177ZM21.4282 5.14035H2.57102C2.09691 5.14035 1.71388 5.52338 1.71388 5.99749V6.85463C1.71388 6.97249 1.81031 7.06892 1.92816 7.06892H3.54602L4.20763 21.0778C4.25049 21.9912 5.00584 22.7118 5.91924 22.7118H18.08C18.996 22.7118 19.7487 21.9939 19.7916 21.0778L20.4532 7.06892H22.071C22.1889 7.06892 22.2853 6.97249 22.2853 6.85463V5.99749C22.2853 5.52338 21.9023 5.14035 21.4282 5.14035ZM17.8737 20.7832H6.12549L5.47727 7.06892H18.5219L17.8737 20.7832Z" fill="#333333"/>
</svg>
