<svg width="30" height="30" viewBox="0 0 30 30" fill="none" xmlns="http://www.w3.org/2000/svg">
<path d="M14.9707 26.25C15.2169 26.25 15.4607 26.2015 15.6882 26.1073C15.9157 26.013 16.1224 25.8749 16.2965 25.7008C16.4706 25.5267 16.6087 25.32 16.703 25.0925C16.7972 24.865 16.8457 24.6212 16.8457 24.375C16.8457 24.1288 16.7972 23.885 16.703 23.6575C16.6087 23.43 16.4706 23.2233 16.2965 23.0492C16.1224 22.8751 15.9157 22.737 15.6882 22.6427C15.4607 22.5485 15.2169 22.5 14.9707 22.5C14.7245 22.5 14.4807 22.5485 14.2532 22.6427C14.0257 22.737 13.819 22.8751 13.6449 23.0492C13.4708 23.2233 13.3327 23.43 13.2384 23.6575C13.1442 23.885 13.0957 24.1288 13.0957 24.375C13.0957 24.6212 13.1442 24.865 13.2384 25.0925C13.3327 25.32 13.4708 25.5267 13.6449 25.7008C13.819 25.8749 14.0257 26.013 14.2532 26.1073C14.4807 26.2015 14.7245 26.25 14.9707 26.25ZM14.9707 16.875C15.468 16.875 15.9449 16.6775 16.2965 16.3258C16.6482 15.9742 16.8457 15.4973 16.8457 15C16.8457 14.5027 16.6482 14.0258 16.2965 13.6742C15.9449 13.3225 15.468 13.125 14.9707 13.125C14.4734 13.125 13.9965 13.3225 13.6449 13.6742C13.2932 14.0258 13.0957 14.5027 13.0957 15C13.0957 15.4973 13.2932 15.9742 13.6449 16.3258C13.9965 16.6775 14.4734 16.875 14.9707 16.875ZM14.9707 7.5C15.468 7.5 15.9449 7.30245 16.2965 6.95082C16.6482 6.59919 16.8457 6.12228 16.8457 5.625C16.8457 5.12772 16.6482 4.6508 16.2965 4.29917C15.9449 3.94754 15.468 3.75 14.9707 3.75C14.4734 3.75 13.9965 3.94754 13.6449 4.29917C13.2932 4.6508 13.0957 5.12772 13.0957 5.625C13.0957 6.12228 13.2932 6.59919 13.6449 6.95082C13.9965 7.30245 14.4734 7.5 14.9707 7.5Z" fill="black" fill-opacity="0.85"/>
</svg>
