<svg width="25" height="24" viewBox="0 0 25 24" fill="none" xmlns="http://www.w3.org/2000/svg">
<path d="M12.7266 21C12.9235 21 13.1186 20.9612 13.3006 20.8858C13.4826 20.8104 13.6479 20.6999 13.7872 20.5607C13.9265 20.4214 14.037 20.256 14.1124 20.074C14.1878 19.892 14.2266 19.697 14.2266 19.5C14.2266 19.303 14.1878 19.108 14.1124 18.926C14.037 18.744 13.9265 18.5786 13.7872 18.4393C13.6479 18.3001 13.4826 18.1896 13.3006 18.1142C13.1186 18.0388 12.9235 18 12.7266 18C12.5296 18 12.3345 18.0388 12.1525 18.1142C11.9705 18.1896 11.8052 18.3001 11.6659 18.4393C11.5266 18.5786 11.4161 18.744 11.3407 18.926C11.2654 19.108 11.2266 19.303 11.2266 19.5C11.2266 19.697 11.2654 19.892 11.3407 20.074C11.4161 20.256 11.5266 20.4214 11.6659 20.5607C11.8052 20.6999 11.9705 20.8104 12.1525 20.8858C12.3345 20.9612 12.5296 21 12.7266 21ZM12.7266 13.5C13.1244 13.5 13.5059 13.342 13.7872 13.0607C14.0685 12.7794 14.2266 12.3978 14.2266 12C14.2266 11.6022 14.0685 11.2206 13.7872 10.9393C13.5059 10.658 13.1244 10.5 12.7266 10.5C12.3287 10.5 11.9472 10.658 11.6659 10.9393C11.3846 11.2206 11.2266 11.6022 11.2266 12C11.2266 12.3978 11.3846 12.7794 11.6659 13.0607C11.9472 13.342 12.3287 13.5 12.7266 13.5ZM12.7266 6C13.1244 6 13.5059 5.84196 13.7872 5.56066C14.0685 5.27935 14.2266 4.89782 14.2266 4.5C14.2266 4.10217 14.0685 3.72064 13.7872 3.43934C13.5059 3.15804 13.1244 3 12.7266 3C12.3287 3 11.9472 3.15804 11.6659 3.43934C11.3846 3.72064 11.2266 4.10217 11.2266 4.5C11.2266 4.89782 11.3846 5.27935 11.6659 5.56066C11.9472 5.84196 12.3287 6 12.7266 6Z" fill="black" fill-opacity="0.85"/>
</svg>
