<svg width="24" height="24" viewBox="0 0 24 24" fill="none" xmlns="http://www.w3.org/2000/svg">
<path d="M5.18809 18.4261C5.24166 18.4261 5.29523 18.4207 5.3488 18.4127L9.85416 17.6225C9.90773 17.6118 9.95862 17.5877 9.99612 17.5475L21.3506 6.19302C21.3754 6.16824 21.3951 6.13881 21.4086 6.10641C21.422 6.074 21.4289 6.03927 21.4289 6.00419C21.4289 5.9691 21.422 5.93437 21.4086 5.90196C21.3951 5.86956 21.3754 5.84013 21.3506 5.81535L16.8988 1.36088C16.8479 1.30999 16.7809 1.2832 16.7086 1.2832C16.6363 1.2832 16.5693 1.30999 16.5184 1.36088L5.16398 12.7153C5.1238 12.7555 5.09969 12.8037 5.08898 12.8573L4.2988 17.3627C4.27274 17.5062 4.28205 17.6538 4.32593 17.7929C4.3698 17.932 4.44691 18.0583 4.55059 18.1609C4.72737 18.3323 4.94969 18.4261 5.18809 18.4261ZM6.99344 13.7546L16.7086 4.04213L18.672 6.00552L8.95684 15.718L6.57559 16.1386L6.99344 13.7546ZM21.8568 20.6761H2.14255C1.66844 20.6761 1.28541 21.0591 1.28541 21.5332V22.4975C1.28541 22.6153 1.38184 22.7118 1.49969 22.7118H22.4997C22.6176 22.7118 22.714 22.6153 22.714 22.4975V21.5332C22.714 21.0591 22.3309 20.6761 21.8568 20.6761Z" fill="#333333"/>
</svg>
