<svg width="48" height="49" viewBox="0 0 48 49" fill="none" xmlns="http://www.w3.org/2000/svg">
<rect y="0.625" width="47.75" height="47.75" rx="5.96875" fill="#CDCBFC"/>
<path d="M22.3693 35.3521C21.9427 35.3521 21.5848 35.19 21.2957 34.8659C21.0067 34.5417 20.8626 34.1411 20.8636 33.6639C20.8636 33.1856 21.0082 32.7844 21.2973 32.4603C21.5863 32.1362 21.9437 31.9747 22.3693 31.9758H25.3805C25.8071 31.9758 26.165 32.1379 26.454 32.462C26.7431 32.7861 26.8871 33.1867 26.8861 33.6639C26.8861 34.1422 26.7416 34.5434 26.4525 34.8676C26.1634 35.1917 25.8061 35.3532 25.3805 35.3521H22.3693ZM11.8299 18.4707C11.4033 18.4707 11.0454 18.3087 10.7563 17.9846C10.4673 17.6604 10.3232 17.2598 10.3242 16.7826C10.3242 16.3043 10.4688 15.9031 10.7578 15.579C11.0469 15.2549 11.4043 15.0934 11.8299 15.0945H35.9199C36.3465 15.0945 36.7044 15.2565 36.9934 15.5807C37.2825 15.9048 37.4266 16.3054 37.4256 16.7826C37.4256 17.2609 37.281 17.6621 36.9919 17.9863C36.7029 18.3104 36.3455 18.4719 35.9199 18.4707H11.8299ZM16.3467 26.9114C15.9201 26.9114 15.5623 26.7493 15.2732 26.4252C14.9841 26.1011 14.8401 25.7004 14.8411 25.2233C14.8411 24.745 14.9857 24.3438 15.2747 24.0196C15.5638 23.6955 15.9211 23.534 16.3467 23.5351H31.403C31.8296 23.5351 32.1875 23.6972 32.4765 24.0213C32.7656 24.3454 32.9097 24.7461 32.9087 25.2233C32.9087 25.7016 32.7641 26.1028 32.475 26.4269C32.186 26.751 31.8286 26.9125 31.403 26.9114H16.3467Z" fill="#666666"/>
</svg>
