<svg width="21" height="21" viewBox="0 0 21 21" fill="none" xmlns="http://www.w3.org/2000/svg">
<g clip-path="url(#clip0_1538_22593)">
<path d="M15.9278 0.451172H5.57066C4.78271 0.451172 4.14209 1.0918 4.14209 1.87974V19.0226C4.14209 19.8105 4.78271 20.4512 5.57066 20.4512H15.9278C16.7158 20.4512 17.3564 19.8105 17.3564 19.0226V1.87974C17.3564 1.0918 16.7158 0.451172 15.9278 0.451172ZM15.7492 18.844H5.74923V2.05831H15.7492V18.844ZM9.85638 16.5672C9.85638 16.804 9.95044 17.0311 10.1179 17.1986C10.2853 17.366 10.5124 17.4601 10.7492 17.4601C10.986 17.4601 11.2131 17.366 11.3806 17.1986C11.548 17.0311 11.6421 16.804 11.6421 16.5672C11.6421 16.3304 11.548 16.1033 11.3806 15.9359C11.2131 15.7685 10.986 15.6744 10.7492 15.6744C10.5124 15.6744 10.2853 15.7685 10.1179 15.9359C9.95044 16.1033 9.85638 16.3304 9.85638 16.5672Z" fill="#666666"/>
</g>
<defs>
<clipPath id="clip0_1538_22593">
<rect width="20" height="20" fill="white" transform="translate(0.75 0.5)"/>
</clipPath>
</defs>
</svg>
