<svg width="274" height="332" viewBox="0 0 274 332" fill="none" xmlns="http://www.w3.org/2000/svg">
<path d="M64.2089 15.5615H19.0954C17.2293 15.5615 15.7165 17.0743 15.7165 18.9404L15.7164 64.054C15.7164 65.9201 17.2292 67.4329 19.0953 67.4329H64.2089C66.075 67.4329 67.5878 65.9201 67.5878 64.054V18.9404C67.5878 17.0743 66.075 15.5615 64.2089 15.5615Z" fill="#D6E4FF"/>
<path d="M25.3255 74.9299H21.6562C19.7901 74.9299 18.2774 76.4427 18.2774 78.3088L18.2773 81.9781C18.2773 83.8442 19.7901 85.357 21.6562 85.357H25.3255C27.1916 85.357 28.7044 83.8442 28.7044 81.9781V78.3088C28.7044 76.4427 27.1916 74.9299 25.3255 74.9299Z" fill="#FAAD14"/>
<path d="M186.333 88.3645H60.7751C57.3686 88.3645 54.6072 91.126 54.6072 94.5324V270.004H166.773C166.773 288.842 182.881 302.005 201.75 301.908C220.295 301.815 235.465 286.094 235.465 267.552V137.255H202.727C197.504 137.255 186.333 125.824 186.333 120.605V88.3645Z" fill="#E4EBF7"/>
<path d="M167.019 269.451H38.3751C38.3751 286.279 50.6158 298.445 66.6755 301.141L72.3294 301.614L201.231 301.357C182.48 301.357 166.541 286.958 167.019 269.451Z" fill="#253368"/>
<path d="M109.915 104.822H81.8305C80.502 104.822 79.425 105.899 79.425 107.228V135.312C79.425 136.641 80.502 137.718 81.8305 137.718H109.915C111.244 137.718 112.32 136.641 112.32 135.312V107.228C112.32 105.899 111.244 104.822 109.915 104.822Z" fill="#554AF0"/>
<path d="M200.321 153.909H81.7741C80.4456 153.909 79.3687 154.986 79.3687 156.314V159.727C79.3687 161.056 80.4456 162.133 81.7741 162.133H200.321C201.65 162.133 202.727 161.056 202.727 159.727V156.314C202.727 154.986 201.65 153.909 200.321 153.909Z" fill="#554AF0"/>
<path d="M200.321 178.67H81.7741C80.4456 178.67 79.3687 179.747 79.3687 181.076V184.489C79.3687 185.817 80.4456 186.894 81.7741 186.894H200.321C201.65 186.894 202.727 185.817 202.727 184.489V181.076C202.727 179.747 201.65 178.67 200.321 178.67Z" fill="#554AF0"/>
<path d="M200.321 203.432H81.7741C80.4456 203.432 79.3687 204.509 79.3687 205.837V209.25C79.3687 210.579 80.4456 211.655 81.7741 211.655H200.321C201.65 211.655 202.727 210.579 202.727 209.25V205.837C202.727 204.509 201.65 203.432 200.321 203.432Z" fill="#554AF0"/>
<path opacity="0.6" d="M186.317 129.389V135.814C186.317 137.194 186.892 138.513 187.904 139.452C188.916 140.391 190.273 140.866 191.65 140.763L235.632 137.492L186.317 129.389Z" fill="#CCD7EE"/>
<path d="M211.811 112.846L186.263 88.2078L186.33 135.428C186.33 136.564 187.25 137.484 188.386 137.484H235.632L211.811 112.846Z" fill="#FAAD14"/>
<path fill-rule="evenodd" clip-rule="evenodd" d="M106.214 116.345C106.13 116.449 105.986 116.476 105.872 116.415C105.857 116.406 105.842 116.396 105.827 116.385C104.986 115.694 104.061 115.908 103.279 116.356C102.892 116.579 102.558 116.85 102.32 117.068C102.285 117.1 102.253 117.131 102.222 117.16C102.149 117.23 102.089 117.29 102.044 117.337C102.013 117.371 101.989 117.397 101.973 117.414L101.963 117.425C102.325 118.461 102.257 119.791 101.8 121.207L96.0214 116.15C97.376 115.484 98.7001 115.233 99.7817 115.473C99.7935 115.458 99.8074 115.44 99.8231 115.42C99.863 115.369 99.9145 115.301 99.9731 115.218C99.9973 115.184 100.023 115.147 100.049 115.108C100.23 114.84 100.451 114.469 100.615 114.052C100.947 113.21 101.028 112.257 100.231 111.515C100.218 111.502 100.206 111.488 100.195 111.474C100.12 111.369 100.125 111.222 100.216 111.123C100.319 111.011 100.493 111.004 100.605 111.108C101.649 112.081 101.493 113.328 101.127 114.256C100.943 114.724 100.7 115.131 100.504 115.42C100.445 115.508 100.39 115.585 100.342 115.65C100.622 115.769 100.879 115.928 101.11 116.129C101.355 116.344 101.557 116.596 101.718 116.88C101.781 116.817 101.859 116.741 101.949 116.658C102.206 116.423 102.573 116.123 103.007 115.875C103.868 115.38 105.072 115.05 106.175 115.955C106.293 116.052 106.31 116.226 106.214 116.345ZM92.5285 118.818L91.8469 119.608C91.9549 119.473 92.0661 119.339 92.1806 119.207C92.2951 119.074 92.4111 118.944 92.5285 118.818ZM94.0054 117.411C94.4128 117.077 94.8279 116.778 95.2446 116.517L101.562 122.045C101.358 122.512 101.114 122.982 100.831 123.449L102.422 123.543L105.311 122.06C105.446 121.99 105.612 122.044 105.681 122.181C105.75 122.317 105.697 122.484 105.561 122.553L102.606 124.071C102.562 124.093 102.513 124.103 102.465 124.1L100.499 123.985L100.49 123.984C100.185 124.437 99.8441 124.885 99.4684 125.32C98.519 126.421 97.4624 127.31 96.3998 127.953C96.4481 127.993 96.4831 128.05 96.495 128.118L96.9335 130.579C96.9417 130.625 96.9382 130.673 96.9232 130.717L95.9163 133.703C95.8674 133.848 95.7112 133.925 95.5673 133.876C95.4234 133.826 95.3463 133.669 95.3952 133.524L96.3793 130.606L95.9533 128.215L95.9524 128.209C93.8555 129.34 91.791 129.493 90.5393 128.398C89.2968 127.31 89.1512 125.253 89.9505 123.022L87.611 122.934L84.8797 124.324C84.7441 124.393 84.5785 124.338 84.5099 124.201C84.4413 124.064 84.4956 123.898 84.6312 123.829L87.4258 122.408C87.4673 122.386 87.5135 122.376 87.5601 122.378L90.0415 122.471C90.0819 122.473 90.1199 122.483 90.1538 122.5C90.6374 121.348 91.3653 120.166 92.3171 119.063C92.7047 118.614 93.1101 118.2 93.5265 117.823L93.1596 115.985C93.15 115.937 93.1533 115.887 93.1691 115.841L94.2477 112.681C94.2971 112.536 94.4537 112.459 94.5974 112.509C94.7411 112.559 94.8176 112.717 94.7682 112.862L93.7138 115.95L94.0054 117.411Z" fill="#EFEFF0"/>
<path d="M261.645 255.983H245.91C243.827 255.983 242.138 257.672 242.138 259.755L242.138 275.489C242.138 277.572 243.827 279.261 245.91 279.261H261.645C263.728 279.261 265.416 277.572 265.416 275.489V259.755C265.416 257.672 263.728 255.983 261.645 255.983Z" fill="#D6E4FF"/>
<path d="M261.836 297.043H257.741C255.658 297.043 253.969 298.732 253.969 300.815L253.969 304.911C253.969 306.994 255.658 308.682 257.741 308.682H261.836C263.919 308.682 265.608 306.994 265.608 304.911V300.815C265.608 298.732 263.919 297.043 261.836 297.043Z" fill="#FF7946"/>
<path fill-rule="evenodd" clip-rule="evenodd" d="M210.329 52.3074C185.553 52.3074 165.469 72.392 165.469 97.1678C165.469 121.944 185.553 142.028 210.329 142.028C235.105 142.028 255.189 121.944 255.189 97.1678C255.189 72.392 235.105 52.3074 210.329 52.3074Z" fill="#554AF0"/>
<path fill-rule="evenodd" clip-rule="evenodd" d="M220.921 79.5665C223.281 81.6844 224.492 84.589 224.492 88.2197C224.492 91.1847 223.705 93.6656 222.253 95.6019C221.708 96.2675 220.014 97.8409 217.109 100.322C216.02 101.29 215.173 102.319 214.628 103.408C213.963 104.618 213.66 105.949 213.66 107.462V108.898C213.66 109.498 213.174 109.984 212.574 109.984H208.271C207.672 109.984 207.185 109.498 207.185 108.898V107.462C207.185 105.223 207.548 103.287 208.335 101.714C209.182 100.019 211.482 97.5383 215.233 94.2102L216.262 93.0606C217.351 91.6687 217.896 90.2164 217.896 88.6431C217.896 86.5253 217.291 84.8915 216.141 83.6811C214.931 82.471 213.236 81.8659 211.058 81.8659C208.335 81.8659 206.338 82.713 205.128 84.4074C204.181 85.6695 203.646 87.4343 203.522 89.6222C203.49 90.1945 203.012 90.6399 202.439 90.6399H198.195C197.575 90.6399 197.077 90.1216 197.109 89.5028C197.313 85.6262 198.578 82.5512 200.953 80.2321C203.494 77.6302 207.004 76.3594 211.421 76.3594C215.354 76.3594 218.501 77.3881 220.921 79.5665Z" fill="white"/>
<path fill-rule="evenodd" clip-rule="evenodd" d="M210.952 119.837H209.35C208.022 119.837 206.946 118.761 206.946 117.434V115.831C206.946 114.504 208.022 113.428 209.35 113.428H210.952C212.279 113.428 213.355 114.504 213.355 115.831V117.434C213.355 118.761 212.279 119.837 210.952 119.837Z" fill="white"/>
</svg>
