<svg width="21" height="21" viewBox="0 0 21 21" fill="none" xmlns="http://www.w3.org/2000/svg">
<g clip-path="url(#clip0_1538_22608)">
<path d="M18.3929 16.9487C18.3973 16.942 18.404 16.9353 18.4085 16.9286C19.8705 15.1897 20.75 12.9487 20.75 10.5C20.75 8.05134 19.8705 5.81027 18.4107 4.07143C18.4062 4.06473 18.3996 4.06027 18.3951 4.05357C18.3705 4.02455 18.3482 3.99777 18.3237 3.97098C18.3147 3.95982 18.3058 3.95089 18.2969 3.93973L18.2054 3.83482L18.2031 3.83259C18.1696 3.79464 18.1339 3.7567 18.1004 3.71875L18.0982 3.71652C18.0268 3.64063 17.9554 3.56473 17.8817 3.49107L17.8795 3.48884L17.7723 3.3817L17.7656 3.375C17.7321 3.34152 17.6987 3.31027 17.6652 3.27902C17.654 3.26786 17.6429 3.2567 17.6295 3.24554C17.6071 3.22321 17.5848 3.20312 17.5625 3.18304C17.5558 3.17634 17.5469 3.16964 17.5402 3.16071C15.7589 1.50893 13.3728 0.5 10.75 0.5C8.12723 0.5 5.74107 1.50893 3.95759 3.16071C3.95089 3.16741 3.94196 3.17411 3.93527 3.18304C3.91295 3.20312 3.89062 3.22545 3.8683 3.24777C3.85714 3.25893 3.84598 3.27009 3.83259 3.28125C3.79911 3.3125 3.76563 3.34598 3.73214 3.37723L3.72545 3.38393L3.6183 3.49107L3.61607 3.4933C3.54241 3.56696 3.47098 3.64286 3.39955 3.71875L3.39732 3.72098C3.36161 3.75893 3.32812 3.79688 3.29464 3.83482L3.29241 3.83705C3.26116 3.87054 3.22991 3.90625 3.20089 3.94196C3.19196 3.95312 3.18304 3.96205 3.17411 3.97321C3.14955 4 3.12723 4.02902 3.10268 4.0558C3.09821 4.0625 3.09152 4.06696 3.08705 4.07366C1.62946 5.81027 0.75 8.05134 0.75 10.5C0.75 12.9487 1.62946 15.1897 3.08929 16.9286C3.09375 16.9353 3.10045 16.942 3.10491 16.9487L3.17411 17.0312C3.18304 17.0424 3.19196 17.0513 3.20089 17.0625L3.29241 17.1674C3.29241 17.1696 3.29464 17.1696 3.29464 17.1719C3.32812 17.2098 3.36161 17.2478 3.39732 17.2835L3.39955 17.2857C3.47098 17.3616 3.54241 17.4375 3.61384 17.5112L3.61607 17.5134C3.65179 17.5491 3.68527 17.5848 3.72098 17.6183L3.72768 17.625C3.80134 17.6987 3.87723 17.7701 3.95312 17.8393C5.74107 19.4911 8.12723 20.5 10.75 20.5C13.3728 20.5 15.7589 19.4911 17.5424 17.8393C17.6185 17.7696 17.6929 17.6981 17.7656 17.625L17.7723 17.6183C17.808 17.5826 17.8438 17.5491 17.8772 17.5134L17.8795 17.5112C17.9531 17.4375 18.0246 17.3616 18.0938 17.2857L18.096 17.2835C18.1295 17.2455 18.1652 17.2098 18.1987 17.1719C18.1987 17.1696 18.2009 17.1696 18.2009 17.1674C18.2321 17.1339 18.2634 17.0982 18.2924 17.0625C18.3013 17.0513 18.3103 17.0424 18.3192 17.0312C18.3444 17.0043 18.369 16.9768 18.3929 16.9487ZM18.4844 13.7656C18.1763 14.4933 17.7701 15.1674 17.2746 15.779C16.7165 15.2967 16.1063 14.8782 15.4554 14.5312C15.7143 13.4844 15.875 12.3348 15.9174 11.125H19.1205C19.0536 12.0379 18.8393 12.9241 18.4844 13.7656ZM19.1205 9.875H15.9174C15.875 8.66518 15.7143 7.51562 15.4554 6.46875C16.1094 6.12054 16.7188 5.70089 17.2746 5.22098C18.3517 6.54682 18.9961 8.17129 19.1205 9.875ZM14.0156 2.76562C14.9018 3.14062 15.7076 3.65848 16.4174 4.31027C16.0051 4.66137 15.5612 4.9737 15.0915 5.2433C14.7411 4.23884 14.2924 3.36607 13.7701 2.66741C13.8527 2.69866 13.9353 2.73214 14.0156 2.76562ZM11.9933 18.404C11.7879 18.5647 11.5826 18.6875 11.375 18.7701V14.6295C12.2607 14.6913 13.1317 14.8885 13.9576 15.2143C13.7723 15.7634 13.558 16.2701 13.3103 16.7277C12.9219 17.4509 12.4665 18.029 11.9933 18.404ZM13.3103 4.27232C13.5558 4.73214 13.7723 5.23884 13.9576 5.78571C13.1317 6.11151 12.2607 6.30874 11.375 6.37054V2.23214C11.5804 2.31473 11.7879 2.43527 11.9933 2.59821C12.4665 2.97098 12.9219 3.54911 13.3103 4.27232ZM11.375 13.3772V11.125H14.6674C14.6317 12.1116 14.5089 13.0692 14.3036 13.9777L14.2969 14.0045C13.3601 13.6492 12.375 13.4378 11.375 13.3772ZM11.375 9.875V7.62277C12.3973 7.56027 13.3795 7.34375 14.2969 6.99554L14.3036 7.02232C14.5089 7.9308 14.6317 8.88616 14.6674 9.875H11.375ZM10.125 11.125V13.3772C9.10268 13.4397 8.12054 13.6562 7.20313 14.0045L7.19643 13.9777C6.99107 13.0692 6.8683 12.1138 6.83259 11.125H10.125ZM6.83259 9.875C6.8683 8.88839 6.99107 7.9308 7.19643 7.02232L7.20313 6.99554C8.12054 7.34375 9.10045 7.56027 10.125 7.62277V9.875H6.83259ZM10.125 14.6295V18.7679C9.91964 18.6853 9.71205 18.5647 9.5067 18.4018C9.03348 18.029 8.57589 17.4487 8.1875 16.7254C7.94196 16.2656 7.72545 15.7589 7.54018 15.2121C8.37054 14.8862 9.23438 14.692 10.125 14.6295ZM10.125 6.37054C9.23931 6.30874 8.36832 6.11151 7.54241 5.78571C7.72768 5.23661 7.94196 4.72991 8.18973 4.27232C8.57812 3.54911 9.03348 2.96875 9.50893 2.59598C9.71429 2.43527 9.91964 2.3125 10.1272 2.22991V6.37054H10.125ZM7.48438 2.76562C7.56696 2.73214 7.64732 2.69866 7.72991 2.66741C7.20759 3.36607 6.75893 4.23884 6.40848 5.2433C5.93973 4.97545 5.49554 4.66295 5.08259 4.31027C5.79241 3.65848 6.59821 3.14062 7.48438 2.76562ZM3.01562 7.23438C3.32366 6.5067 3.72991 5.83259 4.22545 5.22098C4.78125 5.70089 5.39063 6.12054 6.04464 6.46875C5.78571 7.51562 5.625 8.66518 5.58259 9.875H2.37946C2.44643 8.96205 2.66071 8.07589 3.01562 7.23438ZM2.37946 11.125H5.58259C5.625 12.3348 5.78571 13.4844 6.04464 14.5312C5.39371 14.8782 4.78353 15.2967 4.22545 15.779C3.14828 14.4532 2.50395 12.8287 2.37946 11.125ZM7.48438 18.2344C6.59821 17.8594 5.79241 17.3415 5.08259 16.6897C5.49554 16.3371 5.93973 16.0268 6.40848 15.7567C6.75893 16.7612 7.20759 17.6339 7.72991 18.3326C7.64732 18.3013 7.56473 18.2679 7.48438 18.2344ZM14.0156 18.2344C13.933 18.2679 13.8527 18.3013 13.7701 18.3326C14.2924 17.6339 14.7411 16.7612 15.0915 15.7567C15.5603 16.0246 16.0045 16.3371 16.4174 16.6897C15.7115 17.3388 14.899 17.8613 14.0156 18.2344Z" fill="#666666"/>
</g>
<defs>
<clipPath id="clip0_1538_22608">
<rect width="20" height="20" fill="white" transform="translate(0.75 0.5)"/>
</clipPath>
</defs>
</svg>
