<svg width="37" height="37" viewBox="0 0 37 37" fill="none" xmlns="http://www.w3.org/2000/svg">
<path d="M31.4375 4.43799H5.5625C4.94023 4.43799 4.4375 4.94072 4.4375 5.56299V31.438C4.4375 32.0603 4.94023 32.563 5.5625 32.563H31.4375C32.0598 32.563 32.5625 32.0603 32.5625 31.438V5.56299C32.5625 4.94072 32.0598 4.43799 31.4375 4.43799ZM28.1891 12.647H25.9426C24.1812 12.647 23.8402 13.4837 23.8402 14.7142V17.4247H28.0449L27.4965 21.6681H23.8402V32.563H19.4563V21.6716H15.7895V17.4247H19.4563V14.2958C19.4563 10.6642 21.6746 8.68486 24.916 8.68486C26.4699 8.68486 27.8023 8.80088 28.1926 8.85361V12.647H28.1891Z" fill="#1A1A1A"/>
</svg>
