<svg width="37" height="37" viewBox="0 0 37 37" fill="none" xmlns="http://www.w3.org/2000/svg">
<path d="M18.5002 13.8144C15.9197 13.8144 13.8138 15.9203 13.8138 18.5008C13.8138 21.0812 15.9197 23.1871 18.5002 23.1871C21.0806 23.1871 23.1865 21.0812 23.1865 18.5008C23.1865 15.9203 21.0806 13.8144 18.5002 13.8144ZM32.5556 18.5008C32.5556 16.5601 32.5732 14.6371 32.4642 12.7C32.3552 10.45 31.842 8.4531 30.1967 6.80778C28.5478 5.15896 26.5545 4.64919 24.3045 4.54021C22.3638 4.43122 20.4408 4.4488 18.5037 4.4488C16.5631 4.4488 14.64 4.43122 12.7029 4.54021C10.4529 4.64919 8.45603 5.16247 6.81071 6.80778C5.16189 8.45661 4.65212 10.45 4.54314 12.7C4.43415 14.6406 4.45173 16.5636 4.45173 18.5008C4.45173 20.4379 4.43415 22.3644 4.54314 24.3015C4.65212 26.5515 5.1654 28.5484 6.81071 30.1937C8.45954 31.8425 10.4529 32.3523 12.7029 32.4613C14.6435 32.5703 16.5666 32.5527 18.5037 32.5527C20.4443 32.5527 22.3674 32.5703 24.3045 32.4613C26.5545 32.3523 28.5513 31.839 30.1967 30.1937C31.8455 28.5449 32.3552 26.5515 32.4642 24.3015C32.5767 22.3644 32.5556 20.4414 32.5556 18.5008ZM18.5002 25.7113C14.5099 25.7113 11.2896 22.491 11.2896 18.5008C11.2896 14.5105 14.5099 11.2902 18.5002 11.2902C22.4904 11.2902 25.7107 14.5105 25.7107 18.5008C25.7107 22.491 22.4904 25.7113 18.5002 25.7113ZM26.006 12.6789C25.0744 12.6789 24.322 11.9265 24.322 10.9949C24.322 10.0633 25.0744 9.31091 26.006 9.31091C26.9377 9.31091 27.69 10.0633 27.69 10.9949C27.6903 11.2161 27.6469 11.4352 27.5624 11.6397C27.4779 11.8441 27.3538 12.0298 27.1974 12.1863C27.041 12.3427 26.8552 12.4667 26.6508 12.5513C26.4464 12.6358 26.2272 12.6792 26.006 12.6789Z" fill="#1A1A1A"/>
</svg>
