<svg width="19" height="24" viewBox="0 0 19 24" fill="none" xmlns="http://www.w3.org/2000/svg">
<path d="M5.71531 9.1434C5.72715 8.2378 6.09217 7.37263 6.73257 6.73222C7.37298 6.09181 8.23816 5.7268 9.14376 5.71496C10.0494 5.7268 10.9145 6.09181 11.5549 6.73222C12.1954 7.37263 12.5604 8.2378 12.5722 9.1434C12.5604 10.049 12.1954 10.9142 11.5549 11.5546C10.9145 12.195 10.0494 12.56 9.14376 12.5718C8.23816 12.56 7.37298 12.195 6.73257 11.5546C6.09217 10.9142 5.72715 10.049 5.71531 9.1434ZM9.14376 19.4287L13.715 20.5716V17.0517C12.3364 17.8819 10.7529 18.3094 9.14376 18.2859C7.53465 18.3094 5.9511 17.8819 4.5725 17.0517V20.5716M9.14376 2.28651C8.24319 2.27008 7.34876 2.438 6.51548 2.77997C5.68219 3.12193 4.92765 3.6307 4.29822 4.27501C3.64695 4.90512 3.13229 5.6625 2.78627 6.50004C2.44024 7.33757 2.27025 8.23735 2.28687 9.1434C2.27496 10.0437 2.44724 10.937 2.79312 11.7683C3.13901 12.5996 3.6512 13.3514 4.29822 13.9775C4.92471 14.628 5.67794 15.1431 6.51136 15.4911C7.34479 15.839 8.24071 16.0123 9.14376 16.0003C10.0468 16.0123 10.9427 15.839 11.7762 15.4911C12.6096 15.1431 13.3628 14.628 13.9893 13.9775C14.6363 13.3514 15.1485 12.5996 15.4944 11.7683C15.8403 10.937 16.0126 10.0437 16.0007 9.1434C16.0173 8.23735 15.8473 7.33757 15.5013 6.50004C15.1552 5.6625 14.6406 4.90512 13.9893 4.27501C13.3599 3.6307 12.6053 3.12193 11.772 2.77997C10.9388 2.438 10.0443 2.27008 9.14376 2.28651ZM18.2863 9.1434C18.262 10.2404 18.0413 11.3241 17.6349 12.3433C17.2687 13.3803 16.7147 14.341 16.0007 15.1775V24L9.14376 21.7144L2.28687 24V15.1775C0.80771 13.5163 -0.00618971 11.3676 0.00123768 9.1434C-0.0189043 7.94411 0.206987 6.75342 0.664965 5.64484C1.12294 4.53626 1.80329 3.53331 2.664 2.69792C3.50248 1.8295 4.51006 1.14213 5.62453 0.678259C6.739 0.214387 7.93672 -0.0161494 9.14376 0.000879042C10.3508 -0.0161494 11.5485 0.214387 12.663 0.678259C13.7775 1.14213 14.785 1.8295 15.6235 2.69792C16.4842 3.53331 17.1646 4.53626 17.6226 5.64484C18.0805 6.75342 18.3064 7.94411 18.2863 9.1434Z" fill="#333333"/>
</svg>
