<svg width="508" height="522" viewBox="0 0 508 522" fill="none" xmlns="http://www.w3.org/2000/svg">
<path fill-rule="evenodd" clip-rule="evenodd" d="M201.441 188.17C198.624 188.17 196.34 186.116 196.34 183.581V74.3228H364.778V183.581C364.778 186.116 362.494 188.17 359.676 188.17H201.441Z" fill="#E4EBF7"/>
<path d="M351.872 84.2244H254.339C253.216 84.2244 252.306 85.141 252.306 86.2717V177.905C252.306 179.035 253.216 179.952 254.339 179.952H351.872C352.995 179.952 353.905 179.035 353.905 177.905V86.2717C353.905 85.141 352.995 84.2244 351.872 84.2244Z" fill="white"/>
<path d="M242.148 83.4626H208.961C207.838 83.4626 206.928 84.3793 206.928 85.51V177.143C206.928 178.274 207.838 179.19 208.961 179.19H242.148C243.271 179.19 244.181 178.274 244.181 177.143V85.51C244.181 84.3793 243.271 83.4626 242.148 83.4626Z" fill="white"/>
<path d="M235.026 121.545H216.402C215.764 121.545 215.247 122.066 215.247 122.708V125.585C215.247 126.227 215.764 126.747 216.402 126.747H235.026C235.663 126.747 236.18 126.227 236.18 125.585V122.708C236.18 122.066 235.663 121.545 235.026 121.545Z" fill="#554AF0"/>
<path d="M235.043 131.447H216.384C215.756 131.447 215.247 131.96 215.247 132.592V135.346C215.247 135.979 215.756 136.491 216.384 136.491H235.043C235.671 136.491 236.18 135.979 236.18 135.346V132.592C236.18 131.96 235.671 131.447 235.043 131.447Z" fill="#ADC6FF"/>
<path d="M235.043 141.348H216.384C215.756 141.348 215.247 141.861 215.247 142.493V145.247C215.247 145.88 215.756 146.393 216.384 146.393H235.043C235.671 146.393 236.18 145.88 236.18 145.247V142.493C236.18 141.861 235.671 141.348 235.043 141.348Z" fill="#FF7946"/>
<path d="M235.043 151.25H216.384C215.756 151.25 215.247 151.762 215.247 152.395V155.149C215.247 155.781 215.756 156.294 216.384 156.294H235.043C235.671 156.294 236.18 155.781 236.18 155.149V152.395C236.18 151.762 235.671 151.25 235.043 151.25Z" fill="#ADC6FF"/>
<path d="M321.742 154.296H263.493C262.745 154.296 262.138 154.907 262.138 155.661V155.667C262.138 156.42 262.745 157.031 263.493 157.031H321.742C322.491 157.031 323.098 156.42 323.098 155.667V155.661C323.098 154.907 322.491 154.296 321.742 154.296Z" fill="#554AF0"/>
<path d="M321.742 168.768H263.493C262.745 168.768 262.138 169.379 262.138 170.132V170.138C262.138 170.892 262.745 171.503 263.493 171.503H321.742C322.491 171.503 323.098 170.892 323.098 170.138V170.132C323.098 169.379 322.491 168.768 321.742 168.768Z" fill="#554AF0"/>
<path d="M342.062 161.151H263.493C262.745 161.151 262.138 161.762 262.138 162.516V162.521C262.138 163.275 262.745 163.886 263.493 163.886H342.062C342.811 163.886 343.417 163.275 343.417 162.521V162.516C343.417 161.762 342.811 161.151 342.062 161.151Z" fill="#554AF0"/>
<path d="M341.108 93.3643H264.848C263.351 93.3643 262.138 94.5864 262.138 96.094V145.473C262.138 146.981 263.351 148.203 264.848 148.203H341.108C342.605 148.203 343.818 146.981 343.818 145.473V96.094C343.818 94.5864 342.605 93.3643 341.108 93.3643Z" fill="#554AF0"/>
<path fill-rule="evenodd" clip-rule="evenodd" d="M364.938 76.1646H196.509V64.4667C196.509 61.9292 198.56 59.8718 201.09 59.8718H360.357C362.887 59.8718 364.938 61.9292 364.938 64.4667V76.1646Z" fill="#253368"/>
<path fill-rule="evenodd" clip-rule="evenodd" d="M208.319 67.5214C208.319 69.1139 207.04 70.4051 205.462 70.4051C203.884 70.4051 202.605 69.1139 202.605 67.5214C202.605 65.9289 203.884 64.6377 205.462 64.6377C207.04 64.6377 208.319 65.9289 208.319 67.5214Z" fill="#FF7946"/>
<path fill-rule="evenodd" clip-rule="evenodd" d="M218.987 67.5214C218.987 69.1139 217.708 70.4051 216.13 70.4051C214.552 70.4051 213.273 69.1139 213.273 67.5214C213.273 65.9289 214.552 64.6377 216.13 64.6377C217.708 64.6377 218.987 65.9289 218.987 67.5214Z" fill="#FAAD14"/>
<path fill-rule="evenodd" clip-rule="evenodd" d="M229.655 67.5214C229.655 69.1139 228.376 70.4051 226.798 70.4051C225.22 70.4051 223.941 69.1139 223.941 67.5214C223.941 65.9289 225.22 64.6377 226.798 64.6377C228.376 64.6377 229.655 65.9289 229.655 67.5214Z" fill="#7CB305"/>
<path d="M226.209 110.923C231.374 110.923 235.56 106.659 235.56 101.399C235.56 96.1392 231.374 91.8752 226.209 91.8752C221.045 91.8752 216.859 96.1392 216.859 101.399C216.859 106.659 221.045 110.923 226.209 110.923Z" fill="#FAAD14"/>
<path d="M226.21 110.923C228.905 110.924 231.462 109.712 233.196 107.61C231.83 104.969 229.14 103.315 226.208 103.315C223.277 103.315 220.586 104.969 219.22 107.61C220.955 109.712 223.514 110.925 226.21 110.923Z" fill="#253368"/>
<path d="M226.259 103.694C228.201 103.694 229.776 102.09 229.776 100.112C229.776 98.1337 228.201 96.53 226.259 96.53C224.317 96.53 222.742 98.1337 222.742 100.112C222.742 102.09 224.317 103.694 226.259 103.694Z" fill="#253368"/>
<path d="M344.078 112.406C344.287 112.406 344.456 112.576 344.456 112.786C344.456 112.987 344.302 113.152 344.106 113.166L344.078 113.167H262.894C262.685 113.167 262.516 112.997 262.516 112.786C262.516 112.586 262.67 112.421 262.866 112.407L262.894 112.406H344.078Z" fill="white"/>
<path d="M281.045 92.6663C281.245 92.6663 281.408 92.8216 281.422 93.0187L281.424 93.0471V148.203C281.424 148.413 281.254 148.584 281.045 148.584C280.846 148.584 280.683 148.428 280.668 148.231L280.667 148.203V93.0471C280.667 92.8368 280.837 92.6663 281.045 92.6663Z" fill="white"/>
<path d="M302.978 92.6663C303.177 92.6663 303.341 92.8216 303.355 93.0187L303.356 93.0471V148.203C303.356 148.413 303.187 148.584 302.978 148.584C302.779 148.584 302.615 148.428 302.601 148.231L302.6 148.203V93.0471C302.6 92.8368 302.769 92.6663 302.978 92.6663Z" fill="white"/>
<path d="M324.155 92.6663C324.354 92.6663 324.517 92.8216 324.532 93.0187L324.533 93.0471V148.203C324.533 148.413 324.363 148.584 324.155 148.584C323.955 148.584 323.792 148.428 323.777 148.231L323.776 148.203V93.0471C323.776 92.8368 323.946 92.6663 324.155 92.6663Z" fill="white"/>
<path d="M344.078 130.685C344.287 130.685 344.456 130.856 344.456 131.066C344.456 131.267 344.302 131.431 344.106 131.446L344.078 131.447H262.894C262.685 131.447 262.516 131.276 262.516 131.066C262.516 130.865 262.67 130.701 262.866 130.686L262.894 130.685H344.078Z" fill="white"/>
<path fill-rule="evenodd" clip-rule="evenodd" d="M331.445 163.925C331.445 163.925 325.457 143.202 317.49 137.572C315.048 137.558 317.198 140.896 318.783 143.62C319.593 145.013 320.094 146.75 320.094 146.75C320.094 146.75 316.765 146.254 317.285 149.145C314.612 148.899 315.454 151.966 315.454 151.966C315.454 151.966 313.394 151.882 313.937 154.72C314.311 156.672 316.946 159.03 317.301 161.12C318.216 166.507 322.841 168.303 324.335 168.608C328.117 169.379 330.325 168.023 331.445 163.925Z" fill="#997C79"/>
<path d="M324.904 148.545C324.345 145.997 323.268 144.863 322.24 145.773C321.413 146.505 321.195 148.409 321.815 150.17L321.951 150.559C322.97 153.531 323.013 154.688 322.497 155.906L322.388 156.148C322.18 156.602 322.076 156.893 322.02 157.27L321.938 157.926C321.818 158.923 321.796 159.664 321.922 160.437C322.195 162.118 323.158 163.346 325.011 163.942C325.201 164.003 325.405 163.897 325.466 163.705C325.527 163.513 325.421 163.308 325.231 163.246C323.65 162.737 322.867 161.74 322.636 160.319C322.533 159.683 322.542 159.053 322.633 158.225L322.667 157.93C322.684 157.795 322.714 157.557 322.722 157.484C322.759 157.169 322.828 156.944 322.989 156.581L323.085 156.368C323.784 154.846 323.753 153.487 322.497 149.925C321.967 148.418 322.149 146.825 322.717 146.322C323.125 145.962 323.742 146.615 324.195 148.69L324.226 148.837L324.245 148.901L326.921 155.476C326.997 155.663 327.208 155.752 327.393 155.676C327.563 155.605 327.651 155.42 327.606 155.246L327.591 155.199L324.927 148.654L324.904 148.545Z" fill="#7C5B4D"/>
<path d="M317.14 148.81C316.956 148.891 316.873 149.107 316.953 149.291L317.042 149.491L317.219 149.872C317.241 149.917 317.263 149.963 317.285 150.01C317.543 150.546 317.821 151.083 318.109 151.586C318.46 152.197 318.802 152.716 319.13 153.115C319.688 153.793 320.201 154.135 320.72 153.999C321.938 153.679 322.328 152.775 322.049 151.602C321.951 151.192 321.777 150.763 321.549 150.328C321.424 150.092 321.291 149.868 321.158 149.663L321.051 149.502C321.02 149.458 320.995 149.422 320.976 149.396C320.856 149.235 320.629 149.201 320.469 149.322C320.309 149.442 320.276 149.671 320.395 149.832L320.474 149.946C320.497 149.98 320.524 150.019 320.553 150.063C320.674 150.25 320.796 150.455 320.909 150.671C321.111 151.055 321.263 151.429 321.345 151.772C321.54 152.593 321.328 153.084 320.538 153.292C320.389 153.331 320.077 153.123 319.688 152.649C319.389 152.286 319.068 151.799 318.736 151.22C318.458 150.735 318.188 150.213 317.937 149.691L317.754 149.304L317.616 148.998C317.536 148.814 317.323 148.729 317.14 148.81Z" fill="#7C5B4D"/>
<path d="M315.471 151.767C315.279 151.824 315.169 152.026 315.225 152.22L315.26 152.333L315.277 152.388C315.319 152.517 315.369 152.661 315.426 152.816C315.589 153.258 315.781 153.7 316.001 154.115C316.679 155.393 317.476 156.168 318.447 156.132C319.433 156.096 319.917 155.452 319.971 154.503C319.991 154.166 319.956 153.813 319.887 153.465C319.853 153.297 319.819 153.166 319.795 153.088C319.736 152.895 319.533 152.787 319.342 152.847C319.151 152.907 319.044 153.111 319.104 153.304L319.124 153.376C319.14 153.435 319.158 153.514 319.177 153.609C319.235 153.901 319.264 154.194 319.249 154.461C319.213 155.07 318.98 155.382 318.42 155.402C317.817 155.424 317.198 154.823 316.64 153.771C316.436 153.387 316.257 152.974 316.104 152.56C316.069 152.464 316.036 152.372 316.007 152.286L315.92 152.015C315.864 151.822 315.663 151.711 315.471 151.767Z" fill="#7C5B4D"/>
<path d="M313.812 153.942C313.616 153.981 313.489 154.174 313.529 154.371L313.562 154.525C313.59 154.642 313.623 154.773 313.663 154.913C313.775 155.315 313.915 155.717 314.083 156.095C314.703 157.489 315.566 158.248 316.705 157.863C317.551 157.577 317.888 156.962 317.76 156.202C317.705 155.871 317.567 155.532 317.372 155.193C317.224 154.934 317.075 154.729 316.972 154.604C316.843 154.449 316.615 154.428 316.462 154.558C316.308 154.687 316.288 154.917 316.416 155.072L316.466 155.135C316.48 155.154 316.497 155.177 316.515 155.203C316.594 155.312 316.673 155.432 316.746 155.559C316.901 155.829 317.008 156.092 317.046 156.323C317.116 156.739 316.972 157.002 316.475 157.17C315.807 157.396 315.229 156.889 314.743 155.796C314.591 155.454 314.463 155.084 314.359 154.714L314.311 154.538C314.276 154.401 314.252 154.295 314.238 154.228C314.202 154.047 314.039 153.924 313.861 153.935L313.812 153.942Z" fill="#7C5B4D"/>
<path fill-rule="evenodd" clip-rule="evenodd" d="M345.144 216.009C349.091 219.507 355.077 219.217 358.674 215.353L388.963 182.816C393.303 178.153 392.953 170.791 388.189 166.57C383.426 162.349 376.144 162.948 372.12 167.891L344.043 202.389C340.709 206.486 341.196 212.512 345.144 216.009Z" fill="#ADC6FF"/>
<path fill-rule="evenodd" clip-rule="evenodd" d="M331.345 161.878L319.725 168.806L343.101 213.965C345.843 218.88 352.13 220.437 356.816 217.361C361.391 214.358 362.602 208.136 359.491 203.611L331.345 161.878Z" fill="#ADC6FF"/>
<path d="M331.674 161.592C331.579 161.436 331.386 161.378 331.224 161.448L331.176 161.474L319.989 168.47C319.819 168.576 319.766 168.802 319.872 168.973C319.967 169.129 320.161 169.187 320.323 169.116L320.37 169.091L331.557 162.094C331.727 161.988 331.78 161.763 331.674 161.592Z" fill="#554AF0"/>
<path d="M334.459 167.144C334.359 166.991 334.164 166.939 334.004 167.014L333.958 167.04L323.147 174.23C322.98 174.341 322.934 174.568 323.044 174.736C323.144 174.889 323.338 174.942 323.498 174.867L323.545 174.84L334.356 167.65C334.523 167.539 334.569 167.313 334.459 167.144Z" fill="#554AF0"/>
<path fill-rule="evenodd" clip-rule="evenodd" d="M322.777 169.675C322.345 169.943 322.211 170.512 322.476 170.948C322.742 171.383 323.307 171.519 323.738 171.251C324.17 170.983 324.304 170.413 324.039 169.978C323.773 169.542 323.208 169.407 322.777 169.675Z" fill="white"/>
<path fill-rule="evenodd" clip-rule="evenodd" d="M435.155 415.535C435.155 415.535 440.093 428.008 452.016 431.137C459.823 433.185 451.474 440.137 437.77 436.584C429.958 434.558 431.911 430.583 427.519 430.317C424.973 430.163 419.93 428.537 419.792 426.579C419.552 423.157 419.489 422.198 419.466 418.214C419.324 394.608 428.493 394.324 435.155 415.535Z" fill="#253368"/>
<path fill-rule="evenodd" clip-rule="evenodd" d="M423.29 237.101C423.29 237.101 388.044 237.48 383.201 237.286C380.679 237.185 377.27 252.898 377.127 263.59C378.733 266.865 392.686 273.446 399.826 276.764C402.525 278.019 405.004 277.337 405.004 277.337C408.554 278.285 429.371 262.815 429.371 262.815C429.371 262.815 429.035 245.751 423.29 237.101Z" fill="#4E5C93"/>
<path fill-rule="evenodd" clip-rule="evenodd" d="M382.495 232.799L382.299 237.73C382.299 237.73 387.921 240.016 401.551 240.977C414.665 241.903 423.474 238.57 423.474 238.57L423.356 233.364C423.356 233.364 406.537 238.71 382.495 232.799Z" fill="black"/>
<path fill-rule="evenodd" clip-rule="evenodd" d="M394.688 239.794L394.724 236.209C394.734 235.199 395.553 234.409 396.508 234.495C398.797 234.701 402.844 234.995 405.789 234.82C406.752 234.763 407.544 235.6 407.504 236.616L407.358 240.276C407.325 241.132 406.704 241.831 405.896 241.931C403.978 242.169 400.284 242.401 396.019 241.512C395.242 241.35 394.679 240.63 394.688 239.794Z" fill="#E4EBF7"/>
<path fill-rule="evenodd" clip-rule="evenodd" d="M396.177 239.363L396.195 236.827C396.201 236.112 396.83 235.556 397.567 235.619C399.333 235.771 402.456 235.989 404.727 235.873C405.47 235.836 406.083 236.429 406.055 237.147L405.952 239.737C405.928 240.342 405.451 240.835 404.829 240.904C403.349 241.067 400.5 241.222 397.208 240.582C396.607 240.465 396.172 239.954 396.177 239.363Z" fill="black"/>
<path fill-rule="evenodd" clip-rule="evenodd" d="M395.138 153.985L396.812 142.615L413.766 138.533L414.729 155.097C414.785 159.026 411.714 162.699 408.037 163.997C407.655 164.132 407.26 164.25 406.855 164.348C400.735 165.822 394.516 160.302 395.138 153.985Z" fill="#997C79"/>
<path fill-rule="evenodd" clip-rule="evenodd" d="M420.217 131.161C417.435 143.667 408.324 148.719 399.966 148.522C390.002 148.287 388.408 139.51 389.872 127.071C391.359 114.441 397.067 110.519 406.422 110.916C416.175 111.331 423.035 118.493 420.217 131.161Z" fill="#997C79"/>
<path fill-rule="evenodd" clip-rule="evenodd" d="M413.222 132.513C413.584 131.547 413.981 129.914 415.599 129.368C417.824 128.618 419.556 131.223 419.061 133.848C418.462 137.032 415.515 138.773 413.924 138.671C413.862 141.826 413.985 143.514 413.985 143.514C413.985 143.514 417.734 140.28 420.063 134.993C423.696 126.744 421.789 115.018 412.549 111.63C396.441 107.548 392.667 117.255 392.667 117.255L410.946 118.296L410.05 124.42C410.05 124.42 413.292 124.833 412.122 132.073L413.222 132.513Z" fill="#604346"/>
<path d="M400.331 124.874C400.132 124.856 399.955 125.004 399.937 125.204C399.92 125.389 400.042 125.553 400.216 125.594L400.264 125.602L405.884 126.124L407.617 126.802C407.788 126.869 407.978 126.796 408.064 126.639L408.085 126.594C408.151 126.422 408.079 126.23 407.923 126.143L407.879 126.122L406.098 125.425L406 125.402L400.331 124.874Z" fill="#604346"/>
<path fill-rule="evenodd" clip-rule="evenodd" d="M407.661 141.91C405.777 138.776 406.149 136.121 397.497 135.67C393.288 135.451 391.71 136.743 389.971 140.03C390.762 145.336 394.765 148.927 400.409 148.886C412.266 148.799 413.624 136.935 413.624 136.935C413.624 136.935 411.933 137.246 411.335 138.101C409.68 140.464 408.671 141.014 407.661 141.91Z" fill="#7C5B4D"/>
<path fill-rule="evenodd" clip-rule="evenodd" d="M394.393 137.933C394.393 137.933 397.431 138.334 402.136 138.223C402.136 138.223 401.315 140.128 397.945 139.912C395.3 139.743 394.393 137.933 394.393 137.933Z" fill="white"/>
<path d="M394.428 137.662L394.685 137.692L395.156 137.74C395.426 137.765 395.726 137.791 396.054 137.815C397.824 137.944 399.87 138.002 402.13 137.949C402.316 137.944 402.446 138.124 402.398 138.297L402.38 138.343C402.231 138.663 401.918 139.062 401.389 139.423C400.557 139.989 399.416 140.281 397.928 140.185C396.763 140.111 395.823 139.731 395.092 139.143C394.594 138.743 394.291 138.339 394.15 138.057C394.052 137.861 394.211 137.633 394.428 137.662ZM394.968 138.272L394.987 138.295C395.115 138.438 395.262 138.58 395.43 138.715C396.076 139.234 396.91 139.571 397.962 139.639C399.334 139.727 400.355 139.465 401.085 138.968L401.183 138.899C401.342 138.782 401.474 138.664 401.58 138.55L401.618 138.507L401.298 138.511C399.492 138.533 397.833 138.483 396.353 138.385L396.014 138.361C395.749 138.342 395.501 138.321 395.273 138.301L394.968 138.272Z" fill="#604346"/>
<path d="M395.793 124.519C395.614 124.556 395.492 124.72 395.503 124.9L395.509 124.949L395.907 126.952L393.962 134.251C393.771 134.966 394.246 135.681 394.962 135.786L395.039 135.795L399.603 136.171C399.802 136.187 399.977 136.038 399.993 135.837C400.008 135.652 399.885 135.489 399.711 135.45L399.662 135.443L395.098 135.067C394.81 135.043 394.607 134.777 394.649 134.497L394.661 134.44L396.627 127.06C396.637 127.023 396.641 126.986 396.639 126.949L396.633 126.893L396.219 124.806C396.183 124.625 396.02 124.502 395.842 124.513L395.793 124.519Z" fill="#604346"/>
<path d="M396.9 141.876C396.75 141.863 396.619 141.974 396.606 142.125C396.594 142.261 396.683 142.382 396.809 142.414L396.853 142.422L399.036 142.611C399.186 142.624 399.317 142.513 399.33 142.362C399.342 142.226 399.253 142.105 399.127 142.073L399.083 142.066L396.9 141.876Z" fill="#604346"/>
<path d="M390.819 124.023C390.62 124.004 390.443 124.151 390.424 124.351C390.406 124.535 390.527 124.701 390.7 124.742L390.749 124.75L395.558 125.223C395.757 125.243 395.934 125.096 395.953 124.895C395.971 124.711 395.85 124.546 395.677 124.505L395.628 124.496L390.819 124.023Z" fill="#604346"/>
<path d="M407.354 147.319C407.289 147.183 407.127 147.126 406.991 147.191C403.699 148.787 400.446 148.972 397.601 148.331C397.346 148.274 397.113 148.213 396.906 148.152L396.756 148.106C396.612 148.06 396.515 148.026 396.467 148.007C396.328 147.952 396.17 148.021 396.115 148.162C396.061 148.303 396.13 148.462 396.269 148.517L396.395 148.563C396.449 148.582 396.516 148.604 396.594 148.628C396.851 148.71 397.148 148.79 397.483 148.866C400.438 149.532 403.812 149.34 407.227 147.685C407.362 147.619 407.419 147.456 407.354 147.319Z" fill="#604346"/>
<path d="M416.769 130.796C416.353 130.716 415.897 130.749 415.461 130.978C414.761 131.346 414.286 132.146 414.118 133.445C414.099 133.586 414.191 133.718 414.329 133.748C415.023 133.902 415.34 134.206 415.357 134.586C415.374 134.934 415.136 135.35 414.758 135.629C414.637 135.718 414.611 135.89 414.699 136.012C414.788 136.134 414.958 136.16 415.079 136.071C415.593 135.692 415.926 135.11 415.9 134.56C415.873 133.987 415.48 133.541 414.769 133.302L414.692 133.278L414.7 133.231C414.862 132.319 415.195 131.771 415.644 131.502L415.712 131.464C416.024 131.3 416.362 131.275 416.667 131.334L416.753 131.353C416.759 131.355 416.763 131.356 416.767 131.357C416.909 131.404 417.063 131.326 417.109 131.182C417.156 131.038 417.078 130.884 416.936 130.837L416.867 130.817C416.839 130.81 416.806 130.803 416.769 130.796Z" fill="#604346"/>
<path d="M401.557 128.492C401.357 128.479 401.185 128.632 401.173 128.833C401.107 129.879 401.864 130.785 402.872 130.85C403.88 130.914 404.744 130.112 404.811 129.066C404.823 128.864 404.672 128.691 404.472 128.678C404.273 128.665 404.101 128.818 404.088 129.019C404.047 129.67 403.52 130.159 402.918 130.121C402.316 130.082 401.854 129.529 401.895 128.879C401.908 128.678 401.756 128.505 401.557 128.492Z" fill="#604346"/>
<path d="M391.487 127.847C391.288 127.834 391.116 127.987 391.103 128.188C391.037 129.234 391.794 130.14 392.802 130.205C393.811 130.269 394.675 129.467 394.741 128.421C394.753 128.22 394.602 128.046 394.402 128.033C394.203 128.021 394.031 128.173 394.018 128.375C393.977 129.025 393.45 129.515 392.848 129.477C392.246 129.438 391.784 128.885 391.825 128.235C391.838 128.034 391.687 127.86 391.487 127.847Z" fill="#604346"/>
<path fill-rule="evenodd" clip-rule="evenodd" d="M421.603 340.868C427.833 340.362 432.559 334.988 432.315 328.688L429.798 263.525C429.482 255.364 422.495 249.11 414.426 249.766C406.372 250.42 400.472 257.694 401.429 265.787L409.092 330.54C409.834 336.814 415.359 341.375 421.603 340.868Z" fill="#4E5C93"/>
<path fill-rule="evenodd" clip-rule="evenodd" d="M419.273 414.744L408.959 330.711C408.127 323.926 413.107 317.826 419.868 317.351C426.478 316.885 432.176 321.993 432.496 328.67L436.548 413.271C436.548 413.271 429.499 417.767 419.273 414.744Z" fill="#4E5C93"/>
<path fill-rule="evenodd" clip-rule="evenodd" d="M380.034 414.733C380.034 414.733 374.758 427.064 362.753 429.86C354.894 431.691 363.05 438.872 376.845 435.701C384.71 433.893 382.866 429.866 387.264 429.721C389.813 429.638 394.899 428.153 395.09 426.2C395.424 422.786 395.512 421.829 395.644 417.848C396.43 394.253 387.273 393.715 380.034 414.733Z" fill="#253368"/>
<path fill-rule="evenodd" clip-rule="evenodd" d="M389.674 342.271C383.423 342.136 378.391 337.05 378.269 330.743L377.006 265.54C376.848 257.377 383.457 250.723 391.548 250.897C399.629 251.072 405.946 257.987 405.458 266.126L401.559 331.223C401.181 337.528 395.934 342.406 389.674 342.271Z" fill="#4E5C93"/>
<path fill-rule="evenodd" clip-rule="evenodd" d="M396.813 414.78L401.575 332.334C401.956 325.735 396.83 320.136 390.28 319.995C383.783 319.855 378.447 325.142 378.47 331.697L378.76 414.391C378.76 414.391 386.782 418.405 396.813 414.78Z" fill="#4E5C93"/>
<path fill-rule="evenodd" clip-rule="evenodd" d="M380.835 223.842C380.835 223.842 371.662 185.468 376.18 165.435C381.524 162.217 385.582 162.101 394.884 159.065C396.749 158.456 400.67 162.957 402.988 162.877C406.414 162.759 413.444 157.943 416.634 158.676C430.589 161.883 435.452 164.143 435.452 164.143L432.825 191.888C429.682 207.007 425.188 222.406 425.188 222.406C425.188 222.406 432.568 232.801 417.404 234.737C406.841 236.086 389.193 236.479 382.553 232.503C379.66 230.77 379.361 227.628 380.835 223.842Z" fill="#ADC6FF"/>
<path fill-rule="evenodd" clip-rule="evenodd" d="M395.072 155.228L391.248 160.2L395.933 169.318L403.474 161.915L395.072 155.228Z" fill="#ADC6FF"/>
<path fill-rule="evenodd" clip-rule="evenodd" d="M403.408 161.923L414.233 155.353L417.578 159.237L410.725 168.792L403.408 161.923Z" fill="#ADC6FF"/>
<path fill-rule="evenodd" clip-rule="evenodd" d="M397.542 167.583L403.296 161.834L408.893 167.842L405.512 174.246L399.115 174.083L397.542 167.583Z" fill="#253368"/>
<path fill-rule="evenodd" clip-rule="evenodd" d="M399.149 174.035L405.478 174.002L408.74 213.546L399.504 226.581L391.614 213.059L399.149 174.035Z" fill="#253368"/>
<path d="M417.803 158.988C417.653 158.885 417.453 158.911 417.334 159.043L417.3 159.085L410.665 168.947L403.556 161.58C403.431 161.45 403.233 161.434 403.09 161.535L403.049 161.568L395.851 168.381L392.124 159.922C392.05 159.753 391.864 159.669 391.693 159.719L391.647 159.736C391.479 159.811 391.396 159.999 391.446 160.172L391.463 160.218L395.397 169.147C395.491 169.361 395.752 169.428 395.935 169.299L395.975 169.265L403.286 162.346L410.456 169.777C410.603 169.93 410.845 169.922 410.982 169.769L411.015 169.728L417.899 159.495C418.012 159.328 417.969 159.101 417.803 158.988Z" fill="#554AF0"/>
<path d="M399.385 173.867C399.185 173.867 399.023 174.03 399.023 174.232C399.023 174.417 399.159 174.57 399.336 174.594L399.385 174.597H405.066C405.266 174.597 405.428 174.434 405.428 174.232C405.428 174.047 405.292 173.894 405.116 173.87L405.066 173.867H399.385Z" fill="#554AF0"/>
<path d="M375.826 175.919C375.626 175.909 375.456 176.064 375.446 176.266C375.248 180.212 375.322 184.579 375.638 189.298C376.077 195.852 376.962 202.849 378.163 209.97C378.743 213.406 379.361 216.664 379.982 219.657L380.106 220.252C380.291 221.136 380.466 221.944 380.628 222.671L380.86 223.699L380.956 224.114L380.841 224.332C380.702 224.606 380.563 224.913 380.434 225.248C379.929 226.553 379.703 227.888 379.919 229.151C380.207 230.84 381.264 232.208 383.213 233.119C383.394 233.203 383.609 233.124 383.693 232.941C383.777 232.758 383.698 232.541 383.517 232.456C381.782 231.646 380.879 230.477 380.632 229.027C380.443 227.915 380.647 226.705 381.108 225.513C381.204 225.265 381.306 225.033 381.408 224.821L381.485 224.666C381.561 224.516 381.619 224.413 381.651 224.361C381.7 224.278 381.716 224.179 381.693 224.085L381.529 223.377L381.334 222.511C381.193 221.878 381.042 221.182 380.883 220.428L380.814 220.101C380.154 216.956 379.493 213.502 378.877 209.847C377.68 202.749 376.797 195.776 376.36 189.249C376.046 184.557 375.973 180.218 376.169 176.303C376.179 176.101 376.026 175.93 375.826 175.919Z" fill="#554AF0"/>
<path fill-rule="evenodd" clip-rule="evenodd" d="M391.116 231.008L380.641 197.952C380.468 197.407 379.97 197.034 379.403 197.027L350.03 196.626C349.117 196.614 348.468 197.517 348.764 198.388L359.699 230.566C359.875 231.083 360.347 231.439 360.889 231.463L389.802 232.743C390.719 232.783 391.396 231.89 391.116 231.008Z" fill="#A3B5D6"/>
<path fill-rule="evenodd" clip-rule="evenodd" d="M379.275 198.125C379.066 197.465 378.462 197.014 377.775 197.005L348.04 196.598C347.402 196.59 346.948 197.222 347.155 197.831L358.241 230.454C358.436 231.027 358.958 231.422 359.558 231.448L387.977 232.705C389.087 232.755 389.906 231.673 389.568 230.605L379.275 198.125Z" fill="#253368"/>
<path fill-rule="evenodd" clip-rule="evenodd" d="M375.249 200.135C374.917 200.508 375.036 201.163 375.516 201.599C375.996 202.034 376.655 202.085 376.987 201.712C377.32 201.339 377.201 200.683 376.721 200.248C376.24 199.812 375.581 199.762 375.249 200.135Z" fill="#4E5C93"/>
<path fill-rule="evenodd" clip-rule="evenodd" d="M375.644 200.525C375.471 200.718 375.534 201.058 375.783 201.285C376.032 201.511 376.373 201.537 376.546 201.343C376.719 201.15 376.657 200.809 376.407 200.583C376.158 200.357 375.817 200.331 375.644 200.525Z" fill="#E4EBF7"/>
<path fill-rule="evenodd" clip-rule="evenodd" d="M378.041 224.792C376.353 224.627 375.465 223.915 375.625 222.497C373.595 221.853 373.822 220.118 373.822 220.118C373.822 220.118 369.915 220.058 369.258 218.374C369.002 217.72 369.498 217.02 370.193 216.972C378.564 216.4 384.533 211.925 384.533 211.925C384.533 211.925 381.242 207.05 381.59 204.8C381.693 204.134 382.555 203.92 382.958 204.456C386.41 209.051 393.33 212.654 393.33 212.654C393.33 212.654 401.638 220.505 392.626 224.066C392.626 224.066 385.757 226.827 380.974 226.477C378.71 226.312 378.041 224.792 378.041 224.792Z" fill="#997C79"/>
<path d="M380.068 218.571C379.971 218.395 379.75 218.332 379.576 218.43C378.984 218.764 378.291 219.036 377.517 219.252C376.593 219.51 375.599 219.674 374.598 219.764L374.294 219.789C373.902 219.819 373.566 219.832 373.305 219.835L373.113 219.836C372.913 219.833 372.749 219.994 372.746 220.196C372.744 220.381 372.878 220.535 373.054 220.562L373.103 220.566L373.211 220.566C373.564 220.565 374.064 220.545 374.662 220.492C375.703 220.398 376.739 220.227 377.71 219.956C378.536 219.726 379.283 219.432 379.929 219.068C380.104 218.969 380.166 218.747 380.068 218.571Z" fill="#7C5B4D"/>
<path d="M380.859 221.172C380.772 220.99 380.556 220.914 380.376 221.002C380.299 221.039 380.222 221.075 380.144 221.111C379.16 221.559 378.102 221.847 377.038 222.004C376.483 222.087 376.021 222.122 375.696 222.13L375.532 222.131C375.328 222.128 375.164 222.29 375.161 222.491C375.159 222.676 375.293 222.831 375.469 222.857L375.527 222.861L375.707 222.86C376.062 222.852 376.555 222.814 377.144 222.727C378.269 222.56 379.391 222.255 380.442 221.776C380.526 221.738 380.608 221.699 380.691 221.659C380.871 221.572 380.946 221.353 380.859 221.172Z" fill="#7C5B4D"/>
<path d="M382.349 224.071C382.262 223.89 382.046 223.814 381.866 223.901C381.604 224.029 380.96 224.153 380.087 224.255C379.636 224.307 379.152 224.351 378.667 224.386L378.199 224.418L378.023 224.428C377.823 224.438 377.669 224.61 377.679 224.811C377.69 225.013 377.86 225.168 378.059 225.157L378.242 225.147C378.386 225.138 378.547 225.127 378.719 225.115C379.214 225.079 379.708 225.034 380.17 224.98L380.497 224.94C381.287 224.837 381.861 224.715 382.181 224.559C382.361 224.471 382.436 224.253 382.349 224.071Z" fill="#7C5B4D"/>
<path fill-rule="evenodd" clip-rule="evenodd" d="M446.347 226.939C451.389 225.449 454.352 220.195 453.044 215.061L442.026 171.83C440.447 165.636 434.096 161.992 428.012 163.79C421.928 165.587 418.529 172.112 420.512 178.187L434.356 220.582C436 225.617 441.305 228.429 446.347 226.939Z" fill="#ADC6FF"/>
<path d="M434.448 166.845C434.361 166.663 434.145 166.587 433.965 166.675C430.768 168.233 428.33 171.455 426.534 175.837C425.633 178.036 424.952 180.389 424.459 182.742C424.309 183.462 424.185 184.137 424.087 184.755L424.006 185.292C423.987 185.423 423.97 185.545 423.956 185.656L423.928 185.886C423.924 185.917 423.925 185.948 423.929 185.979L423.939 186.024L430.159 208.594C430.213 208.788 430.412 208.902 430.605 208.848C430.781 208.798 430.891 208.625 430.867 208.447L430.857 208.398L424.655 185.897L424.705 185.521C424.721 185.399 424.741 185.268 424.762 185.127C424.864 184.453 424.998 183.702 425.168 182.892C425.652 180.581 426.321 178.27 427.203 176.116C428.937 171.884 431.273 168.798 434.28 167.332C434.46 167.244 434.535 167.026 434.448 166.845Z" fill="#554AF0"/>
<path fill-rule="evenodd" clip-rule="evenodd" d="M393.246 210.318L393.049 224.985L443.542 227.585C449.125 227.881 453.796 223.358 453.73 217.718C453.666 212.212 449.105 207.849 443.652 208.076L393.246 210.318Z" fill="#ADC6FF"/>
<path d="M440.283 207.716L393.162 209.884C392.986 209.892 392.844 210.026 392.82 210.198L392.817 210.245L392.687 224.982C392.686 225.16 392.811 225.311 392.98 225.344L393.027 225.35L427.246 227.462C427.446 227.474 427.618 227.321 427.63 227.12C427.641 226.935 427.514 226.774 427.339 226.739L427.291 226.733L393.414 224.641L393.538 210.597L440.316 208.446C440.499 208.437 440.644 208.293 440.66 208.114L440.661 208.064C440.652 207.88 440.509 207.733 440.332 207.717L440.283 207.716Z" fill="#554AF0"/>
<path d="M399.201 210.994C399.018 210.999 398.871 211.14 398.852 211.319L398.85 211.369L399.196 223.92C399.202 224.122 399.368 224.281 399.568 224.275C399.751 224.27 399.899 224.128 399.918 223.95L399.92 223.9L399.573 211.348C399.568 211.147 399.401 210.988 399.201 210.994Z" fill="#554AF0"/>
<path fill-rule="evenodd" clip-rule="evenodd" d="M395.58 221.181C395.573 221.692 395.979 222.112 396.485 222.118C396.991 222.126 397.408 221.717 397.415 221.205C397.421 220.695 397.016 220.275 396.51 220.268C396.003 220.261 395.587 220.669 395.58 221.181Z" fill="white"/>
<path d="M395.257 273.667C395.074 273.585 394.86 273.668 394.779 273.852C394.704 274.021 394.767 274.217 394.919 274.311L394.962 274.334L402.341 277.644L418.913 414.788C418.935 414.971 419.089 415.106 419.267 415.109L419.316 415.106C419.498 415.084 419.632 414.929 419.634 414.749L419.632 414.699L403.034 277.35C403.021 277.241 402.96 277.145 402.87 277.087L402.822 277.061L395.257 273.667Z" fill="#253368"/>
<path fill-rule="evenodd" clip-rule="evenodd" d="M134.34 396.537H167.303V389.752H134.34V396.537Z" fill="#253368"/>
<path fill-rule="evenodd" clip-rule="evenodd" d="M159.101 320.467L167.928 430.007H175.508L166.681 320.467H159.101Z" fill="#554AF0"/>
<path fill-rule="evenodd" clip-rule="evenodd" d="M134.962 320.467L126.135 430.007H133.715L142.542 320.467H134.962Z" fill="#554AF0"/>
<path fill-rule="evenodd" clip-rule="evenodd" d="M131.744 327.597C127.834 327.597 124.664 324.405 124.664 320.467C124.664 316.53 127.834 313.337 131.744 313.337H170.591C174.501 313.337 177.671 316.53 177.671 320.467C177.671 324.405 174.501 327.597 170.591 327.597H131.744Z" fill="#A3B5D6"/>
<path fill-rule="evenodd" clip-rule="evenodd" d="M206.341 359.715C206.314 359.529 211.377 405.84 211.462 409.183C211.692 418.304 210.682 419.582 215.575 421.883C216.829 422.472 218.681 421.725 220.697 423.899C226.215 429.847 234.147 433.095 235.052 429.576C235.612 426.287 222.698 416.171 221.268 409.439C219.784 402.446 227.359 347.78 222.475 343.917C217.591 340.054 207.067 321.322 206.341 359.715Z" fill="#FFC999"/>
<path fill-rule="evenodd" clip-rule="evenodd" d="M212.486 423.133C212.486 423.133 210.793 418.216 211.656 412.126C211.656 412.126 215.825 415.778 219.481 419.8C223.702 424.443 224.706 424.66 224.706 424.66C229.916 426.157 231.013 423.147 231.013 423.147C231.013 423.147 233.918 426.734 239.326 430.542C244.168 433.953 225.689 435.11 223.048 430.465C220.407 425.82 217.007 423.15 217.007 423.15L215.723 430.314L213.96 430.305L212.486 423.133Z" fill="#253368"/>
<path fill-rule="evenodd" clip-rule="evenodd" d="M230.035 318.343L223.612 398.004L195.633 395.788C195.633 395.788 197.618 352.6 201.743 316.324C201.743 316.324 202.615 297.267 217.511 298.634C232.407 300 230.035 318.343 230.035 318.343Z" fill="#A3B5D6"/>
<path fill-rule="evenodd" clip-rule="evenodd" d="M214.207 297.176C185.204 293.555 163.786 293.246 157.079 294.94C157.079 294.94 143.156 297.75 145.768 308.544C148.956 321.715 163.926 321.935 163.926 321.935L212.417 325.766C216.272 326.111 228.961 327.589 229.692 312.583C230.383 298.428 214.839 297.255 214.207 297.176Z" fill="#A3B5D6"/>
<path fill-rule="evenodd" clip-rule="evenodd" d="M198.085 230.92C198.085 230.92 175.068 260.126 172.232 264.438C164.433 276.295 179.241 281.523 183.8 275.082C186.661 271.041 190.362 261.843 194.344 254.252C199.958 243.554 203.732 235.566 203.732 235.566L198.085 230.92Z" fill="#FFC999"/>
<path fill-rule="evenodd" clip-rule="evenodd" d="M148.342 182.769C148.342 182.769 167.561 186.511 167.387 197.653C167.297 203.383 161.584 209.455 164.223 211.276C174.536 218.397 163.034 220.899 169.541 226.572C179.221 235.009 172.784 248.79 162.338 247.585C151.517 246.338 156.279 261.975 137.72 257.043C127.261 254.263 124.254 251.842 116.883 247.89C109.513 243.937 105.455 224.157 114.908 214.746C120.787 208.785 126.233 209.533 129.683 199.444C133.132 189.355 136.358 183.203 141.339 184.174C143.233 181.593 148.342 182.769 148.342 182.769Z" fill="#253368"/>
<path fill-rule="evenodd" clip-rule="evenodd" d="M158.976 207.196C159.035 206.982 159.331 206.978 159.397 207.189C159.97 209.056 161.329 214.088 159.377 214.277C157.176 214.491 158.444 209.14 158.976 207.196Z" fill="white"/>
<path fill-rule="evenodd" clip-rule="evenodd" d="M139.77 221.91C140.646 214.253 141.478 207.996 141.478 207.996L153.193 214.654L152.501 223.985C151.967 227.42 148.716 229.728 145.324 229.08C141.737 228.394 139.352 225.562 139.77 221.91Z" fill="#F4B784"/>
<path fill-rule="evenodd" clip-rule="evenodd" d="M147.41 194.55C147.41 194.55 148.709 191.089 151.065 192.767C152.749 193.967 152.301 192.981 152.68 192.049C154.088 188.583 154.777 196.71 160.235 198.496C160.326 202.842 160.347 217.142 151.023 217.683C147.395 217.893 143.014 215.634 141.15 210.341C140.024 207.143 140.976 203.864 142.248 203.216C146.438 201.083 146.359 198.883 147.41 194.55Z" fill="#FFC999"/>
<path d="M155.111 198.402C154.972 198.361 154.827 198.428 154.766 198.556L154.75 198.6L154.099 200.826L154.087 200.915L154.094 201.122C154.097 201.192 154.101 201.274 154.105 201.369L154.124 201.7C154.141 201.989 154.163 202.309 154.191 202.658C154.286 203.84 154.432 205.158 154.637 206.595L154.72 207.15L154.705 207.155C154.311 207.287 153.913 207.38 153.52 207.439L153.285 207.471C152.967 207.508 152.69 207.52 152.468 207.517L152.307 207.511C152.147 207.498 152.007 207.619 151.994 207.78C151.981 207.941 152.101 208.083 152.261 208.095L152.337 208.099C152.604 208.111 152.95 208.1 153.352 208.053C153.944 207.984 154.549 207.845 155.145 207.621C155.274 207.572 155.352 207.438 155.331 207.301C155.064 205.567 154.883 203.993 154.771 202.611L154.741 202.211C154.722 201.954 154.707 201.717 154.695 201.499L154.673 201.038L154.671 200.947L155.308 198.765C155.349 198.626 155.281 198.48 155.155 198.419L155.111 198.402Z" fill="#DD936F"/>
<path d="M149.132 209.115C148.931 209.053 148.719 209.166 148.657 209.368C148.596 209.569 148.708 209.783 148.908 209.845C149.194 209.934 149.492 210.009 149.801 210.071C151.077 210.329 152.424 210.357 153.661 210.253L153.797 210.24L154.04 210.215C154.107 210.207 154.155 210.201 154.181 210.197C154.389 210.167 154.533 209.973 154.503 209.764C154.473 209.555 154.281 209.41 154.073 209.44L153.982 209.452C153.89 209.464 153.76 209.477 153.597 209.491C152.425 209.59 151.145 209.563 149.95 209.322C149.666 209.265 149.392 209.196 149.132 209.115Z" fill="#C44343"/>
<path d="M159.611 197.805C158.503 197.579 156.934 197.672 154.884 198.299C154.684 198.36 154.57 198.573 154.631 198.775C154.692 198.977 154.904 199.091 155.105 199.03C157.037 198.439 158.478 198.354 159.461 198.554L159.582 198.581C159.652 198.598 159.703 198.613 159.734 198.625L159.754 198.632C159.947 198.713 160.169 198.621 160.249 198.426C160.33 198.231 160.238 198.007 160.045 197.926C159.963 197.892 159.819 197.847 159.611 197.805Z" fill="#253368"/>
<path d="M148.374 197.486C147.564 197.362 146.854 197.346 146.268 197.465C146.063 197.507 145.93 197.708 145.971 197.915C146.013 198.122 146.213 198.256 146.418 198.214C146.903 198.116 147.529 198.129 148.26 198.242C148.824 198.328 149.428 198.47 150.048 198.651C150.332 198.735 150.607 198.823 150.867 198.912L151.121 199.001C151.319 199.072 151.462 199.127 151.538 199.158C151.732 199.236 151.953 199.141 152.031 198.946C152.109 198.75 152.015 198.527 151.821 198.449L151.612 198.368C151.566 198.351 151.516 198.332 151.461 198.312L151.376 198.281C151.031 198.157 150.654 198.033 150.259 197.918C149.61 197.728 148.974 197.579 148.374 197.486Z" fill="#253368"/>
<path d="M151.213 211.761C151.052 211.756 150.918 211.883 150.913 212.045C150.908 212.19 151.01 212.314 151.148 212.341L151.195 212.347L152.208 212.379C152.369 212.384 152.503 212.257 152.508 212.095C152.513 211.95 152.411 211.825 152.274 211.798L152.227 211.793L151.213 211.761Z" fill="#DD936F"/>
<path fill-rule="evenodd" clip-rule="evenodd" d="M135.81 205.313C135.096 201.631 138.592 201.915 138.592 201.915C138.592 201.915 138.598 205.572 139.494 208.858C135.988 208.69 135.81 205.313 135.81 205.313Z" fill="#FFC999"/>
<path fill-rule="evenodd" clip-rule="evenodd" d="M137.742 207.919C137.8 207.706 138.098 207.701 138.162 207.913C138.736 209.779 140.095 214.812 138.143 215C135.942 215.214 137.21 209.864 137.742 207.919Z" fill="white"/>
<path d="M156.002 202.246C155.793 202.229 155.61 202.386 155.594 202.597C155.512 203.654 156.089 204.602 156.957 204.67C157.824 204.738 158.54 203.893 158.622 202.835C158.639 202.625 158.483 202.441 158.274 202.424C158.065 202.408 157.882 202.565 157.866 202.775C157.813 203.455 157.403 203.939 157.016 203.908C156.628 203.878 156.298 203.336 156.35 202.656C156.367 202.446 156.211 202.262 156.002 202.246Z" fill="#253368"/>
<path d="M147.744 201.883C147.535 201.866 147.352 202.023 147.336 202.234C147.254 203.291 147.831 204.239 148.699 204.307C149.566 204.375 150.282 203.53 150.364 202.472C150.381 202.262 150.224 202.078 150.016 202.061C149.807 202.045 149.624 202.202 149.608 202.412C149.555 203.092 149.145 203.576 148.758 203.545C148.37 203.515 148.04 202.973 148.092 202.293C148.109 202.083 147.953 201.899 147.744 201.883Z" fill="#253368"/>
<path fill-rule="evenodd" clip-rule="evenodd" d="M183.425 269.15C183.425 269.15 175.324 243.013 173.207 238.301C168.093 226.921 159.961 227.368 156.705 233.695C152.782 241.322 172.009 274.806 172.009 274.806C172.009 274.806 174.23 279.492 179.719 277.85C186.206 275.908 183.425 269.15 183.425 269.15Z" fill="#FFC999"/>
<path fill-rule="evenodd" clip-rule="evenodd" d="M178.331 251.357C177.391 248.948 172.244 226.356 161.988 229.584C154.012 232.094 155.121 240.78 163.014 257.623L178.331 251.357Z" fill="#554AF0"/>
<path fill-rule="evenodd" clip-rule="evenodd" d="M135.439 275.842C141.414 277.309 156.453 276.321 158.228 275.556C160.003 274.789 158.001 270.535 158.001 270.535C168.825 242.708 167.423 232.943 166.475 230.875C165.193 228.078 154.091 228.756 153.657 226.572C153.443 225.496 153.519 221.78 153.519 221.78L138.718 220.951C138.718 220.951 137.893 225.042 137.11 226.356C135.588 228.91 126.239 226.93 122.393 232.094C115.519 241.324 128.926 258.879 134.091 270.416C134.091 270.416 132.279 273.221 135.439 275.842Z" fill="#554AF0"/>
<path fill-rule="evenodd" clip-rule="evenodd" d="M154.668 315.621L167.292 302.329C167.292 302.329 164.569 287.506 157.574 281.049L132.624 280.167C132.624 280.167 121.919 287.676 123.083 305.868L142.222 315.726L154.668 315.621Z" fill="#E4EBF7"/>
<path fill-rule="evenodd" clip-rule="evenodd" d="M132.042 280.461L157.574 281.048L156.939 277.114L132.886 276.382L132.042 280.461Z" fill="#E4EBF7"/>
<path d="M148.677 281.057C148.521 281.075 148.409 281.218 148.427 281.375C148.716 283.886 148.935 286.616 149.089 289.531C149.434 296.072 149.439 303.031 149.233 309.657L149.194 310.822C149.173 311.424 149.151 311.993 149.128 312.526L149.058 314.076L149.02 314.791C149.011 314.949 149.131 315.084 149.288 315.094C149.444 315.103 149.579 314.982 149.588 314.824L149.634 313.939L149.697 312.55C149.715 312.123 149.733 311.672 149.75 311.201L149.763 310.843C150.008 303.856 150.023 296.445 149.657 289.501C149.502 286.575 149.283 283.833 148.993 281.309C148.976 281.167 148.86 281.062 148.724 281.056L148.677 281.057Z" fill="#A3B5D6"/>
<path d="M132.115 280.379C131.958 280.376 131.829 280.502 131.826 280.66C131.823 280.803 131.924 280.923 132.059 280.947L132.105 280.952L157.128 281.392C157.285 281.395 157.415 281.269 157.417 281.11C157.42 280.968 157.319 280.848 157.184 280.823L157.138 280.819L132.115 280.379Z" fill="#A3B5D6"/>
<path fill-rule="evenodd" clip-rule="evenodd" d="M176.376 361.345C176.346 361.159 182.159 407.749 182.295 411.115C182.668 420.303 181.67 421.607 186.637 423.849C187.909 424.423 189.763 423.642 191.829 425.8C197.48 431.709 205.524 434.858 206.381 431.298C206.895 427.976 193.726 417.983 192.182 411.221C190.578 404.197 197.372 348.991 192.39 345.174C187.41 341.358 176.517 322.644 176.376 361.345Z" fill="#FFC999"/>
<path fill-rule="evenodd" clip-rule="evenodd" d="M183.543 425.157C183.543 425.157 181.76 420.229 182.537 414.078C182.537 414.078 186.794 417.694 190.54 421.689C194.865 426.303 195.88 426.506 195.88 426.506C201.153 427.932 202.212 424.883 202.212 424.883C202.212 424.883 205.195 428.451 210.703 432.206C215.635 435.567 197.031 437.02 194.298 432.381C191.565 427.742 188.098 425.104 188.098 425.104L186.915 432.343L185.138 432.362L183.543 425.157Z" fill="#253368"/>
<path fill-rule="evenodd" clip-rule="evenodd" d="M199.659 313.143L207.837 393.27L179.706 396.255C179.706 396.255 173.79 353.09 171.256 316.38C171.256 316.38 168.641 297.335 183.65 295.931C198.66 294.527 199.659 313.143 199.659 313.143Z" fill="#E4EBF7"/>
<path fill-rule="evenodd" clip-rule="evenodd" d="M182.085 294.453C151.798 289.967 142.303 290.024 135.24 291.637C135.24 291.637 120.593 294.248 123.074 305.613C126.102 319.482 141.774 320.07 141.774 320.07L179.537 324.348C183.566 324.803 197.939 325.758 197.939 310.957C197.939 296.112 182.745 294.551 182.085 294.453Z" fill="#E4EBF7"/>
<path fill-rule="evenodd" clip-rule="evenodd" d="M131.527 268.699C131.527 268.699 136.396 246.586 136.209 241.417C135.758 228.934 127.099 227.677 122.678 233.241C119.26 237.544 117.124 270.033 117.124 270.033C117.124 270.033 118.426 275.59 124.123 276.164C130.857 276.842 131.527 268.699 131.527 268.699Z" fill="#FFC999"/>
<path fill-rule="evenodd" clip-rule="evenodd" d="M127.663 228.938C121.673 230.183 119.376 236.137 118.832 253.036L134.642 255.617C134.678 253.029 145.039 227.073 126.404 229.182" fill="#554AF0"/>
<path fill-rule="evenodd" clip-rule="evenodd" d="M195.021 236.859C195.021 236.859 194.799 234.184 195.685 230.84C196.57 227.495 199.005 223.483 199.005 219.469C199.005 215.456 202.436 218.801 200.555 226.381C205.647 225.043 210.988 222.563 212.565 218.633C213.141 217.197 214.515 217.421 214.558 218.801C214.599 220.18 214.059 221.476 214.059 221.476C214.059 221.476 215.056 222.591 214.391 224.151C215.72 226.492 213.562 227.997 213.562 227.997C213.562 227.997 214.889 228.833 212.233 232.345C209.48 235.984 202.105 238.42 202.105 238.42L195.469 251.089L188.385 246.631L195.021 236.859Z" fill="#FFC999"/>
<path d="M200.824 226.268C200.761 226.118 200.591 226.048 200.443 226.11C200.294 226.173 200.225 226.345 200.287 226.494L200.366 226.702L200.388 226.764C200.466 226.985 200.545 227.232 200.618 227.499C200.848 228.342 200.976 229.189 200.947 229.971C200.911 230.946 200.633 231.74 200.072 232.304C199.959 232.419 199.959 232.604 200.072 232.719C200.186 232.833 200.37 232.833 200.484 232.719C201.161 232.037 201.487 231.104 201.528 229.993C201.56 229.143 201.424 228.239 201.179 227.343C201.121 227.132 201.06 226.932 200.998 226.747L200.936 226.567C200.886 226.426 200.847 226.324 200.824 226.268Z" fill="#DD936F"/>
<path d="M212.577 226.195C212.153 225.804 211.747 225.657 211.394 225.924C211.019 226.207 210.931 226.802 211.006 227.646C211.031 227.935 211.076 228.242 211.135 228.554C211.157 228.671 211.18 228.783 211.204 228.89L211.257 229.12L211.24 229.147C211.207 229.2 211.171 229.255 211.132 229.313L211.007 229.495C210.753 229.855 210.46 230.216 210.136 230.552C209.225 231.493 208.248 232.052 207.252 232.052C203.818 232.052 200.469 233.008 199.839 234.752C199.784 234.905 199.862 235.073 200.013 235.128C200.164 235.183 200.331 235.105 200.386 234.953C200.895 233.541 204.06 232.638 207.252 232.638C208.435 232.638 209.543 232.005 210.553 230.961C210.9 230.602 211.211 230.218 211.482 229.834C211.529 229.767 211.574 229.702 211.615 229.64L211.731 229.462C211.774 229.393 211.804 229.343 211.82 229.315C211.859 229.248 211.87 229.168 211.85 229.093L211.806 228.913C211.772 228.769 211.738 228.611 211.707 228.444C211.651 228.15 211.609 227.862 211.585 227.594C211.529 226.951 211.594 226.505 211.743 226.393C211.796 226.353 211.944 226.406 212.183 226.628C212.344 226.776 212.519 226.978 212.7 227.219C212.851 227.421 212.999 227.638 213.135 227.856L213.241 228.027C213.27 228.075 213.293 228.115 213.309 228.143C213.388 228.283 213.566 228.332 213.706 228.252C213.845 228.171 213.894 227.992 213.814 227.852L213.706 227.67C213.682 227.631 213.656 227.588 213.627 227.542C213.482 227.312 213.326 227.082 213.164 226.866C212.963 226.598 212.767 226.371 212.577 226.195Z" fill="#DD936F"/>
<path d="M213.279 222.341C212.718 221.874 212.175 221.787 211.825 222.317C211.55 222.731 211.53 223.303 211.69 223.994C211.768 224.331 211.887 224.685 212.037 225.048C212.109 225.222 212.185 225.39 212.262 225.549L212.339 225.704C212.401 225.827 212.449 225.918 212.478 225.968C212.558 226.109 212.736 226.158 212.875 226.077C213.015 225.997 213.063 225.818 212.984 225.678L212.92 225.56C212.901 225.525 212.88 225.484 212.857 225.439C212.761 225.248 212.664 225.04 212.575 224.822C212.436 224.488 212.327 224.162 212.256 223.86C212.129 223.313 212.145 222.89 212.309 222.642C212.41 222.49 212.576 222.516 212.909 222.793C213.087 222.941 213.281 223.145 213.482 223.389C213.647 223.59 213.807 223.806 213.956 224.022L214.1 224.237C214.118 224.264 214.133 224.288 214.144 224.306C214.229 224.444 214.409 224.485 214.545 224.4C214.682 224.314 214.723 224.133 214.638 223.996L214.52 223.815C214.495 223.776 214.466 223.734 214.434 223.688C214.277 223.459 214.107 223.23 213.93 223.015C213.708 222.745 213.49 222.516 213.279 222.341Z" fill="#DD936F"/>
<path d="M211.325 227.534C211.201 227.431 211.018 227.448 210.915 227.572C209.953 228.735 209.064 229.42 207.636 230.091C207.491 230.16 207.428 230.334 207.496 230.481C207.564 230.628 207.737 230.691 207.883 230.622C209.387 229.915 210.345 229.177 211.362 227.947C211.465 227.823 211.448 227.638 211.325 227.534Z" fill="#DD936F"/>
<path d="M212.159 225.239C212.053 225.117 211.869 225.104 211.748 225.21L211.6 225.334L211.401 225.495C211.33 225.551 211.254 225.61 211.174 225.671C210.714 226.02 210.207 226.369 209.666 226.694C208.846 227.188 208.024 227.582 207.226 227.839C207.073 227.888 206.989 228.053 207.038 228.207C207.087 228.361 207.25 228.446 207.404 228.397C208.248 228.125 209.109 227.712 209.965 227.197C210.524 226.86 211.049 226.499 211.524 226.138L211.76 225.956L212.05 225.72C212.085 225.691 212.112 225.668 212.13 225.652C212.251 225.546 212.264 225.361 212.159 225.239Z" fill="#DD936F"/>
<path d="M211.979 222.819C211.873 222.698 211.689 222.687 211.568 222.794L211.386 222.951L211.143 223.152C211.056 223.222 210.964 223.295 210.867 223.372C210.312 223.808 209.704 224.244 209.064 224.651C208.283 225.148 207.509 225.565 206.759 225.877C206.611 225.939 206.54 226.111 206.602 226.26C206.663 226.41 206.833 226.481 206.982 226.419C207.765 226.092 208.568 225.66 209.375 225.147C210.032 224.729 210.656 224.281 211.225 223.834C211.325 223.755 211.42 223.68 211.509 223.607L211.858 223.316C211.901 223.28 211.933 223.252 211.954 223.233C212.074 223.126 212.085 222.941 211.979 222.819Z" fill="#DD936F"/>
<path d="M206.077 225.004C205.926 225.06 205.848 225.228 205.903 225.38L206.027 225.74C206.052 225.812 206.077 225.889 206.103 225.97C206.255 226.432 206.406 226.929 206.547 227.44C206.706 228.018 206.843 228.578 206.948 229.106L207.014 229.452C207.246 230.75 207.253 231.722 206.995 232.206C206.919 232.349 206.972 232.526 207.114 232.603C207.256 232.679 207.432 232.625 207.508 232.483C207.875 231.794 207.84 230.594 207.519 228.99C207.41 228.447 207.271 227.874 207.108 227.284C206.993 226.867 206.871 226.46 206.749 226.073L206.656 225.787C206.602 225.622 206.552 225.473 206.507 225.343L206.45 225.18C206.395 225.028 206.228 224.949 206.077 225.004Z" fill="#DD936F"/>
<path d="M213.408 219.944C213.109 219.624 212.818 219.474 212.518 219.625C212.088 219.841 211.887 220.286 211.846 220.865C211.825 221.154 211.846 221.458 211.894 221.756C211.914 221.888 211.936 221.989 211.95 222.049C211.989 222.206 212.147 222.301 212.303 222.262C212.459 222.223 212.554 222.064 212.515 221.907L212.489 221.786C212.483 221.75 212.475 221.709 212.468 221.664C212.427 221.407 212.409 221.145 212.426 220.907C212.454 220.513 212.572 220.253 212.778 220.149C212.765 220.156 212.846 220.198 212.984 220.346C213.098 220.468 213.222 220.633 213.352 220.831C213.426 220.944 213.499 221.063 213.569 221.184L213.671 221.366C213.732 221.475 213.776 221.56 213.799 221.607C213.871 221.752 214.046 221.81 214.189 221.738C214.333 221.666 214.391 221.49 214.319 221.345L214.278 221.263C214.252 221.214 214.219 221.152 214.181 221.082C214.073 220.887 213.958 220.692 213.838 220.508C213.691 220.285 213.548 220.094 213.408 219.944Z" fill="#DD936F"/>
<path fill-rule="evenodd" clip-rule="evenodd" d="M157.53 280.174H188.91C189.79 280.174 190.569 279.601 190.836 278.756L201.528 244.96C201.943 243.647 200.97 242.307 199.602 242.307H168.222C167.342 242.307 166.563 242.88 166.296 243.724L155.604 277.521C155.189 278.833 156.161 280.174 157.53 280.174Z" fill="#C44343"/>
<path fill-rule="evenodd" clip-rule="evenodd" d="M159.556 280.174H190.935C191.816 280.174 192.595 279.601 192.862 278.756L203.553 244.96C203.969 243.647 202.996 242.307 201.627 242.307H170.248C169.368 242.307 168.588 242.88 168.321 243.724L157.63 277.521C157.215 278.833 158.188 280.174 159.556 280.174Z" fill="#FF7946"/>
<path fill-rule="evenodd" clip-rule="evenodd" d="M169.395 268.527C169.395 268.527 130.713 261.798 125.577 261.834C115.159 261.907 114.346 274.767 123.442 276.312C135.151 278.303 169.411 277.024 169.411 277.024L169.395 268.527Z" fill="#FFC999"/>
<path fill-rule="evenodd" clip-rule="evenodd" d="M175.442 277.322C175.442 277.322 165.952 277.876 163.768 273.932C161.79 270.361 165.954 267.241 165.954 267.241C165.954 267.241 169.487 265.178 173.901 264.003C176.793 263.233 182.067 260.943 182.869 262.331C183.914 264.141 178.135 265.593 177.928 267.094C177.511 270.137 186.851 268.818 188.486 269.423C191.683 270.607 186.83 276.744 175.442 277.322Z" fill="#FFC999"/>
<path d="M188.723 270.957C188.675 270.803 188.511 270.717 188.358 270.765C188.011 270.875 187.653 270.972 187.286 271.055C185.095 271.556 182.753 271.58 180.575 271.321C180.344 271.294 180.131 271.264 179.94 271.235L179.589 271.177C179.563 271.172 179.542 271.168 179.527 271.165C179.369 271.133 179.216 271.237 179.185 271.395C179.153 271.554 179.256 271.708 179.413 271.74L179.707 271.792C179.941 271.83 180.209 271.868 180.507 271.903C182.745 272.169 185.15 272.144 187.415 271.627C187.797 271.54 188.17 271.439 188.532 271.325C188.686 271.276 188.771 271.112 188.723 270.957Z" fill="#DD936F"/>
<path d="M187.731 273.097C187.676 272.944 187.509 272.866 187.358 272.921L187.175 272.982C187.112 273.002 187.037 273.024 186.949 273.049C186.604 273.148 186.198 273.247 185.734 273.34C183.672 273.751 181.231 273.9 178.483 273.631C178.323 273.615 178.18 273.733 178.165 273.894C178.149 274.055 178.266 274.199 178.426 274.214C181.234 274.489 183.731 274.337 185.847 273.914C186.259 273.832 186.627 273.745 186.95 273.657L187.279 273.563C187.407 273.524 187.5 273.493 187.557 273.472C187.708 273.417 187.786 273.249 187.731 273.097Z" fill="#DD936F"/>
<path d="M183.534 275.259C181.033 275.657 179.024 275.737 177.537 275.629L177.2 275.601C177.053 275.586 176.951 275.573 176.895 275.564C176.736 275.537 176.587 275.646 176.561 275.805C176.535 275.965 176.642 276.116 176.8 276.142L176.935 276.161L177.109 276.181C177.172 276.187 177.24 276.194 177.313 276.2C178.862 276.331 180.977 276.259 183.624 275.837C183.783 275.812 183.891 275.662 183.866 275.502C183.844 275.358 183.721 275.256 183.581 275.255L183.534 275.259Z" fill="#DD936F"/>
<path d="M183.142 262.231C183.087 262.079 182.921 262.001 182.769 262.056C182.618 262.111 182.54 262.279 182.595 262.431C182.693 262.703 182.695 262.85 182.61 262.994L182.558 263.074C182.507 263.16 182.565 263.136 182.308 263.326L180.991 264.266C180.831 264.38 180.675 264.482 180.457 264.614L179.449 265.213C178.705 265.664 178.337 265.951 178.053 266.335C177.582 266.974 177.63 267.683 178.254 268.445C178.925 269.264 180.581 269.659 182.965 269.773C184.189 269.831 185.498 269.807 186.763 269.733C186.963 269.721 187.15 269.709 187.321 269.696L187.757 269.661C187.917 269.646 188.035 269.503 188.02 269.342C188.005 269.181 187.863 269.062 187.703 269.077L187.442 269.099L187.105 269.124C186.986 269.132 186.86 269.14 186.729 269.148C185.483 269.221 184.194 269.244 182.992 269.187C180.778 269.082 179.227 268.712 178.703 268.072C178.243 267.51 178.215 267.098 178.52 266.685C178.772 266.344 179.156 266.064 180.008 265.56L180.678 265.165C180.921 265.019 181.092 264.909 181.263 264.79L182.368 264.008L182.406 263.98C182.728 263.741 182.922 263.565 183.055 263.379C183.292 263.045 183.31 262.698 183.142 262.231Z" fill="#DD936F"/>
<path d="M131.979 232.118C131.835 232.055 131.667 232.121 131.604 232.266C131.541 232.411 131.606 232.58 131.75 232.643C133.011 233.199 134.033 234.703 134.815 236.867C135.178 237.869 135.464 238.945 135.682 240.022C135.743 240.323 135.795 240.608 135.839 240.87L135.892 241.209L135.922 241.42L134.36 255.586C134.344 255.727 134.434 255.856 134.566 255.893L134.611 255.902C134.752 255.918 134.88 255.828 134.916 255.695L134.925 255.649L136.491 241.449L136.491 241.382L136.455 241.125L136.432 240.973C136.381 240.651 136.318 240.293 136.239 239.907C136.016 238.805 135.723 237.702 135.35 236.671C134.519 234.373 133.419 232.753 131.979 232.118Z" fill="#253368"/>
<path d="M143.33 227.504C143.173 227.504 143.046 227.632 143.046 227.79C143.046 227.933 143.149 228.051 143.284 228.073L143.33 228.077H151.449C151.606 228.077 151.733 227.949 151.733 227.79C151.733 227.648 151.63 227.53 151.495 227.508L151.449 227.504H143.33Z" fill="#253368"/>
<path d="M150.996 228.987L146.724 229.274C146.514 229.288 146.356 229.47 146.37 229.68C146.383 229.873 146.536 230.023 146.722 230.036L146.774 230.036L151.047 229.75C151.256 229.736 151.414 229.554 151.4 229.343C151.387 229.15 151.234 229 151.048 228.987L150.996 228.987Z" fill="#253368"/>
<path d="M163.574 236.412C163.44 236.367 163.296 236.428 163.232 236.55L163.214 236.593L162.36 239.175C162.346 239.215 162.342 239.259 162.347 239.301L162.356 239.343L164.706 247.734C164.749 247.886 164.906 247.975 165.057 247.932C165.193 247.894 165.278 247.761 165.263 247.624L165.254 247.579L162.928 239.272L163.754 236.774C163.799 236.639 163.738 236.494 163.617 236.43L163.574 236.412Z" fill="#253368"/>
<path d="M124.868 260.493C124.71 260.463 124.558 260.568 124.528 260.727C124.501 260.87 124.583 261.008 124.714 261.057L124.76 261.069L137.152 263.436C137.31 263.466 137.462 263.362 137.492 263.203C137.519 263.059 137.437 262.921 137.306 262.873L137.26 262.86L124.868 260.493Z" fill="#DD936F"/>
<path fill-rule="evenodd" clip-rule="evenodd" d="M71.3211 269.978C49.4824 259.575 36.4666 286.858 47.4497 302.049C60.8526 320.586 67.7183 341.916 71.5416 348.342C74.7668 353.763 83.6017 366.98 94.2403 360.888C104.031 355.282 98.6948 333.278 98.6948 333.278C98.6948 333.278 98.2624 282.811 71.3211 269.978Z" fill="#5B8C00"/>
<path fill-rule="evenodd" clip-rule="evenodd" d="M137.008 356.652C144.433 346.564 147.144 332.088 138.857 328.376C130.912 324.817 117.75 333.58 111.654 350.445C105.558 367.31 102.041 379.435 108.004 381.544C117.788 385.003 127.202 369.976 137.008 356.652Z" fill="#5B8C00"/>
<path fill-rule="evenodd" clip-rule="evenodd" d="M58.9547 357.418C67.3521 367.328 79.4699 387.264 87.0615 380.282C91.6625 376.051 85.5116 356.011 68.6748 345.108C54.3531 335.833 50.5571 347.507 58.9547 357.418Z" fill="#7CB305"/>
<path fill-rule="evenodd" clip-rule="evenodd" d="M139.31 288.645C136.117 286.481 132.099 285.987 128.434 287.169C123.318 288.819 115.555 293.732 107.872 307.835C97.8411 326.247 92.6191 346.431 93.6514 359.217C94.3262 367.578 104.555 371.183 110.277 365.086C112.905 362.286 115.686 357.97 118.406 351.423C129.355 325.074 139.591 308.562 140.812 306.905C144.069 302.481 146.397 293.447 139.31 288.645Z" fill="#7CB305"/>
<path fill-rule="evenodd" clip-rule="evenodd" d="M131.967 299.154C131.859 300.455 132.818 301.598 134.11 301.707C135.402 301.817 136.537 300.851 136.645 299.55C136.753 298.249 135.794 297.106 134.502 296.996C133.21 296.887 132.075 297.854 131.967 299.154Z" fill="white"/>
<path fill-rule="evenodd" clip-rule="evenodd" d="M112.03 309.247C111.921 310.548 112.881 311.691 114.173 311.8C115.465 311.909 116.6 310.943 116.708 309.642C116.816 308.341 115.857 307.198 114.565 307.089C113.273 306.98 112.138 307.946 112.03 309.247Z" fill="white"/>
<path fill-rule="evenodd" clip-rule="evenodd" d="M115.371 336.119C115.247 337.608 116.346 338.918 117.825 339.042C119.305 339.167 120.605 338.061 120.729 336.571C120.853 335.081 119.754 333.772 118.275 333.647C116.795 333.522 115.496 334.629 115.371 336.119Z" fill="white"/>
<path fill-rule="evenodd" clip-rule="evenodd" d="M54.1346 295.96C54.1346 298.074 55.8365 299.788 57.9361 299.788C60.0356 299.788 61.7375 298.074 61.7375 295.96C61.7375 293.846 60.0356 292.132 57.9361 292.132C55.8365 292.132 54.1346 293.846 54.1346 295.96Z" fill="white"/>
<path fill-rule="evenodd" clip-rule="evenodd" d="M84.7373 307.651C84.7373 309.765 86.4393 311.479 88.5387 311.479C90.6383 311.479 92.3401 309.765 92.3401 307.651C92.3401 305.536 90.6383 303.822 88.5387 303.822C86.4393 303.822 84.7373 305.536 84.7373 307.651Z" fill="white"/>
<path fill-rule="evenodd" clip-rule="evenodd" d="M74.8259 333.638C74.8259 334.521 75.5374 335.238 76.4148 335.238C77.2923 335.238 78.0037 334.521 78.0037 333.638C78.0037 332.754 77.2923 332.037 76.4148 332.037C75.5374 332.037 74.8259 332.754 74.8259 333.638Z" fill="white"/>
<path fill-rule="evenodd" clip-rule="evenodd" d="M63.379 354.101C63.379 355.407 64.4301 356.465 65.7262 356.465C67.0228 356.465 68.0734 355.407 68.0734 354.101C68.0734 352.796 67.0228 351.738 65.7262 351.738C64.4301 351.738 63.379 352.796 63.379 354.101Z" fill="white"/>
<path d="M118.204 359.344C117.985 359.134 117.639 359.143 117.43 359.363L117.33 359.472L117.254 359.556C117.116 359.711 116.957 359.896 116.778 360.111C116.269 360.722 115.703 361.452 115.095 362.301C113.361 364.718 111.629 367.602 110.014 370.948C105.404 380.498 102.639 391.841 102.639 404.935C102.639 405.239 102.884 405.486 103.186 405.486C103.488 405.486 103.733 405.239 103.733 404.935C103.733 392.013 106.458 380.834 110.998 371.43C112.585 368.143 114.285 365.313 115.982 362.946C116.54 362.168 117.059 361.495 117.529 360.925L117.616 360.82C117.75 360.66 117.871 360.518 117.979 360.394L118.117 360.239C118.167 360.182 118.203 360.144 118.222 360.124C118.431 359.903 118.422 359.554 118.204 359.344Z" fill="#253368"/>
<path d="M76.8535 363.202C76.6727 362.958 76.3297 362.908 76.0875 363.09C75.8453 363.273 75.7955 363.618 75.9764 363.862C77.9698 366.551 79.8095 369.442 81.5013 372.506C85.0777 378.984 87.8427 385.93 89.895 392.876C90.6133 395.307 91.191 397.564 91.6408 399.588L91.7318 400.003C91.8391 400.498 91.932 400.95 92.0109 401.354L92.0618 401.619L92.1527 402.119C92.2029 402.419 92.4852 402.622 92.7833 402.571C93.0814 402.521 93.2823 402.236 93.2322 401.936L93.201 401.759C93.1753 401.615 93.1439 401.447 93.1067 401.253L93.0162 400.795C92.9281 400.357 92.826 399.874 92.709 399.347L92.6095 398.905C92.1698 396.972 91.6181 394.842 90.9442 392.561C88.8706 385.543 86.0765 378.525 82.458 371.97C80.7432 368.864 78.8772 365.932 76.8535 363.202Z" fill="#253368"/>
<path d="M67.289 294.434C67.0795 294.636 67.0643 294.966 67.2485 295.186L67.2725 295.213C67.2833 295.224 67.3064 295.249 67.3416 295.287L67.4761 295.435L67.5544 295.523C67.7899 295.787 68.0638 296.105 68.3729 296.478C69.2592 297.546 70.248 298.83 71.3138 300.333C74.364 304.634 77.416 309.813 80.2657 315.877C85.0105 325.973 88.7058 337.488 90.9455 350.434C93.665 366.153 94.1154 383.325 91.8893 401.962C91.8532 402.264 92.0672 402.539 92.3673 402.575C92.6674 402.611 92.94 402.396 92.9761 402.094C95.215 383.35 94.7618 366.07 92.0239 350.244C89.767 337.199 86.0412 325.59 81.2551 315.406C78.3768 309.281 75.2916 304.045 72.2046 299.692L71.9654 299.357C71.0136 298.03 70.1237 296.875 69.3137 295.893L69.2128 295.771C68.9219 295.42 68.6605 295.115 68.431 294.856L68.3692 294.786C68.2976 294.706 68.2335 294.635 68.177 294.573L68.0629 294.45C67.8538 294.231 67.5073 294.223 67.289 294.434Z" fill="#253368"/>
<path d="M114.664 327.12C114.406 326.963 114.069 327.046 113.913 327.306L113.858 327.399C113.814 327.474 113.763 327.563 113.704 327.666L113.618 327.817C113.471 328.077 113.306 328.376 113.124 328.712L112.974 328.993C112.417 330.037 111.807 331.244 111.156 332.612L111.067 332.8C108.942 337.282 106.818 342.525 104.837 348.481C99.2889 365.16 95.9136 384.091 95.7873 404.931C95.7855 405.236 96.029 405.484 96.3313 405.486C96.6336 405.488 96.8801 405.242 96.882 404.938C97.0075 384.219 100.362 365.404 105.875 348.831C107.806 343.026 109.872 337.907 111.94 333.518L112.054 333.274C112.761 331.783 113.419 330.482 114.012 329.376L114.191 329.045C114.362 328.73 114.517 328.453 114.653 328.215L114.717 328.103L114.849 327.878C115.006 327.617 114.923 327.278 114.664 327.12Z" fill="#253368"/>
<path fill-rule="evenodd" clip-rule="evenodd" d="M72.5406 432.275H119.851C122.408 432.275 124.5 430.168 124.5 427.593V392.834C124.5 390.258 122.408 388.151 119.851 388.151H72.5406C69.9834 388.151 67.8908 390.258 67.8908 392.834V427.593C67.8908 430.168 69.9834 432.275 72.5406 432.275Z" fill="#253368"/>
<path fill-rule="evenodd" clip-rule="evenodd" d="M105.921 108.954C110.457 108.954 114.143 112.62 114.216 117.17L114.217 117.308C114.79 132.563 129.416 136.538 134.398 137.451C138.895 137.548 142.511 141.25 142.511 145.803C142.511 150.417 138.797 154.157 134.215 154.157C130.499 154.157 127.353 151.696 126.298 148.303L126.265 148.339C122.081 127.7 109.333 125.799 105.958 125.662L105.921 125.663C105.785 125.663 105.65 125.659 105.516 125.653C105.266 125.653 105.131 125.663 105.131 125.663L105.168 125.629C100.94 125.245 97.6256 121.667 97.6256 117.308C97.6256 112.694 101.34 108.954 105.921 108.954Z" fill="#E4ECF7"/>
<path fill-rule="evenodd" clip-rule="evenodd" d="M160.092 93.9325C161.552 95.7719 161.258 98.4574 159.435 99.9307C158.629 100.582 157.659 100.888 156.702 100.866L156.701 100.866C146.915 102.124 145.334 108.205 145.084 109.873C145.083 109.879 145.083 109.886 145.082 109.893C145.074 109.963 145.065 110.033 145.054 110.101C145.04 110.228 145.038 110.297 145.038 110.297L145.023 110.276C144.593 112.417 142.607 113.91 140.415 113.666C138.093 113.407 136.419 111.298 136.676 108.956C136.93 106.637 138.98 104.958 141.274 105.176L141.343 105.183C149.045 105.745 151.865 98.5011 152.605 96.0002C152.751 94.9627 153.273 93.9768 154.148 93.2699C155.971 91.7965 158.632 92.0933 160.092 93.9325Z" fill="#E4ECF7"/>
<path fill-rule="evenodd" clip-rule="evenodd" d="M157.322 92.2813C159.65 92.5404 161.329 94.6512 161.072 96.996C160.814 99.3407 158.718 101.032 156.39 100.772C154.062 100.513 152.383 98.4026 152.64 96.0578C152.897 93.713 154.993 92.0222 157.322 92.2813Z" fill="#E4ECF7"/>
<path d="M473.23 318.268C473.23 324.863 478.577 330.294 485.172 330.294C491.767 330.294 497.114 324.863 497.114 318.268C497.114 311.673 491.767 306.242 485.172 306.242C478.577 306.242 473.23 311.673 473.23 318.268Z" fill="#554AF0"/>
<path d="M460.73 249.054C460.73 251.838 462.987 254.131 465.772 254.131C468.557 254.131 470.814 251.838 470.814 249.054C470.814 246.269 468.557 243.976 465.772 243.976C462.987 243.976 460.73 246.269 460.73 249.054Z" fill="#554AF0"/>
<path fill-rule="evenodd" clip-rule="evenodd" d="M230.109 183.125L228.443 181.459L241.775 168.126L243.441 169.793L230.109 183.125Z" fill="#A3B5D6"/>
<path fill-rule="evenodd" clip-rule="evenodd" d="M255.55 172.132C246.546 172.132 239.248 164.965 239.248 156.125C239.248 147.285 246.546 140.119 255.55 140.119C264.554 140.119 271.853 147.285 271.853 156.125C271.853 164.965 264.554 172.132 255.55 172.132Z" fill="white"/>
<path fill-rule="evenodd" clip-rule="evenodd" d="M255.533 171.057C247.236 171.057 240.51 164.332 240.51 156.035C240.51 147.738 247.236 141.012 255.533 141.012C263.83 141.012 270.556 147.738 270.556 156.035C270.556 164.332 263.83 171.057 255.533 171.057ZM255.533 136.005C244.471 136.005 235.503 144.973 235.503 156.035C235.503 167.097 244.471 176.065 255.533 176.065C266.595 176.065 275.563 167.097 275.563 156.035C275.563 144.973 266.595 136.005 255.533 136.005Z" fill="#554AF0"/>
<path fill-rule="evenodd" clip-rule="evenodd" d="M223.652 189.583L221.986 187.916C221.525 187.456 221.525 186.71 221.986 186.25L233.692 174.544C234.152 174.083 234.898 174.083 235.358 174.544C235.358 174.544 235.358 174.544 235.358 174.544L237.025 176.21C237.485 176.67 237.485 177.416 237.025 177.876L225.318 189.583C224.858 190.043 224.112 190.043 223.652 189.583C223.652 189.583 223.652 189.583 223.652 189.583Z" fill="#554AF0"/>
<path fill-rule="evenodd" clip-rule="evenodd" d="M265.319 151.849C264.921 152.338 264.201 152.411 263.711 152.012C263.319 151.693 262.872 151.712 262.247 152.069C261.947 152.239 261.678 152.455 261.479 152.637C261.381 152.726 261.305 152.802 261.255 152.853C261.231 152.879 261.213 152.899 261.202 152.91L261.193 152.921C261.192 152.921 261.192 152.922 261.192 152.921L261.193 152.92L261.194 152.919L261.194 152.919C261.067 153.065 260.912 153.17 260.743 153.235C260.825 154.047 260.702 154.973 260.387 155.941L254.825 151.109C255.756 150.654 256.672 150.401 257.498 150.377C257.542 150.22 257.621 150.07 257.735 149.939C257.735 149.939 257.735 149.939 257.735 149.939L257.735 149.939L257.735 149.939L257.734 149.94L257.733 149.941C257.733 149.941 257.733 149.941 257.734 149.94L257.743 149.929C257.753 149.917 257.769 149.897 257.791 149.869C257.836 149.813 257.9 149.727 257.975 149.617C258.127 149.394 258.303 149.098 258.43 148.777C258.695 148.109 258.652 147.663 258.281 147.32C257.818 146.891 257.79 146.168 258.219 145.704C258.647 145.241 259.37 145.213 259.834 145.642C261.234 146.938 260.961 148.596 260.555 149.621C260.346 150.147 260.075 150.595 259.864 150.904C259.817 150.973 259.772 151.036 259.731 151.093C259.74 151.101 259.75 151.109 259.759 151.117C259.813 151.065 259.873 151.007 259.941 150.946C260.218 150.694 260.623 150.363 261.115 150.083C262.073 149.537 263.676 149.035 265.155 150.241C265.645 150.639 265.718 151.359 265.319 151.849ZM251.21 153.949L250.803 154.417C250.907 154.288 251.014 154.161 251.124 154.034C251.234 153.907 251.346 153.783 251.459 153.663L251.301 153.844C251.443 153.682 251.588 153.525 251.734 153.373C251.66 153.257 251.606 153.126 251.577 152.983L251.204 151.124C251.164 150.925 251.178 150.719 251.244 150.527L252.284 147.505C252.49 146.908 253.14 146.591 253.737 146.796C254.334 147.002 254.651 147.652 254.446 148.249L253.506 150.978L253.658 151.734C253.796 151.639 253.934 151.549 254.073 151.462L260.156 156.747C260.084 156.91 260.006 157.074 259.924 157.238L260.799 157.289L263.37 155.977C263.932 155.691 264.621 155.914 264.907 156.476C265.194 157.038 264.971 157.727 264.409 158.014L261.561 159.466C261.381 159.558 261.179 159.6 260.976 159.589L259.083 159.479C258.903 159.469 258.735 159.417 258.587 159.334C258.444 159.517 258.295 159.698 258.139 159.877C257.447 160.674 256.695 161.356 255.926 161.907C256.034 162.047 256.11 162.214 256.143 162.4L256.564 164.754C256.598 164.944 256.583 165.14 256.521 165.323L255.55 168.179C255.347 168.776 254.698 169.096 254.1 168.893C253.503 168.689 253.183 168.04 253.386 167.443L254.262 164.866L253.934 163.029C252.207 163.742 250.581 163.729 249.539 162.824C248.507 161.927 248.262 160.338 248.71 158.549L246.915 158.483L244.486 159.71C243.923 159.995 243.235 159.769 242.95 159.206C242.666 158.642 242.892 157.955 243.455 157.67L246.147 156.31C246.319 156.222 246.511 156.18 246.705 156.187L249.094 156.276C249.256 156.282 249.409 156.321 249.547 156.387C249.977 155.562 250.534 154.735 251.21 153.949Z" fill="#FF7946"/>
</svg>
