<svg width="576" height="415" viewBox="0 0 576 415" fill="none" xmlns="http://www.w3.org/2000/svg">
<path fill-rule="evenodd" clip-rule="evenodd" d="M454.135 102.455H88.5989V77.0679C88.5989 71.5607 93.0505 67.0957 98.541 67.0957H444.193C449.684 67.0957 454.135 71.5607 454.135 77.0679V102.455Z" fill="#253368"/>
<path fill-rule="evenodd" clip-rule="evenodd" d="M114.23 83.6973C114.23 87.1535 111.454 89.9557 108.029 89.9557C104.605 89.9557 101.829 87.1535 101.829 83.6973C101.829 80.2412 104.605 77.439 108.029 77.439C111.454 77.439 114.23 80.2412 114.23 83.6973Z" fill="#FF7946"/>
<path fill-rule="evenodd" clip-rule="evenodd" d="M137.382 83.6973C137.382 87.1535 134.606 89.9557 131.182 89.9557C127.757 89.9557 124.981 87.1535 124.981 83.6973C124.981 80.2412 127.757 77.439 131.182 77.439C134.606 77.439 137.382 80.2412 137.382 83.6973Z" fill="#FAAD14"/>
<path fill-rule="evenodd" clip-rule="evenodd" d="M160.535 83.6973C160.535 87.1535 157.759 89.9557 154.334 89.9557C150.91 89.9557 148.134 87.1535 148.134 83.6973C148.134 80.2412 150.91 77.439 154.334 77.439C157.759 77.439 160.535 80.2412 160.535 83.6973Z" fill="#7CB305"/>
<path fill-rule="evenodd" clip-rule="evenodd" d="M99.3035 347.19C93.189 347.19 88.2316 342.731 88.2316 337.231V100.111H453.786V337.231C453.786 342.731 448.829 347.19 442.714 347.19H99.3035Z" fill="#E4EBF7"/>
<path d="M417.758 145.539H123.467C121.151 145.539 119.273 147.266 119.273 149.397V322.517C119.273 324.647 121.151 326.375 123.467 326.375H417.758C420.074 326.375 421.952 324.647 421.952 322.517V149.397C421.952 147.266 420.074 145.539 417.758 145.539Z" fill="white"/>
<path d="M391.616 160.958H145.41C140.877 160.958 137.203 165.204 137.203 170.442C137.203 175.68 140.877 179.926 145.41 179.926H391.616C396.149 179.926 399.823 175.68 399.823 170.442C399.823 165.204 396.149 160.958 391.616 160.958Z" fill="#6D69F5"/>
<path d="M391.616 190.042H145.41C140.877 190.042 137.203 194.289 137.203 199.527C137.203 204.764 140.877 209.011 145.41 209.011H391.616C396.149 209.011 399.823 204.764 399.823 199.527C399.823 194.289 396.149 190.042 391.616 190.042Z" fill="#7CB305"/>
<path d="M391.616 219.127H145.41C140.877 219.127 137.203 223.373 137.203 228.611C137.203 233.849 140.877 238.095 145.41 238.095H391.616C396.149 238.095 399.823 233.849 399.823 228.611C399.823 223.373 396.149 219.127 391.616 219.127Z" fill="#D6E4FF"/>
<path d="M391.616 248.212H145.41C140.877 248.212 137.203 252.458 137.203 257.696C137.203 262.934 140.877 267.18 145.41 267.18H391.616C396.149 267.18 399.823 262.934 399.823 257.696C399.823 252.458 396.149 248.212 391.616 248.212Z" fill="#FAAD14"/>
<path d="M391.616 277.296H145.41C140.877 277.296 137.203 281.542 137.203 286.78C137.203 292.018 140.877 296.264 145.41 296.264H391.616C396.149 296.264 399.823 292.018 399.823 286.78C399.823 281.542 396.149 277.296 391.616 277.296Z" fill="#FF7946"/>
<g clip-path="url(#clip0_330_9187)">
<path d="M120.418 115.388C123.819 115.388 126.576 118.165 126.576 121.59H120.418V115.388Z" fill="#9992F6"/>
<path fill-rule="evenodd" clip-rule="evenodd" d="M117.871 111.155C114.241 111.155 111.298 114.118 111.298 117.774V120.994V124.215C111.298 127.87 114.241 130.834 117.871 130.834H121.069H124.267C127.897 130.834 130.84 127.87 130.84 124.215V122.783C130.84 121.795 130.044 120.994 129.063 120.994H121.069V112.944C121.069 111.956 120.274 111.155 119.292 111.155H117.871Z" fill="#554AF0"/>
<path fill-rule="evenodd" clip-rule="evenodd" d="M120.845 130.849C120.979 130.264 121.05 129.655 121.05 129.03C121.05 124.6 117.485 121.009 113.086 121.009C112.465 121.009 111.86 121.08 111.28 121.216V124.229C111.28 127.885 114.223 130.849 117.853 130.849H120.845Z" fill="#FAAD14"/>
</g>
<path d="M140.364 114H142.455V125.083H148.868V127.098H140.364V114Z" fill="#333333"/>
<path d="M149.866 123.212C149.866 122.444 150.045 121.754 150.402 121.143C150.759 120.519 151.26 120.033 151.903 119.686C152.558 119.326 153.296 119.146 154.118 119.146C154.963 119.146 155.696 119.326 156.315 119.686C156.946 120.033 157.435 120.519 157.78 121.143C158.125 121.754 158.298 122.444 158.298 123.212C158.298 123.979 158.125 124.675 157.78 125.299C157.435 125.91 156.946 126.396 156.315 126.756C155.696 127.116 154.958 127.296 154.1 127.296C153.29 127.296 152.564 127.134 151.921 126.81C151.277 126.474 150.771 126 150.402 125.389C150.045 124.777 149.866 124.051 149.866 123.212ZM151.885 123.23C151.885 123.674 151.98 124.081 152.171 124.453C152.361 124.813 152.623 125.101 152.957 125.317C153.29 125.533 153.659 125.641 154.064 125.641C154.505 125.641 154.886 125.533 155.208 125.317C155.541 125.101 155.797 124.813 155.976 124.453C156.166 124.081 156.262 123.674 156.262 123.23C156.262 122.774 156.166 122.366 155.976 122.006C155.797 121.635 155.541 121.341 155.208 121.125C154.886 120.909 154.505 120.801 154.064 120.801C153.647 120.801 153.272 120.915 152.939 121.143C152.617 121.359 152.361 121.647 152.171 122.006C151.98 122.366 151.885 122.774 151.885 123.23Z" fill="#333333"/>
<path d="M163.455 130.894C162.836 130.894 162.306 130.822 161.865 130.678C161.425 130.534 161.032 130.342 160.686 130.102C160.353 129.874 160.037 129.634 159.74 129.383L160.919 127.997C161.264 128.321 161.627 128.591 162.008 128.807C162.401 129.023 162.872 129.131 163.42 129.131C163.908 129.131 164.331 129.047 164.688 128.879C165.057 128.711 165.343 128.477 165.546 128.177C165.748 127.877 165.855 127.518 165.867 127.098V125.209L165.992 125.587C165.79 126.054 165.42 126.456 164.885 126.792C164.349 127.128 163.682 127.296 162.884 127.296C162.193 127.296 161.556 127.122 160.972 126.774C160.389 126.414 159.924 125.928 159.579 125.317C159.233 124.705 159.061 124.015 159.061 123.248C159.061 122.456 159.239 121.754 159.597 121.143C159.966 120.519 160.448 120.033 161.044 119.686C161.651 119.326 162.294 119.146 162.973 119.146C163.64 119.146 164.229 119.266 164.742 119.506C165.266 119.746 165.659 120.045 165.921 120.405L165.813 120.693L166.028 119.488H167.868V127.134C167.868 127.841 167.677 128.477 167.296 129.041C166.927 129.616 166.409 130.066 165.742 130.39C165.087 130.726 164.325 130.894 163.455 130.894ZM161.079 123.194C161.079 123.65 161.181 124.063 161.383 124.435C161.597 124.807 161.883 125.101 162.241 125.317C162.61 125.533 163.021 125.641 163.473 125.641C163.866 125.641 164.218 125.575 164.527 125.443C164.849 125.311 165.123 125.125 165.349 124.885C165.587 124.645 165.76 124.363 165.867 124.039V122.384C165.76 122.06 165.587 121.784 165.349 121.557C165.123 121.317 164.849 121.131 164.527 120.999C164.218 120.867 163.866 120.801 163.473 120.801C163.021 120.801 162.61 120.903 162.241 121.107C161.883 121.311 161.597 121.593 161.383 121.952C161.181 122.312 161.079 122.726 161.079 123.194Z" fill="#333333"/>
<path d="M169.91 119.488H171.911V127.098H169.91V119.488ZM169.821 116.771C169.821 116.459 169.94 116.201 170.178 115.997C170.428 115.794 170.696 115.692 170.982 115.692C171.268 115.692 171.524 115.794 171.75 115.997C171.988 116.201 172.107 116.459 172.107 116.771C172.107 117.083 171.988 117.341 171.75 117.545C171.524 117.737 171.268 117.833 170.982 117.833C170.696 117.833 170.428 117.731 170.178 117.527C169.94 117.323 169.821 117.071 169.821 116.771Z" fill="#333333"/>
<path d="M178.71 127.296C178.031 127.296 177.448 127.164 176.96 126.9C176.471 126.624 176.072 126.276 175.763 125.856L175.941 125.335V127.098H173.941V113.065H175.941V121.053L175.906 120.333C176.203 119.985 176.62 119.704 177.156 119.488C177.692 119.26 178.299 119.146 178.978 119.146C179.645 119.146 180.253 119.308 180.8 119.632C181.36 119.943 181.807 120.399 182.14 120.999C182.474 121.599 182.64 122.318 182.64 123.158C182.64 124.009 182.456 124.747 182.087 125.371C181.729 125.994 181.247 126.474 180.64 126.81C180.044 127.134 179.401 127.296 178.71 127.296ZM178.282 125.587C178.71 125.587 179.097 125.485 179.443 125.281C179.8 125.065 180.08 124.771 180.282 124.399C180.497 124.027 180.604 123.608 180.604 123.14C180.604 122.684 180.497 122.276 180.282 121.916C180.08 121.557 179.8 121.275 179.443 121.071C179.097 120.855 178.71 120.747 178.282 120.747C177.9 120.747 177.549 120.813 177.228 120.945C176.918 121.077 176.65 121.263 176.424 121.503C176.209 121.731 176.049 122 175.941 122.312V124.003C176.06 124.315 176.227 124.591 176.442 124.831C176.656 125.071 176.918 125.257 177.228 125.389C177.549 125.521 177.9 125.587 178.282 125.587Z" fill="#333333"/>
<path d="M186.472 127.422C185.781 127.422 185.209 127.212 184.757 126.792C184.304 126.36 184.066 125.808 184.042 125.137V119.488H186.043V124.417C186.067 124.789 186.174 125.095 186.365 125.335C186.555 125.575 186.859 125.694 187.276 125.694C187.669 125.694 188.02 125.575 188.33 125.335C188.639 125.083 188.878 124.741 189.044 124.309C189.223 123.877 189.312 123.392 189.312 122.852V119.488H191.313V127.098H189.509L189.348 125.425L189.402 125.694C189.247 126.018 189.026 126.318 188.741 126.594C188.455 126.858 188.115 127.062 187.722 127.206C187.341 127.35 186.924 127.422 186.472 127.422Z" fill="#333333"/>
<path d="M197.128 130.894C196.509 130.894 195.979 130.822 195.538 130.678C195.098 130.534 194.705 130.342 194.359 130.102C194.026 129.874 193.71 129.634 193.413 129.383L194.592 127.997C194.937 128.321 195.3 128.591 195.681 128.807C196.074 129.023 196.545 129.131 197.093 129.131C197.581 129.131 198.004 129.047 198.361 128.879C198.73 128.711 199.016 128.477 199.219 128.177C199.421 127.877 199.528 127.518 199.54 127.098V125.209L199.665 125.587C199.463 126.054 199.093 126.456 198.558 126.792C198.022 127.128 197.355 127.296 196.557 127.296C195.866 127.296 195.229 127.122 194.645 126.774C194.062 126.414 193.597 125.928 193.252 125.317C192.906 124.705 192.734 124.015 192.734 123.248C192.734 122.456 192.912 121.754 193.27 121.143C193.639 120.519 194.121 120.033 194.717 119.686C195.324 119.326 195.967 119.146 196.646 119.146C197.313 119.146 197.903 119.266 198.415 119.506C198.939 119.746 199.332 120.045 199.594 120.405L199.486 120.693L199.701 119.488H201.541V127.134C201.541 127.841 201.35 128.477 200.969 129.041C200.6 129.616 200.082 130.066 199.415 130.39C198.76 130.726 197.998 130.894 197.128 130.894ZM194.752 123.194C194.752 123.65 194.854 124.063 195.056 124.435C195.27 124.807 195.556 125.101 195.914 125.317C196.283 125.533 196.694 125.641 197.146 125.641C197.539 125.641 197.891 125.575 198.2 125.443C198.522 125.311 198.796 125.125 199.022 124.885C199.26 124.645 199.433 124.363 199.54 124.039V122.384C199.433 122.06 199.26 121.784 199.022 121.557C198.796 121.317 198.522 121.131 198.2 120.999C197.891 120.867 197.539 120.801 197.146 120.801C196.694 120.801 196.283 120.903 195.914 121.107C195.556 121.311 195.27 121.593 195.056 121.952C194.854 122.312 194.752 122.726 194.752 123.194Z" fill="#333333"/>
<path d="M499.862 124.372H388.086C384.391 124.372 381.396 127.367 381.396 131.062V348.203C381.396 351.898 384.391 354.893 388.086 354.893H499.862C503.557 354.893 506.552 351.898 506.552 348.203V131.062C506.552 127.367 503.557 124.372 499.862 124.372Z" fill="#253368"/>
<path d="M390.277 140.818H497.392C498.91 140.818 500.141 142.049 500.141 143.567V335.699C500.141 337.217 498.91 338.447 497.392 338.447H390.277C388.759 338.447 387.528 337.217 387.528 335.699V143.567C387.528 142.049 388.759 140.818 390.277 140.818Z" fill="white"/>
<path d="M430.733 134.686C431.657 134.686 432.406 133.937 432.406 133.014C432.406 132.09 431.657 131.341 430.733 131.341C429.81 131.341 429.061 132.09 429.061 133.014C429.061 133.937 429.81 134.686 430.733 134.686Z" fill="white"/>
<path d="M453.688 131.62H437.605C436.889 131.62 436.308 132.2 436.308 132.916V133.39C436.308 134.105 436.889 134.686 437.605 134.686H453.688C454.404 134.686 454.984 134.105 454.984 133.39V132.916C454.984 132.2 454.404 131.62 453.688 131.62Z" fill="white"/>
<path d="M481.984 168.668H405.726C401.293 168.668 397.699 169.456 397.699 170.428V187.142C397.699 188.113 401.293 188.901 405.726 188.901H481.984C486.417 188.901 490.011 188.113 490.011 187.142V170.428C490.011 169.456 486.417 168.668 481.984 168.668Z" fill="#FF7946"/>
<path d="M481.984 199.018H405.726C401.293 199.018 397.699 199.805 397.699 200.777V217.491C397.699 218.463 401.293 219.25 405.726 219.25H481.984C486.417 219.25 490.011 218.463 490.011 217.491V200.777C490.011 199.805 486.417 199.018 481.984 199.018Z" fill="#554AF0"/>
<path d="M481.984 229.367H405.726C401.293 229.367 397.699 230.154 397.699 231.126V247.84C397.699 248.812 401.293 249.599 405.726 249.599H481.984C486.417 249.599 490.011 248.812 490.011 247.84V231.126C490.011 230.154 486.417 229.367 481.984 229.367Z" fill="#FAAD14"/>
<path d="M481.984 168.668H405.726C401.293 168.668 397.699 169.456 397.699 170.428V187.142C397.699 188.113 401.293 188.901 405.726 188.901H481.984C486.417 188.901 490.011 188.113 490.011 187.142V170.428C490.011 169.456 486.417 168.668 481.984 168.668Z" fill="#FF7946"/>
<path d="M481.984 199.018H405.726C401.293 199.018 397.699 199.805 397.699 200.777V217.491C397.699 218.463 401.293 219.25 405.726 219.25H481.984C486.417 219.25 490.011 218.463 490.011 217.491V200.777C490.011 199.805 486.417 199.018 481.984 199.018Z" fill="#6D69F5"/>
<path d="M481.984 229.367H405.726C401.293 229.367 397.699 230.154 397.699 231.126V247.84C397.699 248.812 401.293 249.599 405.726 249.599H481.984C486.417 249.599 490.011 248.812 490.011 247.84V231.126C490.011 230.154 486.417 229.367 481.984 229.367Z" fill="#D6E4FF"/>
<path d="M481.984 259.716H405.726C401.293 259.716 397.699 260.504 397.699 261.475V278.189C397.699 279.161 401.293 279.949 405.726 279.949H481.984C486.417 279.949 490.011 279.161 490.011 278.189V261.475C490.011 260.504 486.417 259.716 481.984 259.716Z" fill="#FAAD14"/>
<g clip-path="url(#clip1_330_9187)">
<path d="M402.71 153.271C404.576 153.271 406.088 154.783 406.088 156.648H402.71V153.271Z" fill="#9992F6"/>
<path fill-rule="evenodd" clip-rule="evenodd" d="M401.314 150.965C399.323 150.965 397.71 152.579 397.71 154.569V156.323V158.076C397.71 160.067 399.323 161.681 401.314 161.681H403.068H404.821C406.812 161.681 408.426 160.067 408.426 158.076V157.297C408.426 156.759 407.99 156.323 407.452 156.323H403.068V151.939C403.068 151.401 402.632 150.965 402.093 150.965H401.314Z" fill="#554AF0"/>
<path fill-rule="evenodd" clip-rule="evenodd" d="M402.945 161.689C403.018 161.371 403.057 161.039 403.057 160.698C403.057 158.286 401.102 156.331 398.69 156.331C398.349 156.331 398.017 156.37 397.699 156.444V158.084C397.699 160.075 399.313 161.689 401.304 161.689H402.945Z" fill="#FAAD14"/>
</g>
<path d="M412.241 152.69H413.278V158.15H416.46V159.142H412.241V152.69Z" fill="#333333"/>
<path d="M416.955 157.228C416.955 156.85 417.044 156.51 417.221 156.209C417.398 155.901 417.646 155.662 417.965 155.491C418.29 155.314 418.657 155.225 419.064 155.225C419.484 155.225 419.847 155.314 420.154 155.491C420.468 155.662 420.71 155.901 420.881 156.209C421.053 156.51 421.138 156.85 421.138 157.228C421.138 157.606 421.053 157.949 420.881 158.256C420.71 158.557 420.468 158.796 420.154 158.974C419.847 159.151 419.481 159.24 419.056 159.24C418.654 159.24 418.293 159.16 417.974 159C417.655 158.835 417.404 158.602 417.221 158.3C417.044 157.999 416.955 157.641 416.955 157.228ZM417.957 157.237C417.957 157.455 418.004 157.656 418.098 157.839C418.193 158.017 418.323 158.158 418.488 158.265C418.654 158.371 418.837 158.424 419.038 158.424C419.256 158.424 419.446 158.371 419.605 158.265C419.77 158.158 419.897 158.017 419.986 157.839C420.081 157.656 420.128 157.455 420.128 157.237C420.128 157.012 420.081 156.811 419.986 156.634C419.897 156.451 419.77 156.306 419.605 156.2C419.446 156.093 419.256 156.04 419.038 156.04C418.831 156.04 418.645 156.096 418.48 156.209C418.32 156.315 418.193 156.457 418.098 156.634C418.004 156.811 417.957 157.012 417.957 157.237Z" fill="#333333"/>
<path d="M423.697 161.012C423.389 161.012 423.127 160.977 422.908 160.906C422.689 160.835 422.494 160.74 422.323 160.622C422.158 160.51 422.001 160.392 421.853 160.268L422.438 159.585C422.61 159.745 422.79 159.878 422.979 159.984C423.174 160.09 423.407 160.144 423.679 160.144C423.921 160.144 424.131 160.102 424.308 160.02C424.491 159.937 424.633 159.822 424.734 159.674C424.834 159.526 424.887 159.349 424.893 159.142V158.212L424.955 158.398C424.855 158.628 424.672 158.826 424.406 158.991C424.14 159.157 423.809 159.24 423.413 159.24C423.07 159.24 422.754 159.154 422.465 158.983C422.175 158.805 421.945 158.566 421.774 158.265C421.602 157.963 421.517 157.624 421.517 157.246C421.517 156.856 421.605 156.51 421.782 156.209C421.966 155.901 422.205 155.662 422.5 155.491C422.802 155.314 423.121 155.225 423.457 155.225C423.788 155.225 424.081 155.284 424.335 155.402C424.595 155.52 424.79 155.668 424.92 155.845L424.867 155.987L424.973 155.393H425.886V159.16C425.886 159.508 425.791 159.822 425.602 160.099C425.419 160.383 425.162 160.604 424.831 160.764C424.506 160.929 424.128 161.012 423.697 161.012ZM422.518 157.219C422.518 157.444 422.568 157.647 422.669 157.831C422.775 158.014 422.917 158.158 423.094 158.265C423.277 158.371 423.481 158.424 423.706 158.424C423.901 158.424 424.075 158.392 424.228 158.327C424.388 158.262 424.524 158.17 424.636 158.052C424.754 157.934 424.84 157.795 424.893 157.636V156.82C424.84 156.661 424.754 156.525 424.636 156.413C424.524 156.294 424.388 156.203 424.228 156.138C424.075 156.073 423.901 156.04 423.706 156.04C423.481 156.04 423.277 156.091 423.094 156.191C422.917 156.291 422.775 156.43 422.669 156.607C422.568 156.785 422.518 156.989 422.518 157.219Z" fill="#333333"/>
<path d="M426.899 155.393H427.891V159.142H426.899V155.393ZM426.854 154.055C426.854 153.902 426.913 153.774 427.032 153.674C427.156 153.574 427.289 153.523 427.43 153.523C427.572 153.523 427.699 153.574 427.812 153.674C427.93 153.774 427.989 153.902 427.989 154.055C427.989 154.209 427.93 154.336 427.812 154.436C427.699 154.531 427.572 154.578 427.43 154.578C427.289 154.578 427.156 154.528 427.032 154.427C426.913 154.327 426.854 154.203 426.854 154.055Z" fill="#333333"/>
<path d="M431.265 159.24C430.928 159.24 430.638 159.175 430.396 159.045C430.154 158.909 429.956 158.737 429.802 158.531L429.891 158.274V159.142H428.898V152.229H429.891V156.164L429.873 155.81C430.021 155.639 430.228 155.5 430.493 155.393C430.759 155.281 431.061 155.225 431.397 155.225C431.728 155.225 432.03 155.305 432.301 155.464C432.579 155.618 432.801 155.842 432.966 156.138C433.132 156.433 433.214 156.788 433.214 157.201C433.214 157.621 433.123 157.984 432.939 158.291C432.762 158.599 432.523 158.835 432.222 159C431.926 159.16 431.607 159.24 431.265 159.24ZM431.052 158.398C431.264 158.398 431.457 158.347 431.628 158.247C431.805 158.141 431.944 157.996 432.044 157.813C432.151 157.63 432.204 157.423 432.204 157.192C432.204 156.968 432.151 156.767 432.044 156.59C431.944 156.413 431.805 156.274 431.628 156.173C431.457 156.067 431.264 156.014 431.052 156.014C430.863 156.014 430.688 156.046 430.529 156.111C430.375 156.176 430.242 156.268 430.13 156.386C430.024 156.498 429.944 156.631 429.891 156.785V157.618C429.95 157.771 430.033 157.907 430.139 158.025C430.245 158.144 430.375 158.235 430.529 158.3C430.688 158.365 430.863 158.398 431.052 158.398Z" fill="#333333"/>
<path d="M435.115 159.302C434.772 159.302 434.489 159.198 434.264 158.991C434.04 158.779 433.921 158.507 433.91 158.176V155.393H434.902V157.822C434.914 158.005 434.967 158.155 435.062 158.274C435.156 158.392 435.307 158.451 435.514 158.451C435.709 158.451 435.883 158.392 436.037 158.274C436.19 158.15 436.308 157.981 436.391 157.768C436.48 157.556 436.524 157.316 436.524 157.051V155.393H437.517V159.142H436.622L436.542 158.318L436.568 158.451C436.492 158.61 436.382 158.758 436.24 158.894C436.099 159.024 435.93 159.124 435.735 159.195C435.546 159.266 435.339 159.302 435.115 159.302Z" fill="#333333"/>
<path d="M440.402 161.012C440.094 161.012 439.831 160.977 439.613 160.906C439.394 160.835 439.199 160.74 439.028 160.622C438.862 160.51 438.706 160.392 438.558 160.268L439.143 159.585C439.314 159.745 439.495 159.878 439.684 159.984C439.879 160.09 440.112 160.144 440.384 160.144C440.626 160.144 440.836 160.102 441.013 160.02C441.196 159.937 441.338 159.822 441.438 159.674C441.539 159.526 441.592 159.349 441.598 159.142V158.212L441.66 158.398C441.56 158.628 441.376 158.826 441.111 158.991C440.845 159.157 440.514 159.24 440.118 159.24C439.775 159.24 439.459 159.154 439.17 158.983C438.88 158.805 438.65 158.566 438.478 158.265C438.307 157.963 438.221 157.624 438.221 157.246C438.221 156.856 438.31 156.51 438.487 156.209C438.67 155.901 438.91 155.662 439.205 155.491C439.506 155.314 439.825 155.225 440.162 155.225C440.493 155.225 440.786 155.284 441.04 155.402C441.3 155.52 441.495 155.668 441.625 155.845L441.571 155.987L441.678 155.393H442.591V159.16C442.591 159.508 442.496 159.822 442.307 160.099C442.124 160.383 441.867 160.604 441.536 160.764C441.211 160.929 440.833 161.012 440.402 161.012ZM439.223 157.219C439.223 157.444 439.273 157.647 439.373 157.831C439.48 158.014 439.622 158.158 439.799 158.265C439.982 158.371 440.186 158.424 440.41 158.424C440.605 158.424 440.78 158.392 440.933 158.327C441.093 158.262 441.229 158.17 441.341 158.052C441.459 157.934 441.545 157.795 441.598 157.636V156.82C441.545 156.661 441.459 156.525 441.341 156.413C441.229 156.294 441.093 156.203 440.933 156.138C440.78 156.073 440.605 156.04 440.41 156.04C440.186 156.04 439.982 156.091 439.799 156.191C439.622 156.291 439.48 156.43 439.373 156.607C439.273 156.785 439.223 156.989 439.223 157.219Z" fill="#333333"/>
<path fill-rule="evenodd" clip-rule="evenodd" d="M42.2072 334.723L36.8759 329.391L79.5339 286.733L84.8653 292.065L42.2072 334.723Z" fill="#A3B5D6"/>
<path fill-rule="evenodd" clip-rule="evenodd" d="M123.609 299.549C94.7999 299.549 71.4468 276.62 71.4468 248.335C71.4468 220.05 94.7999 197.121 123.609 197.121C152.418 197.121 175.772 220.05 175.772 248.335C175.772 276.62 152.418 299.549 123.609 299.549Z" fill="white"/>
<path fill-rule="evenodd" clip-rule="evenodd" d="M123.554 296.111C97.007 296.111 75.4871 274.591 75.4871 248.045C75.4871 221.498 97.007 199.978 123.554 199.978C150.1 199.978 171.62 221.498 171.62 248.045C171.62 274.591 150.1 296.111 123.554 296.111ZM123.554 183.956C88.1583 183.956 59.465 212.649 59.465 248.045C59.465 283.44 88.1583 312.133 123.554 312.133C158.949 312.133 187.642 283.44 187.642 248.045C187.642 212.649 158.949 183.956 123.554 183.956Z" fill="#554AF0"/>
<path fill-rule="evenodd" clip-rule="evenodd" d="M21.5455 355.384L16.2141 350.053C14.7419 348.581 14.7419 346.194 16.2141 344.722L53.6701 307.265C55.1424 305.793 57.5293 305.793 59.0016 307.265C59.0016 307.265 59.0016 307.265 59.0016 307.265L64.3331 312.597C65.8053 314.069 65.8053 316.456 64.3331 317.928L26.8769 355.385C25.4047 356.857 23.0177 356.857 21.5455 355.385C21.5454 355.385 21.5454 355.385 21.5455 355.384Z" fill="#554AF0"/>
<path fill-rule="evenodd" clip-rule="evenodd" d="M152.691 232.878C152.394 233.242 151.858 233.297 151.494 233C148.905 230.89 146.054 231.544 143.646 232.917C142.451 233.598 141.423 234.429 140.689 235.097C140.324 235.429 140.036 235.717 139.84 235.921C139.742 236.023 139.668 236.103 139.619 236.157L139.595 236.182C140.704 239.351 140.493 243.418 139.085 247.745L121.29 232.285C125.459 230.246 129.534 229.478 132.864 230.205C132.899 230.16 132.941 230.108 132.988 230.048C133.162 229.826 133.407 229.5 133.685 229.092C134.244 228.272 134.923 227.138 135.431 225.86C136.453 223.283 136.703 220.37 134.252 218.101C133.907 217.782 133.886 217.243 134.206 216.898C134.525 216.554 135.063 216.533 135.408 216.852C138.625 219.83 138.141 223.646 137.013 226.488C136.444 227.919 135.694 229.166 135.092 230.05C134.911 230.315 134.743 230.549 134.595 230.748C135.46 231.11 136.255 231.598 136.965 232.214C137.72 232.87 138.343 233.642 138.839 234.511C139.031 234.319 139.268 234.089 139.544 233.838C140.335 233.118 141.465 232.201 142.803 231.438C145.46 229.924 149.171 228.911 152.569 231.681C152.933 231.978 152.988 232.514 152.691 232.878ZM103.956 270.208L103.925 270.181L103.986 270.234L103.956 270.208ZM109.448 241.643C109.799 241.239 110.155 240.843 110.516 240.457L109.916 241.148C111.093 239.798 112.322 238.553 113.585 237.419L112.454 231.781C112.424 231.632 112.434 231.479 112.483 231.336L115.812 221.667C115.965 221.222 116.449 220.986 116.893 221.139C117.338 221.292 117.574 221.776 117.421 222.22L114.168 231.672L115.066 236.15C116.321 235.128 117.6 234.214 118.883 233.415L138.346 250.324C137.714 251.751 136.961 253.19 136.089 254.619L140.999 254.903L149.904 250.361C150.322 250.148 150.835 250.314 151.048 250.733C151.262 251.151 151.096 251.664 150.677 251.877L141.567 256.524C141.433 256.593 141.282 256.624 141.131 256.616L135.075 256.265C135.06 256.264 135.046 256.263 135.032 256.262C134.095 257.644 133.048 259.01 131.893 260.339C128.969 263.705 125.715 266.425 122.442 268.394C122.595 268.518 122.706 268.695 122.743 268.904L124.091 276.436C124.116 276.578 124.105 276.724 124.059 276.86L120.952 285.997C120.8 286.442 120.317 286.68 119.872 286.529C119.427 286.377 119.189 285.894 119.34 285.449L122.377 276.52L121.068 269.204C121.067 269.199 121.066 269.194 121.065 269.189C121.065 269.185 121.064 269.182 121.064 269.178C114.598 272.647 108.233 273.119 104.376 269.768C100.548 266.441 100.103 260.141 102.573 253.313L95.3589 253.047L86.9414 257.301C86.5219 257.513 86.01 257.345 85.798 256.925C85.586 256.506 85.7542 255.994 86.1737 255.782L94.7871 251.429C94.9156 251.364 95.0584 251.332 95.2023 251.338L102.848 251.62C102.976 251.624 103.096 251.657 103.202 251.711C104.686 248.207 106.912 244.616 109.82 241.258L108.423 242.867C108.754 242.456 109.096 242.048 109.448 241.643Z" fill="#96A7CA"/>
<path d="M454.92 108.212C477.227 108.212 495.311 90.1283 495.311 67.8211C495.311 45.514 477.227 27.4304 454.92 27.4304C432.613 27.4304 414.529 45.514 414.529 67.8211C414.529 90.1283 432.613 108.212 454.92 108.212Z" fill="#597EF7"/>
<path d="M454.92 105.327C475.634 105.327 492.426 88.5349 492.426 67.8211C492.426 47.1073 475.634 30.3154 454.92 30.3154C434.206 30.3154 417.414 47.1073 417.414 67.8211C417.414 88.5349 434.206 105.327 454.92 105.327Z" fill="#A3B5D6"/>
<path d="M454.92 103.974C474.887 103.974 491.073 87.7879 491.073 67.821C491.073 47.8541 474.887 31.6677 454.92 31.6677C434.953 31.6677 418.767 47.8541 418.767 67.821C418.767 87.7879 434.953 103.974 454.92 103.974Z" fill="white"/>
<path d="M454.92 44.8237C455.717 44.8237 456.362 45.4696 456.362 46.2663V66.7636H453.477V46.2663C453.477 45.4696 454.123 44.8237 454.92 44.8237Z" fill="#253368"/>
<path d="M469.608 67.8212C469.608 68.6179 468.963 69.2637 468.166 69.2637H454.92V66.3787H468.166C468.963 66.3787 469.608 67.0245 469.608 67.8212Z" fill="#253368"/>
<path d="M454.92 71.157C456.762 71.157 458.256 69.6635 458.256 67.8212C458.256 65.9789 456.762 64.4854 454.92 64.4854C453.078 64.4854 451.584 65.9789 451.584 67.8212C451.584 69.6635 453.078 71.157 454.92 71.157Z" fill="#FF7946"/>
<path d="M456.359 37.5282C456.359 36.7315 455.713 36.0857 454.916 36.0857C454.12 36.0857 453.474 36.7315 453.474 37.5282V40.4133C453.474 41.21 454.12 41.8558 454.916 41.8558C455.713 41.8558 456.359 41.21 456.359 40.4133V37.5282Z" fill="#E4EBF7"/>
<path d="M432.477 45.3826C433.04 44.8192 433.954 44.8192 434.517 45.3826L436.557 47.4226C437.12 47.9859 437.12 48.8993 436.557 49.4626C435.994 50.026 435.08 50.026 434.517 49.4626L432.477 47.4226C431.913 46.8593 431.913 45.9459 432.477 45.3826Z" fill="#E4EBF7"/>
<path d="M423.184 67.8248C423.184 67.0281 423.83 66.3823 424.627 66.3823H427.512C428.309 66.3823 428.954 67.0281 428.954 67.8248C428.954 68.6215 428.309 69.2673 427.512 69.2673H424.627C423.83 69.2673 423.184 68.6215 423.184 67.8248Z" fill="#E4EBF7"/>
<path d="M432.482 90.2646C431.918 89.7013 431.918 88.788 432.482 88.2246L434.522 86.1846C435.085 85.6212 435.998 85.6212 436.562 86.1846C437.125 86.7479 437.125 87.6613 436.562 88.2246L434.522 90.2647C433.958 90.828 433.045 90.828 432.482 90.2646Z" fill="#E4EBF7"/>
<path d="M453.481 98.1141C453.481 98.9108 454.127 99.5566 454.923 99.5566C455.72 99.5566 456.366 98.9108 456.366 98.1141V95.2291C456.366 94.4324 455.72 93.7865 454.923 93.7865C454.127 93.7865 453.481 94.4324 453.481 95.2291V98.1141Z" fill="#E4EBF7"/>
<path d="M477.363 90.259C476.799 90.8224 475.886 90.8224 475.323 90.259L473.283 88.219C472.719 87.6557 472.719 86.7423 473.283 86.179C473.846 85.6156 474.759 85.6156 475.323 86.179L477.363 88.219C477.926 88.7823 477.926 89.6957 477.363 90.259Z" fill="#E4EBF7"/>
<path d="M486.655 67.8175C486.655 68.6142 486.01 69.2601 485.213 69.2601H482.328C481.531 69.2601 480.885 68.6142 480.885 67.8175C480.885 67.0208 481.531 66.375 482.328 66.375H485.213C486.01 66.375 486.655 67.0208 486.655 67.8175Z" fill="#E4EBF7"/>
<path d="M477.358 45.3787C477.922 45.942 477.922 46.8554 477.358 47.4187L475.318 49.4587C474.755 50.0221 473.842 50.0221 473.278 49.4587C472.715 48.8954 472.715 47.982 473.278 47.4187L475.318 45.3787C475.882 44.8153 476.795 44.8153 477.358 45.3787Z" fill="#E4EBF7"/>
<defs>
<clipPath id="clip0_330_9187">
<rect width="19.6004" height="19.7391" fill="white" transform="translate(111.28 111.155)"/>
</clipPath>
<clipPath id="clip1_330_9187">
<rect width="10.7486" height="10.7486" fill="white" transform="translate(397.699 150.965)"/>
</clipPath>
</defs>
</svg>
