<svg width="526" height="627" viewBox="0 0 526 627" fill="none" xmlns="http://www.w3.org/2000/svg">
<ellipse cx="262.758" cy="272.861" rx="170.985" ry="172.195" fill="#D6E4FF"/>
<path fill-rule="evenodd" clip-rule="evenodd" d="M253.356 151.318C253.356 151.318 229.202 154.639 228.658 168.491C228.378 175.615 235.069 183.552 231.663 185.632C218.353 193.764 232.485 197.669 224.005 204.264C211.392 214.076 218.457 231.64 231.529 230.866C245.071 230.064 238.081 249.159 261.497 244.315C274.695 241.585 278.598 238.785 288.034 234.386C297.469 229.986 303.865 205.696 292.752 193.351C285.848 185.541 279.024 186.093 275.423 173.322C271.821 160.552 268.23 152.686 261.969 153.548C259.79 150.211 253.356 151.318 253.356 151.318Z" fill="#253368"/>
<path fill-rule="evenodd" clip-rule="evenodd" d="M238.466 180.926C238.408 180.658 238.039 180.631 237.943 180.889C237.103 183.167 235.07 189.325 237.484 189.695C240.206 190.112 238.994 183.379 238.466 180.926Z" fill="white"/>
<path fill-rule="evenodd" clip-rule="evenodd" d="M260.155 200.439C257.851 189.592 257.538 185.268 257.538 185.268L244.353 190.833L245.121 202.557C245.403 206.874 249.181 210.097 253.461 209.674C257.986 209.226 261.106 204.912 260.155 200.439Z" fill="#F4B784"/>
<path fill-rule="evenodd" clip-rule="evenodd" d="M253.713 166.018C253.713 166.018 252.333 161.629 249.288 163.55C247.112 164.924 247.737 163.731 247.329 162.546C245.814 158.144 244.404 168.191 237.494 170.033C237.084 175.424 236.017 194.933 247.641 194.503C251.395 194.365 257.74 192.512 260.419 186.065C262.038 182.17 261.078 178.031 259.54 177.139C254.475 174.2 254.723 171.473 253.713 166.018Z" fill="#FFC999"/>
<path d="M243.875 170.282C243.706 170.322 243.595 170.479 243.606 170.648L243.615 170.705L244.26 173.462L244.213 173.951L244.168 174.354C244.128 174.706 244.079 175.097 244.021 175.524C243.788 177.234 243.455 179.176 243.005 181.313C242.97 181.476 243.055 181.641 243.207 181.708C243.996 182.056 244.804 182.278 245.59 182.398C246.029 182.466 246.391 182.493 246.65 182.495L246.754 182.495C246.948 182.491 247.101 182.33 247.096 182.135C247.092 181.961 246.962 181.818 246.795 181.795L246.738 181.792H246.654L246.466 181.785C246.259 181.774 245.998 181.749 245.695 181.703C245.149 181.619 244.591 181.482 244.038 181.283L243.749 181.173L243.792 180.965C244.161 179.168 244.446 177.513 244.658 176.022L244.714 175.619C244.785 175.1 244.842 174.635 244.887 174.225L244.939 173.718L244.962 173.462L244.953 173.354L244.296 170.544C244.256 170.373 244.099 170.261 243.931 170.273L243.875 170.282Z" fill="#DD936F"/>
<path d="M251.304 182.492C251.212 182.246 250.939 182.122 250.695 182.215L250.38 182.327C250.323 182.347 250.26 182.368 250.191 182.391C249.786 182.525 249.339 182.66 248.865 182.785C247.871 183.048 246.894 183.235 245.985 183.314C245.256 183.378 244.597 183.368 244.025 183.278C243.767 183.238 243.525 183.415 243.485 183.674C243.445 183.934 243.621 184.177 243.879 184.217C244.533 184.32 245.267 184.331 246.067 184.261C247.035 184.177 248.063 183.98 249.105 183.705C249.599 183.574 250.064 183.434 250.486 183.294L250.853 183.169C250.926 183.143 250.985 183.121 251.029 183.104C251.273 183.011 251.396 182.737 251.304 182.492Z" fill="#C44343"/>
<path d="M244.124 169.737C241.515 168.779 239.53 168.578 238.155 168.819C237.959 168.853 237.822 168.889 237.742 168.918C237.504 169.002 237.38 169.264 237.463 169.503C237.54 169.722 237.765 169.846 237.985 169.8L238.096 169.768C238.143 169.756 238.214 169.74 238.311 169.723C239.526 169.51 241.349 169.694 243.811 170.599C244.048 170.686 244.309 170.563 244.396 170.325C244.482 170.087 244.36 169.824 244.124 169.737Z" fill="#253368"/>
<path d="M254.159 168.95C252.763 168.82 251.26 168.835 249.839 169.096C249.123 169.228 248.461 169.419 247.862 169.676C247.631 169.776 247.523 170.045 247.622 170.278C247.721 170.511 247.989 170.619 248.221 170.52C248.753 170.291 249.351 170.119 250.003 169.999C251.33 169.755 252.754 169.74 254.075 169.864L254.371 169.894C254.515 169.911 254.625 169.925 254.694 169.936C254.943 169.976 255.176 169.804 255.215 169.554C255.254 169.304 255.084 169.069 254.835 169.03L254.651 169.004L254.42 168.977C254.338 168.968 254.251 168.959 254.159 168.95Z" fill="#253368"/>
<path d="M246.727 186.08C246.534 186.075 246.373 186.229 246.369 186.423C246.364 186.598 246.488 186.746 246.653 186.778L246.71 186.784L247.973 186.815C248.166 186.82 248.326 186.666 248.331 186.472C248.335 186.297 248.212 186.149 248.047 186.117L247.99 186.111L246.727 186.08Z" fill="#DD936F"/>
<path fill-rule="evenodd" clip-rule="evenodd" d="M267.403 180.189C268.541 175.664 264.175 175.775 264.175 175.775C264.175 175.775 263.917 180.318 262.579 184.337C266.95 184.371 267.403 180.189 267.403 180.189Z" fill="#FFC999"/>
<path fill-rule="evenodd" clip-rule="evenodd" d="M264.822 183.293C264.765 183.024 264.396 182.998 264.3 183.256C263.46 185.534 261.427 191.691 263.84 192.062C266.563 192.48 265.351 185.746 264.822 183.293Z" fill="white"/>
<path d="M242.503 174.999C242.251 175.005 242.052 175.215 242.058 175.468C242.077 176.325 241.624 176.983 241.129 176.994C240.634 177.006 240.151 176.369 240.132 175.512C240.126 175.259 239.917 175.059 239.665 175.064C239.414 175.07 239.214 175.28 239.22 175.533C239.25 176.845 240.077 177.936 241.15 177.911C242.222 177.887 242.999 176.759 242.969 175.447C242.964 175.194 242.755 174.993 242.503 174.999Z" fill="#253368"/>
<path d="M252.797 175.12C252.545 175.126 252.346 175.336 252.351 175.589C252.371 176.445 251.918 177.103 251.423 177.115C250.928 177.126 250.445 176.49 250.426 175.633C250.42 175.38 250.211 175.179 249.959 175.185C249.708 175.191 249.508 175.401 249.514 175.654C249.544 176.966 250.371 178.057 251.444 178.032C252.517 178.007 253.293 176.879 253.263 175.568C253.258 175.315 253.049 175.114 252.797 175.12Z" fill="#253368"/>
<path fill-rule="evenodd" clip-rule="evenodd" d="M197.046 252.797C197.046 252.797 214.754 223.762 218.738 218.73C228.363 206.576 238.048 209.613 240.06 218.244C242.484 228.649 209.114 263.126 209.114 263.126C209.114 263.126 205.012 268.096 198.883 264.428C191.639 260.094 197.046 252.797 197.046 252.797Z" fill="#FFC999"/>
<path fill-rule="evenodd" clip-rule="evenodd" d="M208.592 232.902C210.458 230.285 223.677 204.795 234.045 211.425C242.829 217.043 240.772 226.039 226.134 243.928L208.592 232.902Z" fill="#554AF0"/>
<path fill-rule="evenodd" clip-rule="evenodd" d="M175.464 209.477C185.79 240.016 187.443 247.955 192.442 257.348C200.744 272.946 213.091 265.045 209.853 255.76C207.821 249.933 201.178 239.551 196.364 230.032C189.578 216.615 184.212 207.025 184.212 207.025L175.464 209.477Z" fill="#FFC999"/>
<path d="M203.016 242.757C202.919 242.589 202.705 242.531 202.538 242.628C202.388 242.716 202.326 242.899 202.386 243.057L202.41 243.109L207.766 252.435C207.863 252.604 208.077 252.661 208.244 252.564C208.395 252.476 208.456 252.293 208.396 252.135L208.372 252.083L203.016 242.757Z" fill="#DD936F"/>
<path fill-rule="evenodd" clip-rule="evenodd" d="M184.389 207.416L178.281 190.012C178.281 190.012 169.205 176.156 166.313 177.228C163.65 178.61 170.101 182.329 171.587 186.313C168.968 186.293 170.399 190.118 170.399 190.118C170.399 190.118 168.319 190.175 169.078 193.317C167.225 194.588 169 198.136 169 198.136C169 198.136 173.48 207.496 178.175 213.629C178.175 213.629 185.641 218.7 184.389 207.416Z" fill="#FFC999"/>
<path fill-rule="evenodd" clip-rule="evenodd" d="M182.902 201.499C182.902 201.499 181.773 195.468 181.021 192.407C180.268 189.346 181.214 183.671 179.064 185.297C177.618 186.39 178.091 189.699 178.301 192.149C178.511 194.598 174.941 200.665 178.13 204.503C180.286 207.095 183.435 207.252 182.902 201.499Z" fill="#FFC999"/>
<path d="M171.825 186.055C171.683 185.923 171.461 185.932 171.33 186.075C171.199 186.217 171.208 186.44 171.349 186.572L171.509 186.724C171.638 186.849 171.781 186.992 171.936 187.15C172.379 187.602 172.822 188.086 173.234 188.581C173.655 189.086 174.02 189.575 174.313 190.035C175.219 191.458 175.32 192.377 174.546 192.762C174.373 192.848 174.302 193.059 174.387 193.233C174.473 193.407 174.683 193.479 174.856 193.393C176.155 192.747 176.004 191.386 174.902 189.655C174.591 189.167 174.209 188.656 173.771 188.129C173.345 187.618 172.89 187.121 172.435 186.656L172.205 186.424L171.875 186.103C171.854 186.083 171.837 186.067 171.825 186.055Z" fill="#DD936F"/>
<path d="M170.363 190.024C170.256 190.185 170.299 190.404 170.459 190.512L170.622 190.625C170.755 190.718 170.902 190.825 171.061 190.944C171.516 191.282 171.97 191.646 172.393 192.021C172.885 192.458 173.302 192.88 173.617 193.274C174.316 194.148 174.426 194.725 173.957 195.058C173.706 195.235 173.402 195.266 173.032 195.16C172.636 195.046 172.193 194.782 171.739 194.414C171.511 194.229 171.295 194.03 171.099 193.831L170.886 193.607C170.875 193.594 170.865 193.582 170.856 193.572C170.729 193.425 170.508 193.41 170.362 193.537C170.217 193.664 170.201 193.887 170.328 194.033L170.41 194.126C170.461 194.181 170.525 194.249 170.602 194.327C170.816 194.543 171.05 194.759 171.299 194.962C171.821 195.384 172.338 195.692 172.841 195.836C173.4 195.997 173.92 195.945 174.36 195.633C175.271 194.987 175.08 193.98 174.162 192.832C173.818 192.403 173.375 191.954 172.856 191.493C172.416 191.104 171.947 190.728 171.478 190.378L171.241 190.204L170.848 189.927C170.688 189.819 170.471 189.862 170.363 190.024Z" fill="#DD936F"/>
<path d="M169.82 193.154C169.628 193.136 169.457 193.278 169.44 193.472C169.422 193.665 169.563 193.837 169.756 193.855C170.167 193.893 170.717 194.233 171.399 194.943C172.827 196.43 173.161 197.411 172.805 197.652C172.427 197.908 171.439 197.529 170.762 196.677C170.491 196.335 169.966 196.699 170.187 197.075C170.957 198.388 171.816 199.347 172.814 200.08L173.078 200.269C173.584 200.622 173.99 200.839 174.894 201.255L175.577 201.565C177.693 202.517 178.518 203.304 179.094 205.468C179.144 205.656 179.336 205.767 179.522 205.717C179.709 205.666 179.82 205.473 179.77 205.286C179.148 202.953 178.207 202.007 176.051 201.008L175.06 200.557C174.148 200.135 173.8 199.932 173.226 199.511C172.797 199.196 172.395 198.835 172.015 198.414L171.955 198.345L172.033 198.367C172.437 198.469 172.819 198.449 173.117 198.284L173.196 198.236C174.081 197.636 173.598 196.22 171.902 194.454C171.115 193.635 170.43 193.211 169.82 193.154Z" fill="#DD936F"/>
<path d="M178.045 188.735C177.871 188.732 177.725 188.857 177.694 189.024L177.689 189.08L177.602 193.695L177.512 193.879L177.444 194.027C177.3 194.346 177.156 194.702 177.022 195.085C176.615 196.251 176.38 197.423 176.408 198.528C176.433 199.526 176.674 200.42 177.169 201.175C177.275 201.338 177.492 201.383 177.653 201.276C177.815 201.169 177.859 200.951 177.753 200.788C177.336 200.152 177.129 199.385 177.107 198.51C177.082 197.503 177.301 196.41 177.682 195.319C177.809 194.955 177.945 194.619 178.081 194.318L178.187 194.09C178.217 194.028 178.241 193.981 178.258 193.949C178.275 193.916 178.287 193.881 178.293 193.845L178.299 193.79L178.388 189.094C178.392 188.9 178.238 188.739 178.045 188.735Z" fill="#DD936F"/>
<path fill-rule="evenodd" clip-rule="evenodd" d="M242.696 407.884C242.716 407.641 227.738 488.179 227.904 492.533C228.354 504.414 228.832 506.064 222.651 509.464C221.067 510.335 218.595 509.519 216.149 512.513C209.454 520.709 199.396 525.595 197.928 521.094C196.928 516.865 212.908 502.631 214.214 493.757C215.571 484.538 218.791 403.082 220.514 395.119C223.596 380.878 245.835 357.181 242.696 407.884Z" fill="#FFC999"/>
<path fill-rule="evenodd" clip-rule="evenodd" d="M226.775 510.832C226.775 510.832 229.517 504.226 227.892 496.377C227.892 496.377 221.822 501.545 217.394 507.081C212.281 513.472 210.993 513.838 210.993 513.838C204.332 516.218 202.657 512.396 202.657 512.396C202.657 512.396 199.171 517.303 192.443 522.707C186.419 527.547 210.573 527.509 213.629 521.248C216.684 514.988 220.892 511.232 220.892 511.232L223.153 520.441L225.447 520.283L226.775 510.832Z" fill="#253368"/>
<path fill-rule="evenodd" clip-rule="evenodd" d="M216.738 377.793L210.593 473.187L250.008 474.485C250.008 474.485 252.155 428.125 253.637 380.568C253.637 380.568 256.087 355.83 236.603 354.76C217.119 353.69 216.738 377.793 216.738 377.793Z" fill="#E4EBF7"/>
<path fill-rule="evenodd" clip-rule="evenodd" d="M217.286 378.282C218.911 339.963 223.256 299.019 226.865 290.702C226.865 290.702 231.206 285.717 243.842 293.962C258.576 303.576 255.693 315.716 255.693 315.716L253.378 380.295C252.989 385.36 251.194 401.07 231.87 398.73C212.849 396.426 217.25 379.117 217.286 378.282Z" fill="#E4EBF7"/>
<path fill-rule="evenodd" clip-rule="evenodd" d="M263.614 268.013C256.329 270.396 237.561 270.586 235.285 269.803C233.01 269.019 234.722 264.656 234.722 264.656C224.682 242.039 224.824 242.378 224.148 237.619C223.477 232.891 227.08 224.344 227.08 224.344C227.08 224.344 223.889 215.355 224.874 212.7C226.205 209.11 239.269 209.662 241.615 208.21C243.961 206.758 243.676 202.075 243.676 202.075L261.545 200.266C261.545 200.266 262.074 205.56 263.168 207.117C265.295 210.142 271.902 206.451 277.159 212.495C286.553 223.298 270.126 246.355 264.784 261.156C264.784 261.156 267.295 264.464 263.614 268.013Z" fill="#554AF0"/>
<path d="M257.523 207.777L242.509 209.83C242.259 209.864 242.085 210.096 242.118 210.347C242.15 210.577 242.345 210.744 242.57 210.744L242.632 210.739L257.646 208.686C257.896 208.652 258.071 208.421 258.037 208.169C258.006 207.939 257.81 207.772 257.585 207.772L257.523 207.777Z" fill="#253368"/>
<path d="M253.914 210.472L243.491 212.712C243.244 212.765 243.087 213.009 243.14 213.257C243.188 213.484 243.396 213.636 243.62 213.619L243.681 213.61L254.104 211.369C254.351 211.316 254.508 211.072 254.455 210.824C254.407 210.597 254.199 210.446 253.975 210.463L253.914 210.472Z" fill="#253368"/>
<path d="M262.367 234.292C262.183 234.119 261.894 234.13 261.723 234.315L261.65 234.389C261.548 234.49 261.387 234.636 261.166 234.816C260.686 235.207 260.109 235.6 259.437 235.968C256.781 237.42 253.504 238.054 249.606 237.408L249.27 237.349C247.847 237.089 244.493 237.126 239.737 237.383L238.412 237.458C237.739 237.498 237.051 237.541 236.351 237.588L235.647 237.635C234.379 237.722 233.135 237.814 231.951 237.907L229.617 238.098C229.366 238.12 229.18 238.342 229.202 238.595C229.224 238.847 229.445 239.034 229.696 239.012L231.159 238.89L232.617 238.775C233.617 238.699 234.655 238.623 235.709 238.551L237.105 238.458C237.794 238.414 238.471 238.373 239.131 238.336L240.701 238.252C244.789 238.049 247.73 238.027 249.016 238.236L249.107 238.252C253.366 239.031 256.964 238.365 259.873 236.774C260.595 236.379 261.218 235.955 261.74 235.529L261.937 235.365C262.149 235.183 262.3 235.037 262.39 234.941C262.561 234.755 262.551 234.465 262.367 234.292Z" fill="#253368"/>
<path d="M227.367 218.599C227.137 218.591 226.94 218.757 226.902 218.98L226.896 219.042L226.712 224.428L226.614 224.658C226.51 224.907 226.394 225.193 226.268 225.511C225.911 226.418 225.554 227.399 225.22 228.419C224.768 229.8 224.396 231.146 224.129 232.416C223.791 234.029 223.636 235.465 223.699 236.683C223.799 238.612 224.333 241.053 225.22 243.893C225.655 245.287 226.167 246.75 226.741 248.259C227.406 250.009 228.119 251.731 228.831 253.35L229.192 254.159L229.646 255.152C229.707 255.283 229.754 255.382 229.784 255.445C229.893 255.673 230.165 255.769 230.392 255.659C230.619 255.55 230.715 255.275 230.606 255.047L230.348 254.496L230.022 253.78C229.908 253.527 229.789 253.259 229.665 252.978C228.959 251.373 228.252 249.666 227.592 247.931C227.025 246.438 226.519 244.993 226.09 243.618C225.224 240.845 224.705 238.473 224.61 236.636C224.552 235.508 224.699 234.147 225.022 232.605C225.281 231.371 225.644 230.057 226.086 228.706C226.359 227.871 226.649 227.062 226.941 226.3L227.116 225.849C227.214 225.6 227.307 225.371 227.392 225.164L227.582 224.716C227.597 224.681 227.609 224.643 227.615 224.605L227.62 224.547L227.807 219.073C227.816 218.82 227.619 218.608 227.367 218.599Z" fill="#253368"/>
<path fill-rule="evenodd" clip-rule="evenodd" d="M241.473 318.367L224.49 302.118C224.49 302.118 226.494 283.473 234.581 274.802L265.484 271.362C265.484 271.362 278.27 277.64 284.249 301.249L256.94 317.326L241.473 318.367Z" fill="#E4EBF7"/>
<path fill-rule="evenodd" clip-rule="evenodd" d="M266.235 271.671L234.581 274.803L235.003 269.862L264.808 266.69L266.235 271.671Z" fill="#E4EBF7"/>
<path d="M245.63 273.988C245.441 273.981 245.282 274.128 245.275 274.318C245.153 277.359 245.132 280.645 245.203 284.139C245.332 290.608 245.766 297.53 246.406 304.519L246.533 305.875C246.747 308.111 246.97 310.229 247.194 312.192L247.373 313.725L247.65 315.951C247.675 316.139 247.847 316.271 248.035 316.246C248.222 316.221 248.353 316.047 248.328 315.859L248.156 314.504C248.089 313.959 248.017 313.355 247.941 312.697L247.806 311.522C247.561 309.333 247.317 306.962 247.087 304.456C246.448 297.482 246.016 290.576 245.887 284.125C245.817 280.644 245.838 277.372 245.958 274.346C245.966 274.156 245.819 273.996 245.63 273.988Z" fill="#A3B5D6"/>
<path d="M266.137 271.587L235.102 274.49C234.914 274.507 234.776 274.675 234.793 274.864C234.809 275.034 234.946 275.164 235.11 275.176L235.165 275.175L266.201 272.273C266.389 272.255 266.527 272.087 266.509 271.898C266.494 271.728 266.357 271.598 266.193 271.587L266.137 271.587Z" fill="#A3B5D6"/>
<path fill-rule="evenodd" clip-rule="evenodd" d="M266.609 425.947C266.572 425.705 273.434 486.025 273.564 490.38C273.915 502.265 272.604 503.936 279.001 506.906C280.639 507.667 283.052 506.684 285.693 509.505C292.925 517.225 303.29 521.412 304.452 516.823C305.164 512.534 288.261 499.425 286.358 490.66C284.382 481.555 293.96 410.275 287.568 405.269C281.175 400.263 267.341 375.912 266.609 425.947Z" fill="#FFC999"/>
<path fill-rule="evenodd" clip-rule="evenodd" d="M274.978 508.553C274.978 508.553 272.741 502.156 273.834 494.215C273.834 494.215 279.292 498.95 284.084 504.17C289.617 510.197 290.927 510.474 290.927 510.474C297.732 512.395 299.147 508.467 299.147 508.467C299.147 508.467 302.956 513.124 310.032 518.057C316.368 522.474 292.268 524.086 288.797 518.048C285.326 512.01 280.874 508.55 280.874 508.55L279.24 517.893L276.94 517.892L274.978 508.553Z" fill="#253368"/>
<path fill-rule="evenodd" clip-rule="evenodd" d="M290.839 368.088L299.088 471.907L262.598 474.936C262.598 474.936 256.199 418.964 253.988 371.436C253.988 371.436 251.158 346.738 270.623 345.367C290.089 343.994 290.839 368.088 290.839 368.088Z" fill="#E4EBF7"/>
<path fill-rule="evenodd" clip-rule="evenodd" d="M254.178 369.686C249.976 331.566 247.993 289.485 250.299 280.713C250.299 280.713 253.834 275.119 267.571 281.33C283.59 288.572 284.097 302.286 284.097 302.286L291.074 365.923C291.457 370.988 292.99 385.712 273.708 388.371C254.728 390.989 254.269 370.516 254.178 369.686Z" fill="#E4EBF7"/>
<path fill-rule="evenodd" clip-rule="evenodd" d="M278.416 261.286C278.416 261.286 266.045 234.533 264.12 227.87C259.475 211.775 266.676 208.633 274.946 212.317C284.916 216.758 297 260.477 297 260.477C297 260.477 298.07 266.022 291.592 269.074C283.935 272.682 278.416 261.286 278.416 261.286Z" fill="#FFC999"/>
<path fill-rule="evenodd" clip-rule="evenodd" d="M270.968 245.009C269.908 241.97 253.193 216.217 267.765 209.677C277.27 205.41 282.396 214.196 290.718 236.73L270.968 245.009Z" fill="#554AF0"/>
<path fill-rule="evenodd" clip-rule="evenodd" d="M232.249 264.134C232.524 266.931 234.833 269.081 237.626 269.142L286.736 270.208C292.376 270.33 296.889 265.531 296.456 259.873C296.033 254.343 291.052 250.324 285.594 251.108L236.965 258.087C234.037 258.507 231.958 261.173 232.249 264.134Z" fill="#FFC999"/>
<path fill-rule="evenodd" clip-rule="evenodd" d="M236.269 276.838L225.472 242.861C225.293 242.3 224.78 241.918 224.195 241.909L193.918 241.497C192.978 241.484 192.309 242.413 192.614 243.308L203.886 276.383C204.066 276.915 204.553 277.281 205.111 277.306L234.914 278.621C235.859 278.662 236.557 277.744 236.269 276.838Z" fill="#253368"/>
<path fill-rule="evenodd" clip-rule="evenodd" d="M234.673 276.423L224.064 243.038C223.848 242.36 223.226 241.897 222.518 241.887L191.867 241.469C191.209 241.46 190.741 242.11 190.955 242.735L202.383 276.268C202.584 276.857 203.122 277.263 203.74 277.29L233.033 278.583C234.178 278.633 235.021 277.521 234.673 276.423Z" fill="#253368"/>
<path fill-rule="evenodd" clip-rule="evenodd" d="M219.913 245.104C219.571 245.487 219.694 246.161 220.189 246.609C220.684 247.056 221.363 247.109 221.706 246.725C222.049 246.342 221.926 245.668 221.43 245.219C220.936 244.772 220.256 244.72 219.913 245.104Z" fill="#ADC6FF"/>
<path fill-rule="evenodd" clip-rule="evenodd" d="M220.32 245.505C220.143 245.704 220.206 246.053 220.464 246.286C220.72 246.518 221.073 246.545 221.251 246.346C221.429 246.147 221.365 245.797 221.108 245.565C220.851 245.333 220.498 245.306 220.32 245.505Z" fill="#E4EBF7"/>
<path fill-rule="evenodd" clip-rule="evenodd" d="M222.791 270.449C221.052 270.279 220.136 269.548 220.301 268.09C218.209 267.428 218.443 265.645 218.443 265.645C218.443 265.645 214.415 265.582 213.738 263.852C213.475 263.179 213.986 262.459 214.702 262.41C223.331 261.822 229.483 257.223 229.483 257.223C229.483 257.223 226.092 252.211 226.45 249.899C226.556 249.214 227.445 248.994 227.86 249.546C231.417 254.269 238.551 257.972 238.551 257.972C238.551 257.972 247.114 266.042 237.825 269.702C237.825 269.702 230.745 272.54 225.814 272.182C223.481 272.011 222.791 270.449 222.791 270.449Z" fill="#FFC999"/>
<path d="M224.789 264.106C224.717 263.976 224.554 263.93 224.425 264.003C223.807 264.35 223.085 264.633 222.279 264.857C221.32 265.123 220.29 265.294 219.253 265.386C218.732 265.433 218.288 265.454 217.952 265.459L217.71 265.46C217.563 265.458 217.441 265.577 217.439 265.725C217.438 265.857 217.531 265.969 217.655 265.993L217.703 265.998L217.833 265.998C218.193 265.996 218.698 265.976 219.3 265.922C220.367 265.827 221.428 265.651 222.422 265.375C223.266 265.141 224.028 264.842 224.686 264.472C224.815 264.399 224.861 264.236 224.789 264.106Z" fill="#DD936F"/>
<path d="M225.602 266.773C225.538 266.64 225.378 266.584 225.245 266.648L225.005 266.761C223.98 267.226 222.879 267.525 221.774 267.688C221.091 267.789 220.544 267.822 220.204 267.82C220.053 267.818 219.931 267.936 219.929 268.085C219.928 268.217 220.021 268.328 220.145 268.352L220.193 268.357L220.306 268.357L220.545 268.351C220.89 268.336 221.334 268.297 221.852 268.22C223.003 268.05 224.151 267.739 225.225 267.251L225.477 267.132C225.61 267.068 225.666 266.907 225.602 266.773Z" fill="#DD936F"/>
<path d="M227.137 269.754C227.072 269.62 226.913 269.564 226.78 269.629C226.496 269.767 225.825 269.896 224.912 270.002C224.446 270.056 223.945 270.101 223.444 270.138L222.96 270.17L222.778 270.181C222.63 270.188 222.517 270.314 222.525 270.463C222.532 270.611 222.658 270.725 222.805 270.718L222.992 270.707C223.141 270.698 223.305 270.687 223.483 270.674C223.991 270.637 224.499 270.591 224.974 270.536L225.349 270.49C226.131 270.386 226.701 270.264 227.012 270.113C227.145 270.048 227.201 269.888 227.137 269.754Z" fill="#DD936F"/>
<path d="M285.606 250.839L285.558 250.841L238.143 257.358C237.997 257.378 237.894 257.513 237.914 257.661C237.932 257.791 238.04 257.887 238.167 257.893L238.215 257.891L285.63 251.374C285.776 251.354 285.879 251.218 285.859 251.071C285.841 250.94 285.733 250.844 285.606 250.839Z" fill="#DD936F"/>
<path d="M236.524 311.941C236.368 311.834 236.155 311.874 236.049 312.031C235.954 312.171 235.975 312.355 236.091 312.47L236.138 312.509L248.665 321.122L262.257 471.297C262.273 471.467 262.409 471.597 262.573 471.609H262.629C262.798 471.593 262.927 471.456 262.939 471.29L262.938 471.234L249.331 320.898C249.324 320.816 249.288 320.741 249.23 320.684L249.184 320.645L236.524 311.941Z" fill="#A3B5D6"/>
<path d="M264.965 231.13C264.862 230.899 264.593 230.795 264.363 230.898C264.152 230.992 264.047 231.228 264.11 231.445L264.131 231.503L270.295 245.454C270.389 245.667 270.624 245.772 270.84 245.708L270.898 245.686L290.416 236.902C290.646 236.799 290.749 236.528 290.646 236.296C290.552 236.084 290.317 235.98 290.102 236.043L290.043 236.065L270.944 244.66L264.965 231.13Z" fill="#253368"/>
<path d="M357.774 460.226C386.386 460.226 409.581 436.867 409.581 408.053C409.581 379.238 386.386 355.88 357.774 355.88C329.163 355.88 305.968 379.238 305.968 408.053C305.968 436.867 329.163 460.226 357.774 460.226Z" fill="#FFD666"/>
<path fill-rule="evenodd" clip-rule="evenodd" d="M391.034 389.793C390.717 390.185 390.144 390.244 389.754 389.924C386.974 387.641 383.914 388.347 381.33 389.83C380.049 390.565 378.946 391.463 378.159 392.184C377.767 392.543 377.457 392.854 377.248 393.074C377.143 393.184 377.063 393.27 377.01 393.328L376.98 393.362C378.175 396.788 377.951 401.187 376.44 405.866L357.336 389.15C361.815 386.946 366.192 386.119 369.767 386.91C369.806 386.861 369.852 386.803 369.904 386.736C370.091 386.496 370.354 386.144 370.652 385.703C371.251 384.817 371.98 383.592 372.524 382.211C373.62 379.427 373.886 376.278 371.254 373.824C370.885 373.48 370.863 372.9 371.204 372.529C371.545 372.158 372.121 372.136 372.489 372.48C375.941 375.698 375.424 379.819 374.215 382.888C373.606 384.434 372.802 385.78 372.156 386.735C371.96 387.025 371.778 387.281 371.618 387.496C372.545 387.889 373.397 388.415 374.158 389.081C374.968 389.79 375.637 390.624 376.169 391.562C376.377 391.353 376.633 391.103 376.934 390.828C377.782 390.05 378.994 389.06 380.429 388.237C383.277 386.603 387.257 385.511 390.903 388.504C391.292 388.824 391.351 389.401 391.034 389.793ZM344.911 398.986L343.527 400.591C343.886 400.142 344.257 399.696 344.638 399.254C345.019 398.812 345.406 398.381 345.797 397.96L345.268 398.573C346.495 397.167 347.774 395.867 349.087 394.681L347.874 388.603C347.842 388.444 347.853 388.279 347.905 388.125L351.471 377.679C351.635 377.201 352.152 376.947 352.627 377.112C353.102 377.277 353.355 377.798 353.192 378.276L349.706 388.488L350.67 393.317C352.017 392.212 353.39 391.225 354.768 390.362L375.654 408.638C374.978 410.18 374.17 411.736 373.236 413.281L378.495 413.59L388.047 408.687C388.494 408.457 389.042 408.636 389.271 409.087C389.499 409.538 389.322 410.089 388.875 410.319L379.103 415.335C378.959 415.409 378.798 415.443 378.637 415.433L372.138 415.051C372.128 415.051 372.117 415.05 372.107 415.049C371.1 416.547 369.973 418.027 368.731 419.467C365.593 423.105 362.099 426.045 358.586 428.17C358.746 428.304 358.862 428.493 358.901 428.715L360.351 436.853C360.378 437.006 360.366 437.163 360.317 437.309L356.988 447.18C356.826 447.659 356.31 447.915 355.834 447.752C355.358 447.589 355.103 447.068 355.265 446.589L358.518 436.942L357.11 429.036L357.107 429.017C350.175 432.757 343.349 433.261 339.211 429.64C335.103 426.045 334.622 419.242 337.265 411.869L329.529 411.578L320.499 416.171C320.051 416.399 319.504 416.217 319.277 415.766C319.05 415.314 319.229 414.763 319.678 414.535L328.917 409.836C329.054 409.766 329.207 409.733 329.361 409.738L337.565 410.047C337.698 410.052 337.824 410.086 337.937 410.142C339.505 406.405 341.851 402.575 344.911 398.986Z" fill="#554AF0"/>
<path fill-rule="evenodd" clip-rule="evenodd" d="M158.225 185.612H28.9658V173.923C28.9658 171.388 31.0028 169.332 33.5152 169.332H153.675C156.188 169.332 158.225 171.388 158.225 173.923V185.612Z" fill="#253368"/>
<path fill-rule="evenodd" clip-rule="evenodd" d="M153.675 298.156H33.5152C31.0028 298.156 28.9658 296.1 28.9658 293.565V184.243H158.225V293.565C158.225 296.1 156.188 298.156 153.675 298.156Z" fill="#E4EBF7"/>
<path fill-rule="evenodd" clip-rule="evenodd" d="M39.4701 176.908C39.4701 178.499 38.1917 179.789 36.6147 179.789C35.038 179.789 33.7598 178.499 33.7598 176.908C33.7598 175.317 35.038 174.027 36.6147 174.027C38.1917 174.027 39.4701 175.317 39.4701 176.908Z" fill="#FF7946"/>
<path fill-rule="evenodd" clip-rule="evenodd" d="M50.1327 176.908C50.1327 178.499 48.8545 179.789 47.2776 179.789C45.7008 179.789 44.4226 178.499 44.4226 176.908C44.4226 175.317 45.7008 174.027 47.2776 174.027C48.8545 174.027 50.1327 175.317 50.1327 176.908Z" fill="#FAAD14"/>
<path fill-rule="evenodd" clip-rule="evenodd" d="M60.7955 176.908C60.7955 178.499 59.5173 179.789 57.9404 179.789C56.3636 179.789 55.0854 178.499 55.0854 176.908C55.0854 175.317 56.3636 174.027 57.9404 174.027C59.5173 174.027 60.7955 175.317 60.7955 176.908Z" fill="#7CB305"/>
<path fill-rule="evenodd" clip-rule="evenodd" d="M42.9365 282.661C42.1523 282.661 41.5168 282.02 41.5168 281.23V198.241C41.5168 197.45 42.1523 196.809 42.9365 196.809H145.667C146.451 196.809 147.086 197.45 147.086 198.241V281.23C147.086 282.02 146.451 282.661 145.667 282.661H42.9365Z" fill="white"/>
<rect x="50.8726" y="207.378" width="87.5005" height="6.10469" rx="3.05234" fill="#554AF0"/>
<rect x="50.8723" y="217.552" width="87.5005" height="6.10469" rx="3.05234" fill="#FAAD14"/>
<rect x="50.8723" y="227.727" width="87.5005" height="6.10469" rx="3.05234" fill="#ADC6FF"/>
<rect x="50.8723" y="237.901" width="87.5005" height="6.10469" rx="3.05234" fill="#FF7A46"/>
<rect x="50.8723" y="248.076" width="87.5005" height="6.10469" rx="3.05234" fill="#D9D9D9"/>
<path fill-rule="evenodd" clip-rule="evenodd" d="M407.818 134.288H346.309C344.308 134.288 342.638 135.784 342.357 137.779C340.529 150.796 328.743 157.488 323.595 159.745C322.141 160.383 321.196 161.823 321.196 163.42V216.391C321.196 251.055 377.064 273.143 377.064 273.143C377.064 273.143 432.932 251.055 432.932 216.391V163.42C432.932 161.823 431.987 160.383 430.532 159.745C425.384 157.488 413.598 150.796 411.77 137.779C411.49 135.784 409.819 134.455 407.818 134.455V134.288Z" fill="#E4EBF7"/>
<path fill-rule="evenodd" clip-rule="evenodd" d="M402.648 144.607C403.406 146.966 404.421 149.242 405.685 151.415C407.545 154.608 409.951 157.585 412.838 160.261C416.076 163.263 419.497 165.508 422.471 167.132V216.104C422.471 229.361 409.864 241.102 399.288 248.617C390.691 254.727 381.935 259.118 377.057 261.365C372.258 259.158 363.697 254.868 355.149 248.836C347.916 243.733 342.229 238.468 338.247 233.188C336.079 230.313 334.425 227.43 333.33 224.619C332.204 221.73 331.657 218.945 331.657 216.104V167.132C334.63 165.508 338.052 163.263 341.29 160.261C344.176 157.585 346.583 154.608 348.442 151.415C349.707 149.242 350.722 146.966 351.48 144.607H402.648Z" fill="#554AF0"/>
<path fill-rule="evenodd" clip-rule="evenodd" d="M379.743 172.17L361.38 200.231C360.391 201.753 361.454 203.623 363.235 203.623H371.461L361.347 222.791C360.593 224.341 362.537 225.778 363.729 224.553L391.236 196.825C392.639 195.382 391.644 192.917 389.658 192.917H377.219L382.422 173.388C382.829 171.726 380.669 170.744 379.743 172.17Z" fill="white"/>
<path fill-rule="evenodd" clip-rule="evenodd" d="M193.698 371.1C197.724 376.172 196.913 383.576 191.888 387.638C189.665 389.434 186.991 390.276 184.351 390.218L184.349 390.216C157.369 393.685 153.011 410.451 152.32 415.049C152.319 415.067 152.317 415.085 152.315 415.104C152.294 415.297 152.268 415.489 152.238 415.679C152.2 416.027 152.193 416.218 152.193 416.218L152.152 416.16C150.967 422.062 145.492 426.18 139.446 425.505C133.046 424.792 128.431 418.978 129.138 412.52C129.839 406.127 135.492 401.498 141.815 402.099L142.007 402.119C163.241 403.669 171.015 383.696 173.057 376.801C173.458 373.941 174.899 371.222 177.31 369.273C182.336 365.211 189.673 366.029 193.698 371.1Z" fill="#ADC6FF"/>
<path fill-rule="evenodd" clip-rule="evenodd" d="M186.06 366.549C192.48 367.263 197.108 373.082 196.399 379.547C195.69 386.011 189.911 390.673 183.492 389.959C177.073 389.245 172.444 383.425 173.153 376.96C173.862 370.496 179.641 365.834 186.06 366.549Z" fill="#ADC6FF"/>
<path fill-rule="evenodd" clip-rule="evenodd" d="M389.17 324.797C394.062 323.477 399.089 326.358 400.474 331.244L400.515 331.393C405.51 347.678 422.425 347.708 428.06 347.243C432.938 346.039 437.901 348.98 439.207 353.89C440.531 358.866 437.599 363.981 432.657 365.314C428.649 366.396 424.55 364.657 422.439 361.305L422.414 361.353C411.979 340.312 397.683 341.971 394.005 342.806L393.965 342.817C393.819 342.857 393.672 342.893 393.525 342.925C393.256 342.997 393.113 343.047 393.113 343.047L393.143 343C388.473 343.817 383.872 340.922 382.621 336.221C381.297 331.245 384.229 326.13 389.17 324.797Z" fill="#ADC6FF"/>
</svg>
