<svg width="76" height="70" viewBox="0 0 76 70" fill="none" xmlns="http://www.w3.org/2000/svg">
<ellipse cx="37.8367" cy="47.6654" rx="16.0013" ry="14.6679" fill="white"/>
<path d="M74.3411 13.3956L56.0959 24.6371L38.6007 1.30082C38.5303 1.20689 38.439 1.13065 38.3341 1.07814C38.2291 1.02563 38.1134 0.998291 37.996 0.998291C37.8786 0.998291 37.7629 1.02563 37.6579 1.07814C37.5529 1.13065 37.4616 1.20689 37.3913 1.30082L19.9055 24.6371L1.65086 13.3956C1.11644 13.0674 0.422638 13.5081 0.50702 14.1362L7.6701 68.5719C7.77323 69.3126 8.41078 69.8845 9.17022 69.8845H66.8405C67.5906 69.8845 68.2375 69.322 68.3313 68.5719L75.4943 14.1362C75.5693 13.5081 74.8849 13.0674 74.3411 13.3956ZM38.0007 56.3084C32.1783 56.3084 27.4436 51.5737 27.4436 45.7513C27.4436 39.929 32.1783 35.1942 38.0007 35.1942C43.823 35.1942 48.5578 39.929 48.5578 45.7513C48.5578 51.5737 43.823 56.3084 38.0007 56.3084ZM38.0007 41.2228C35.5067 41.2228 33.4816 43.248 33.4816 45.7513C33.4816 48.2453 35.5067 50.2798 38.0007 50.2798C40.4946 50.2798 42.5198 48.2546 42.5198 45.7513C42.5198 43.2574 40.4946 41.2228 38.0007 41.2228Z" fill="#F37FB7"/>
</svg>
