<svg width="281" height="226" viewBox="0 0 281 226" fill="none" xmlns="http://www.w3.org/2000/svg">
<path d="M270.72 176.256H256.624C254.758 176.256 253.245 177.769 253.245 179.635L253.245 193.731C253.245 195.597 254.758 197.11 256.624 197.11H270.72C272.586 197.11 274.099 195.597 274.099 193.731V179.635C274.099 177.769 272.586 176.256 270.72 176.256Z" fill="#D6E4FF"/>
<path d="M263.078 212.407H259.409C257.543 212.407 256.03 213.92 256.03 215.786L256.03 219.455C256.03 221.322 257.543 222.834 259.409 222.834H263.078C264.945 222.834 266.457 221.322 266.457 219.455V215.786C266.457 213.92 264.945 212.407 263.078 212.407Z" fill="#FF7946"/>
<path d="M64.6976 15.5615H19.584C17.7179 15.5615 16.2051 17.0743 16.2051 18.9404L16.2051 64.054C16.2051 65.9201 17.7179 67.4329 19.584 67.4329H64.6976C66.5637 67.4329 68.0765 65.9201 68.0765 64.054V18.9404C68.0765 17.0743 66.5637 15.5615 64.6976 15.5615Z" fill="#D6E4FF"/>
<path d="M25.8138 74.9297H22.1445C20.2784 74.9297 18.7656 76.4425 18.7656 78.3086L18.7656 81.9779C18.7656 83.844 20.2784 85.3568 22.1445 85.3568H25.8138C27.6799 85.3568 29.1927 83.844 29.1927 81.9779V78.3086C29.1927 76.4425 27.6799 74.9297 25.8138 74.9297Z" fill="#FAAD14"/>
<path fill-rule="evenodd" clip-rule="evenodd" d="M47.5254 133.256C47.5254 183.641 88.3705 224.486 138.756 224.486C189.141 224.486 229.986 183.641 229.986 133.256C229.986 82.8705 189.141 42.0254 138.756 42.0254C88.3705 42.0254 47.5254 82.8705 47.5254 133.256Z" fill="#554AF0"/>
<path d="M178.177 104.5H163.927V95.5938C163.927 91.6639 160.732 88.4688 156.802 88.4688H121.177C117.247 88.4688 114.052 91.6639 114.052 95.5938V104.5H99.8018C97.8312 104.5 96.2393 106.092 96.2393 108.062V111.625C96.2393 112.115 96.64 112.516 97.1299 112.516H103.854L106.604 170.74C106.782 174.537 109.921 177.531 113.718 177.531H164.261C168.068 177.531 171.196 174.548 171.375 170.74L174.124 112.516H180.849C181.338 112.516 181.739 112.115 181.739 111.625V108.062C181.739 106.092 180.147 104.5 178.177 104.5ZM155.911 104.5H122.067V96.4844H155.911V104.5Z" fill="white"/>
<path fill-rule="evenodd" clip-rule="evenodd" d="M224.489 15.5781C201.889 15.5781 183.567 33.8994 183.567 56.5C183.567 79.1005 201.889 97.4219 224.489 97.4219C247.09 97.4219 265.411 79.1005 265.411 56.5C265.411 33.8994 247.09 15.5781 224.489 15.5781Z" fill="#FAAD14"/>
<path fill-rule="evenodd" clip-rule="evenodd" d="M226.161 68.192H224.699C223.488 68.192 222.507 67.2105 222.507 65.9997V38.2313C222.507 37.0205 223.488 36.0391 224.699 36.0391H226.161C227.371 36.0391 228.353 37.0205 228.353 38.2313V65.9997C228.353 67.2105 227.371 68.192 226.161 68.192Z" fill="white"/>
<path fill-rule="evenodd" clip-rule="evenodd" d="M226.161 77.179H224.699C223.488 77.179 222.507 76.1975 222.507 74.9867V73.5253C222.507 72.3145 223.488 71.333 224.699 71.333H226.161C227.371 71.333 228.353 72.3145 228.353 73.5253V74.9867C228.353 76.1975 227.371 77.179 226.161 77.179Z" fill="white"/>
</svg>
