<svg width="20" height="20" viewBox="0 0 20 20" fill="none" xmlns="http://www.w3.org/2000/svg">
<path d="M4.32352 15.3555C4.36816 15.3555 4.41281 15.3511 4.45745 15.3444L8.21191 14.6859C8.25656 14.677 8.29897 14.6569 8.33022 14.6234L17.7923 5.16134C17.813 5.14069 17.8294 5.11616 17.8406 5.08916C17.8518 5.06216 17.8576 5.03321 17.8576 5.00398C17.8576 4.97474 17.8518 4.9458 17.8406 4.91879C17.8294 4.89179 17.813 4.86726 17.7923 4.84661L14.0825 1.13456C14.04 1.09215 13.9842 1.06982 13.924 1.06982C13.8637 1.06982 13.8079 1.09215 13.7655 1.13456L4.30343 10.5966C4.26995 10.6301 4.24986 10.6703 4.24093 10.7149L3.58245 14.4694C3.56074 14.589 3.56849 14.712 3.60505 14.8279C3.64162 14.9438 3.70588 15.0491 3.79227 15.1346C3.93959 15.2774 4.12486 15.3555 4.32352 15.3555V15.3555ZM5.82799 11.4627L13.924 3.36893L15.5601 5.00509L7.46415 13.0988L5.47977 13.4493L5.82799 11.4627V11.4627ZM18.2141 17.2305H1.78557C1.39049 17.2305 1.07129 17.5497 1.07129 17.9448V18.7484C1.07129 18.8466 1.15165 18.927 1.24986 18.927H18.7499C18.8481 18.927 18.9284 18.8466 18.9284 18.7484V17.9448C18.9284 17.5497 18.6092 17.2305 18.2141 17.2305Z" fill="#666666"/>
</svg>
