<svg width="802" height="715" viewBox="0 0 802 715" fill="none" xmlns="http://www.w3.org/2000/svg">
<rect x="21.6804" y="99.8735" width="836.634" height="593.762" rx="19.0954" fill="white" fill-opacity="0.01"/>
<ellipse cx="517.735" cy="382.582" rx="216.177" ry="216.37" fill="#D6E4FF"/>
<path fill-rule="evenodd" clip-rule="evenodd" d="M103.398 267.117L138.446 212.839C137.337 211.936 136.628 210.559 136.628 209.017C136.628 206.296 138.834 204.091 141.555 204.091C144.275 204.091 146.481 206.296 146.481 209.017C146.481 210.847 145.483 212.444 144.002 213.294L170.357 273.6C170.92 273.377 171.533 273.254 172.176 273.254C174.896 273.254 177.102 275.459 177.102 278.18C177.102 280.901 174.896 283.107 172.176 283.107C169.554 283.107 167.41 281.059 167.258 278.475L106.016 272.444C105.582 274.72 103.581 276.441 101.177 276.441C98.4565 276.441 96.2509 274.236 96.2509 271.515C96.2509 268.794 98.4565 266.589 101.177 266.589C101.976 266.589 102.731 266.779 103.398 267.117ZM141.555 213.944C141.75 213.944 141.942 213.932 142.131 213.91L149.833 250.038C147.884 250.695 146.481 252.537 146.481 254.707C146.481 255.18 146.548 255.637 146.672 256.069L105.671 269.493C105.341 268.761 104.838 268.124 104.213 267.635L139.251 213.373C139.938 213.737 140.722 213.944 141.555 213.944ZM147.03 256.969L105.979 270.409C106.058 270.754 106.101 271.113 106.104 271.482L167.295 277.508C167.419 276.595 167.794 275.762 168.347 275.08L154.091 258.84C153.319 259.342 152.397 259.634 151.407 259.634C149.502 259.634 147.849 258.552 147.03 256.969ZM154.846 258.235L169.028 274.391C169.177 274.266 169.334 274.151 169.497 274.045L143.121 213.689C143.105 213.695 143.09 213.7 143.075 213.705L150.774 249.821C150.981 249.795 151.193 249.781 151.407 249.781C154.128 249.781 156.334 251.987 156.334 254.707C156.334 256.091 155.764 257.341 154.846 258.235Z" fill="#554AF0"/>
<path fill-rule="evenodd" clip-rule="evenodd" d="M91.4894 312.898C96.9209 312.898 101.334 317.257 101.422 322.668L101.423 322.832C102.11 340.971 119.624 345.697 125.59 346.783C130.975 346.898 135.305 351.3 135.305 356.714C135.305 362.2 130.858 366.648 125.371 366.648C120.921 366.648 117.154 363.721 115.89 359.688L115.851 359.73C110.841 335.189 95.5745 332.928 91.5334 332.765L91.4894 332.766C91.3266 332.766 91.1648 332.762 91.0039 332.754C90.705 332.754 90.5433 332.766 90.5433 332.766L90.5877 332.726C85.5239 332.27 81.5554 328.014 81.5554 322.832C81.5554 317.346 86.003 312.898 91.4894 312.898Z" fill="#E4ECF7"/>
<path fill-rule="evenodd" clip-rule="evenodd" d="M156.358 295.036C158.107 297.223 157.755 300.417 155.572 302.169C154.607 302.943 153.445 303.306 152.298 303.281L152.297 303.281C140.579 304.776 138.686 312.008 138.386 313.991C138.386 313.998 138.385 314.006 138.384 314.014C138.375 314.098 138.364 314.18 138.35 314.262C138.334 314.413 138.331 314.495 138.331 314.495L138.313 314.47C137.799 317.015 135.42 318.791 132.795 318.5C130.015 318.193 128.01 315.685 128.317 312.9C128.622 310.143 131.077 308.146 133.823 308.405L133.907 308.414C143.129 309.083 146.506 300.469 147.393 297.495C147.567 296.261 148.193 295.089 149.24 294.248C151.423 292.496 154.61 292.849 156.358 295.036Z" fill="#E4ECF7"/>
<path fill-rule="evenodd" clip-rule="evenodd" d="M153.041 293.073C155.829 293.381 157.839 295.891 157.531 298.679C157.223 301.467 154.713 303.478 151.925 303.17C149.137 302.862 147.127 300.352 147.435 297.564C147.743 294.776 150.253 292.765 153.041 293.073Z" fill="#E4ECF7"/>
<path fill-rule="evenodd" clip-rule="evenodd" d="M760.339 522.949C762.087 525.136 761.735 528.329 759.552 530.081C758.587 530.856 757.425 531.219 756.279 531.194L756.278 531.193C744.559 532.689 742.666 539.92 742.367 541.903C742.366 541.911 742.365 541.919 742.364 541.927C742.355 542.01 742.344 542.093 742.331 542.175C742.314 542.325 742.311 542.407 742.311 542.407L742.293 542.383C741.779 544.928 739.401 546.704 736.775 546.413C733.995 546.105 731.991 543.598 732.298 540.813C732.602 538.055 735.057 536.059 737.804 536.318L737.887 536.327C747.11 536.995 750.486 528.381 751.373 525.407C751.548 524.174 752.173 523.001 753.221 522.161C755.403 520.409 758.59 520.762 760.339 522.949Z" fill="#E4ECF7"/>
<path fill-rule="evenodd" clip-rule="evenodd" d="M757.021 520.986C759.809 521.294 761.82 523.804 761.512 526.592C761.204 529.38 758.694 531.39 755.906 531.082C753.118 530.774 751.107 528.264 751.415 525.476C751.723 522.688 754.233 520.678 757.021 520.986Z" fill="#E4ECF7"/>
<path d="M256.595 165.535C258.103 167.042 260.547 167.042 262.055 165.535C263.563 164.027 263.563 161.583 262.055 160.075C260.548 158.567 258.103 158.567 256.596 160.075C255.088 161.583 255.088 164.027 256.595 165.535Z" fill="#554AF0"/>
<path d="M289.074 198.535C290.581 200.043 293.026 200.043 294.533 198.535C296.041 197.028 296.041 194.583 294.533 193.076C293.026 191.568 290.581 191.568 289.074 193.076C287.566 194.583 287.566 197.028 289.074 198.535Z" fill="#554AF0"/>
<path d="M267.482 173.829C271.373 169.938 277.681 169.938 281.571 173.829C285.462 177.72 285.462 184.027 281.571 187.918C277.681 191.809 271.373 191.809 267.482 187.918C263.592 184.028 263.592 177.72 267.482 173.829Z" fill="#554AF0"/>
<path d="M304.034 176.142C304.034 178.274 302.305 180.003 300.173 180.003C298.041 180.003 296.313 178.274 296.313 176.142C296.313 174.01 298.041 172.282 300.173 172.282C302.305 172.282 304.034 174.01 304.034 176.142Z" fill="#554AF0"/>
<path d="M238.785 427.89C239.245 423.573 236.241 419.686 232.075 419.209C229.232 418.883 226.583 420.229 225.04 422.489C224.281 423.553 223.808 424.784 223.635 426.056C222.31 430.661 217.264 444 203.482 442.965L203.358 442.952C199.254 442.551 195.585 445.642 195.13 449.912C194.671 454.225 197.667 458.108 201.821 458.584C205.744 459.035 209.298 456.284 210.067 452.343L210.094 452.381C210.094 452.381 210.098 452.254 210.123 452.021C210.142 451.895 210.159 451.767 210.173 451.638C210.174 451.63 210.174 451.622 210.175 451.615C210.176 451.61 210.176 451.605 210.176 451.601C210.624 448.53 213.453 437.332 230.964 435.016L230.966 435.017C232.679 435.055 234.415 434.493 235.857 433.294C236.055 433.129 236.244 432.955 236.422 432.775C237.702 431.536 238.578 429.835 238.785 427.89Z" fill="#FABB18"/>
<path d="M140.098 449.909C148.214 449.909 154.809 456.659 154.94 465.038L154.942 465.292C155.968 493.381 182.139 500.7 191.055 502.381C199.102 502.56 205.572 509.377 205.572 517.76C205.572 526.256 198.926 533.143 190.728 533.143C184.077 533.143 178.449 528.611 176.56 522.365L176.502 522.43C169.015 484.427 146.202 480.926 140.163 480.674L140.098 480.675C139.854 480.675 139.612 480.669 139.372 480.657C138.925 480.657 138.684 480.675 138.684 480.675L138.75 480.613C131.183 479.907 125.253 473.317 125.253 465.292C125.253 456.796 131.899 449.909 140.098 449.909Z" fill="#FABB18"/>
<path d="M97.0255 216.717H62.5363C61.3552 216.717 60.3978 217.709 60.3978 218.933V224.414C60.3978 225.638 61.3552 226.63 62.5363 226.63H97.0255C98.2065 226.63 99.164 225.638 99.164 224.414V218.933C99.164 217.709 98.2065 216.717 97.0255 216.717Z" fill="#6D69F5"/>
<path d="M97.0579 235.585H62.5038C61.3407 235.585 60.3978 236.563 60.3978 237.768V243.016C60.3978 244.221 61.3407 245.199 62.5038 245.199H97.0579C98.2211 245.199 99.164 244.221 99.164 243.016V237.768C99.164 236.563 98.2211 235.585 97.0579 235.585Z" fill="#ADC6FF"/>
<path d="M97.0579 254.454H62.5038C61.3407 254.454 60.3978 255.431 60.3978 256.637V261.885C60.3978 263.09 61.3407 264.067 62.5038 264.067H97.0579C98.2211 264.067 99.164 263.09 99.164 261.885V256.637C99.164 255.431 98.2211 254.454 97.0579 254.454Z" fill="#FF7946"/>
<path d="M97.0579 273.323H62.5038C61.3407 273.323 60.3978 274.3 60.3978 275.505V280.753C60.3978 281.959 61.3407 282.936 62.5038 282.936H97.0579C98.2211 282.936 99.164 281.959 99.164 280.753V275.505C99.164 274.3 98.2211 273.323 97.0579 273.323Z" fill="#ADC6FF"/>
<path d="M332.487 90.4424H29.2123C24.0032 90.4424 19.7804 94.8184 19.7804 100.217V325.91C19.7804 331.308 24.0032 335.684 29.2123 335.684H332.487C337.696 335.684 341.918 331.308 341.918 325.91V100.217C341.918 94.8184 337.696 90.4424 332.487 90.4424Z" fill="#E4EBF7"/>
<path d="M311.721 133.985H128.411C126.431 133.985 124.825 135.649 124.825 137.701V310.247C124.825 312.299 126.431 313.963 128.411 313.963H311.721C313.702 313.963 315.307 312.299 315.307 310.247V137.701C315.307 135.649 313.702 133.985 311.721 133.985Z" fill="#6D69F5"/>
<path d="M283.093 189.14H148.636V197.848H283.093V189.14Z" fill="white"/>
<path d="M215.864 219.62H148.636V228.329H215.864V219.62Z" fill="#FAAD14"/>
<path d="M273.289 158.66H206.06V167.368H273.289V158.66Z" fill="#FAAD14"/>
<path d="M271.888 279.128H148.636V287.837H271.888V279.128Z" fill="white"/>
<path d="M189.253 158.66H148.636V167.368H189.253V158.66Z" fill="white"/>
<path d="M249.479 219.62H229.87V228.329H249.479V219.62Z" fill="#E4EBF7"/>
<path d="M248.078 248.648H148.636V257.357H248.078V248.648Z" fill="#E4EBF7"/>
<path d="M28.4091 78.8311H333.128C337.893 78.8311 341.757 82.7513 341.757 87.5871V113.68H19.7804V87.5871C19.7804 82.7513 23.6436 78.8311 28.4091 78.8311Z" fill="#253368"/>
<path d="M38.5445 102.942C41.9459 102.942 44.7033 100.144 44.7033 96.692C44.7033 93.2404 41.9459 90.4424 38.5445 90.4424C35.1432 90.4424 32.3858 93.2404 32.3858 96.692C32.3858 100.144 35.1432 102.942 38.5445 102.942Z" fill="#FF7946"/>
<path d="M62.3547 102.942C65.7561 102.942 68.5134 100.144 68.5134 96.692C68.5134 93.2404 65.7561 90.4424 62.3547 90.4424C58.9533 90.4424 56.196 93.2404 56.196 96.692C56.196 100.144 58.9533 102.942 62.3547 102.942Z" fill="#FAAD14"/>
<path d="M84.7644 102.942C88.1657 102.942 90.9231 100.144 90.9231 96.692C90.9231 93.2404 88.1657 90.4424 84.7644 90.4424C81.363 90.4424 78.6056 93.2404 78.6056 96.692C78.6056 100.144 81.363 102.942 84.7644 102.942Z" fill="#7CB305"/>
<path d="M111.256 131.083H48.756C46.6768 131.083 44.9912 132.829 44.9912 134.984V310.061C44.9912 312.216 46.6768 313.963 48.756 313.963H111.256C113.336 313.963 115.021 312.216 115.021 310.061V134.984C115.021 132.829 113.336 131.083 111.256 131.083Z" fill="white"/>
<path d="M97.0255 216.717H62.5363C61.3552 216.717 60.3978 217.709 60.3978 218.933V224.414C60.3978 225.638 61.3552 226.63 62.5363 226.63H97.0255C98.2065 226.63 99.164 225.638 99.164 224.414V218.933C99.164 217.709 98.2065 216.717 97.0255 216.717Z" fill="#6D69F5"/>
<path d="M97.0579 235.585H62.5038C61.3407 235.585 60.3978 236.563 60.3978 237.768V243.016C60.3978 244.221 61.3407 245.199 62.5038 245.199H97.0579C98.2211 245.199 99.164 244.221 99.164 243.016V237.768C99.164 236.563 98.2211 235.585 97.0579 235.585Z" fill="#ADC6FF"/>
<path d="M97.0579 254.454H62.5038C61.3407 254.454 60.3978 255.431 60.3978 256.637V261.885C60.3978 263.09 61.3407 264.067 62.5038 264.067H97.0579C98.2211 264.067 99.164 263.09 99.164 261.885V256.637C99.164 255.431 98.2211 254.454 97.0579 254.454Z" fill="#FF7946"/>
<path d="M97.0579 273.323H62.5038C61.3407 273.323 60.3978 274.3 60.3978 275.505V280.753C60.3978 281.959 61.3407 282.936 62.5038 282.936H97.0579C98.2211 282.936 99.164 281.959 99.164 280.753V275.505C99.164 274.3 98.2211 273.323 97.0579 273.323Z" fill="#ADC6FF"/>
<path d="M79.2984 190.669C88.8622 190.669 96.6151 182.544 96.6151 172.52C96.6151 162.497 88.8622 154.371 79.2984 154.371C69.7347 154.371 61.9817 162.497 61.9817 172.52C61.9817 182.544 69.7347 190.669 79.2984 190.669Z" fill="#FAAD14"/>
<path d="M79.2984 190.669C84.2894 190.672 89.0261 188.361 92.2372 184.356C89.707 179.322 84.7246 176.171 79.2957 176.171C73.8667 176.171 68.8843 179.322 66.3541 184.356C69.5669 188.362 74.3056 190.673 79.2984 190.669Z" fill="#253368"/>
<path d="M79.3905 176.893C82.9873 176.893 85.9032 173.837 85.9032 170.067C85.9032 166.297 82.9873 163.241 79.3905 163.241C75.7936 163.241 72.8777 166.297 72.8777 170.067C72.8777 173.837 75.7936 176.893 79.3905 176.893Z" fill="#253368"/>
<g clip-path="url(#clip0_330_6940)">
<g clip-path="url(#clip1_330_6940)">
<path fill-rule="evenodd" clip-rule="evenodd" d="M673.956 217.565C725.508 193.181 756.233 257.132 730.306 292.738C698.668 336.19 682.461 386.186 673.436 401.25C665.822 413.957 644.967 444.937 619.854 430.658C596.742 417.516 609.339 365.94 609.339 365.94C609.339 365.94 610.36 247.646 673.956 217.565Z" fill="#5B8C00"/>
<path fill-rule="evenodd" clip-rule="evenodd" d="M518.897 420.728C501.371 397.083 494.972 363.151 514.534 354.449C533.289 346.107 564.357 366.647 578.747 406.179C593.137 445.71 601.439 474.132 587.363 479.073C564.269 487.181 542.046 451.958 518.897 420.728Z" fill="#5B8C00"/>
<path fill-rule="evenodd" clip-rule="evenodd" d="M703.148 422.523C683.326 445.753 654.721 492.483 636.8 476.116C625.939 466.198 640.459 419.226 680.203 393.669C714.01 371.929 722.971 399.294 703.148 422.523Z" fill="#7CB305"/>
<path fill-rule="evenodd" clip-rule="evenodd" d="M513.464 261.32C521.002 256.249 530.485 255.09 539.138 257.862C551.213 261.729 569.538 273.246 587.675 306.301C611.354 349.458 623.681 396.77 621.244 426.739C619.651 446.338 595.506 454.788 581.998 440.498C575.795 433.934 569.231 423.818 562.809 408.47C536.964 346.71 512.801 308.007 509.919 304.121C502.231 293.751 496.734 272.577 513.464 261.32Z" fill="#7CB305"/>
<path fill-rule="evenodd" clip-rule="evenodd" d="M530.797 285.954C531.053 289.004 528.788 291.683 525.739 291.938C522.69 292.194 520.011 289.93 519.754 286.88C519.499 283.831 521.764 281.152 524.813 280.896C527.862 280.64 530.541 282.905 530.797 285.954Z" fill="white"/>
<path fill-rule="evenodd" clip-rule="evenodd" d="M577.86 309.611C578.116 312.66 575.852 315.339 572.802 315.595C569.752 315.851 567.073 313.586 566.817 310.537C566.562 307.488 568.826 304.808 571.876 304.552C574.925 304.297 577.605 306.561 577.86 309.611Z" fill="white"/>
<path fill-rule="evenodd" clip-rule="evenodd" d="M569.972 372.597C570.266 376.09 567.672 379.158 564.18 379.451C560.687 379.744 557.619 377.15 557.326 373.658C557.033 370.166 559.627 367.098 563.119 366.805C566.611 366.512 569.679 369.105 569.972 372.597Z" fill="white"/>
<path fill-rule="evenodd" clip-rule="evenodd" d="M714.526 278.466C714.526 283.422 710.509 287.44 705.552 287.44C700.596 287.44 696.579 283.422 696.579 278.466C696.579 273.51 700.596 269.493 705.552 269.493C710.509 269.493 714.526 273.51 714.526 278.466Z" fill="white"/>
<path fill-rule="evenodd" clip-rule="evenodd" d="M642.286 305.869C642.286 310.825 638.269 314.843 633.313 314.843C628.357 314.843 624.339 310.825 624.339 305.869C624.339 300.913 628.357 296.895 633.313 296.895C638.269 296.895 642.286 300.913 642.286 305.869Z" fill="white"/>
<path fill-rule="evenodd" clip-rule="evenodd" d="M665.683 366.782C665.683 368.853 664.003 370.533 661.932 370.533C659.861 370.533 658.181 368.853 658.181 366.782C658.181 364.71 659.861 363.031 661.932 363.031C664.003 363.031 665.683 364.71 665.683 366.782Z" fill="white"/>
<path fill-rule="evenodd" clip-rule="evenodd" d="M692.704 414.749C692.704 417.809 690.223 420.29 687.163 420.29C684.103 420.29 681.622 417.809 681.622 414.749C681.622 411.689 684.103 409.208 687.163 409.208C690.223 409.208 692.704 411.689 692.704 414.749Z" fill="white"/>
<path d="M563.287 427.039C563.803 426.546 564.621 426.566 565.113 427.082L565.35 427.337L565.529 427.535C565.854 427.899 566.231 428.333 566.653 428.837C567.854 430.269 569.19 431.98 570.625 433.968C574.718 439.635 578.806 446.395 582.62 454.238C593.502 476.622 600.029 503.209 600.029 533.901C600.029 534.615 599.45 535.193 598.737 535.193C598.023 535.193 597.445 534.615 597.445 533.901C597.445 503.614 591.012 477.411 580.296 455.368C576.549 447.663 572.538 441.03 568.531 435.481C567.214 433.658 565.988 432.079 564.88 430.744L564.673 430.497C564.359 430.122 564.073 429.789 563.816 429.499L563.493 429.136C563.372 429.003 563.289 428.913 563.243 428.865C562.751 428.349 562.77 427.531 563.287 427.039Z" fill="#253368"/>
<path d="M660.897 436.082C661.323 435.51 662.133 435.393 662.705 435.819C663.277 436.246 663.394 437.056 662.967 437.628C658.261 443.93 653.919 450.706 649.925 457.89C641.483 473.074 634.956 489.354 630.111 505.635C628.416 511.334 627.052 516.624 625.99 521.369L625.775 522.341C625.522 523.502 625.303 524.56 625.117 525.509L624.996 526.13L624.782 527.302C624.663 528.006 623.997 528.48 623.293 528.362C622.59 528.243 622.115 527.577 622.234 526.873L622.307 526.457C622.368 526.121 622.442 525.726 622.53 525.273L622.743 524.197C622.951 523.172 623.193 522.039 623.469 520.805L623.703 519.768C624.741 515.237 626.044 510.245 627.635 504.898C632.529 488.449 639.125 471.998 647.667 456.634C651.715 449.353 656.119 442.48 660.897 436.082Z" fill="#253368"/>
<path d="M683.474 274.889C683.969 275.363 684.005 276.136 683.57 276.653L683.513 276.716C683.488 276.743 683.433 276.801 683.35 276.89L683.032 277.237L682.848 277.442C682.292 278.061 681.645 278.808 680.915 279.681C678.823 282.184 676.489 285.195 673.973 288.718C666.773 298.798 659.569 310.939 652.842 325.152C641.641 348.818 632.918 375.809 627.632 406.152C621.212 442.997 620.149 483.248 625.404 526.933C625.489 527.642 624.984 528.285 624.275 528.37C623.567 528.456 622.923 527.95 622.838 527.242C617.553 483.306 618.623 442.802 625.086 405.708C630.413 375.131 639.208 347.918 650.506 324.047C657.301 309.691 664.583 297.418 671.871 287.216L672.435 286.43C674.682 283.318 676.783 280.612 678.695 278.309L678.933 278.024C679.62 277.202 680.237 276.487 680.778 275.879L680.924 275.716C681.093 275.528 681.245 275.361 681.378 275.217L681.647 274.928C682.141 274.413 682.959 274.396 683.474 274.889Z" fill="#253368"/>
<path d="M571.641 351.506C572.252 351.137 573.046 351.332 573.416 351.942L573.546 352.16C573.649 352.334 573.77 352.543 573.909 352.785L574.112 353.139C574.459 353.749 574.848 354.448 575.277 355.238L575.632 355.896C576.946 358.342 578.386 361.173 579.924 364.379L580.134 364.818C585.149 375.326 590.162 387.613 594.84 401.576C607.936 440.671 615.904 485.043 616.202 533.894C616.206 534.607 615.631 535.189 614.918 535.193C614.204 535.198 613.622 534.623 613.618 533.909C613.322 485.345 605.403 441.242 592.39 402.397C587.831 388.788 582.954 376.79 578.073 366.501L577.802 365.931C576.134 362.436 574.581 359.386 573.181 356.793L572.759 356.018C572.354 355.279 571.99 354.631 571.669 354.073L571.517 353.809L571.206 353.281C570.836 352.671 571.031 351.876 571.641 351.506Z" fill="#253368"/>
<path fill-rule="evenodd" clip-rule="evenodd" d="M671.077 597.988H559.399C553.362 597.988 548.423 593.049 548.423 587.012V505.538C548.423 499.5 553.362 494.562 559.399 494.562H671.077C677.114 494.562 682.054 499.5 682.054 505.538V587.012C682.054 593.049 677.114 597.988 671.077 597.988Z" fill="#253368"/>
<path fill-rule="evenodd" clip-rule="evenodd" d="M285.993 422.43C295.14 435.552 312.581 438.991 325.736 430.266L444.917 351.245C462.449 339.623 466.945 315.122 454.761 297.641C442.717 280.368 419.231 276.934 403.046 290.08L291.697 380.541C279.251 390.652 276.734 409.146 285.993 422.43Z" fill="#FFC999"/>
<path fill-rule="evenodd" clip-rule="evenodd" d="M374.274 403.758L449.977 353.998C465.962 341.121 465.972 308.093 453.263 291.759C440.555 275.428 417.393 273.069 401.861 286.528L330.898 348.013C330.898 348.013 352.134 392.458 374.274 403.758Z" fill="#554AF0"/>
<path fill-rule="evenodd" clip-rule="evenodd" d="M196.938 264.023C190.489 269.944 189.324 279.923 194.224 287.27L280.358 416.38C290.252 431.206 310.328 433.953 323.594 422.295C336.559 410.901 337.535 390.523 325.723 377.853L220.479 264.971C214.142 258.174 203.765 257.755 196.938 264.023Z" fill="#FFC999"/>
<path fill-rule="evenodd" clip-rule="evenodd" d="M495.157 280.113L475.988 258.433L482.03 187.083L535.637 192.258L535.367 262.864L495.157 280.113Z" fill="#FFC999"/>
<path fill-rule="evenodd" clip-rule="evenodd" d="M468.328 180.037C468.328 180.037 460.371 170.966 456.738 176.787C453.107 182.61 458.54 204.004 467.426 204.834C479.297 205.943 468.328 180.037 468.328 180.037Z" fill="#FFC999"/>
<path fill-rule="evenodd" clip-rule="evenodd" d="M518.544 235.988C518.544 235.988 500.635 250.262 477.929 234.83C461.582 223.72 460.664 185.36 464.709 157.356C466.999 141.509 474.33 133.18 489.434 128.952C504.54 124.724 545.118 125.866 543.979 172.677C542.709 224.817 518.544 235.988 518.544 235.988Z" fill="#FFC999"/>
<path d="M490.601 165.565L490.453 165.584C490.058 165.674 489.793 166.044 489.807 166.449L489.826 166.602L491.908 176.387L486.038 202.714C485.932 203.188 486.229 203.646 486.671 203.741L486.808 203.759L497.625 204.202C498.08 204.221 498.463 203.854 498.481 203.383C498.497 202.959 498.212 202.595 497.824 202.513L497.69 202.496L487.869 202.093L493.555 176.582C493.573 176.5 493.579 176.415 493.574 176.331L493.557 176.206L491.435 166.234C491.348 165.825 490.991 165.549 490.601 165.565Z" fill="#DD936F"/>
<path d="M501.003 163.332C500.834 164.576 501.671 165.727 502.872 165.902L510.091 166.994L511.019 167.131C518.06 168.157 522.338 168.524 524.898 168.083C526.095 167.876 526.903 166.704 526.704 165.464C526.517 164.297 525.504 163.486 524.388 163.567L523.763 163.65C521.913 163.851 518.537 163.58 513.512 162.889L510.232 162.416L503.483 161.395C502.282 161.22 501.171 162.087 501.003 163.332Z" fill="#253368"/>
<path d="M506.365 211.037C506.225 210.394 505.61 209.991 504.99 210.135L504.58 210.219L504.417 210.249C503.923 210.339 503.339 210.43 502.67 210.515C498.171 211.086 492.702 211.102 486.527 210.19C485.898 210.097 485.315 210.55 485.226 211.202C485.136 211.854 485.573 212.457 486.202 212.55C492.588 213.493 498.259 213.477 502.95 212.882L503.759 212.771C504.015 212.733 504.257 212.695 504.485 212.656L505.296 212.505C505.378 212.488 505.445 212.473 505.495 212.462C506.115 212.317 506.504 211.679 506.365 211.037Z" fill="#FF7946"/>
<path fill-rule="evenodd" clip-rule="evenodd" d="M538.252 192.577L547.576 174.819C547.576 174.819 553.903 148.997 548.42 137.635C539.909 120.004 519.269 119.832 507.158 114.825C495.048 109.815 495.287 105.549 490.301 106.107C485.313 106.662 465.685 119.966 463.108 134.43C460.841 147.147 463.043 179.793 463.043 179.793C463.043 179.793 467.339 151.077 470.239 143.546C480.062 139.648 515.322 140.53 529.902 145.685C529.902 145.685 530.896 155.538 531.432 162.472C539.142 168.555 538.252 192.577 538.252 192.577Z" fill="#253368"/>
<path d="M477.646 233.193C477.349 232.836 476.829 232.795 476.484 233.102C476.139 233.409 476.1 233.948 476.396 234.306C476.621 234.578 477.053 235.028 477.695 235.597C478.751 236.532 480.027 237.463 481.527 238.33C489.601 242.996 500.392 243.983 513.999 239.043C514.428 238.887 514.655 238.4 514.504 237.955C514.354 237.51 513.884 237.276 513.454 237.432C500.293 242.209 489.993 241.267 482.33 236.839C480.927 236.028 479.74 235.162 478.766 234.299L478.372 233.94C478.016 233.606 477.775 233.349 477.646 233.193Z" fill="#DD936F"/>
<path d="M490.959 174.696C490.051 174.629 489.263 175.337 489.199 176.278C489.139 177.156 489.73 177.926 490.547 178.079L490.726 178.102L498.676 178.686C499.583 178.753 500.371 178.044 500.436 177.104C500.496 176.226 499.904 175.456 499.087 175.303L498.909 175.28L490.959 174.696Z" fill="#253368"/>
<path d="M497.858 180.42C496.193 179.618 494.485 179.189 492.806 179.361C491.387 179.506 490.091 180.085 489.003 181.137C488.337 181.78 488.301 182.861 488.922 183.55C489.543 184.239 490.585 184.277 491.251 183.634C491.795 183.108 492.411 182.833 493.13 182.759C494.128 182.657 495.291 182.949 496.469 183.516C497.096 183.819 497.572 184.118 497.813 184.295C498.554 184.843 499.583 184.664 500.111 183.896C500.639 183.128 500.466 182.062 499.725 181.515C499.332 181.224 498.688 180.82 497.858 180.42Z" fill="#253368"/>
<path d="M485.551 160.505C481.754 158.918 477.906 158.047 474.223 158.289C471.628 158.46 469.225 159.19 467.088 160.555C466.055 161.214 465.734 162.617 466.37 163.687C467.007 164.757 468.36 165.09 469.392 164.43C470.886 163.476 472.594 162.958 474.502 162.832C477.43 162.639 480.668 163.372 483.908 164.726C484.726 165.069 485.495 165.43 486.201 165.795L486.718 166.069C487.213 166.337 487.555 166.54 487.718 166.644C488.751 167.303 490.104 166.968 490.74 165.898C491.375 164.827 491.052 163.425 490.019 162.767L489.552 162.48C488.614 161.923 487.244 161.213 485.551 160.505Z" fill="#253368"/>
<path d="M490.906 218.811C490.452 218.783 490.062 219.142 490.036 219.613C490.012 220.037 490.291 220.406 490.678 220.496L490.81 220.515L497.292 220.906C497.747 220.933 498.136 220.574 498.163 220.103C498.186 219.68 497.908 219.31 497.521 219.221L497.388 219.202L490.906 218.811Z" fill="#DD936F"/>
<path d="M528.357 176.986C527.448 176.937 526.673 177.66 526.625 178.602C526.581 179.48 527.186 180.239 528.005 180.376L528.184 180.396L541.231 181.107C542.139 181.156 542.915 180.433 542.962 179.491C543.007 178.613 542.402 177.854 541.582 177.717L541.404 177.697L528.357 176.986Z" fill="#253368"/>
<path fill-rule="evenodd" clip-rule="evenodd" d="M527.442 175.963L502.536 174.465C500.798 174.36 499.307 175.731 499.218 177.532C499.054 180.896 498.935 186.297 499.519 190.964C500.209 196.465 504.745 200.082 510.072 200.659C516.724 201.382 522.709 201.746 525.937 198.341C530.854 193.153 530.231 184.087 530.399 179.315C530.461 177.565 529.131 176.063 527.442 175.963Z" fill="white"/>
<path d="M502.568 173.897L527.474 175.395C529.462 175.513 531.02 177.278 530.947 179.336L530.921 180.461L530.892 182.498C530.84 185.526 530.734 187.218 530.413 189.3C529.802 193.258 528.53 196.417 526.329 198.74C523.399 201.83 519.115 202.213 510.015 201.225C504.201 200.595 499.673 196.6 498.975 191.037C498.479 187.073 498.433 182.374 498.67 177.502C498.775 175.388 500.525 173.774 502.568 173.897ZM502.504 175.033C501.143 174.951 499.97 175.963 499.787 177.33L499.766 177.56C499.533 182.369 499.577 187.008 500.064 190.89C500.692 195.897 504.793 199.515 510.129 200.093L511.32 200.217C519.253 201.004 523.072 200.552 525.546 197.943C527.564 195.813 528.751 192.866 529.329 189.12L529.436 188.377C529.666 186.668 529.75 185.076 529.795 182.466L529.845 179.465C529.847 179.408 529.849 179.351 529.851 179.294C529.902 177.856 528.804 176.613 527.411 176.53L502.504 175.033Z" fill="#253368"/>
<path d="M510.042 181.297C509.437 181.261 508.917 181.741 508.882 182.368C508.683 185.935 511.002 189.033 514.147 189.224C517.292 189.413 519.941 186.613 520.14 183.046C520.175 182.418 519.712 181.88 519.106 181.843C518.5 181.807 517.981 182.287 517.946 182.914C517.813 185.29 516.136 187.063 514.275 186.951C512.412 186.838 510.943 184.875 511.076 182.5C511.111 181.872 510.648 181.334 510.042 181.297Z" fill="#253368"/>
<path fill-rule="evenodd" clip-rule="evenodd" d="M488.614 173.339L460.417 171.644C459.133 175.85 459.216 192.423 463.857 196.252C470.143 200.161 483.321 199.426 485.556 195.964C488.947 190.711 490.673 180.405 490.869 175.936C490.928 174.575 489.928 173.418 488.614 173.339Z" fill="white"/>
<path d="M460.449 171.076L488.646 172.772C490.258 172.868 491.491 174.288 491.417 175.962C491.14 182.293 488.95 191.729 486.012 196.28C483.47 200.219 469.816 200.62 463.575 196.74C459.37 193.277 458.028 177.586 459.894 171.472C459.97 171.224 460.198 171.061 460.449 171.076ZM460.824 172.238L460.753 172.516C459.3 178.683 460.641 192.871 464.199 195.807C469.937 199.369 482.944 198.987 485.1 195.647C487.905 191.302 490.052 182.052 490.321 175.91C490.367 174.858 489.594 173.968 488.582 173.907L460.824 172.238Z" fill="#253368"/>
<path d="M474.85 179.18C474.245 179.143 473.725 179.623 473.689 180.25C473.488 183.818 475.807 186.919 478.952 187.107C482.097 187.296 484.748 184.496 484.947 180.929C484.982 180.301 484.519 179.763 483.913 179.726C483.307 179.69 482.788 180.169 482.753 180.797C482.62 183.172 480.941 184.946 479.079 184.834C477.217 184.722 475.749 182.759 475.883 180.383C475.918 179.756 475.456 179.217 474.85 179.18Z" fill="#253368"/>
<path d="M499.269 173.578C498.359 173.548 497.599 174.288 497.57 175.23C497.543 176.11 498.163 176.855 498.985 176.975L499.164 176.991L530.083 178.009C530.992 178.039 531.753 177.299 531.782 176.357C531.809 175.477 531.189 174.732 530.367 174.612L530.187 174.596L499.269 173.578Z" fill="#253368"/>
<path d="M460.269 170.57C459.361 170.503 458.572 171.21 458.507 172.15C458.446 173.028 459.036 173.799 459.853 173.953L460.032 173.976L490.26 176.237C491.168 176.305 491.956 175.597 492.022 174.657C492.083 173.779 491.492 173.008 490.676 172.854L490.497 172.831L460.269 170.57Z" fill="#253368"/>
<path fill-rule="evenodd" clip-rule="evenodd" d="M542.629 178.13C545.878 174.787 550.841 173.94 554.27 177.932C559.795 184.363 554.155 207.779 538.934 208.475C533.174 207.538 537.558 183.345 542.629 178.13Z" fill="#FFC999"/>
<path fill-rule="evenodd" clip-rule="evenodd" d="M558.272 471.261C558.272 471.261 571.924 400.438 577.966 374.275C584.007 348.11 593.183 285.468 582.752 280.778C572.32 276.088 547.344 266.127 547.344 266.127C547.344 266.127 522.567 269.425 500.185 274.364C482.47 278.274 487.5 261.036 466.02 264.713C456.924 266.273 428.375 270.935 414.123 278.992C408.407 282.223 409.33 301.843 408.517 320.914C405.927 381.786 420.26 475.052 420.26 475.052C420.26 475.052 411.76 484.104 422.064 495.843C427.169 501.339 449.275 499.477 477.573 499.548C509.785 499.629 547.676 503.821 554.705 497.474C567.911 485.551 558.272 471.261 558.272 471.261Z" fill="#554AF0"/>
<path fill-rule="evenodd" clip-rule="evenodd" d="M475.136 255.566L496.731 277.05L470.817 295.85L459.588 267.202L475.136 255.566Z" fill="#554AF0"/>
<path fill-rule="evenodd" clip-rule="evenodd" d="M534.176 1064.09L488.782 618.78L486.973 617.857L439.324 1065.11C439.324 1065.11 403.796 1073.65 385.022 1061.97C384.291 975.249 403.994 693.551 412.333 564.906C413.675 544.195 419.818 516.043 421.045 508.217C478.085 498.228 555.36 512.633 555.36 512.633L558.698 523.018C559.347 525.037 559.741 527.138 559.865 529.263L595.68 1059.69C595.68 1059.69 560.574 1072.86 534.176 1064.09Z" fill="#ADC6FF"/>
<path d="M457.893 600.617C457.485 600.41 456.991 600.586 456.791 601.009C456.614 601.386 456.728 601.832 457.043 602.071L457.17 602.151L491.547 619.56C491.956 619.767 492.449 619.592 492.649 619.168C492.826 618.792 492.712 618.346 492.398 618.106L492.27 618.026L457.893 600.617Z" fill="#554AF0"/>
<path fill-rule="evenodd" clip-rule="evenodd" d="M555.05 497.288C555.05 497.288 482.418 486.164 422.042 497.123C421.545 502.67 421.027 509.499 421.027 509.499C421.027 509.499 472.69 513.186 556.221 515.32C555.989 500.266 555.05 497.288 555.05 497.288Z" fill="#ADC6FF"/>
<path d="M531.521 513.188C505.064 510.958 477.906 510.099 452.544 511.411C441.886 511.963 431.83 512.894 422.476 514.236C422.026 514.301 421.711 514.732 421.773 515.199C421.836 515.666 422.252 515.992 422.702 515.928C432.005 514.592 442.014 513.666 452.626 513.117C477.907 511.809 504.996 512.665 531.388 514.89L535.577 515.256C539.678 515.627 543.511 516.011 547.037 516.397L550.992 516.846L553.808 517.19C554.077 517.224 554.281 517.25 554.42 517.269C554.871 517.329 555.284 516.999 555.342 516.531C555.4 516.063 555.081 515.636 554.63 515.575L553.005 515.37C551.868 515.23 550.569 515.076 549.116 514.912L546.02 514.571C541.616 514.098 536.759 513.63 531.521 513.188Z" fill="#554AF0"/>
<path d="M531.812 494.391C505.355 492.16 478.197 491.302 452.836 492.614C442.177 493.165 432.121 494.096 422.768 495.439C422.317 495.504 422.002 495.935 422.065 496.402C422.127 496.869 422.543 497.195 422.994 497.13C432.297 495.795 442.305 494.868 452.918 494.319C478.198 493.012 505.288 493.868 531.679 496.093L534.491 496.335C538.651 496.703 542.548 497.086 546.142 497.471L550.624 497.972L554.711 498.471C555.162 498.531 555.575 498.201 555.633 497.734C555.691 497.266 555.372 496.838 554.921 496.778L553.296 496.572C552.349 496.456 551.288 496.329 550.121 496.196L546.312 495.773C541.907 495.301 537.051 494.832 531.812 494.391Z" fill="#554AF0"/>
<path d="M482.279 495.563C481.825 495.552 481.447 495.924 481.436 496.396L481.345 500.85C481.309 502.762 481.274 504.868 481.241 507.149C480.968 526.052 480.952 546.106 481.361 564.896L481.462 569.171C481.908 586.52 482.717 601.066 483.949 611.975C484.002 612.443 484.411 612.778 484.863 612.723C485.315 612.668 485.638 612.244 485.585 611.776L485.39 609.985C484.178 598.44 483.405 583.09 483.008 564.858C482.631 547.536 482.616 529.133 482.83 511.552L482.903 506.209L483.083 496.438C483.094 495.967 482.734 495.575 482.279 495.563Z" fill="#554AF0"/>
<path fill-rule="evenodd" clip-rule="evenodd" d="M468.156 501.737C468.124 503.86 469.39 505.603 470.984 505.631C472.577 505.657 473.895 503.957 473.927 501.833C473.96 499.71 472.696 497.967 471.102 497.939C469.507 497.913 468.189 499.613 468.156 501.737Z" fill="white"/>
<path fill-rule="evenodd" clip-rule="evenodd" d="M496.615 275.3L516.603 302.555L546.468 266.186L535.532 252.017L496.615 275.3Z" fill="#554AF0"/>
<path d="M495.716 276.774C495.147 276.556 494.515 276.859 494.306 277.449L494.099 278.085L493.894 278.765C493.821 279.012 493.745 279.278 493.665 279.564L493.543 280.009C493.042 281.85 492.493 284.114 491.908 286.834L491.585 288.363C489.624 297.81 487.666 310.301 485.832 326.229L485.345 330.575C483.375 348.584 481.683 369.738 480.349 394.289L480.238 396.343C478.249 433.764 478.709 465.868 480.442 489.866C480.487 490.493 481.015 490.963 481.62 490.916C482.225 490.869 482.679 490.323 482.633 489.696L482.462 487.237C480.907 464.032 480.529 433.611 482.334 398.361L482.432 396.468C483.782 371.083 485.509 349.296 487.528 330.833L487.858 327.868C489.729 311.352 491.732 298.485 493.733 288.842L494.051 287.334C494.576 284.897 495.069 282.837 495.523 281.129L495.658 280.627C495.819 280.035 495.965 279.525 496.096 279.093L496.319 278.38C496.34 278.315 496.357 278.267 496.368 278.235C496.578 277.645 496.286 276.991 495.716 276.774Z" fill="#253368"/>
<path d="M408.359 316.46C407.823 315.995 407.068 316.078 406.631 316.628C406.446 316.862 406.346 317.125 406.267 317.466C406.176 317.857 406.11 318.403 406.062 319.119L406.04 319.491C405.959 320.996 405.946 323.185 406.001 325.987L406.031 327.324C406.212 334.431 406.766 344.612 407.66 356.838L407.993 361.295C410.224 390.424 413.946 426.583 418.945 465.869L419.479 470.027L419.275 470.57L419.099 471.063C418.734 472.097 418.37 473.241 418.03 474.464C417.204 477.434 416.653 480.383 416.505 483.16C416.258 487.798 417.156 491.573 419.538 494.122C419.96 494.574 420.656 494.585 421.092 494.148C421.528 493.71 421.539 492.989 421.117 492.538C419.239 490.528 418.483 487.351 418.699 483.285C418.837 480.701 419.358 477.912 420.141 475.094C420.401 474.159 420.676 473.271 420.954 472.449L421.328 471.383C421.455 471.034 421.555 470.776 421.618 470.621C421.694 470.434 421.721 470.229 421.695 470.028L420.843 463.353C415.897 424.226 412.231 388.299 410.059 359.477L409.766 355.494C408.981 344.602 408.473 335.406 408.267 328.67L408.2 326.03C408.148 323.437 408.155 321.385 408.219 319.94L408.234 319.618C408.259 319.152 408.291 318.767 408.327 318.47L408.366 318.196L408.382 318.185L408.496 318.064C408.885 317.582 408.824 316.864 408.359 316.46Z" fill="#253368"/>
<path d="M464.357 311.53L465.867 311.665C466.355 311.71 466.828 311.757 467.284 311.804L469.511 312.05L470.192 312.135C470.795 312.215 471.234 312.766 471.194 313.394L468.534 355.872C468.509 356.276 468.288 356.638 467.948 356.835L445.743 369.709C445.362 369.93 444.893 369.909 444.533 369.654L427.381 357.519C427.068 357.297 426.88 356.93 426.879 356.537L426.895 348.806L426.921 343.876C426.975 335.334 427.076 325.827 427.236 315.523C427.243 315.064 427.504 314.649 427.907 314.458C432.238 312.401 438.494 311.32 446.203 311.015C452.026 310.786 458.254 311.012 464.357 311.53ZM445.47 313.434C438.958 313.744 433.599 314.644 429.786 316.218L429.526 316.328L429.381 326.799C429.315 332.242 429.266 337.412 429.233 342.28L429.186 351.492L429.181 355.903L445.242 367.266L466.279 355.07L468.829 314.368L468.354 314.315C467.108 314.176 465.703 314.037 464.169 313.907C458.15 313.396 452.009 313.172 446.29 313.398L445.47 313.434Z" fill="#253368"/>
<path fill-rule="evenodd" clip-rule="evenodd" d="M495.059 295.785C495.027 297.91 496.385 299.653 498.092 299.682C499.8 299.71 501.21 298.013 501.245 295.888C501.277 293.766 499.919 292.02 498.212 291.992C496.502 291.963 495.092 293.661 495.059 295.785Z" fill="white"/>
<path fill-rule="evenodd" clip-rule="evenodd" d="M490.125 334.804C490.093 336.927 491.45 338.672 493.158 338.701C494.865 338.729 496.276 337.032 496.31 334.907C496.342 332.785 494.985 331.039 493.277 331.011C491.568 330.982 490.157 332.68 490.125 334.804Z" fill="white"/>
<path fill-rule="evenodd" clip-rule="evenodd" d="M486.996 377.057C486.963 379.182 488.321 380.925 490.028 380.954C491.736 380.982 493.146 379.284 493.181 377.16C493.213 375.038 491.855 373.292 490.148 373.264C488.438 373.235 487.028 374.935 486.996 377.057Z" fill="white"/>
<path fill-rule="evenodd" clip-rule="evenodd" d="M485.761 416.779C485.729 418.901 487.087 420.646 488.794 420.675C490.501 420.703 491.912 419.006 491.946 416.881C491.979 414.759 490.621 413.013 488.914 412.985C487.206 412.956 485.796 414.654 485.761 416.779Z" fill="white"/>
<path fill-rule="evenodd" clip-rule="evenodd" d="M485.566 469.336C485.533 471.461 486.891 473.204 488.598 473.232C490.306 473.261 491.716 471.563 491.751 469.439C491.783 467.316 490.425 465.571 488.718 465.542C487.008 465.514 485.598 467.212 485.566 469.336Z" fill="white"/>
<path d="M546.792 266.429C546.371 266.06 545.76 266.075 545.358 266.441L545.244 266.561L517.217 300.81L497.208 276.69C496.849 276.256 496.243 276.172 495.79 276.468L495.659 276.569C495.241 276.941 495.159 277.569 495.445 278.039L495.542 278.174L516.389 303.307C516.793 303.794 517.493 303.832 517.944 303.424L518.06 303.301L546.92 268.034C547.312 267.555 547.255 266.836 546.792 266.429Z" fill="#253368"/>
<path d="M463.131 267.971C462.947 267.372 462.329 267.04 461.751 267.231C461.221 267.406 460.909 267.959 461.002 268.511L461.038 268.662L469.77 297.09C469.986 297.792 470.769 298.088 471.363 297.733L471.487 297.646L496.228 277.893C496.709 277.509 496.798 276.794 496.428 276.296C496.091 275.843 495.49 275.726 495.023 275.996L494.887 276.089L471.389 294.85L463.131 267.971Z" fill="#253368"/>
<path d="M464.207 512.015C463.757 511.946 463.338 512.267 463.271 512.734L463.058 514.363L463.007 514.78C462.811 516.415 462.614 518.266 462.431 520.296C461.594 529.562 461.309 539.121 461.904 548.06C463.293 568.913 469.148 582.145 481.032 583.822C481.482 583.886 481.898 583.559 481.959 583.092C482.02 582.624 481.705 582.194 481.254 582.131C470.438 580.604 464.888 568.06 463.548 547.942C462.96 539.108 463.242 529.637 464.071 520.455L464.23 518.775C464.337 517.685 464.448 516.657 464.559 515.698L464.74 514.194L464.9 512.986C464.967 512.519 464.657 512.085 464.207 512.015Z" fill="#554AF0"/>
<path d="M549.487 181.365C549.316 180.928 548.836 180.717 548.414 180.894L548.126 181.026C547.954 181.11 547.744 181.22 547.504 181.357C546.842 181.735 546.181 182.192 545.561 182.735C543.28 184.731 542.136 187.317 542.84 190.448C543.106 191.634 543.633 192.267 544.611 192.871L545.033 193.117C545.873 193.593 546.083 193.829 546.16 194.567C546.308 195.986 545.686 197.046 544.49 197.859C544.093 198.129 543.661 198.349 543.23 198.52L542.844 198.659C542.776 198.681 542.722 198.696 542.683 198.706C542.241 198.818 541.97 199.28 542.078 199.738C542.186 200.196 542.632 200.477 543.074 200.365C543.673 200.213 544.529 199.875 545.394 199.287C547.063 198.152 548.021 196.52 547.798 194.383C547.659 193.062 547.161 192.423 546.067 191.761L545.661 191.527C544.887 191.085 544.607 190.786 544.445 190.061C543.9 187.636 544.774 185.658 546.624 184.039C547.155 183.575 547.727 183.179 548.299 182.852C548.638 182.658 548.897 182.533 549.032 182.476C549.454 182.299 549.658 181.802 549.487 181.365Z" fill="#DD936F"/>
<path d="M330.329 347.039C329.81 347.365 329.645 348.065 329.959 348.603L331.203 350.692L332.375 352.624C333.331 354.191 334.375 355.877 335.495 357.658C339.765 364.443 344.275 371.23 348.825 377.567C352.12 382.157 355.317 386.341 358.375 390.029C364.202 397.055 369.361 402.088 373.719 404.74C374.023 404.925 374.391 404.946 374.709 404.804L374.863 404.72L410.824 381.108C411.336 380.772 411.488 380.068 411.164 379.537C410.868 379.054 410.281 378.88 409.791 379.105L409.647 379.185L374.265 402.418L373.97 402.226C370.183 399.695 365.68 395.267 360.627 389.246L360.042 388.544C357.02 384.901 353.855 380.757 350.588 376.207C346.068 369.912 341.582 363.163 337.336 356.414L336.247 354.675C335.362 353.253 334.532 351.903 333.764 350.639L332.618 348.736L331.839 347.423C331.524 346.885 330.848 346.713 330.329 347.039Z" fill="#253368"/>
<path d="M306.649 355.7C306.341 355.353 305.82 355.332 305.485 355.652C305.188 355.936 305.139 356.394 305.348 356.736L305.439 356.858L333.62 388.484C333.928 388.831 334.449 388.852 334.784 388.532C335.081 388.248 335.13 387.79 334.921 387.448L334.83 387.326L306.649 355.7Z" fill="#DD936F"/>
<path fill-rule="evenodd" clip-rule="evenodd" d="M632.451 479.373C646.869 473.147 654.089 456.341 648.905 441.073L601.941 302.761C595.034 282.421 573.048 272.278 553.839 280.571C534.855 288.767 526.256 311.675 534.904 331.008L594.406 464.036C601.055 478.906 617.853 485.676 632.451 479.373Z" fill="#FFC999"/>
<path fill-rule="evenodd" clip-rule="evenodd" d="M630.506 390.013L601.083 302.258C592.645 283.187 561.62 275.621 543.369 284.703C525.119 293.786 517.604 316.615 526.693 335.363L568.217 421.015C568.217 421.015 614.827 409.762 630.506 390.013Z" fill="#554AF0"/>
<path d="M546.002 352.398C545.764 351.819 545.119 351.55 544.561 351.796C544.053 352.02 543.792 352.593 543.927 353.13L543.98 353.289L569.896 416.398C570.119 416.939 570.702 417.216 571.243 417.036L573.53 416.252L575.646 415.506C577.361 414.894 579.206 414.219 581.156 413.488C588.584 410.702 596.013 407.663 602.952 404.47L604.955 403.538C615.495 398.57 623.76 393.713 628.974 389.095C629.836 388.332 630.613 387.577 631.301 386.829C631.72 386.374 631.703 385.653 631.264 385.219C630.825 384.785 630.13 384.802 629.711 385.257C629.076 385.946 628.354 386.649 627.547 387.364C622.207 392.092 613.379 397.18 602.06 402.389C595.174 405.558 587.791 408.578 580.408 411.347L578.505 412.055C576.95 412.628 575.473 413.162 574.089 413.651L571.524 414.545L546.002 352.398Z" fill="#253368"/>
<path fill-rule="evenodd" clip-rule="evenodd" d="M451.556 462.816C452.403 471.701 459.522 478.53 468.137 478.723L619.567 482.109C636.956 482.498 650.874 467.254 649.537 449.282C648.233 431.717 632.874 418.951 616.044 421.44L466.098 443.609C457.069 444.944 450.659 453.412 451.556 462.816Z" fill="#FFC999"/>
<path fill-rule="evenodd" clip-rule="evenodd" d="M463.95 503.17L430.656 395.244C430.106 393.462 428.523 392.246 426.719 392.223L333.36 390.913C330.461 390.873 328.399 393.823 329.34 396.665L364.095 501.725C364.654 503.415 366.154 504.576 367.875 504.655L459.773 508.833C462.689 508.964 464.838 506.05 463.95 503.17Z" fill="#4E5C93"/>
<path fill-rule="evenodd" clip-rule="evenodd" d="M459.029 501.853L426.315 395.806C425.65 393.653 423.731 392.18 421.547 392.149L327.035 390.823C325.008 390.797 323.566 392.859 324.224 394.845L359.461 501.36C360.08 503.232 361.739 504.519 363.647 504.605L453.971 508.711C457.501 508.871 460.105 505.339 459.029 501.853Z" fill="#253368"/>
<path fill-rule="evenodd" clip-rule="evenodd" d="M413.517 402.368C412.461 403.587 412.841 405.726 414.366 407.149C415.892 408.57 417.986 408.735 419.044 407.519C420.1 406.3 419.721 404.159 418.195 402.738C416.67 401.314 414.573 401.15 413.517 402.368Z" fill="#ADC6FF"/>
<path fill-rule="evenodd" clip-rule="evenodd" d="M414.772 403.642C414.222 404.274 414.42 405.385 415.212 406.124C416.005 406.861 417.092 406.947 417.642 406.315C418.189 405.683 417.991 404.572 417.2 403.833C416.408 403.096 415.32 403.01 414.772 403.642Z" fill="#E4EBF7"/>
<path fill-rule="evenodd" clip-rule="evenodd" d="M422.391 482.876C417.027 482.337 414.206 480.012 414.715 475.381C408.263 473.278 408.983 467.615 408.983 467.615C408.983 467.615 396.564 467.417 394.475 461.918C393.663 459.782 395.239 457.498 397.448 457.343C424.054 455.473 443.026 440.863 443.026 440.863C443.026 440.863 432.566 424.946 433.673 417.6C433.999 415.427 436.74 414.726 438.022 416.479C448.991 431.48 470.986 443.243 470.986 443.243C470.986 443.243 497.39 468.879 468.749 480.503C468.749 480.503 446.915 489.519 431.715 488.377C424.517 487.838 422.391 482.876 422.391 482.876Z" fill="#FFC999"/>
<path d="M428.551 462.727C428.329 462.316 427.827 462.169 427.43 462.399C425.525 463.502 423.298 464.402 420.815 465.113C417.855 465.959 414.677 466.501 411.479 466.795L410.507 466.878C409.254 466.974 408.18 467.018 407.343 467.029L406.724 467.031C406.269 467.024 405.895 467.401 405.889 467.873C405.884 468.297 406.178 468.653 406.568 468.725L406.702 468.738L407.041 468.739C408.155 468.735 409.732 468.67 411.625 468.496C414.915 468.193 418.188 467.635 421.253 466.758C423.856 466.014 426.204 465.065 428.234 463.889C428.631 463.659 428.773 463.139 428.551 462.727Z" fill="#DD936F"/>
<path d="M431.055 471.201C430.857 470.776 430.365 470.598 429.955 470.804C429.71 470.926 429.462 471.046 429.212 471.163C426.053 472.64 422.661 473.587 419.254 474.107C417.149 474.428 415.463 474.532 414.414 474.524C413.947 474.518 413.573 474.895 413.567 475.366C413.561 475.79 413.855 476.147 414.246 476.218L414.379 476.231H414.675L415.284 476.217C416.37 476.177 417.806 476.054 419.494 475.796C423.042 475.255 426.579 474.267 429.89 472.719C430.153 472.596 430.414 472.47 430.672 472.341C431.082 472.135 431.253 471.625 431.055 471.201Z" fill="#DD936F"/>
<path d="M435.791 480.668C435.593 480.244 435.1 480.066 434.69 480.271C433.814 480.711 431.745 481.12 428.932 481.457C427.493 481.629 425.949 481.772 424.405 481.888L422.349 482.023C421.895 482.047 421.545 482.448 421.568 482.919C421.592 483.39 421.979 483.752 422.433 483.728L424.121 483.62L424.524 483.59C426.09 483.473 427.656 483.328 429.12 483.153L430.147 483.023C432.626 482.69 434.431 482.298 435.408 481.808C435.817 481.603 435.989 481.093 435.791 480.668Z" fill="#DD936F"/>
<path d="M615.933 420.593L469.727 441.291C469.276 441.355 468.96 441.785 469.022 442.252C469.077 442.673 469.419 442.979 469.816 442.99L469.95 442.982L616.156 422.285C616.607 422.221 616.922 421.791 616.861 421.323C616.805 420.903 616.463 420.596 616.067 420.585L615.933 420.593Z" fill="#DD936F"/>
</g>
</g>
<g clip-path="url(#clip2_330_6940)">
<path fill-rule="evenodd" clip-rule="evenodd" d="M170.088 247.583L173.771 242.228L132.423 211.689L128.74 217.044L170.088 247.583Z" fill="#A3B5D6"/>
<path fill-rule="evenodd" clip-rule="evenodd" d="M97.6221 229.072C121.535 224.915 137.727 201.822 133.789 177.492C129.851 153.162 107.274 136.808 83.3609 140.965C59.4481 145.122 43.2556 168.215 47.1937 192.545C51.1318 216.875 73.7093 233.229 97.6221 229.072Z" fill="white"/>
<path fill-rule="evenodd" clip-rule="evenodd" d="M97.1896 226.108C119.225 222.277 134.091 200.661 130.395 177.826C126.699 154.992 105.84 139.585 83.8049 143.416C61.77 147.246 46.9032 168.862 50.5993 191.697C54.2954 214.532 75.1548 229.938 97.1896 226.108ZM81.5741 129.634C110.954 124.527 138.766 145.068 143.694 175.515C148.623 205.961 128.801 234.783 99.4204 239.89C70.0404 244.996 42.2281 224.455 37.3 194.009C32.3718 163.562 52.1941 134.741 81.5741 129.634Z" fill="#4E5C93"/>
<path fill-rule="evenodd" clip-rule="evenodd" d="M190.115 262.375L193.798 257.02C194.815 255.541 194.483 253.488 193.056 252.434L156.75 225.619C155.323 224.565 153.342 224.909 152.325 226.388C152.325 226.388 152.325 226.388 152.325 226.388L148.641 231.743C147.624 233.222 147.957 235.276 149.384 236.33L185.69 263.144C187.117 264.198 189.098 263.854 190.115 262.375C190.115 262.375 190.115 262.375 190.115 262.375Z" fill="#4E5C93"/>
<path fill-rule="evenodd" clip-rule="evenodd" d="M64.241 175.887C64.5125 176.134 64.9267 176.105 65.1663 175.822C67.0504 173.598 69.539 173.752 71.7365 174.584C72.8274 174.998 73.7992 175.565 74.5024 176.034C74.8526 176.268 75.1328 176.474 75.3242 176.622C75.4198 176.695 75.4929 176.754 75.5413 176.793L75.5672 176.814C75.051 179.725 75.7838 183.235 77.5698 186.794L90.2298 170.87C86.4421 169.709 82.9129 169.655 80.2343 170.807C80.1983 170.774 80.1563 170.735 80.1089 170.69C79.9329 170.523 79.6836 170.278 79.3957 169.966C78.8175 169.34 78.0944 168.46 77.4947 167.428C76.2864 165.351 75.6657 162.849 77.4117 160.507C77.6337 160.209 77.5818 159.782 77.2958 159.553C77.0099 159.324 76.5981 159.38 76.3761 159.677C74.1368 162.681 75.0497 165.863 76.3714 168.135C77.0366 169.279 77.8275 170.239 78.4471 170.909C78.6479 171.127 78.8318 171.315 78.9892 171.471C78.3081 171.913 77.7043 172.456 77.1916 173.101C76.645 173.788 76.2282 174.559 75.9352 175.397C75.7424 175.253 75.4995 175.079 75.2146 174.889C74.461 174.386 73.401 173.765 72.1912 173.307C69.7874 172.396 66.5996 172.075 64.1833 174.927C63.9437 175.21 63.9696 175.639 64.241 175.887ZM101.289 177.184L102.405 178.138C102.058 177.817 101.701 177.501 101.337 177.189C100.972 176.878 100.604 176.576 100.234 176.284L100.562 176.564C99.4682 175.653 98.3495 174.828 97.2208 174.092L97.3825 169.163C97.3865 169.042 97.3594 168.923 97.3041 168.817L93.2127 160.98C93.0405 160.651 92.6428 160.529 92.3243 160.709C92.0058 160.889 91.8871 161.303 92.0592 161.632L96.0662 169.307L95.9354 173.293C94.7334 172.584 93.5263 171.975 92.3316 171.469L78.5086 188.856C79.2377 190.01 80.0732 191.156 81.0084 192.276L76.9658 193.24L68.9333 190.629C68.5883 190.517 68.2197 190.717 68.11 191.075C68.0003 191.434 68.1911 191.815 68.5361 191.928L76.738 194.594C76.8489 194.63 76.9672 194.635 77.0807 194.607L82.0163 193.43C83.0067 194.515 84.0919 195.568 85.2655 196.57C88.184 199.064 91.2912 200.941 94.3058 202.156C94.2107 202.273 94.1526 202.423 94.1505 202.587L94.0663 209.267C94.0648 209.382 94.0915 209.496 94.1439 209.597L97.9782 217.007C98.1492 217.337 98.5465 217.46 98.8656 217.281C99.1848 217.102 99.3049 216.689 99.134 216.359L95.3794 209.104L95.4615 202.599L95.4615 202.591C101.311 204.635 106.666 204.11 109.411 200.659C112.135 197.232 111.636 191.739 108.642 186.218L114.603 184.932L122.19 187.366C122.536 187.477 122.904 187.276 123.012 186.917C123.121 186.558 122.928 186.177 122.583 186.066L114.834 183.58C114.728 183.546 114.616 183.541 114.507 183.564L108.198 184.926C108.11 184.945 108.03 184.981 107.96 185.031C106.304 182.304 104.051 179.606 101.289 177.184Z" fill="#FF7946"/>
</g>
<path d="M618.82 176.062H608.216C603.086 176.062 598.927 180.221 598.927 185.351L598.927 197.014C598.927 202.145 603.086 206.303 608.216 206.303H618.82C623.95 206.303 628.109 202.145 628.109 197.015V185.351C628.109 180.221 623.95 176.062 618.82 176.062Z" fill="#554AF0"/>
<path d="M572.275 251.169L572.275 250.547C572.275 245.82 576.107 241.987 580.835 241.987C585.562 241.987 589.395 245.82 589.395 250.547V251.169C589.395 255.896 585.562 259.729 580.835 259.729C576.107 259.729 572.275 255.896 572.275 251.169Z" fill="#554AF0"/>
<path d="M605.941 522.664H591.835C586.705 522.664 582.546 526.822 582.546 531.952L582.546 548.454C582.546 553.584 586.705 557.743 591.835 557.743H605.941C611.071 557.743 615.23 553.584 615.23 548.454V531.952C615.23 526.822 611.071 522.664 605.941 522.664Z" fill="#554AF0"/>
<path fill-rule="evenodd" clip-rule="evenodd" d="M157.125 276.018C154.682 268.88 154.323 264.367 155.411 259.469C156.494 254.568 153.567 248.897 153.567 248.897C152.788 232.209 168.926 245.911 171.367 244.398C172.588 243.643 167.519 240.347 166.237 234.016C164.95 227.682 169.083 223.632 171.505 226.352C177.274 232.82 193.447 247.251 202.119 252.937C213.312 260.274 221.591 275.228 221.591 275.228C238.39 297.045 219.733 315.149 208.377 311.582C191.571 306.307 157.496 296.13 158.006 285.512C158.006 285.512 159.116 281.83 157.125 276.018Z" fill="#FFC999"/>
<path d="M170.616 243.275L183.54 255.09" stroke="#DD936F" stroke-width="1.84608" stroke-linecap="round" stroke-linejoin="round"/>
<defs>
<clipPath id="clip0_330_6940">
<rect x="147.314" width="676.221" height="600.843" rx="300.421" fill="white"/>
</clipPath>
<clipPath id="clip1_330_6940">
<rect width="785.412" height="1627.83" fill="white" transform="matrix(-1 0 0 1 817.788 -215.059)"/>
</clipPath>
<clipPath id="clip2_330_6940">
<rect width="169.396" height="175.201" fill="white" transform="matrix(-0.985227 0.171257 0.159783 0.987152 182.266 100.288)"/>
</clipPath>
</defs>
</svg>
