<svg width="819" height="1024" viewBox="0 0 819 1024" fill="none" xmlns="http://www.w3.org/2000/svg">
<g clip-path="url(#clip0_554_7006)">
<rect width="819" height="1024" fill="#EDF1FF"/>
<rect x="38.6804" y="264.874" width="836.634" height="593.762" rx="19.0954" fill="white" fill-opacity="0.01"/>
<ellipse cx="534.735" cy="547.582" rx="216.177" ry="216.37" fill="#D6E4FF"/>
<path fill-rule="evenodd" clip-rule="evenodd" d="M120.398 432.117L155.446 377.84C154.337 376.936 153.628 375.56 153.628 374.018C153.628 371.297 155.834 369.091 158.555 369.091C161.275 369.091 163.481 371.297 163.481 374.018C163.481 375.848 162.483 377.445 161.002 378.294L187.357 438.601C187.92 438.377 188.533 438.254 189.176 438.254C191.896 438.254 194.102 440.46 194.102 443.181C194.102 445.901 191.896 448.107 189.176 448.107C186.554 448.107 184.41 446.059 184.258 443.475L123.016 437.444C122.582 439.721 120.581 441.442 118.177 441.442C115.457 441.442 113.251 439.236 113.251 436.515C113.251 433.795 115.457 431.589 118.177 431.589C118.976 431.589 119.731 431.779 120.398 432.117ZM158.555 378.944C158.75 378.944 158.942 378.933 159.131 378.911L166.833 415.038C164.884 415.695 163.481 417.538 163.481 419.708C163.481 420.18 163.548 420.637 163.672 421.07L122.671 434.494C122.341 433.762 121.838 433.125 121.213 432.635L156.251 378.373C156.938 378.738 157.722 378.944 158.555 378.944ZM164.03 421.969L122.979 435.409C123.058 435.754 123.101 436.113 123.104 436.482L184.295 442.508C184.419 441.596 184.794 440.762 185.347 440.08L171.091 423.84C170.319 424.342 169.397 424.634 168.407 424.634C166.502 424.634 164.849 423.552 164.03 421.969ZM171.846 423.236L186.028 439.391C186.177 439.267 186.334 439.151 186.497 439.045L160.121 378.69C160.105 378.695 160.09 378.7 160.075 378.705L167.774 414.822C167.981 414.795 168.193 414.781 168.407 414.781C171.128 414.781 173.334 416.987 173.334 419.708C173.334 421.091 172.764 422.341 171.846 423.236Z" fill="#554AF0"/>
<path fill-rule="evenodd" clip-rule="evenodd" d="M108.489 477.898C113.921 477.898 118.334 482.257 118.422 487.668L118.423 487.832C119.11 505.971 136.624 510.697 142.59 511.783C147.975 511.898 152.305 516.3 152.305 521.714C152.305 527.2 147.858 531.648 142.371 531.648C137.921 531.648 134.154 528.721 132.89 524.688L132.851 524.729C127.841 500.189 112.575 497.928 108.533 497.765L108.489 497.766C108.327 497.766 108.165 497.762 108.004 497.754C107.705 497.754 107.543 497.766 107.543 497.766L107.588 497.725C102.524 497.27 98.5554 493.014 98.5554 487.832C98.5554 482.345 103.003 477.898 108.489 477.898Z" fill="#E4ECF7"/>
<path fill-rule="evenodd" clip-rule="evenodd" d="M173.358 460.036C175.107 462.223 174.755 465.417 172.572 467.168C171.607 467.943 170.445 468.306 169.298 468.281L169.297 468.28C157.579 469.776 155.686 477.007 155.386 478.991C155.386 478.998 155.385 479.006 155.384 479.014C155.375 479.098 155.364 479.18 155.35 479.262C155.334 479.413 155.331 479.495 155.331 479.495L155.313 479.47C154.799 482.015 152.42 483.791 149.795 483.5C147.015 483.193 145.01 480.685 145.317 477.9C145.622 475.143 148.077 473.146 150.823 473.405L150.907 473.414C160.129 474.083 163.506 465.469 164.393 462.495C164.567 461.261 165.193 460.089 166.24 459.248C168.423 457.496 171.61 457.849 173.358 460.036Z" fill="#E4ECF7"/>
<path fill-rule="evenodd" clip-rule="evenodd" d="M170.041 458.073C172.829 458.381 174.839 460.891 174.531 463.679C174.223 466.467 171.713 468.478 168.925 468.17C166.137 467.862 164.127 465.352 164.435 462.564C164.743 459.775 167.253 457.765 170.041 458.073Z" fill="#E4ECF7"/>
<path fill-rule="evenodd" clip-rule="evenodd" d="M777.339 687.949C779.087 690.136 778.735 693.329 776.552 695.081C775.587 695.856 774.426 696.219 773.279 696.194L773.278 696.193C761.559 697.689 759.666 704.92 759.367 706.903C759.366 706.911 759.365 706.919 759.364 706.927C759.355 707.01 759.344 707.093 759.331 707.175C759.314 707.325 759.311 707.407 759.311 707.407L759.293 707.382C758.779 709.928 756.401 711.704 753.775 711.413C750.995 711.105 748.991 708.598 749.298 705.812C749.602 703.055 752.058 701.059 754.804 701.318L754.887 701.326C764.11 701.995 767.486 693.381 768.373 690.407C768.548 689.174 769.173 688.001 770.221 687.161C772.404 685.409 775.59 685.762 777.339 687.949Z" fill="#E4ECF7"/>
<path fill-rule="evenodd" clip-rule="evenodd" d="M774.021 685.986C776.809 686.294 778.82 688.804 778.512 691.592C778.204 694.38 775.694 696.39 772.906 696.082C770.118 695.774 768.107 693.264 768.415 690.476C768.723 687.688 771.233 685.678 774.021 685.986Z" fill="#E4ECF7"/>
<path d="M273.595 330.535C275.103 332.042 277.547 332.042 279.055 330.535C280.563 329.027 280.563 326.583 279.055 325.075C277.548 323.567 275.103 323.567 273.596 325.075C272.088 326.583 272.088 329.027 273.595 330.535Z" fill="#554AF0"/>
<path d="M306.074 363.535C307.581 365.043 310.026 365.043 311.533 363.535C313.041 362.028 313.041 359.583 311.533 358.076C310.026 356.568 307.581 356.568 306.074 358.076C304.566 359.583 304.566 362.028 306.074 363.535Z" fill="#554AF0"/>
<path d="M284.482 338.829C288.373 334.938 294.681 334.938 298.571 338.829C302.462 342.72 302.462 349.027 298.571 352.918C294.681 356.809 288.373 356.809 284.482 352.918C280.592 349.028 280.592 342.72 284.482 338.829Z" fill="#554AF0"/>
<path d="M321.034 341.142C321.034 343.274 319.305 345.003 317.173 345.003C315.041 345.003 313.313 343.274 313.313 341.142C313.313 339.01 315.041 337.282 317.173 337.282C319.305 337.282 321.034 339.01 321.034 341.142Z" fill="#554AF0"/>
<path d="M255.785 592.89C256.245 588.573 253.241 584.686 249.075 584.209C246.232 583.883 243.583 585.229 242.04 587.489C241.281 588.553 240.808 589.784 240.635 591.056C239.31 595.661 234.264 609 220.482 607.965L220.358 607.952C216.254 607.551 212.585 610.642 212.13 614.912C211.671 619.225 214.667 623.108 218.821 623.584C222.744 624.035 226.298 621.284 227.067 617.343L227.094 617.381C227.094 617.381 227.098 617.254 227.123 617.021C227.142 616.894 227.159 616.767 227.173 616.638C227.174 616.63 227.174 616.622 227.175 616.615C227.176 616.61 227.176 616.605 227.176 616.601C227.624 613.53 230.453 602.332 247.964 600.016L247.966 600.017C249.679 600.055 251.415 599.493 252.857 598.294C253.055 598.129 253.244 597.955 253.422 597.775C254.702 596.536 255.578 594.835 255.785 592.89Z" fill="#FABB18"/>
<path d="M157.098 614.909C165.214 614.909 171.809 621.659 171.94 630.037L171.942 630.292C172.968 658.381 199.139 665.7 208.055 667.381C216.102 667.56 222.572 674.377 222.572 682.76C222.572 691.256 215.926 698.143 207.728 698.143C201.077 698.143 195.449 693.611 193.56 687.365L193.502 687.43C186.015 649.427 163.202 645.926 157.163 645.674L157.098 645.675C156.854 645.675 156.612 645.669 156.372 645.657C155.925 645.657 155.684 645.675 155.684 645.675L155.75 645.613C148.183 644.907 142.253 638.317 142.253 630.292C142.253 621.796 148.899 614.909 157.098 614.909Z" fill="#FABB18"/>
<path d="M114.026 381.717H79.5363C78.3552 381.717 77.3978 382.709 77.3978 383.933V389.414C77.3978 390.638 78.3552 391.63 79.5363 391.63H114.026C115.207 391.63 116.164 390.638 116.164 389.414V383.933C116.164 382.709 115.207 381.717 114.026 381.717Z" fill="#6D69F5"/>
<path d="M114.058 400.586H79.5039C78.3407 400.586 77.3978 401.563 77.3978 402.768V408.016C77.3978 409.222 78.3407 410.199 79.5039 410.199H114.058C115.221 410.199 116.164 409.222 116.164 408.016V402.768C116.164 401.563 115.221 400.586 114.058 400.586Z" fill="#ADC6FF"/>
<path d="M114.058 419.454H79.5039C78.3407 419.454 77.3978 420.431 77.3978 421.637V426.885C77.3978 428.09 78.3407 429.067 79.5039 429.067H114.058C115.221 429.067 116.164 428.09 116.164 426.885V421.637C116.164 420.431 115.221 419.454 114.058 419.454Z" fill="#FF7946"/>
<path d="M114.058 438.323H79.5039C78.3407 438.323 77.3978 439.3 77.3978 440.505V445.754C77.3978 446.959 78.3407 447.936 79.5039 447.936H114.058C115.221 447.936 116.164 446.959 116.164 445.754V440.505C116.164 439.3 115.221 438.323 114.058 438.323Z" fill="#ADC6FF"/>
<path d="M349.487 255.443H46.2123C41.0032 255.443 36.7804 259.819 36.7804 265.217V490.91C36.7804 496.308 41.0032 500.684 46.2123 500.684H349.487C354.696 500.684 358.918 496.308 358.918 490.91V265.217C358.918 259.819 354.696 255.443 349.487 255.443Z" fill="#E4EBF7"/>
<path d="M328.721 298.986H145.411C143.431 298.986 141.825 300.649 141.825 302.701V475.247C141.825 477.3 143.431 478.963 145.411 478.963H328.721C330.702 478.963 332.307 477.3 332.307 475.247V302.701C332.307 300.649 330.702 298.986 328.721 298.986Z" fill="#6D69F5"/>
<path d="M300.093 354.14H165.636V362.849H300.093V354.14Z" fill="white"/>
<path d="M232.864 384.62H165.636V393.329H232.864V384.62Z" fill="#FAAD14"/>
<path d="M290.289 323.66H223.06V332.369H290.289V323.66Z" fill="#FAAD14"/>
<path d="M288.888 444.129H165.636V452.837H288.888V444.129Z" fill="white"/>
<path d="M206.253 323.66H165.636V332.369H206.253V323.66Z" fill="white"/>
<path d="M266.479 384.62H246.87V393.329H266.479V384.62Z" fill="#E4EBF7"/>
<path d="M265.078 413.649H165.636V422.357H265.078V413.649Z" fill="#E4EBF7"/>
<path d="M45.4091 243.831H350.128C354.893 243.831 358.757 247.751 358.757 252.587V278.68H36.7804V252.587C36.7804 247.751 40.6436 243.831 45.4091 243.831Z" fill="#253368"/>
<path d="M55.5445 267.942C58.9459 267.942 61.7033 265.144 61.7033 261.692C61.7033 258.241 58.9459 255.443 55.5445 255.443C52.1432 255.443 49.3858 258.241 49.3858 261.692C49.3858 265.144 52.1432 267.942 55.5445 267.942Z" fill="#FF7946"/>
<path d="M79.3547 267.942C82.7561 267.942 85.5135 265.144 85.5135 261.692C85.5135 258.241 82.7561 255.443 79.3547 255.443C75.9534 255.443 73.196 258.241 73.196 261.692C73.196 265.144 75.9534 267.942 79.3547 267.942Z" fill="#FAAD14"/>
<path d="M101.764 267.942C105.166 267.942 107.923 265.144 107.923 261.692C107.923 258.241 105.166 255.443 101.764 255.443C98.363 255.443 95.6056 258.241 95.6056 261.692C95.6056 265.144 98.363 267.942 101.764 267.942Z" fill="#7CB305"/>
<path d="M128.256 296.083H65.756C63.6768 296.083 61.9912 297.829 61.9912 299.984V475.062C61.9912 477.216 63.6768 478.963 65.756 478.963H128.256C130.336 478.963 132.021 477.216 132.021 475.062V299.984C132.021 297.829 130.336 296.083 128.256 296.083Z" fill="white"/>
<path d="M114.026 381.717H79.5363C78.3552 381.717 77.3978 382.709 77.3978 383.933V389.414C77.3978 390.638 78.3552 391.63 79.5363 391.63H114.026C115.207 391.63 116.164 390.638 116.164 389.414V383.933C116.164 382.709 115.207 381.717 114.026 381.717Z" fill="#6D69F5"/>
<path d="M114.058 400.586H79.5039C78.3407 400.586 77.3978 401.563 77.3978 402.768V408.016C77.3978 409.222 78.3407 410.199 79.5039 410.199H114.058C115.221 410.199 116.164 409.222 116.164 408.016V402.768C116.164 401.563 115.221 400.586 114.058 400.586Z" fill="#ADC6FF"/>
<path d="M114.058 419.454H79.5039C78.3407 419.454 77.3978 420.431 77.3978 421.637V426.885C77.3978 428.09 78.3407 429.067 79.5039 429.067H114.058C115.221 429.067 116.164 428.09 116.164 426.885V421.637C116.164 420.431 115.221 419.454 114.058 419.454Z" fill="#FF7946"/>
<path d="M114.058 438.323H79.5039C78.3407 438.323 77.3978 439.3 77.3978 440.505V445.754C77.3978 446.959 78.3407 447.936 79.5039 447.936H114.058C115.221 447.936 116.164 446.959 116.164 445.754V440.505C116.164 439.3 115.221 438.323 114.058 438.323Z" fill="#ADC6FF"/>
<path d="M96.2984 355.669C105.862 355.669 113.615 347.544 113.615 337.52C113.615 327.497 105.862 319.371 96.2984 319.371C86.7347 319.371 78.9817 327.497 78.9817 337.52C78.9817 347.544 86.7347 355.669 96.2984 355.669Z" fill="#FAAD14"/>
<path d="M96.2984 355.669C101.289 355.672 106.026 353.361 109.237 349.357C106.707 344.323 101.725 341.171 96.2957 341.171C90.8667 341.171 85.8844 344.323 83.3542 349.357C86.567 353.362 91.3057 355.673 96.2984 355.669Z" fill="#253368"/>
<path d="M96.3904 341.893C99.9873 341.893 102.903 338.837 102.903 335.067C102.903 331.297 99.9873 328.241 96.3904 328.241C92.7935 328.241 89.8777 331.297 89.8777 335.067C89.8777 338.837 92.7935 341.893 96.3904 341.893Z" fill="#253368"/>
<g clip-path="url(#clip1_554_7006)">
<g clip-path="url(#clip2_554_7006)">
<path fill-rule="evenodd" clip-rule="evenodd" d="M690.956 382.565C742.508 358.181 773.233 422.132 747.306 457.738C715.668 501.19 699.461 551.186 690.436 566.25C682.822 578.957 661.967 609.937 636.854 595.658C613.742 582.517 626.339 530.94 626.339 530.94C626.339 530.94 627.36 412.646 690.956 382.565Z" fill="#5B8C00"/>
<path fill-rule="evenodd" clip-rule="evenodd" d="M535.897 585.728C518.371 562.083 511.972 528.151 531.534 519.449C550.289 511.107 581.357 531.647 595.747 571.179C610.137 610.71 618.439 639.132 604.363 644.073C581.269 652.181 559.046 616.958 535.897 585.728Z" fill="#5B8C00"/>
<path fill-rule="evenodd" clip-rule="evenodd" d="M720.148 587.523C700.326 610.753 671.721 657.483 653.8 641.116C642.939 631.198 657.459 584.226 697.203 558.668C731.01 536.929 739.971 564.293 720.148 587.523Z" fill="#7CB305"/>
<path fill-rule="evenodd" clip-rule="evenodd" d="M530.464 426.32C538.002 421.248 547.485 420.09 556.138 422.861C568.213 426.729 586.538 438.246 604.675 471.301C628.354 514.458 640.681 561.77 638.244 591.739C636.651 611.338 612.506 619.788 598.998 605.497C592.795 598.934 586.231 588.818 579.809 573.47C553.964 511.709 529.801 473.007 526.919 469.121C519.231 458.751 513.734 437.576 530.464 426.32Z" fill="#7CB305"/>
<path fill-rule="evenodd" clip-rule="evenodd" d="M547.797 450.954C548.053 454.004 545.788 456.683 542.739 456.939C539.69 457.195 537.011 454.93 536.754 451.88C536.499 448.831 538.764 446.152 541.813 445.896C544.862 445.64 547.541 447.905 547.797 450.954Z" fill="white"/>
<path fill-rule="evenodd" clip-rule="evenodd" d="M594.86 474.611C595.116 477.66 592.852 480.339 589.802 480.595C586.752 480.851 584.073 478.586 583.817 475.537C583.562 472.488 585.826 469.809 588.876 469.553C591.925 469.297 594.605 471.562 594.86 474.611Z" fill="white"/>
<path fill-rule="evenodd" clip-rule="evenodd" d="M586.972 537.598C587.266 541.09 584.672 544.158 581.18 544.451C577.687 544.744 574.619 542.15 574.326 538.658C574.033 535.166 576.627 532.098 580.119 531.805C583.611 531.512 586.679 534.105 586.972 537.598Z" fill="white"/>
<path fill-rule="evenodd" clip-rule="evenodd" d="M731.526 443.466C731.526 448.423 727.509 452.44 722.552 452.44C717.596 452.44 713.579 448.423 713.579 443.466C713.579 438.511 717.596 434.493 722.552 434.493C727.509 434.493 731.526 438.511 731.526 443.466Z" fill="white"/>
<path fill-rule="evenodd" clip-rule="evenodd" d="M659.286 470.869C659.286 475.825 655.269 479.843 650.313 479.843C645.357 479.843 641.339 475.825 641.339 470.869C641.339 465.913 645.357 461.896 650.313 461.896C655.269 461.896 659.286 465.913 659.286 470.869Z" fill="white"/>
<path fill-rule="evenodd" clip-rule="evenodd" d="M682.683 531.782C682.683 533.854 681.003 535.533 678.932 535.533C676.861 535.533 675.181 533.854 675.181 531.782C675.181 529.711 676.861 528.031 678.932 528.031C681.003 528.031 682.683 529.711 682.683 531.782Z" fill="white"/>
<path fill-rule="evenodd" clip-rule="evenodd" d="M709.704 579.749C709.704 582.809 707.223 585.29 704.163 585.29C701.103 585.29 698.622 582.809 698.622 579.749C698.622 576.689 701.103 574.208 704.163 574.208C707.223 574.208 709.704 576.689 709.704 579.749Z" fill="white"/>
<path d="M580.287 592.039C580.803 591.546 581.621 591.565 582.113 592.082L582.35 592.337L582.529 592.535C582.854 592.899 583.231 593.333 583.653 593.837C584.854 595.269 586.19 596.98 587.625 598.968C591.718 604.634 595.806 611.395 599.62 619.238C610.502 641.622 617.029 668.209 617.029 698.901C617.029 699.615 616.45 700.193 615.737 700.193C615.023 700.193 614.445 699.615 614.445 698.901C614.445 668.614 608.012 642.411 597.296 620.368C593.549 612.663 589.538 606.03 585.531 600.481C584.214 598.658 582.988 597.078 581.88 595.744L581.673 595.497C581.359 595.122 581.073 594.789 580.816 594.498L580.493 594.136C580.372 594.003 580.289 593.913 580.243 593.865C579.751 593.349 579.77 592.531 580.287 592.039Z" fill="#253368"/>
<path d="M677.897 601.082C678.323 600.51 679.133 600.392 679.705 600.819C680.277 601.246 680.394 602.056 679.967 602.628C675.261 608.93 670.919 615.706 666.925 622.889C658.483 638.074 651.956 654.354 647.111 670.635C645.416 676.334 644.052 681.624 642.99 686.369L642.775 687.341C642.522 688.502 642.303 689.56 642.117 690.509L641.996 691.13L641.782 692.302C641.663 693.005 640.997 693.48 640.293 693.361C639.59 693.243 639.115 692.576 639.234 691.873L639.307 691.457C639.368 691.121 639.442 690.726 639.53 690.273L639.743 689.197C639.951 688.172 640.193 687.039 640.469 685.805L640.703 684.767C641.741 680.237 643.044 675.245 644.635 669.898C649.529 653.449 656.125 636.998 664.667 621.634C668.715 614.353 673.119 607.48 677.897 601.082Z" fill="#253368"/>
<path d="M700.474 439.889C700.969 440.363 701.005 441.136 700.57 441.653L700.513 441.716C700.488 441.742 700.433 441.8 700.35 441.89L700.032 442.237L699.848 442.442C699.292 443.061 698.645 443.808 697.915 444.681C695.823 447.183 693.489 450.195 690.973 453.718C683.773 463.798 676.569 475.939 669.842 490.152C658.641 513.817 649.918 540.809 644.632 571.152C638.212 607.997 637.149 648.248 642.404 691.933C642.489 692.642 641.984 693.285 641.275 693.37C640.567 693.455 639.923 692.95 639.838 692.242C634.553 648.306 635.623 607.802 642.086 570.708C647.413 540.131 656.208 512.918 667.506 489.047C674.301 474.691 681.583 462.418 688.871 452.216L689.435 451.429C691.682 448.318 693.783 445.611 695.695 443.309L695.933 443.023C696.62 442.202 697.237 441.487 697.778 440.879L697.924 440.716C698.093 440.528 698.245 440.361 698.378 440.217L698.647 439.928C699.141 439.413 699.959 439.396 700.474 439.889Z" fill="#253368"/>
<path d="M588.641 516.506C589.252 516.136 590.046 516.331 590.416 516.942L590.546 517.159C590.649 517.334 590.77 517.543 590.909 517.785L591.112 518.139C591.459 518.748 591.848 519.448 592.277 520.238L592.632 520.896C593.946 523.342 595.386 526.173 596.924 529.379L597.134 529.818C602.149 540.326 607.162 552.613 611.84 566.576C624.936 605.671 632.904 650.043 633.202 698.893C633.206 699.607 632.631 700.189 631.918 700.193C631.204 700.198 630.622 699.623 630.618 698.909C630.322 650.345 622.403 606.242 609.39 567.396C604.831 553.788 599.954 541.79 595.073 531.501L594.802 530.931C593.134 527.436 591.581 524.386 590.181 521.793L589.759 521.017C589.354 520.279 588.99 519.631 588.669 519.073L588.517 518.809L588.206 518.281C587.836 517.671 588.031 516.876 588.641 516.506Z" fill="#253368"/>
<path fill-rule="evenodd" clip-rule="evenodd" d="M688.077 762.988H576.399C570.362 762.988 565.423 758.048 565.423 752.011V670.538C565.423 664.5 570.362 659.562 576.399 659.562H688.077C694.114 659.562 699.054 664.5 699.054 670.538V752.011C699.054 758.048 694.114 762.988 688.077 762.988Z" fill="#253368"/>
<path fill-rule="evenodd" clip-rule="evenodd" d="M302.993 587.43C312.14 600.552 329.581 603.99 342.736 595.266L461.917 516.245C479.449 504.623 483.945 480.122 471.761 462.641C459.717 445.367 436.231 441.933 420.046 455.079L308.697 545.541C296.251 555.651 293.734 574.146 302.993 587.43Z" fill="#FFC999"/>
<path fill-rule="evenodd" clip-rule="evenodd" d="M391.274 568.758L466.977 518.997C482.962 506.121 482.972 473.093 470.263 456.759C457.555 440.427 434.393 438.069 418.861 451.527L347.898 513.012C347.898 513.012 369.134 557.457 391.274 568.758Z" fill="#554AF0"/>
<path fill-rule="evenodd" clip-rule="evenodd" d="M213.938 429.023C207.489 434.944 206.324 444.923 211.224 452.269L297.358 581.38C307.252 596.206 327.328 598.952 340.594 587.294C353.559 575.9 354.535 555.522 342.723 542.852L237.479 429.971C231.142 423.173 220.765 422.754 213.938 429.023Z" fill="#FFC999"/>
<path fill-rule="evenodd" clip-rule="evenodd" d="M512.157 445.113L492.988 423.433L499.03 352.083L552.637 357.258L552.368 427.863L512.157 445.113Z" fill="#FFC999"/>
<path fill-rule="evenodd" clip-rule="evenodd" d="M485.328 345.037C485.328 345.037 477.371 335.966 473.738 341.787C470.107 347.61 475.54 369.004 484.426 369.834C496.297 370.942 485.328 345.037 485.328 345.037Z" fill="#FFC999"/>
<path fill-rule="evenodd" clip-rule="evenodd" d="M535.544 400.988C535.544 400.988 517.635 415.262 494.929 399.829C478.582 388.72 477.664 350.36 481.709 322.356C483.999 306.509 491.33 298.179 506.434 293.952C521.54 289.724 562.118 290.866 560.979 337.677C559.709 389.817 535.544 400.988 535.544 400.988Z" fill="#FFC999"/>
<path d="M507.601 330.564L507.453 330.584C507.058 330.674 506.793 331.044 506.807 331.448L506.826 331.601L508.908 341.387L503.038 367.713C502.932 368.187 503.229 368.646 503.671 368.741L503.808 368.758L514.625 369.202C515.08 369.221 515.463 368.854 515.481 368.383C515.497 367.959 515.212 367.595 514.824 367.513L514.69 367.496L504.869 367.092L510.555 341.582C510.573 341.499 510.579 341.415 510.574 341.331L510.557 341.206L508.435 331.234C508.348 330.824 507.991 330.549 507.601 330.564Z" fill="#DD936F"/>
<path d="M518.003 328.331C517.834 329.576 518.671 330.727 519.872 330.902L527.091 331.994L528.019 332.13C535.06 333.156 539.338 333.524 541.898 333.082C543.095 332.876 543.903 331.703 543.704 330.463C543.517 329.296 542.504 328.486 541.388 328.566L540.763 328.649C538.913 328.85 535.537 328.579 530.512 327.889L527.232 327.416L520.483 326.394C519.282 326.219 518.171 327.086 518.003 328.331Z" fill="#253368"/>
<path d="M523.365 376.037C523.225 375.394 522.61 374.991 521.99 375.135L521.58 375.219L521.417 375.249C520.923 375.339 520.339 375.43 519.67 375.515C515.171 376.086 509.702 376.101 503.527 375.19C502.898 375.097 502.315 375.55 502.226 376.202C502.136 376.854 502.573 377.457 503.202 377.55C509.588 378.493 515.259 378.477 519.95 377.882L520.759 377.771C521.015 377.733 521.257 377.695 521.485 377.656L522.296 377.505C522.378 377.488 522.445 377.473 522.495 377.462C523.115 377.317 523.504 376.679 523.365 376.037Z" fill="#FF7946"/>
<path fill-rule="evenodd" clip-rule="evenodd" d="M555.252 357.577L564.576 339.819C564.576 339.819 570.903 313.997 565.42 302.635C556.909 285.004 536.269 284.832 524.158 279.825C512.048 274.815 512.287 270.549 507.301 271.107C502.313 271.662 482.685 284.966 480.108 299.43C477.841 312.147 480.043 344.793 480.043 344.793C480.043 344.793 484.339 316.076 487.239 308.546C497.062 304.647 532.322 305.53 546.902 310.685C546.902 310.685 547.896 320.538 548.432 327.472C556.142 333.555 555.252 357.577 555.252 357.577Z" fill="#253368"/>
<path d="M494.646 398.193C494.349 397.835 493.829 397.795 493.484 398.102C493.139 398.409 493.1 398.948 493.396 399.306C493.621 399.578 494.053 400.028 494.695 400.597C495.751 401.531 497.027 402.463 498.527 403.33C506.601 407.995 517.392 408.982 530.999 404.043C531.428 403.887 531.654 403.4 531.504 402.955C531.354 402.51 530.884 402.276 530.454 402.431C517.293 407.209 506.993 406.267 499.33 401.839C497.927 401.028 496.74 400.162 495.766 399.299L495.372 398.94C495.016 398.606 494.775 398.349 494.646 398.193Z" fill="#DD936F"/>
<path d="M507.959 339.696C507.051 339.629 506.263 340.337 506.199 341.278C506.139 342.156 506.73 342.926 507.547 343.079L507.726 343.102L515.676 343.686C516.583 343.753 517.371 343.044 517.436 342.104C517.496 341.226 516.904 340.456 516.087 340.303L515.909 340.28L507.959 339.696Z" fill="#253368"/>
<path d="M514.858 345.42C513.193 344.617 511.485 344.188 509.806 344.36C508.387 344.506 507.091 345.084 506.003 346.137C505.338 346.78 505.301 347.86 505.922 348.55C506.543 349.239 507.585 349.276 508.251 348.633C508.795 348.107 509.411 347.832 510.13 347.759C511.128 347.656 512.291 347.948 513.469 348.516C514.096 348.818 514.572 349.117 514.813 349.295C515.554 349.842 516.583 349.663 517.111 348.896C517.639 348.128 517.467 347.062 516.726 346.514C516.332 346.224 515.688 345.82 514.858 345.42Z" fill="#253368"/>
<path d="M502.551 325.505C498.754 323.918 494.906 323.047 491.223 323.289C488.628 323.46 486.225 324.19 484.088 325.555C483.055 326.214 482.734 327.616 483.37 328.687C484.007 329.757 485.36 330.09 486.392 329.43C487.886 328.476 489.594 327.957 491.502 327.832C494.43 327.639 497.668 328.372 500.908 329.726C501.726 330.068 502.495 330.43 503.201 330.795L503.718 331.069C504.213 331.337 504.555 331.54 504.718 331.644C505.751 332.303 507.104 331.968 507.74 330.898C508.375 329.827 508.052 328.425 507.019 327.767L506.552 327.48C505.614 326.923 504.244 326.212 502.551 325.505Z" fill="#253368"/>
<path d="M507.906 383.81C507.452 383.783 507.062 384.142 507.036 384.613C507.012 385.036 507.291 385.406 507.678 385.495L507.81 385.515L514.292 385.906C514.747 385.933 515.136 385.574 515.163 385.103C515.186 384.679 514.908 384.31 514.521 384.22L514.388 384.201L507.906 383.81Z" fill="#DD936F"/>
<path d="M545.357 341.986C544.448 341.937 543.673 342.66 543.625 343.601C543.581 344.48 544.186 345.239 545.005 345.376L545.184 345.396L558.231 346.107C559.139 346.156 559.915 345.433 559.962 344.491C560.007 343.612 559.402 342.854 558.582 342.716L558.404 342.697L545.357 341.986Z" fill="#253368"/>
<path fill-rule="evenodd" clip-rule="evenodd" d="M544.442 340.962L519.536 339.465C517.798 339.36 516.307 340.731 516.218 342.531C516.054 345.896 515.935 351.297 516.519 355.963C517.209 361.465 521.745 365.082 527.072 365.659C533.724 366.381 539.709 366.746 542.937 363.341C547.854 358.152 547.231 349.086 547.399 344.315C547.461 342.565 546.131 341.063 544.442 340.962Z" fill="white"/>
<path d="M519.568 338.897L544.474 340.395C546.462 340.513 548.02 342.278 547.947 344.336L547.921 345.46L547.892 347.498C547.84 350.526 547.734 352.218 547.413 354.3C546.802 358.258 545.53 361.417 543.329 363.74C540.399 366.83 536.115 367.213 527.015 366.225C521.201 365.595 516.673 361.6 515.975 356.037C515.479 352.073 515.433 347.374 515.67 342.502C515.775 340.388 517.525 338.774 519.568 338.897ZM519.504 340.033C518.143 339.95 516.97 340.963 516.787 342.33L516.766 342.56C516.533 347.369 516.577 352.007 517.064 355.89C517.692 360.897 521.793 364.515 527.129 365.093L528.32 365.217C536.253 366.004 540.072 365.552 542.546 362.943C544.564 360.813 545.751 357.866 546.329 354.12L546.436 353.377C546.666 351.668 546.75 350.076 546.795 347.466L546.845 344.464C546.847 344.408 546.849 344.351 546.851 344.294C546.902 342.856 545.804 341.613 544.411 341.53L519.504 340.033Z" fill="#253368"/>
<path d="M527.042 346.297C526.437 346.261 525.917 346.74 525.882 347.368C525.683 350.935 528.002 354.032 531.147 354.224C534.292 354.413 536.941 351.613 537.14 348.045C537.175 347.418 536.712 346.879 536.106 346.843C535.5 346.807 534.981 347.286 534.946 347.914C534.813 350.289 533.136 352.062 531.275 351.951C529.412 351.837 527.944 349.875 528.076 347.499C528.111 346.872 527.648 346.333 527.042 346.297Z" fill="#253368"/>
<path fill-rule="evenodd" clip-rule="evenodd" d="M505.614 338.339L477.417 336.644C476.133 340.85 476.216 357.422 480.857 361.252C487.143 365.16 500.321 364.426 502.556 360.963C505.947 355.71 507.673 345.404 507.869 340.936C507.929 339.574 506.928 338.418 505.614 338.339Z" fill="white"/>
<path d="M477.449 336.076L505.646 337.771C507.258 337.868 508.491 339.288 508.417 340.962C508.14 347.292 505.95 356.729 503.012 361.28C500.47 365.219 486.816 365.62 480.575 361.74C476.37 358.276 475.028 342.586 476.894 336.472C476.97 336.224 477.198 336.061 477.449 336.076ZM477.824 337.238L477.753 337.516C476.3 343.683 477.641 357.871 481.199 360.807C486.937 364.369 499.944 363.987 502.1 360.647C504.905 356.302 507.052 347.052 507.321 340.91C507.367 339.858 506.594 338.968 505.582 338.907L477.824 337.238Z" fill="#253368"/>
<path d="M491.85 344.18C491.245 344.143 490.725 344.622 490.689 345.25C490.488 348.818 492.807 351.918 495.952 352.107C499.097 352.296 501.748 349.495 501.947 345.928C501.982 345.3 501.519 344.762 500.913 344.726C500.307 344.69 499.788 345.169 499.753 345.797C499.62 348.171 497.941 349.945 496.079 349.833C494.217 349.722 492.749 347.758 492.883 345.383C492.918 344.755 492.456 344.217 491.85 344.18Z" fill="#253368"/>
<path d="M516.269 338.578C515.359 338.548 514.599 339.288 514.57 340.23C514.543 341.11 515.163 341.855 515.985 341.975L516.164 341.991L547.083 343.009C547.992 343.039 548.753 342.299 548.782 341.357C548.809 340.477 548.189 339.732 547.367 339.612L547.187 339.596L516.269 338.578Z" fill="#253368"/>
<path d="M477.269 335.57C476.361 335.502 475.573 336.21 475.507 337.15C475.446 338.028 476.036 338.799 476.853 338.953L477.032 338.976L507.26 341.237C508.168 341.304 508.956 340.597 509.022 339.657C509.083 338.779 508.492 338.008 507.676 337.854L507.497 337.831L477.269 335.57Z" fill="#253368"/>
<path fill-rule="evenodd" clip-rule="evenodd" d="M559.629 343.13C562.878 339.787 567.841 338.94 571.27 342.932C576.795 349.363 571.155 372.779 555.934 373.475C550.174 372.538 554.558 348.345 559.629 343.13Z" fill="#FFC999"/>
<path fill-rule="evenodd" clip-rule="evenodd" d="M575.272 636.26C575.272 636.26 588.924 565.438 594.966 539.275C601.007 513.109 610.183 450.468 599.752 445.777C589.32 441.087 564.344 431.127 564.344 431.127C564.344 431.127 539.567 434.425 517.185 439.363C499.47 443.274 504.5 426.036 483.02 429.713C473.924 431.272 445.375 435.934 431.123 443.991C425.407 447.223 426.33 466.842 425.517 485.914C422.927 546.786 437.26 640.052 437.26 640.052C437.26 640.052 428.76 649.103 439.064 660.842C444.169 666.339 466.275 664.476 494.573 664.548C526.785 664.629 564.676 668.821 571.705 662.473C584.911 650.551 575.272 636.26 575.272 636.26Z" fill="#554AF0"/>
<path fill-rule="evenodd" clip-rule="evenodd" d="M492.136 420.566L513.731 442.05L487.817 460.85L476.588 432.202L492.136 420.566Z" fill="#554AF0"/>
<path fill-rule="evenodd" clip-rule="evenodd" d="M551.176 1229.09L505.782 783.78L503.973 782.857L456.324 1230.11C456.324 1230.11 420.796 1238.65 402.022 1226.97C401.291 1140.25 420.994 858.551 429.333 729.906C430.675 709.194 436.818 681.042 438.045 673.216C495.085 663.228 572.359 677.633 572.359 677.633L575.698 688.017C576.347 690.037 576.741 692.138 576.865 694.262L612.68 1224.69C612.68 1224.69 577.574 1237.86 551.176 1229.09Z" fill="#ADC6FF"/>
<path d="M474.893 765.617C474.485 765.41 473.991 765.585 473.792 766.009C473.614 766.386 473.728 766.831 474.043 767.071L474.17 767.151L508.547 784.56C508.956 784.767 509.449 784.592 509.649 784.168C509.826 783.791 509.712 783.346 509.398 783.106L509.27 783.026L474.893 765.617Z" fill="#554AF0"/>
<path fill-rule="evenodd" clip-rule="evenodd" d="M572.05 662.288C572.05 662.288 499.418 651.164 439.042 662.123C438.545 667.67 438.027 674.499 438.027 674.499C438.027 674.499 489.69 678.186 573.221 680.32C572.989 665.266 572.05 662.288 572.05 662.288Z" fill="#ADC6FF"/>
<path d="M548.521 678.188C522.064 675.957 494.906 675.099 469.544 676.411C458.886 676.962 448.83 677.893 439.476 679.236C439.026 679.301 438.711 679.732 438.773 680.199C438.836 680.666 439.252 680.992 439.702 680.927C449.005 679.592 459.014 678.665 469.626 678.116C494.907 676.808 521.996 677.665 548.388 679.89L552.577 680.255C556.678 680.626 560.511 681.011 564.037 681.397L567.992 681.846L570.808 682.189C571.077 682.223 571.281 682.25 571.42 682.268C571.871 682.329 572.284 681.998 572.342 681.531C572.4 681.063 572.081 680.635 571.63 680.575L570.005 680.369C568.868 680.229 567.569 680.076 566.116 679.911L563.02 679.57C558.616 679.098 553.759 678.629 548.521 678.188Z" fill="#554AF0"/>
<path d="M548.812 659.391C522.355 657.16 495.197 656.302 469.836 657.614C459.177 658.165 449.121 659.096 439.768 660.439C439.317 660.503 439.002 660.934 439.065 661.401C439.127 661.868 439.543 662.195 439.994 662.13C449.297 660.794 459.305 659.868 469.918 659.319C495.198 658.011 522.288 658.867 548.679 661.092L551.491 661.335C555.651 661.703 559.548 662.086 563.142 662.471L567.624 662.971L571.711 663.471C572.162 663.531 572.575 663.201 572.633 662.733C572.691 662.266 572.372 661.838 571.921 661.778L570.296 661.572C569.349 661.455 568.288 661.329 567.121 661.195L563.312 660.773C558.907 660.3 554.051 659.832 548.812 659.391Z" fill="#554AF0"/>
<path d="M499.279 660.562C498.825 660.551 498.447 660.924 498.436 661.395L498.345 665.85C498.309 667.761 498.274 669.868 498.241 672.149C497.968 691.052 497.952 711.106 498.361 729.896L498.462 734.171C498.908 751.52 499.717 766.066 500.949 776.974C501.002 777.442 501.411 777.778 501.863 777.723C502.315 777.668 502.638 777.244 502.585 776.776L502.39 774.985C501.178 763.439 500.405 748.09 500.008 729.857C499.631 712.536 499.616 694.132 499.83 676.551L499.903 671.209L500.083 661.438C500.094 660.966 499.734 660.575 499.279 660.562Z" fill="#554AF0"/>
<path fill-rule="evenodd" clip-rule="evenodd" d="M485.156 666.737C485.124 668.859 486.39 670.602 487.984 670.631C489.577 670.657 490.895 668.957 490.927 666.832C490.96 664.71 489.696 662.967 488.102 662.939C486.507 662.912 485.189 664.612 485.156 666.737Z" fill="white"/>
<path fill-rule="evenodd" clip-rule="evenodd" d="M513.614 440.299L533.603 467.554L563.468 431.185L552.532 417.017L513.614 440.299Z" fill="#554AF0"/>
<path d="M512.717 441.774C512.147 441.556 511.515 441.859 511.306 442.449L511.099 443.085L510.894 443.765C510.821 444.012 510.745 444.278 510.665 444.564L510.543 445.009C510.042 446.85 509.493 449.114 508.908 451.834L508.585 453.363C506.624 462.81 504.666 475.301 502.832 491.229L502.345 495.575C500.375 513.584 498.683 534.738 497.349 559.289L497.238 561.343C495.249 598.764 495.71 630.868 497.442 654.866C497.487 655.493 498.015 655.963 498.62 655.916C499.225 655.869 499.679 655.323 499.633 654.696L499.462 652.237C497.907 629.032 497.529 598.611 499.334 563.361L499.432 561.468C500.782 536.083 502.509 514.296 504.528 495.833L504.858 492.868C506.729 476.351 508.732 463.485 510.733 453.842L511.052 452.334C511.576 449.897 512.069 447.837 512.523 446.129L512.658 445.627C512.819 445.035 512.965 444.525 513.096 444.093L513.319 443.38C513.34 443.315 513.357 443.267 513.368 443.235C513.578 442.645 513.286 441.991 512.717 441.774Z" fill="#253368"/>
<path d="M425.359 481.46C424.823 480.995 424.068 481.078 423.631 481.628C423.446 481.862 423.346 482.125 423.267 482.466C423.176 482.856 423.11 483.402 423.062 484.119L423.04 484.491C422.959 485.996 422.946 488.184 423.001 490.987L423.031 492.324C423.212 499.43 423.766 509.612 424.66 521.838L424.993 526.295C427.224 555.424 430.946 591.583 435.945 630.869L436.479 635.027L436.275 635.57L436.099 636.062C435.734 637.097 435.37 638.241 435.03 639.464C434.204 642.433 433.653 645.383 433.505 648.16C433.258 652.798 434.156 656.573 436.538 659.122C436.96 659.573 437.656 659.585 438.092 659.147C438.528 658.71 438.539 657.989 438.117 657.537C436.239 655.528 435.483 652.35 435.699 648.285C435.837 645.701 436.358 642.912 437.141 640.094C437.401 639.159 437.676 638.271 437.954 637.449L438.328 636.382C438.455 636.034 438.555 635.776 438.618 635.621C438.694 635.434 438.721 635.229 438.695 635.027L437.843 628.353C432.897 589.226 429.231 553.299 427.059 524.477L426.766 520.493C425.981 509.601 425.473 500.406 425.267 493.67L425.2 491.029C425.148 488.437 425.155 486.384 425.219 484.94L425.234 484.617C425.259 484.152 425.291 483.766 425.327 483.47L425.366 483.196L425.382 483.185L425.496 483.064C425.885 482.582 425.824 481.864 425.359 481.46Z" fill="#253368"/>
<path d="M481.357 476.53L482.867 476.665C483.355 476.71 483.828 476.757 484.284 476.803L486.511 477.05L487.192 477.134C487.795 477.214 488.234 477.766 488.194 478.394L485.534 520.872C485.509 521.275 485.288 521.638 484.948 521.835L462.743 534.709C462.362 534.93 461.893 534.909 461.533 534.654L444.381 522.519C444.068 522.297 443.88 521.93 443.879 521.537L443.895 513.806L443.921 508.875C443.975 500.334 444.076 490.827 444.236 480.523C444.243 480.063 444.504 479.649 444.907 479.458C449.238 477.401 455.494 476.32 463.203 476.015C469.026 475.785 475.254 476.012 481.357 476.53ZM462.47 478.434C455.958 478.744 450.599 479.644 446.786 481.218L446.526 481.328L446.381 491.799C446.315 497.241 446.266 502.412 446.233 507.28L446.186 516.492L446.181 520.903L462.242 532.266L483.279 520.07L485.829 479.368L485.354 479.315C484.108 479.176 482.703 479.037 481.169 478.907C475.15 478.396 469.009 478.172 463.29 478.398L462.47 478.434Z" fill="#253368"/>
<path fill-rule="evenodd" clip-rule="evenodd" d="M512.059 460.785C512.027 462.91 513.385 464.653 515.092 464.682C516.8 464.71 518.21 463.012 518.245 460.888C518.277 458.766 516.919 457.02 515.212 456.991C513.502 456.963 512.092 458.661 512.059 460.785Z" fill="white"/>
<path fill-rule="evenodd" clip-rule="evenodd" d="M507.125 499.804C507.093 501.926 508.45 503.672 510.158 503.7C511.865 503.729 513.276 502.031 513.31 499.907C513.342 497.784 511.985 496.039 510.277 496.01C508.568 495.982 507.157 497.679 507.125 499.804Z" fill="white"/>
<path fill-rule="evenodd" clip-rule="evenodd" d="M503.996 542.057C503.963 544.182 505.321 545.925 507.028 545.953C508.736 545.982 510.146 544.284 510.181 542.16C510.213 540.037 508.855 538.292 507.148 538.263C505.438 538.235 504.028 539.935 503.996 542.057Z" fill="white"/>
<path fill-rule="evenodd" clip-rule="evenodd" d="M502.761 581.778C502.729 583.9 504.087 585.646 505.794 585.674C507.501 585.703 508.912 584.005 508.946 581.881C508.979 579.758 507.621 578.013 505.914 577.984C504.206 577.956 502.796 579.653 502.761 581.778Z" fill="white"/>
<path fill-rule="evenodd" clip-rule="evenodd" d="M502.566 634.336C502.533 636.461 503.891 638.204 505.598 638.232C507.306 638.261 508.716 636.563 508.751 634.439C508.783 632.316 507.425 630.571 505.718 630.542C504.008 630.514 502.598 632.212 502.566 634.336Z" fill="white"/>
<path d="M563.792 431.429C563.371 431.059 562.76 431.075 562.358 431.441L562.244 431.561L534.217 465.81L514.208 441.689C513.849 441.256 513.243 441.172 512.79 441.468L512.659 441.568C512.241 441.941 512.159 442.569 512.445 443.038L512.542 443.174L533.389 468.307C533.793 468.793 534.493 468.832 534.944 468.423L535.06 468.301L563.92 433.034C564.312 432.554 564.255 431.836 563.792 431.429Z" fill="#253368"/>
<path d="M480.131 432.97C479.947 432.371 479.329 432.04 478.751 432.231C478.221 432.406 477.908 432.958 478.002 433.511L478.037 433.661L486.77 462.089C486.986 462.792 487.769 463.088 488.363 462.732L488.487 462.646L513.228 442.893C513.709 442.509 513.798 441.794 513.428 441.296C513.091 440.843 512.49 440.725 512.023 440.996L511.887 441.089L488.389 459.85L480.131 432.97Z" fill="#253368"/>
<path d="M481.207 677.015C480.757 676.946 480.338 677.267 480.271 677.734L480.058 679.363L480.007 679.78C479.811 681.415 479.614 683.266 479.431 685.295C478.594 694.562 478.309 704.121 478.904 713.059C480.293 733.913 486.148 747.145 498.032 748.822C498.482 748.886 498.898 748.559 498.959 748.091C499.02 747.624 498.705 747.194 498.254 747.13C487.438 745.604 481.888 733.06 480.548 712.942C479.96 704.108 480.242 694.636 481.071 685.454L481.23 683.775C481.337 682.685 481.448 681.657 481.559 680.698L481.74 679.193L481.9 677.985C481.967 677.519 481.657 677.085 481.207 677.015Z" fill="#554AF0"/>
<path d="M566.487 346.364C566.316 345.927 565.836 345.716 565.414 345.893L565.126 346.025C564.954 346.109 564.744 346.219 564.504 346.356C563.842 346.734 563.181 347.192 562.561 347.734C560.28 349.731 559.136 352.317 559.84 355.448C560.106 356.634 560.633 357.267 561.611 357.871L562.033 358.116C562.873 358.592 563.083 358.828 563.16 359.567C563.308 360.986 562.686 362.046 561.49 362.859C561.093 363.129 560.661 363.349 560.23 363.519L559.844 363.659C559.776 363.68 559.722 363.696 559.683 363.706C559.241 363.818 558.97 364.28 559.078 364.738C559.186 365.196 559.632 365.476 560.074 365.364C560.673 365.213 561.529 364.874 562.394 364.286C564.063 363.152 565.021 361.519 564.798 359.383C564.659 358.061 564.161 357.423 563.067 356.761L562.661 356.526C561.887 356.084 561.607 355.785 561.445 355.061C560.9 352.636 561.774 350.658 563.624 349.039C564.155 348.575 564.727 348.178 565.299 347.852C565.638 347.658 565.897 347.533 566.032 347.476C566.454 347.299 566.658 346.801 566.487 346.364Z" fill="#DD936F"/>
<path d="M347.329 512.039C346.81 512.365 346.645 513.065 346.959 513.603L348.203 515.691L349.375 517.624C350.331 519.191 351.375 520.877 352.495 522.658C356.765 529.443 361.275 536.229 365.825 542.566C369.12 547.157 372.317 551.341 375.375 555.028C381.202 562.055 386.361 567.088 390.719 569.74C391.023 569.925 391.391 569.946 391.709 569.804L391.863 569.72L427.824 546.108C428.336 545.772 428.488 545.068 428.164 544.537C427.868 544.054 427.281 543.88 426.791 544.105L426.647 544.185L391.265 567.417L390.97 567.226C387.183 564.695 382.68 560.267 377.627 554.246L377.042 553.544C374.02 549.901 370.855 545.757 367.588 541.207C363.068 534.912 358.582 528.163 354.336 521.414L353.247 519.675C352.362 518.253 351.532 516.903 350.764 515.638L349.618 513.736L348.839 512.422C348.524 511.885 347.848 511.713 347.329 512.039Z" fill="#253368"/>
<path d="M323.649 520.699C323.341 520.353 322.82 520.331 322.485 520.651C322.188 520.936 322.139 521.394 322.348 521.735L322.439 521.858L350.62 553.484C350.928 553.83 351.449 553.852 351.784 553.532C352.081 553.248 352.13 552.789 351.921 552.448L351.83 552.326L323.649 520.699Z" fill="#DD936F"/>
<path fill-rule="evenodd" clip-rule="evenodd" d="M649.451 644.373C663.869 638.147 671.089 621.341 665.905 606.073L618.941 467.761C612.034 447.421 590.048 437.277 570.839 445.571C551.855 453.766 543.256 476.674 551.904 496.008L611.406 629.036C618.055 643.906 634.853 650.675 649.451 644.373Z" fill="#FFC999"/>
<path fill-rule="evenodd" clip-rule="evenodd" d="M647.506 555.013L618.083 467.258C609.645 448.187 578.62 440.621 560.369 449.703C542.119 458.786 534.604 481.615 543.693 500.362L585.217 586.014C585.217 586.014 631.827 574.762 647.506 555.013Z" fill="#554AF0"/>
<path d="M563.002 517.397C562.764 516.819 562.119 516.549 561.561 516.796C561.053 517.02 560.792 517.593 560.927 518.13L560.98 518.289L586.896 581.398C587.119 581.939 587.702 582.216 588.243 582.036L590.53 581.252L592.646 580.505C594.361 579.893 596.206 579.219 598.156 578.488C605.584 575.702 613.013 572.663 619.952 569.47L621.955 568.537C632.495 563.57 640.76 558.713 645.974 554.095C646.836 553.332 647.613 552.577 648.301 551.829C648.72 551.374 648.703 550.653 648.264 550.219C647.825 549.785 647.13 549.802 646.711 550.257C646.076 550.946 645.354 551.649 644.547 552.364C639.207 557.092 630.379 562.179 619.06 567.389C612.174 570.558 604.791 573.578 597.408 576.347L595.505 577.055C593.95 577.628 592.473 578.161 591.089 578.651L588.524 579.545L563.002 517.397Z" fill="#253368"/>
<path fill-rule="evenodd" clip-rule="evenodd" d="M468.556 627.816C469.403 636.701 476.522 643.53 485.137 643.723L636.567 647.109C653.956 647.498 667.874 632.254 666.537 614.282C665.233 596.717 649.874 583.95 633.044 586.44L483.098 608.609C474.069 609.944 467.659 618.412 468.556 627.816Z" fill="#FFC999"/>
<path fill-rule="evenodd" clip-rule="evenodd" d="M480.95 668.169L447.656 560.244C447.106 558.462 445.523 557.246 443.719 557.222L350.36 555.913C347.461 555.873 345.399 558.822 346.34 561.665L381.095 666.724C381.654 668.415 383.154 669.576 384.875 669.655L476.773 673.833C479.689 673.964 481.838 671.05 480.95 668.169Z" fill="#4E5C93"/>
<path fill-rule="evenodd" clip-rule="evenodd" d="M476.029 666.853L443.315 560.806C442.65 558.653 440.731 557.179 438.547 557.148L344.036 555.822C342.008 555.796 340.566 557.859 341.224 559.845L376.461 666.36C377.08 668.231 378.739 669.519 380.647 669.605L470.971 673.711C474.501 673.871 477.105 670.339 476.029 666.853Z" fill="#253368"/>
<path fill-rule="evenodd" clip-rule="evenodd" d="M430.517 567.368C429.461 568.586 429.841 570.725 431.366 572.149C432.892 573.57 434.986 573.735 436.044 572.519C437.1 571.3 436.721 569.159 435.195 567.738C433.67 566.314 431.573 566.149 430.517 567.368Z" fill="#ADC6FF"/>
<path fill-rule="evenodd" clip-rule="evenodd" d="M431.772 568.642C431.222 569.274 431.42 570.385 432.212 571.124C433.005 571.861 434.092 571.947 434.642 571.315C435.189 570.683 434.991 569.572 434.2 568.832C433.408 568.096 432.32 568.01 431.772 568.642Z" fill="#E4EBF7"/>
<path fill-rule="evenodd" clip-rule="evenodd" d="M439.391 647.876C434.027 647.337 431.206 645.012 431.715 640.381C425.263 638.278 425.983 632.615 425.983 632.615C425.983 632.615 413.564 632.417 411.475 626.918C410.663 624.782 412.239 622.497 414.448 622.342C441.054 620.473 460.026 605.863 460.026 605.863C460.026 605.863 449.566 589.946 450.673 582.6C450.999 580.427 453.74 579.726 455.022 581.479C465.991 596.48 487.986 608.243 487.986 608.243C487.986 608.243 514.39 633.879 485.749 645.503C485.749 645.503 463.915 654.519 448.715 653.377C441.517 652.838 439.391 647.876 439.391 647.876Z" fill="#FFC999"/>
<path d="M445.551 627.727C445.329 627.316 444.827 627.169 444.43 627.399C442.525 628.502 440.298 629.402 437.815 630.112C434.855 630.959 431.677 631.501 428.479 631.795L427.507 631.878C426.254 631.974 425.18 632.018 424.343 632.029L423.724 632.031C423.269 632.024 422.895 632.401 422.889 632.873C422.884 633.297 423.178 633.653 423.568 633.725L423.702 633.738L424.041 633.739C425.155 633.735 426.732 633.67 428.625 633.496C431.915 633.193 435.188 632.635 438.253 631.758C440.856 631.013 443.204 630.065 445.234 628.889C445.631 628.659 445.773 628.139 445.551 627.727Z" fill="#DD936F"/>
<path d="M448.055 636.201C447.857 635.776 447.365 635.598 446.955 635.803C446.71 635.926 446.462 636.046 446.212 636.163C443.053 637.64 439.661 638.587 436.254 639.107C434.149 639.428 432.463 639.532 431.414 639.524C430.947 639.518 430.573 639.895 430.567 640.366C430.561 640.79 430.855 641.147 431.246 641.218L431.379 641.231H431.675L432.284 641.217C433.37 641.177 434.806 641.054 436.494 640.796C440.042 640.255 443.579 639.267 446.89 637.719C447.153 637.596 447.414 637.47 447.672 637.341C448.082 637.135 448.253 636.625 448.055 636.201Z" fill="#DD936F"/>
<path d="M452.791 645.668C452.593 645.244 452.1 645.066 451.69 645.271C450.814 645.71 448.745 646.12 445.932 646.457C444.493 646.628 442.949 646.772 441.405 646.887L439.349 647.023C438.895 647.047 438.545 647.448 438.568 647.919C438.592 648.39 438.979 648.752 439.433 648.728L441.121 648.62L441.524 648.59C443.09 648.473 444.656 648.328 446.12 648.153L447.147 648.023C449.626 647.69 451.431 647.297 452.408 646.808C452.817 646.603 452.989 646.092 452.791 645.668Z" fill="#DD936F"/>
<path d="M632.933 585.593L486.727 606.291C486.276 606.355 485.96 606.785 486.022 607.252C486.077 607.672 486.419 607.979 486.816 607.99L486.95 607.982L633.156 587.285C633.607 587.221 633.922 586.79 633.861 586.323C633.805 585.903 633.463 585.596 633.067 585.585L632.933 585.593Z" fill="#DD936F"/>
</g>
</g>
<g clip-path="url(#clip3_554_7006)">
<path fill-rule="evenodd" clip-rule="evenodd" d="M187.088 412.583L190.771 407.228L149.423 376.689L145.74 382.044L187.088 412.583Z" fill="#A3B5D6"/>
<path fill-rule="evenodd" clip-rule="evenodd" d="M114.622 394.072C138.535 389.916 154.727 366.823 150.789 342.493C146.851 318.162 124.274 301.809 100.361 305.965C76.4481 310.122 60.2556 333.215 64.1937 357.545C68.1318 381.875 90.7093 398.229 114.622 394.072Z" fill="white"/>
<path fill-rule="evenodd" clip-rule="evenodd" d="M114.19 391.108C136.225 387.277 151.091 365.661 147.395 342.826C143.699 319.992 122.84 304.585 100.805 308.416C78.77 312.246 63.9032 333.862 67.5993 356.697C71.2954 379.532 92.1548 394.938 114.19 391.108ZM98.5741 294.634C127.954 289.527 155.766 310.068 160.694 340.515C165.623 370.961 145.8 399.783 116.42 404.89C87.0404 409.997 59.2281 389.455 54.3 359.009C49.3718 328.562 69.1941 299.741 98.5741 294.634Z" fill="#4E5C93"/>
<path fill-rule="evenodd" clip-rule="evenodd" d="M207.115 427.375L210.798 422.02C211.815 420.541 211.483 418.488 210.056 417.434L173.75 390.619C172.323 389.565 170.342 389.909 169.325 391.388C169.325 391.388 169.325 391.388 169.325 391.388L165.641 396.744C164.624 398.222 164.957 400.276 166.384 401.33L202.69 428.144C204.117 429.198 206.098 428.854 207.115 427.375C207.115 427.375 207.115 427.375 207.115 427.375Z" fill="#4E5C93"/>
<path fill-rule="evenodd" clip-rule="evenodd" d="M81.241 340.887C81.5125 341.134 81.9267 341.105 82.1663 340.822C84.0504 338.598 86.539 338.752 88.7365 339.585C89.8274 339.998 90.7992 340.565 91.5024 341.034C91.8526 341.268 92.1328 341.474 92.3242 341.622C92.4198 341.695 92.4929 341.754 92.5413 341.793L92.5672 341.814C92.051 344.725 92.7838 348.235 94.5698 351.794L107.23 335.87C103.442 334.709 99.9129 334.655 97.2343 335.807C97.1983 335.774 97.1563 335.735 97.1089 335.69C96.9329 335.523 96.6836 335.278 96.3957 334.966C95.8175 334.34 95.0944 333.46 94.4947 332.429C93.2864 330.352 92.6657 327.849 94.4117 325.507C94.6337 325.209 94.5818 324.782 94.2958 324.553C94.0099 324.324 93.5981 324.38 93.3761 324.677C91.1368 327.681 92.0497 330.863 93.3714 333.135C94.0366 334.279 94.8275 335.239 95.4471 335.91C95.6479 336.127 95.8318 336.315 95.9892 336.471C95.3081 336.914 94.7043 337.456 94.1916 338.101C93.645 338.789 93.2282 339.559 92.9352 340.397C92.7424 340.253 92.4995 340.079 92.2146 339.889C91.461 339.386 90.401 338.765 89.1912 338.307C86.7874 337.396 83.5996 337.075 81.1833 339.927C80.9437 340.21 80.9696 340.639 81.241 340.887ZM118.289 342.184L119.405 343.138C119.058 342.817 118.701 342.501 118.337 342.189C117.972 341.878 117.604 341.576 117.234 341.284L117.562 341.564C116.468 340.653 115.35 339.828 114.221 339.092L114.383 334.163C114.386 334.042 114.359 333.923 114.304 333.817L110.213 325.98C110.041 325.651 109.643 325.529 109.324 325.709C109.006 325.89 108.887 326.303 109.059 326.632L113.066 334.307L112.935 338.293C111.733 337.584 110.526 336.975 109.332 336.47L95.5086 353.856C96.2377 355.01 97.0732 356.156 98.0084 357.276L93.9658 358.241L85.9333 355.629C85.5883 355.517 85.2197 355.717 85.11 356.075C85.0003 356.434 85.1911 356.815 85.5361 356.928L93.738 359.594C93.8489 359.63 93.9672 359.635 94.0807 359.608L99.0163 358.43C100.007 359.515 101.092 360.568 102.266 361.57C105.184 364.064 108.291 365.941 111.306 367.156C111.211 367.273 111.153 367.423 111.151 367.587L111.066 374.267C111.065 374.382 111.092 374.496 111.144 374.597L114.978 382.007C115.149 382.337 115.546 382.46 115.866 382.281C116.185 382.102 116.305 381.69 116.134 381.359L112.379 374.104L112.461 367.599L112.462 367.591C118.311 369.635 123.666 369.11 126.411 365.659C129.135 362.232 128.636 356.739 125.642 351.218L131.603 349.932L139.19 352.366C139.536 352.477 139.904 352.276 140.012 351.917C140.121 351.558 139.928 351.177 139.583 351.067L131.834 348.58C131.728 348.546 131.616 348.541 131.507 348.564L125.198 349.926C125.11 349.945 125.03 349.982 124.96 350.031C123.304 347.304 121.051 344.606 118.289 342.184Z" fill="#FF7946"/>
</g>
<path d="M635.82 341.062H625.216C620.086 341.062 615.927 345.221 615.927 350.351L615.927 362.014C615.927 367.145 620.086 371.303 625.216 371.303H635.82C640.95 371.303 645.109 367.145 645.109 362.014V350.351C645.109 345.221 640.95 341.062 635.82 341.062Z" fill="#554AF0"/>
<path d="M589.275 416.169L589.275 415.548C589.275 410.82 593.107 406.988 597.835 406.988C602.562 406.988 606.395 410.82 606.395 415.548V416.169C606.395 420.897 602.562 424.729 597.835 424.729C593.107 424.729 589.275 420.897 589.275 416.169Z" fill="#554AF0"/>
<path d="M622.941 687.663H608.835C603.705 687.663 599.546 691.822 599.546 696.952L599.546 713.454C599.546 718.584 603.705 722.743 608.835 722.743H622.941C628.071 722.743 632.23 718.584 632.23 713.454V696.952C632.23 691.822 628.071 687.663 622.941 687.663Z" fill="#554AF0"/>
<path fill-rule="evenodd" clip-rule="evenodd" d="M174.125 441.018C171.682 433.88 171.323 429.368 172.411 424.469C173.494 419.569 170.567 413.897 170.567 413.897C169.788 397.21 185.926 410.911 188.367 409.398C189.588 408.644 184.519 405.348 183.237 399.016C181.95 392.682 186.083 388.632 188.505 391.352C194.274 397.82 210.447 412.251 219.119 417.937C230.312 425.274 238.591 440.229 238.591 440.229C255.39 462.046 236.733 480.149 225.377 476.583C208.571 471.307 174.496 461.131 175.006 450.512C175.006 450.512 176.116 446.831 174.125 441.018Z" fill="#FFC999"/>
<path d="M187.616 408.275L200.54 420.09" stroke="#DD936F" stroke-width="1.84608" stroke-linecap="round" stroke-linejoin="round"/>
<path d="M497 117.196L537.041 90L564.237 130.041L524.196 157.237L497 117.196Z" fill="#D6E4FF"/>
<path d="M338 45.9779L367.774 38L375.752 67.7739L345.978 75.7518L338 45.9779Z" fill="#D6E4FF"/>
<path d="M237 835.703L337.08 822L350.783 922.08L250.703 935.783L237 835.703Z" fill="#D6E4FF"/>
<path d="M462.747 901.251L506.071 922.836L484.486 966.16L441.162 944.575L462.747 901.251Z" fill="#D6E4FF"/>
<path d="M-110.997 997.105L80.5123 837.003L240.615 1028.51L49.1049 1188.61L-110.997 997.105Z" fill="#D6E4FF"/>
<path d="M681 -98.2695L928.958 -127L957.689 120.958L709.731 149.689L681 -98.2695Z" fill="#D6E4FF"/>
</g>
<defs>
<clipPath id="clip0_554_7006">
<rect width="819" height="1024" fill="white"/>
</clipPath>
<clipPath id="clip1_554_7006">
<rect x="164.314" y="165" width="676.221" height="600.843" rx="300.421" fill="white"/>
</clipPath>
<clipPath id="clip2_554_7006">
<rect width="785.412" height="1627.83" fill="white" transform="matrix(-1 0 0 1 834.788 -50.0593)"/>
</clipPath>
<clipPath id="clip3_554_7006">
<rect width="169.396" height="175.201" fill="white" transform="matrix(-0.985227 0.171257 0.159783 0.987152 199.266 265.288)"/>
</clipPath>
</defs>
</svg>
