<svg width="672" height="557" viewBox="0 0 672 557" fill="none" xmlns="http://www.w3.org/2000/svg">
<rect x="16.9741" y="75.3364" width="655.026" height="464.874" rx="14.9503" fill="white" fill-opacity="0.01"/>
<ellipse cx="405.35" cy="296.678" rx="169.252" ry="169.402" fill="#D6E4FF"/>
<path fill-rule="evenodd" clip-rule="evenodd" d="M81.0221 206.585L108.61 163.86C107.737 163.149 107.179 162.065 107.179 160.851C107.179 158.71 108.915 156.974 111.057 156.974C113.199 156.974 114.935 158.71 114.935 160.851C114.935 162.292 114.15 163.549 112.984 164.218L133.729 211.689C134.172 211.513 134.655 211.416 135.161 211.416C137.302 211.416 139.039 213.152 139.039 215.294C139.039 217.435 137.302 219.172 135.161 219.172C133.097 219.172 131.41 217.559 131.29 215.526L83.0829 210.778C82.7411 212.57 81.1657 213.925 79.2739 213.925C77.1322 213.925 75.396 212.189 75.396 210.047C75.396 207.905 77.1322 206.169 79.2739 206.169C79.9028 206.169 80.4968 206.319 81.0221 206.585ZM111.057 164.729C111.211 164.729 111.362 164.72 111.511 164.703L117.573 193.141C116.039 193.658 114.935 195.109 114.935 196.817C114.935 197.189 114.987 197.548 115.085 197.889L82.8111 208.456C82.5515 207.879 82.1552 207.378 81.6636 206.993L109.244 164.28C109.785 164.567 110.402 164.729 111.057 164.729ZM115.367 198.597L83.0535 209.176C83.1159 209.448 83.1497 209.731 83.1516 210.021L131.319 214.764C131.417 214.046 131.712 213.39 132.147 212.853L120.925 200.069C120.317 200.465 119.592 200.695 118.813 200.695C117.313 200.695 116.012 199.843 115.367 198.597ZM121.519 199.594L132.683 212.311C132.8 212.213 132.924 212.122 133.052 212.038L112.29 164.529C112.278 164.533 112.266 164.537 112.254 164.541L118.314 192.971C118.478 192.95 118.644 192.939 118.813 192.939C120.955 192.939 122.691 194.675 122.691 196.817C122.691 197.906 122.242 198.89 121.519 199.594Z" fill="#554AF0"/>
<path fill-rule="evenodd" clip-rule="evenodd" d="M71.6294 242.12C75.8819 242.12 79.3373 245.532 79.406 249.769L79.407 249.897C79.9444 264.099 93.6565 267.799 98.3278 268.649C102.544 268.74 105.934 272.186 105.934 276.424C105.934 280.72 102.452 284.202 98.1566 284.202C94.6722 284.202 91.723 281.911 90.7335 278.753L90.7031 278.785C86.7802 259.572 74.8278 257.802 71.6639 257.674L71.6294 257.675C71.502 257.675 71.3753 257.672 71.2493 257.666C71.0153 257.666 70.8887 257.675 70.8887 257.675L70.9235 257.643C66.9588 257.287 63.8518 253.955 63.8518 249.897C63.8518 245.602 67.334 242.12 71.6294 242.12Z" fill="#E4ECF7"/>
<path fill-rule="evenodd" clip-rule="evenodd" d="M122.417 228.135C123.786 229.847 123.511 232.348 121.802 233.719C121.046 234.326 120.137 234.61 119.239 234.59L119.238 234.59C110.063 235.761 108.581 241.422 108.346 242.975C108.346 242.981 108.345 242.987 108.345 242.994C108.337 243.059 108.329 243.124 108.318 243.188C108.305 243.305 108.303 243.37 108.303 243.37L108.289 243.35C107.886 245.343 106.024 246.734 103.969 246.506C101.792 246.265 100.223 244.302 100.463 242.121C100.701 239.962 102.624 238.399 104.774 238.602L104.839 238.609C112.06 239.132 114.704 232.388 115.398 230.06C115.534 229.094 116.024 228.176 116.844 227.518C118.553 226.147 121.049 226.423 122.417 228.135Z" fill="#E4ECF7"/>
<path fill-rule="evenodd" clip-rule="evenodd" d="M119.82 226.598C122.003 226.839 123.577 228.804 123.336 230.987C123.094 233.17 121.129 234.744 118.946 234.503C116.764 234.262 115.189 232.297 115.431 230.114C115.672 227.931 117.637 226.357 119.82 226.598Z" fill="#E4ECF7"/>
<path fill-rule="evenodd" clip-rule="evenodd" d="M595.292 406.575C596.661 408.287 596.385 410.787 594.676 412.159C593.92 412.765 593.011 413.05 592.113 413.03L592.112 413.03C582.938 414.201 581.456 419.862 581.221 421.415C581.22 421.421 581.22 421.427 581.219 421.433C581.212 421.499 581.203 421.563 581.193 421.627C581.18 421.745 581.177 421.809 581.177 421.809L581.163 421.79C580.761 423.783 578.899 425.173 576.843 424.946C574.667 424.705 573.097 422.742 573.338 420.561C573.576 418.402 575.498 416.839 577.648 417.042L577.714 417.049C584.934 417.572 587.578 410.828 588.272 408.5C588.409 407.534 588.899 406.616 589.719 405.958C591.428 404.586 593.923 404.863 595.292 406.575Z" fill="#E4ECF7"/>
<path fill-rule="evenodd" clip-rule="evenodd" d="M592.694 405.038C594.877 405.279 596.451 407.244 596.21 409.427C595.969 411.61 594.004 413.184 591.821 412.943C589.638 412.702 588.064 410.736 588.305 408.554C588.546 406.371 590.512 404.797 592.694 405.038Z" fill="#E4ECF7"/>
<path d="M200.896 126.744C202.076 127.925 203.99 127.925 205.171 126.744C206.351 125.564 206.351 123.65 205.171 122.47C203.99 121.289 202.076 121.289 200.896 122.47C199.716 123.65 199.716 125.564 200.896 126.744Z" fill="#554AF0"/>
<path d="M226.324 152.581C227.505 153.762 229.418 153.762 230.599 152.581C231.779 151.401 231.779 149.487 230.599 148.307C229.418 147.127 227.505 147.127 226.324 148.307C225.144 149.487 225.144 151.401 226.324 152.581Z" fill="#554AF0"/>
<path d="M209.42 133.238C212.466 130.192 217.404 130.192 220.451 133.238C223.497 136.284 223.497 141.223 220.45 144.269C217.404 147.315 212.466 147.315 209.42 144.269C206.374 141.223 206.374 136.284 209.42 133.238Z" fill="#554AF0"/>
<path d="M238.037 135.049C238.037 136.719 236.684 138.072 235.014 138.072C233.345 138.072 231.992 136.719 231.992 135.049C231.992 133.38 233.345 132.027 235.014 132.027C236.684 132.027 238.037 133.38 238.037 135.049Z" fill="#554AF0"/>
<path d="M186.952 332.15C187.312 328.77 184.96 325.727 181.698 325.353C179.472 325.099 177.398 326.152 176.19 327.922C175.596 328.755 175.226 329.718 175.09 330.714C174.052 334.32 170.102 344.763 159.312 343.953L159.215 343.942C156.002 343.628 153.129 346.049 152.773 349.392C152.414 352.769 154.759 355.809 158.011 356.182C161.083 356.534 163.865 354.381 164.467 351.295L164.488 351.325C164.488 351.325 164.492 351.226 164.511 351.043C164.526 350.944 164.539 350.844 164.55 350.743C164.551 350.737 164.551 350.731 164.552 350.725C164.552 350.721 164.553 350.718 164.553 350.714C164.904 348.31 167.118 339.543 180.828 337.729L180.829 337.73C182.171 337.76 183.53 337.32 184.659 336.381C184.815 336.252 184.962 336.116 185.101 335.974C186.104 335.005 186.789 333.673 186.952 332.15Z" fill="#FABB18"/>
<path d="M109.686 349.389C116.041 349.389 121.204 354.674 121.307 361.234L121.308 361.433C122.111 383.425 142.602 389.155 149.582 390.471C155.882 390.612 160.948 395.949 160.948 402.512C160.948 409.164 155.745 414.556 149.326 414.556C144.119 414.556 139.712 411.008 138.234 406.117L138.188 406.168C132.326 376.415 114.466 373.673 109.738 373.477L109.686 373.477C109.496 373.477 109.306 373.472 109.118 373.463C108.769 373.463 108.579 373.477 108.579 373.477L108.631 373.428C102.707 372.876 98.064 367.716 98.064 361.433C98.064 354.782 103.267 349.389 109.686 349.389Z" fill="#FABB18"/>
<path d="M75.964 171.548H48.9614C48.0367 171.548 47.2871 172.33 47.2871 173.295V177.617C47.2871 178.582 48.0367 179.364 48.9614 179.364H75.964C76.8887 179.364 77.6383 178.582 77.6383 177.617V173.295C77.6383 172.33 76.8887 171.548 75.964 171.548Z" fill="#6D69F5"/>
<path d="M75.9894 186.425H48.936C48.0253 186.425 47.2871 187.195 47.2871 188.146V192.284C47.2871 193.234 48.0253 194.005 48.936 194.005H75.9894C76.9001 194.005 77.6383 193.234 77.6383 192.284V188.146C77.6383 187.195 76.9001 186.425 75.9894 186.425Z" fill="#ADC6FF"/>
<path d="M75.9894 201.302H48.936C48.0253 201.302 47.2871 202.073 47.2871 203.023V207.161C47.2871 208.111 48.0253 208.882 48.936 208.882H75.9894C76.9001 208.882 77.6383 208.111 77.6383 207.161V203.023C77.6383 202.073 76.9001 201.302 75.9894 201.302Z" fill="#FF7946"/>
<path d="M75.9894 216.18H48.936C48.0253 216.18 47.2871 216.95 47.2871 217.901V222.039C47.2871 222.989 48.0253 223.759 48.936 223.759H75.9894C76.9001 223.759 77.6383 222.989 77.6383 222.039V217.901C77.6383 216.95 76.9001 216.18 75.9894 216.18Z" fill="#ADC6FF"/>
<path d="M260.314 71.9839H22.8711C18.7927 71.9839 15.4866 75.4343 15.4866 79.6906V257.643C15.4866 261.899 18.7927 265.35 22.8711 265.35H260.314C264.392 265.35 267.698 261.899 267.698 257.643V79.6906C267.698 75.4343 264.392 71.9839 260.314 71.9839Z" fill="#E4EBF7"/>
<path d="M244.056 106.316H100.537C98.9863 106.316 97.7295 107.628 97.7295 109.246V245.293C97.7295 246.911 98.9863 248.223 100.537 248.223H244.056C245.606 248.223 246.863 246.911 246.863 245.293V109.246C246.863 107.628 245.606 106.316 244.056 106.316Z" fill="#6D69F5"/>
<path d="M221.642 149.804H116.371V156.67H221.642V149.804Z" fill="white"/>
<path d="M169.007 173.836H116.371V180.703H169.007V173.836Z" fill="#FAAD14"/>
<path d="M213.966 125.771H161.331V132.638H213.966V125.771Z" fill="#FAAD14"/>
<path d="M212.87 220.757H116.371V227.624H212.87V220.757Z" fill="white"/>
<path d="M148.172 125.771H116.371V132.638H148.172V125.771Z" fill="white"/>
<path d="M195.324 173.836H179.972V180.703H195.324V173.836Z" fill="#E4EBF7"/>
<path d="M194.228 196.725H116.371V203.591H194.228V196.725Z" fill="#E4EBF7"/>
<path d="M22.2422 62.8286H260.816C264.547 62.8286 267.571 65.9196 267.571 69.7325V90.306H15.4866V69.7325C15.4866 65.9196 18.5112 62.8286 22.2422 62.8286Z" fill="#253368"/>
<path d="M30.1776 81.8392C32.8406 81.8392 34.9994 79.633 34.9994 76.9115C34.9994 74.1901 32.8406 71.9839 30.1776 71.9839C27.5145 71.9839 25.3557 74.1901 25.3557 76.9115C25.3557 79.633 27.5145 81.8392 30.1776 81.8392Z" fill="#FF7946"/>
<path d="M48.8194 81.8392C51.4825 81.8392 53.6413 79.633 53.6413 76.9115C53.6413 74.1901 51.4825 71.9839 48.8194 71.9839C46.1564 71.9839 43.9976 74.1901 43.9976 76.9115C43.9976 79.633 46.1564 81.8392 48.8194 81.8392Z" fill="#FAAD14"/>
<path d="M66.3646 81.8392C69.0276 81.8392 71.1864 79.633 71.1864 76.9115C71.1864 74.1901 69.0276 71.9839 66.3646 71.9839C63.7015 71.9839 61.5427 74.1901 61.5427 76.9115C61.5427 79.633 63.7015 81.8392 66.3646 81.8392Z" fill="#7CB305"/>
<path d="M87.1061 104.027H38.1727C36.5448 104.027 35.2251 105.405 35.2251 107.104V245.147C35.2251 246.846 36.5448 248.223 38.1727 248.223H87.1061C88.734 248.223 90.0537 246.846 90.0537 245.147V107.104C90.0537 105.405 88.734 104.027 87.1061 104.027Z" fill="white"/>
<path d="M75.964 171.548H48.9614C48.0367 171.548 47.2871 172.33 47.2871 173.295V177.617C47.2871 178.582 48.0367 179.364 48.9614 179.364H75.964C76.8887 179.364 77.6383 178.582 77.6383 177.617V173.295C77.6383 172.33 76.8887 171.548 75.964 171.548Z" fill="#6D69F5"/>
<path d="M75.9894 186.425H48.936C48.0253 186.425 47.2871 187.195 47.2871 188.146V192.284C47.2871 193.234 48.0253 194.005 48.936 194.005H75.9894C76.9001 194.005 77.6383 193.234 77.6383 192.284V188.146C77.6383 187.195 76.9001 186.425 75.9894 186.425Z" fill="#ADC6FF"/>
<path d="M75.9894 201.302H48.936C48.0253 201.302 47.2871 202.073 47.2871 203.023V207.161C47.2871 208.111 48.0253 208.882 48.936 208.882H75.9894C76.9001 208.882 77.6383 208.111 77.6383 207.161V203.023C77.6383 202.073 76.9001 201.302 75.9894 201.302Z" fill="#FF7946"/>
<path d="M75.9894 216.18H48.936C48.0253 216.18 47.2871 216.95 47.2871 217.901V222.039C47.2871 222.989 48.0253 223.759 48.936 223.759H75.9894C76.9001 223.759 77.6383 222.989 77.6383 222.039V217.901C77.6383 216.95 76.9001 216.18 75.9894 216.18Z" fill="#ADC6FF"/>
<path d="M62.0851 151.01C69.5729 151.01 75.6429 144.603 75.6429 136.7C75.6429 128.796 69.5729 122.39 62.0851 122.39C54.5974 122.39 48.5273 128.796 48.5273 136.7C48.5273 144.603 54.5974 151.01 62.0851 151.01Z" fill="#FAAD14"/>
<path d="M62.0851 151.01C65.9928 151.012 69.7012 149.19 72.2153 146.033C70.2344 142.063 66.3335 139.579 62.083 139.579C57.8325 139.579 53.9316 142.063 51.9507 146.033C54.4661 149.191 58.1762 151.013 62.0851 151.01Z" fill="#253368"/>
<path d="M62.1571 140.148C64.9732 140.148 67.2561 137.738 67.2561 134.766C67.2561 131.793 64.9732 129.384 62.1571 129.384C59.341 129.384 57.0581 131.793 57.0581 134.766C57.0581 137.738 59.341 140.148 62.1571 140.148Z" fill="#253368"/>
<g clip-path="url(#clip0_503_10004)">
<g clip-path="url(#clip1_503_10004)">
<path fill-rule="evenodd" clip-rule="evenodd" d="M527.661 172.216C568.022 152.99 592.077 203.413 571.779 231.488C547.008 265.748 534.319 305.169 527.253 317.046C521.293 327.065 504.964 351.492 485.303 340.233C467.208 329.872 477.07 289.205 477.07 289.205C477.07 289.205 477.869 195.934 527.661 172.216Z" fill="#5B8C00"/>
<path fill-rule="evenodd" clip-rule="evenodd" d="M406.26 332.404C392.539 313.76 387.529 287.006 402.844 280.145C417.528 273.568 441.852 289.763 453.119 320.932C464.385 352.101 470.885 374.511 459.864 378.407C441.783 384.8 424.384 357.028 406.26 332.404Z" fill="#5B8C00"/>
<path fill-rule="evenodd" clip-rule="evenodd" d="M550.516 333.819C534.996 352.135 512.601 388.98 498.57 376.076C490.067 368.255 501.435 331.219 532.552 311.068C559.02 293.927 566.036 315.503 550.516 333.819Z" fill="#7CB305"/>
<path fill-rule="evenodd" clip-rule="evenodd" d="M402.006 206.715C407.908 202.717 415.333 201.803 422.107 203.988C431.562 207.038 445.909 216.118 460.109 242.181C478.648 276.21 488.299 313.514 486.391 337.143C485.144 352.597 466.24 359.259 455.664 347.991C450.807 342.816 445.668 334.84 440.64 322.739C420.406 274.042 401.487 243.526 399.231 240.462C393.212 232.286 388.908 215.591 402.006 206.715Z" fill="#7CB305"/>
<path fill-rule="evenodd" clip-rule="evenodd" d="M415.577 226.139C415.777 228.543 414.004 230.656 411.617 230.857C409.229 231.059 407.132 229.274 406.931 226.869C406.731 224.465 408.504 222.353 410.892 222.151C413.279 221.949 415.377 223.735 415.577 226.139Z" fill="white"/>
<path fill-rule="evenodd" clip-rule="evenodd" d="M452.424 244.791C452.625 247.196 450.852 249.308 448.464 249.51C446.076 249.712 443.979 247.926 443.778 245.522C443.578 243.117 445.351 241.005 447.739 240.803C450.126 240.602 452.224 242.387 452.424 244.791Z" fill="white"/>
<path fill-rule="evenodd" clip-rule="evenodd" d="M446.249 294.455C446.478 297.208 444.447 299.627 441.713 299.858C438.979 300.089 436.577 298.044 436.348 295.291C436.118 292.538 438.149 290.118 440.883 289.887C443.617 289.656 446.019 291.701 446.249 294.455Z" fill="white"/>
<path fill-rule="evenodd" clip-rule="evenodd" d="M559.424 220.235C559.424 224.143 556.279 227.311 552.398 227.311C548.518 227.311 545.373 224.143 545.373 220.235C545.373 216.328 548.518 213.16 552.398 213.16C556.279 213.16 559.424 216.328 559.424 220.235Z" fill="white"/>
<path fill-rule="evenodd" clip-rule="evenodd" d="M502.865 241.841C502.865 245.749 499.72 248.917 495.84 248.917C491.959 248.917 488.814 245.749 488.814 241.841C488.814 237.934 491.959 234.766 495.84 234.766C499.72 234.766 502.865 237.934 502.865 241.841Z" fill="white"/>
<path fill-rule="evenodd" clip-rule="evenodd" d="M521.183 289.869C521.183 291.503 519.868 292.827 518.246 292.827C516.625 292.827 515.31 291.503 515.31 289.869C515.31 288.236 516.625 286.912 518.246 286.912C519.868 286.912 521.183 288.236 521.183 289.869Z" fill="white"/>
<path fill-rule="evenodd" clip-rule="evenodd" d="M542.339 327.69C542.339 330.103 540.396 332.058 538.001 332.058C535.605 332.058 533.663 330.103 533.663 327.69C533.663 325.277 535.605 323.321 538.001 323.321C540.396 323.321 542.339 325.277 542.339 327.69Z" fill="white"/>
<path d="M441.014 337.38C441.418 336.991 442.059 337.007 442.444 337.414L442.629 337.615L442.769 337.771C443.024 338.058 443.319 338.4 443.65 338.797C444.59 339.927 445.636 341.276 446.76 342.843C449.964 347.311 453.165 352.641 456.15 358.826C464.671 376.475 469.781 397.438 469.781 421.638C469.781 422.2 469.328 422.656 468.769 422.656C468.211 422.656 467.758 422.2 467.758 421.638C467.758 397.757 462.721 377.097 454.331 359.717C451.398 353.641 448.257 348.411 445.12 344.036C444.089 342.599 443.129 341.353 442.261 340.301L442.1 340.106C441.854 339.811 441.629 339.548 441.429 339.319L441.175 339.033C441.081 338.929 441.016 338.857 440.98 338.82C440.595 338.413 440.61 337.768 441.014 337.38Z" fill="#253368"/>
<path d="M517.436 344.51C517.77 344.059 518.404 343.966 518.852 344.303C519.299 344.64 519.391 345.278 519.057 345.729C515.373 350.698 511.973 356.041 508.846 361.705C502.236 373.677 497.126 386.514 493.333 399.351C492.006 403.844 490.938 408.015 490.107 411.756L489.938 412.523C489.74 413.438 489.568 414.273 489.423 415.021L489.328 415.51L489.161 416.434C489.068 416.989 488.546 417.363 487.995 417.27C487.444 417.176 487.073 416.651 487.166 416.096L487.223 415.768C487.271 415.503 487.329 415.191 487.397 414.834L487.565 413.986C487.727 413.178 487.916 412.284 488.132 411.311L488.316 410.494C489.129 406.922 490.149 402.985 491.394 398.77C495.226 385.8 500.39 372.829 507.078 360.715C510.247 354.974 513.696 349.555 517.436 344.51Z" fill="#253368"/>
<path d="M535.112 217.415C535.5 217.788 535.528 218.397 535.187 218.805L535.143 218.855C535.123 218.876 535.08 218.921 535.015 218.992L534.767 219.265L534.622 219.427C534.187 219.916 533.681 220.504 533.109 221.192C531.471 223.166 529.644 225.54 527.674 228.318C522.037 236.266 516.396 245.838 511.13 257.045C502.36 275.705 495.531 296.986 491.392 320.911C486.365 349.963 485.533 381.699 489.647 416.143C489.714 416.702 489.319 417.209 488.764 417.277C488.209 417.344 487.705 416.945 487.639 416.387C483.501 381.745 484.339 349.809 489.399 320.561C493.57 296.452 500.455 274.996 509.301 256.174C514.62 244.854 520.322 235.178 526.028 227.134L526.47 226.514C528.229 224.06 529.874 221.926 531.371 220.111L531.557 219.886C532.095 219.238 532.578 218.674 533.002 218.195L533.116 218.066C533.248 217.918 533.367 217.787 533.471 217.673L533.682 217.445C534.069 217.039 534.709 217.025 535.112 217.415Z" fill="#253368"/>
<path d="M447.555 277.825C448.033 277.533 448.655 277.687 448.945 278.168L449.046 278.34C449.127 278.478 449.222 278.642 449.331 278.833L449.49 279.112C449.761 279.593 450.066 280.144 450.402 280.767L450.68 281.285C451.709 283.214 452.836 285.446 454.04 287.974L454.205 288.321C458.131 296.606 462.056 306.294 465.718 317.303C475.972 348.128 482.21 383.115 482.443 421.631C482.447 422.194 481.996 422.653 481.438 422.656C480.879 422.66 480.424 422.206 480.42 421.644C480.188 383.353 473.988 348.578 463.8 317.95C460.231 307.22 456.412 297.76 452.591 289.648L452.379 289.198C451.073 286.442 449.857 284.038 448.76 281.993L448.43 281.382C448.113 280.799 447.828 280.288 447.577 279.848L447.458 279.64L447.214 279.224C446.925 278.743 447.077 278.116 447.555 277.825Z" fill="#253368"/>
<path fill-rule="evenodd" clip-rule="evenodd" d="M525.407 472.168H437.97C433.244 472.168 429.377 468.273 429.377 463.513V399.274C429.377 394.514 433.244 390.619 437.97 390.619H525.407C530.133 390.619 534 394.514 534 399.274V463.513C534 468.273 530.133 472.168 525.407 472.168Z" fill="#253368"/>
<path fill-rule="evenodd" clip-rule="evenodd" d="M223.913 333.746C231.074 344.092 244.729 346.803 255.029 339.924L348.339 277.619C362.065 268.455 365.585 249.137 356.046 235.353C346.617 221.734 328.229 219.026 315.557 229.391L228.379 300.718C218.634 308.689 216.663 323.272 223.913 333.746Z" fill="#FFC999"/>
<path fill-rule="evenodd" clip-rule="evenodd" d="M293.03 319.023L352.301 279.789C364.816 269.636 364.823 243.595 354.873 230.716C344.923 217.839 326.789 215.979 314.629 226.591L259.07 275.07C259.07 275.07 275.696 310.113 293.03 319.023Z" fill="#554AF0"/>
<path fill-rule="evenodd" clip-rule="evenodd" d="M154.189 208.847C149.14 213.515 148.228 221.383 152.064 227.176L219.501 328.975C227.247 340.665 242.965 342.831 253.352 333.639C263.502 324.655 264.267 308.588 255.018 298.598L172.62 209.594C167.659 204.234 159.534 203.904 154.189 208.847Z" fill="#FFC999"/>
<path fill-rule="evenodd" clip-rule="evenodd" d="M387.674 221.533L372.665 204.439L377.396 148.182L419.366 152.262L419.155 207.932L387.674 221.533Z" fill="#FFC999"/>
<path fill-rule="evenodd" clip-rule="evenodd" d="M366.668 142.626C366.668 142.626 360.439 135.474 357.594 140.064C354.751 144.655 359.005 161.523 365.962 162.178C375.256 163.052 366.668 142.626 366.668 142.626Z" fill="#FFC999"/>
<path fill-rule="evenodd" clip-rule="evenodd" d="M405.983 186.742C405.983 186.742 391.962 197.997 374.185 185.829C361.387 177.069 360.668 146.824 363.835 124.743C365.627 112.248 371.367 105.681 383.192 102.347C395.019 99.0139 426.789 99.9145 425.898 136.823C424.903 177.934 405.983 186.742 405.983 186.742Z" fill="#FFC999"/>
<path d="M384.106 131.215L383.991 131.23C383.681 131.301 383.473 131.593 383.485 131.912L383.5 132.033L385.13 139.748L380.534 160.506C380.451 160.88 380.683 161.241 381.03 161.316L381.137 161.33L389.606 161.679C389.962 161.694 390.262 161.405 390.276 161.034C390.289 160.699 390.065 160.412 389.761 160.347L389.657 160.334L381.967 160.016L386.419 139.902C386.433 139.837 386.438 139.77 386.434 139.704L386.42 139.605L384.759 131.743C384.691 131.42 384.412 131.203 384.106 131.215Z" fill="#DD936F"/>
<path d="M392.25 129.454C392.118 130.436 392.773 131.343 393.713 131.481L399.366 132.342L400.092 132.45C405.605 133.259 408.954 133.548 410.959 133.2C411.895 133.038 412.529 132.113 412.373 131.135C412.226 130.215 411.433 129.576 410.559 129.639L410.07 129.705C408.622 129.863 405.979 129.65 402.044 129.106L399.476 128.732L394.192 127.927C393.252 127.789 392.382 128.473 392.25 129.454Z" fill="#253368"/>
<path d="M396.448 167.069C396.339 166.562 395.857 166.244 395.372 166.358L395.051 166.424L394.923 166.448C394.536 166.519 394.079 166.59 393.556 166.657C390.033 167.108 385.751 167.12 380.917 166.401C380.424 166.328 379.968 166.685 379.898 167.199C379.828 167.713 380.17 168.189 380.662 168.262C385.662 169.005 390.102 168.992 393.775 168.523L394.408 168.436C394.609 168.406 394.798 168.376 394.976 168.345L395.611 168.226C395.676 168.213 395.728 168.201 395.767 168.192C396.252 168.078 396.557 167.575 396.448 167.069Z" fill="#FF7946"/>
<path fill-rule="evenodd" clip-rule="evenodd" d="M421.414 152.514L428.714 138.512C428.714 138.512 433.668 118.152 429.375 109.194C422.711 95.2921 406.551 95.1567 397.07 91.2084C387.588 87.2583 387.776 83.8948 383.872 84.3347C379.966 84.7728 364.599 95.262 362.581 106.667C360.807 116.694 362.531 142.434 362.531 142.434C362.531 142.434 365.894 119.792 368.164 113.855C375.855 110.781 403.461 111.476 414.876 115.541C414.876 115.541 415.654 123.31 416.074 128.777C422.111 133.573 421.414 152.514 421.414 152.514Z" fill="#253368"/>
<path d="M373.963 184.538C373.731 184.256 373.324 184.224 373.054 184.467C372.784 184.709 372.753 185.134 372.985 185.416C373.161 185.63 373.499 185.985 374.002 186.434C374.828 187.17 375.827 187.905 377.002 188.589C383.324 192.267 391.772 193.046 402.425 189.151C402.761 189.028 402.938 188.644 402.821 188.293C402.703 187.942 402.335 187.757 401.999 187.88C391.694 191.647 383.63 190.904 377.631 187.413C376.532 186.774 375.603 186.091 374.84 185.41L374.532 185.127C374.253 184.864 374.064 184.661 373.963 184.538Z" fill="#DD936F"/>
<path d="M384.386 138.415C383.676 138.362 383.059 138.921 383.008 139.662C382.961 140.354 383.424 140.961 384.064 141.082L384.204 141.1L390.428 141.561C391.139 141.613 391.756 141.055 391.806 140.313C391.853 139.621 391.39 139.014 390.75 138.894L390.611 138.876L384.386 138.415Z" fill="#253368"/>
<path d="M389.788 142.928C388.484 142.296 387.148 141.958 385.832 142.093C384.722 142.208 383.707 142.664 382.855 143.493C382.334 144 382.306 144.852 382.792 145.395C383.278 145.939 384.094 145.968 384.615 145.461C385.041 145.047 385.524 144.83 386.086 144.772C386.868 144.691 387.778 144.921 388.7 145.369C389.191 145.607 389.564 145.843 389.753 145.983C390.333 146.414 391.139 146.273 391.552 145.668C391.965 145.063 391.83 144.222 391.25 143.791C390.942 143.562 390.438 143.244 389.788 142.928Z" fill="#253368"/>
<path d="M380.152 127.226C377.18 125.975 374.167 125.288 371.284 125.479C369.252 125.614 367.371 126.189 365.697 127.265C364.889 127.785 364.637 128.891 365.135 129.735C365.634 130.578 366.693 130.841 367.501 130.321C368.671 129.569 370.008 129.16 371.502 129.061C373.794 128.909 376.329 129.487 378.866 130.555C379.507 130.824 380.109 131.11 380.661 131.397L381.066 131.613C381.453 131.825 381.721 131.984 381.849 132.067C382.658 132.586 383.717 132.322 384.215 131.478C384.712 130.634 384.46 129.528 383.651 129.009L383.285 128.783C382.551 128.344 381.478 127.784 380.152 127.226Z" fill="#253368"/>
<path d="M384.345 173.198C383.99 173.176 383.685 173.46 383.664 173.831C383.645 174.165 383.863 174.456 384.166 174.527L384.27 174.542L389.345 174.85C389.701 174.872 390.006 174.588 390.026 174.217C390.045 173.883 389.827 173.592 389.524 173.521L389.42 173.506L384.345 173.198Z" fill="#DD936F"/>
<path d="M413.667 140.221C412.955 140.182 412.348 140.752 412.311 141.494C412.276 142.187 412.75 142.785 413.391 142.893L413.531 142.909L423.746 143.469C424.457 143.508 425.064 142.938 425.102 142.195C425.137 141.503 424.663 140.905 424.021 140.796L423.881 140.781L413.667 140.221Z" fill="#253368"/>
<path fill-rule="evenodd" clip-rule="evenodd" d="M412.95 139.414L393.45 138.233C392.09 138.15 390.923 139.231 390.852 140.651C390.725 143.304 390.631 147.562 391.088 151.242C391.629 155.579 395.18 158.431 399.35 158.886C404.558 159.456 409.244 159.743 411.772 157.059C415.622 152.968 415.133 145.819 415.265 142.057C415.314 140.677 414.272 139.493 412.95 139.414Z" fill="white"/>
<path d="M393.476 137.785L412.975 138.966C414.532 139.059 415.752 140.451 415.695 142.074L415.674 142.96L415.652 144.567C415.611 146.955 415.528 148.288 415.276 149.93C414.798 153.051 413.802 155.542 412.079 157.373C409.785 159.81 406.431 160.112 399.306 159.332C394.754 158.836 391.209 155.686 390.663 151.3C390.274 148.174 390.239 144.469 390.424 140.628C390.506 138.961 391.876 137.688 393.476 137.785ZM393.426 138.681C392.36 138.616 391.441 139.414 391.299 140.492L391.282 140.674C391.099 144.465 391.134 148.123 391.515 151.184C392.007 155.131 395.218 157.985 399.395 158.44L400.328 158.538C406.539 159.159 409.529 158.802 411.466 156.745C413.046 155.065 413.975 152.742 414.428 149.788L414.512 149.202C414.691 147.855 414.758 146.599 414.793 144.542L414.832 142.175C414.833 142.13 414.835 142.086 414.836 142.041C414.876 140.907 414.017 139.927 412.926 139.862L393.426 138.681Z" fill="#253368"/>
<path d="M399.328 143.62C398.853 143.591 398.446 143.969 398.419 144.464C398.263 147.276 400.079 149.719 402.541 149.87C405.003 150.019 407.077 147.811 407.233 144.998C407.26 144.503 406.898 144.079 406.424 144.05C405.949 144.022 405.543 144.4 405.515 144.895C405.412 146.767 404.098 148.166 402.641 148.078C401.183 147.988 400.033 146.441 400.137 144.568C400.164 144.073 399.802 143.648 399.328 143.62Z" fill="#253368"/>
<path fill-rule="evenodd" clip-rule="evenodd" d="M382.55 137.346L360.474 136.009C359.469 139.325 359.534 152.392 363.168 155.412C368.089 158.493 378.407 157.914 380.156 155.184C382.812 151.042 384.163 142.916 384.316 139.393C384.363 138.319 383.579 137.408 382.55 137.346Z" fill="white"/>
<path d="M360.5 135.561L382.576 136.898C383.838 136.974 384.803 138.094 384.745 139.413C384.528 144.405 382.814 151.845 380.514 155.433C378.523 158.539 367.833 158.855 362.947 155.796C359.655 153.065 358.604 140.694 360.065 135.873C360.124 135.678 360.303 135.549 360.5 135.561ZM360.793 136.477L360.737 136.696C359.6 141.559 360.65 152.745 363.436 155.061C367.928 157.869 378.112 157.568 379.799 154.935C381.996 151.508 383.676 144.215 383.887 139.372C383.923 138.543 383.318 137.841 382.526 137.793L360.793 136.477Z" fill="#253368"/>
<path d="M371.774 141.95C371.3 141.921 370.893 142.299 370.865 142.794C370.708 145.607 372.523 148.052 374.986 148.201C377.448 148.349 379.523 146.141 379.679 143.329C379.707 142.834 379.344 142.409 378.87 142.381C378.396 142.352 377.989 142.73 377.962 143.225C377.858 145.098 376.543 146.496 375.085 146.408C373.628 146.32 372.478 144.772 372.583 142.899C372.611 142.404 372.249 141.979 371.774 141.95Z" fill="#253368"/>
<path d="M390.892 137.533C390.18 137.51 389.585 138.093 389.562 138.836C389.541 139.529 390.027 140.117 390.67 140.211L390.811 140.224L415.018 141.026C415.73 141.05 416.325 140.467 416.348 139.724C416.369 139.031 415.884 138.443 415.24 138.349L415.1 138.336L390.892 137.533Z" fill="#253368"/>
<path d="M360.358 135.162C359.648 135.109 359.03 135.666 358.979 136.408C358.931 137.1 359.393 137.708 360.033 137.829L360.173 137.848L383.839 139.63C384.55 139.683 385.167 139.126 385.219 138.384C385.267 137.692 384.804 137.084 384.165 136.963L384.025 136.945L360.358 135.162Z" fill="#253368"/>
<path fill-rule="evenodd" clip-rule="evenodd" d="M424.841 141.123C427.384 138.487 431.27 137.82 433.954 140.967C438.28 146.038 433.864 164.5 421.947 165.049C417.438 164.31 420.87 145.235 424.841 141.123Z" fill="#FFC999"/>
<path fill-rule="evenodd" clip-rule="evenodd" d="M437.088 372.247C437.088 372.247 447.777 316.406 452.507 295.777C457.236 275.146 464.421 225.755 456.255 222.057C448.086 218.359 428.533 210.506 428.533 210.506C428.533 210.506 409.134 213.106 391.61 217C377.74 220.083 381.678 206.492 364.861 209.391C357.74 210.62 335.388 214.296 324.229 220.649C319.754 223.197 320.477 238.666 319.841 253.704C317.812 301.699 329.034 375.237 329.034 375.237C329.034 375.237 322.379 382.374 330.446 391.629C334.444 395.963 351.751 394.495 373.907 394.551C399.126 394.615 428.792 397.92 434.296 392.915C444.635 383.515 437.088 372.247 437.088 372.247Z" fill="#554AF0"/>
<path fill-rule="evenodd" clip-rule="evenodd" d="M371.998 202.178L388.905 219.118L368.616 233.941L359.825 211.353L371.998 202.178Z" fill="#554AF0"/>
<path fill-rule="evenodd" clip-rule="evenodd" d="M418.223 839.675L382.682 488.562L381.266 487.834L343.96 840.483C343.96 840.483 316.144 847.21 301.446 838.003C300.873 769.627 316.299 547.517 322.828 446.084C323.878 429.753 328.688 407.556 329.649 401.386C374.307 393.51 434.808 404.868 434.808 404.868L437.422 413.056C437.93 414.648 438.238 416.305 438.335 417.98L466.376 836.208C466.376 836.208 438.89 846.592 418.223 839.675Z" fill="#ADC6FF"/>
<path d="M358.498 474.241C358.178 474.078 357.792 474.216 357.636 474.55C357.497 474.847 357.586 475.198 357.832 475.387L357.932 475.45L384.847 489.177C385.167 489.34 385.553 489.202 385.71 488.868C385.849 488.571 385.759 488.22 385.513 488.03L385.413 487.968L358.498 474.241Z" fill="#554AF0"/>
<path fill-rule="evenodd" clip-rule="evenodd" d="M434.565 392.769C434.565 392.769 377.7 383.998 330.429 392.639C330.04 397.013 329.635 402.397 329.635 402.397C329.635 402.397 370.083 405.304 435.482 406.987C435.3 395.117 434.565 392.769 434.565 392.769Z" fill="#ADC6FF"/>
<path d="M416.144 405.306C395.43 403.547 374.167 402.87 354.31 403.905C345.965 404.34 338.093 405.073 330.769 406.132C330.416 406.183 330.17 406.523 330.219 406.891C330.268 407.259 330.593 407.517 330.946 407.466C338.23 406.413 346.066 405.682 354.375 405.249C374.167 404.218 395.377 404.893 416.039 406.647L419.319 406.936C422.53 407.229 425.531 407.532 428.292 407.836L431.388 408.19L433.593 408.461C433.803 408.488 433.963 408.509 434.072 408.523C434.425 408.571 434.748 408.31 434.794 407.941C434.839 407.573 434.59 407.235 434.236 407.188L432.964 407.026C432.074 406.915 431.057 406.794 429.92 406.665L427.496 406.396C424.047 406.023 420.245 405.654 416.144 405.306Z" fill="#554AF0"/>
<path d="M416.372 390.485C395.658 388.726 374.395 388.049 354.538 389.084C346.194 389.518 338.321 390.252 330.997 391.311C330.645 391.362 330.398 391.702 330.447 392.07C330.496 392.438 330.822 392.696 331.174 392.645C338.458 391.592 346.294 390.861 354.603 390.428C374.395 389.397 395.605 390.072 416.267 391.826L418.469 392.018C421.726 392.308 424.777 392.61 427.591 392.914L431.1 393.308L434.3 393.702C434.653 393.749 434.976 393.489 435.022 393.12C435.067 392.752 434.818 392.414 434.464 392.367L433.192 392.205C432.45 392.113 431.62 392.013 430.706 391.908L427.724 391.575C424.275 391.202 420.473 390.833 416.372 390.485Z" fill="#554AF0"/>
<path d="M377.591 391.408C377.235 391.4 376.939 391.694 376.93 392.065L376.859 395.577C376.832 397.084 376.804 398.745 376.779 400.544C376.564 415.448 376.552 431.261 376.872 446.076L376.951 449.446C377.3 463.126 377.934 474.595 378.898 483.196C378.94 483.565 379.26 483.829 379.614 483.786C379.968 483.743 380.221 483.408 380.179 483.039L380.027 481.627C379.078 472.524 378.472 460.421 378.161 446.045C377.866 432.388 377.854 417.877 378.023 404.015L378.079 399.803L378.22 392.099C378.229 391.727 377.947 391.418 377.591 391.408Z" fill="#554AF0"/>
<path fill-rule="evenodd" clip-rule="evenodd" d="M366.534 396.277C366.509 397.95 367.499 399.325 368.748 399.347C369.995 399.368 371.027 398.027 371.052 396.352C371.077 394.679 370.088 393.305 368.84 393.282C367.591 393.261 366.559 394.602 366.534 396.277Z" fill="white"/>
<path fill-rule="evenodd" clip-rule="evenodd" d="M388.814 217.738L404.464 239.227L427.846 210.552L419.284 199.38L388.814 217.738Z" fill="#554AF0"/>
<path d="M388.111 218.9C387.665 218.729 387.171 218.967 387.007 219.433L386.845 219.934L386.684 220.471C386.627 220.665 386.568 220.875 386.505 221.101L386.41 221.451C386.017 222.903 385.588 224.688 385.129 226.833L384.876 228.038C383.341 235.487 381.808 245.336 380.373 257.895L379.991 261.321C378.449 275.52 377.124 292.2 376.079 311.557L375.993 313.177C374.435 342.683 374.796 367.996 376.152 386.917C376.188 387.411 376.601 387.782 377.074 387.745C377.548 387.708 377.904 387.277 377.868 386.783L377.734 384.844C376.517 366.548 376.22 342.562 377.633 314.768L377.711 313.276C378.767 293.261 380.119 276.082 381.7 261.525L381.959 259.187C383.423 246.164 384.992 236.019 386.558 228.416L386.808 227.227C387.219 225.305 387.605 223.681 387.96 222.334L388.065 221.939C388.192 221.472 388.306 221.069 388.408 220.729L388.583 220.167C388.6 220.116 388.613 220.078 388.621 220.053C388.785 219.588 388.557 219.072 388.111 218.9Z" fill="#253368"/>
<path d="M319.716 250.192C319.297 249.825 318.706 249.891 318.364 250.324C318.218 250.508 318.14 250.716 318.078 250.985C318.007 251.293 317.956 251.723 317.918 252.288L317.901 252.582C317.838 253.768 317.827 255.494 317.87 257.704L317.894 258.758C318.035 264.361 318.47 272.389 319.169 282.029L319.43 285.543C321.176 308.51 324.091 337.021 328.005 367.996L328.423 371.274L328.263 371.703L328.125 372.091C327.839 372.907 327.554 373.809 327.288 374.773C326.641 377.115 326.21 379.44 326.094 381.63C325.901 385.287 326.604 388.263 328.469 390.273C328.799 390.629 329.344 390.638 329.685 390.293C330.027 389.948 330.035 389.38 329.705 389.024C328.234 387.439 327.643 384.934 327.812 381.728C327.92 379.691 328.328 377.492 328.941 375.27C329.145 374.532 329.36 373.833 329.577 373.184L329.87 372.343C329.97 372.068 330.048 371.865 330.097 371.743C330.157 371.596 330.178 371.434 330.157 371.275L329.49 366.013C325.618 335.162 322.748 306.834 321.048 284.109L320.818 280.969C320.203 272.381 319.805 265.13 319.645 259.819L319.592 257.737C319.551 255.693 319.557 254.075 319.607 252.936L319.619 252.681C319.638 252.314 319.663 252.01 319.691 251.777L319.722 251.561L319.735 251.552L319.824 251.456C320.129 251.076 320.081 250.51 319.716 250.192Z" fill="#253368"/>
<path d="M363.559 246.305L364.741 246.411C365.123 246.447 365.493 246.483 365.85 246.52L367.594 246.714L368.128 246.781C368.599 246.844 368.943 247.279 368.912 247.775L366.83 281.267C366.81 281.585 366.637 281.871 366.371 282.027L348.986 292.177C348.687 292.351 348.32 292.334 348.038 292.133L334.609 282.565C334.364 282.391 334.217 282.101 334.217 281.791L334.229 275.696L334.249 271.808C334.292 265.073 334.371 257.577 334.496 249.453C334.501 249.091 334.706 248.764 335.021 248.613C338.412 246.992 343.31 246.139 349.345 245.899C353.905 245.718 358.78 245.896 363.559 246.305ZM348.772 247.806C343.674 248.05 339.477 248.76 336.493 250.001L336.289 250.088L336.175 258.344C336.124 262.635 336.086 266.711 336.059 270.55L336.023 277.813L336.018 281.292L348.593 290.251L365.064 280.635L367.06 248.542L366.689 248.501C365.713 248.391 364.613 248.281 363.412 248.178C358.699 247.776 353.892 247.6 349.414 247.778L348.772 247.806Z" fill="#253368"/>
<path fill-rule="evenodd" clip-rule="evenodd" d="M387.597 233.89C387.572 235.565 388.635 236.94 389.971 236.962C391.308 236.985 392.412 235.646 392.44 233.971C392.465 232.298 391.402 230.922 390.065 230.899C388.727 230.876 387.622 232.215 387.597 233.89Z" fill="white"/>
<path fill-rule="evenodd" clip-rule="evenodd" d="M383.733 264.656C383.708 266.329 384.771 267.705 386.108 267.728C387.445 267.75 388.549 266.412 388.576 264.736C388.601 263.063 387.538 261.687 386.202 261.664C384.863 261.642 383.759 262.98 383.733 264.656Z" fill="white"/>
<path fill-rule="evenodd" clip-rule="evenodd" d="M381.284 297.971C381.258 299.646 382.321 301.02 383.658 301.043C384.995 301.065 386.099 299.727 386.126 298.052C386.151 296.378 385.088 295.002 383.752 294.98C382.413 294.957 381.309 296.297 381.284 297.971Z" fill="white"/>
<path fill-rule="evenodd" clip-rule="evenodd" d="M380.317 329.29C380.292 330.963 381.355 332.339 382.692 332.362C384.028 332.384 385.133 331.046 385.16 329.371C385.185 327.697 384.122 326.321 382.785 326.298C381.449 326.276 380.344 327.614 380.317 329.29Z" fill="white"/>
<path fill-rule="evenodd" clip-rule="evenodd" d="M380.164 370.73C380.139 372.405 381.202 373.78 382.539 373.802C383.875 373.825 384.98 372.486 385.007 370.811C385.032 369.138 383.969 367.761 382.632 367.739C381.294 367.716 380.189 369.055 380.164 370.73Z" fill="white"/>
<path d="M428.1 210.744C427.771 210.452 427.292 210.464 426.977 210.753L426.887 210.848L404.945 237.852L389.279 218.834C388.998 218.492 388.523 218.426 388.169 218.659L388.066 218.738C387.739 219.032 387.675 219.527 387.899 219.897L387.975 220.004L404.296 239.821C404.612 240.204 405.161 240.235 405.514 239.913L405.605 239.816L428.2 212.009C428.507 211.631 428.462 211.065 428.1 210.744Z" fill="#253368"/>
<path d="M362.6 211.959C362.456 211.487 361.972 211.226 361.519 211.376C361.104 211.514 360.859 211.95 360.932 212.385L360.96 212.504L367.797 234.919C367.966 235.473 368.579 235.706 369.045 235.425L369.142 235.357L388.512 219.783C388.888 219.48 388.958 218.916 388.668 218.523C388.405 218.166 387.934 218.074 387.568 218.287L387.462 218.36L369.065 233.153L362.6 211.959Z" fill="#253368"/>
<path d="M363.442 404.381C363.089 404.326 362.761 404.58 362.709 404.947L362.542 406.232L362.502 406.561C362.349 407.85 362.195 409.31 362.051 410.91C361.396 418.216 361.173 425.753 361.639 432.801C362.726 449.243 367.31 459.676 376.614 460.999C376.967 461.049 377.292 460.791 377.34 460.423C377.388 460.054 377.141 459.715 376.788 459.665C368.321 458.461 363.975 448.57 362.926 432.708C362.465 425.743 362.686 418.275 363.336 411.035L363.46 409.711C363.544 408.852 363.63 408.041 363.717 407.285L363.859 406.098L363.984 405.146C364.037 404.778 363.794 404.436 363.442 404.381Z" fill="#554AF0"/>
<path d="M430.21 143.673C430.076 143.328 429.7 143.162 429.37 143.301L429.144 143.406C429.01 143.471 428.845 143.558 428.657 143.667C428.139 143.964 427.622 144.325 427.136 144.753C425.35 146.327 424.455 148.366 425.006 150.835C425.214 151.77 425.626 152.269 426.393 152.745L426.723 152.939C427.38 153.314 427.545 153.5 427.605 154.083C427.721 155.201 427.234 156.037 426.298 156.678C425.987 156.891 425.649 157.064 425.311 157.199L425.009 157.309C424.956 157.326 424.913 157.338 424.883 157.346C424.537 157.434 424.325 157.799 424.41 158.16C424.494 158.521 424.843 158.742 425.189 158.654C425.658 158.534 426.328 158.267 427.005 157.804C428.312 156.909 429.062 155.622 428.888 153.937C428.779 152.895 428.389 152.392 427.532 151.87L427.214 151.685C426.608 151.337 426.39 151.101 426.262 150.53C425.835 148.618 426.52 147.058 427.969 145.782C428.384 145.415 428.832 145.103 429.28 144.846C429.545 144.693 429.748 144.594 429.854 144.549C430.184 144.41 430.343 144.017 430.21 143.673Z" fill="#DD936F"/>
<path d="M258.625 274.302C258.219 274.559 258.089 275.111 258.335 275.535L259.309 277.182L260.226 278.706C260.975 279.941 261.792 281.271 262.67 282.675C266.012 288.025 269.544 293.376 273.106 298.372C275.686 301.992 278.189 305.291 280.583 308.198C285.145 313.739 289.184 317.707 292.596 319.798C292.834 319.944 293.122 319.96 293.371 319.848L293.492 319.782L321.646 301.165C322.048 300.9 322.167 300.345 321.912 299.926C321.681 299.545 321.221 299.408 320.838 299.585L320.725 299.648L293.023 317.967L292.793 317.816C289.827 315.82 286.302 312.329 282.346 307.581L281.888 307.028C279.522 304.155 277.044 300.888 274.486 297.3C270.947 292.337 267.435 287.016 264.111 281.694L263.258 280.323C262.565 279.202 261.915 278.138 261.314 277.14L260.417 275.641L259.806 274.605C259.56 274.181 259.031 274.045 258.625 274.302Z" fill="#253368"/>
<path d="M240.085 281.131C239.843 280.858 239.435 280.841 239.174 281.093C238.941 281.317 238.902 281.678 239.066 281.948L239.137 282.044L261.201 306.98C261.443 307.253 261.851 307.27 262.112 307.018C262.345 306.794 262.384 306.433 262.22 306.163L262.149 306.067L240.085 281.131Z" fill="#DD936F"/>
<path fill-rule="evenodd" clip-rule="evenodd" d="M495.165 378.644C506.453 373.735 512.106 360.484 508.047 348.445L471.278 239.391C465.87 223.353 448.656 215.355 433.617 221.894C418.754 228.356 412.022 246.418 418.792 261.662L465.378 366.551C470.584 378.275 483.736 383.613 495.165 378.644Z" fill="#FFC999"/>
<path fill-rule="evenodd" clip-rule="evenodd" d="M493.642 308.186L470.606 238.994C464 223.957 439.709 217.991 425.42 225.153C411.132 232.314 405.248 250.314 412.364 265.096L444.874 332.63C444.874 332.63 481.366 323.758 493.642 308.186Z" fill="#554AF0"/>
<path d="M427.481 278.527C427.295 278.071 426.79 277.859 426.353 278.053C425.956 278.229 425.751 278.681 425.857 279.105L425.898 279.23L446.189 328.99C446.363 329.417 446.82 329.635 447.243 329.493L449.034 328.875L450.69 328.286C452.033 327.804 453.478 327.272 455.004 326.695C460.82 324.499 466.637 322.103 472.069 319.585L473.637 318.85C481.89 314.933 488.36 311.103 492.443 307.463C493.118 306.861 493.726 306.265 494.264 305.676C494.592 305.317 494.579 304.749 494.236 304.406C493.892 304.064 493.347 304.077 493.02 304.436C492.523 304.98 491.957 305.534 491.325 306.097C487.145 309.825 480.233 313.837 471.371 317.944C465.979 320.443 460.199 322.824 454.419 325.007L452.929 325.565C451.711 326.018 450.555 326.438 449.472 326.824L447.464 327.529L427.481 278.527Z" fill="#253368"/>
<path fill-rule="evenodd" clip-rule="evenodd" d="M353.537 365.589C354.2 372.594 359.774 377.979 366.519 378.131L485.078 380.801C498.692 381.108 509.589 369.088 508.542 354.917C507.521 341.068 495.496 331.002 482.319 332.965L364.923 350.445C357.853 351.497 352.834 358.174 353.537 365.589Z" fill="#FFC999"/>
<path fill-rule="evenodd" clip-rule="evenodd" d="M363.24 397.406L337.174 312.31C336.743 310.906 335.504 309.947 334.091 309.928L260.998 308.896C258.728 308.864 257.114 311.19 257.85 313.431L285.061 396.267C285.499 397.6 286.673 398.516 288.021 398.578L359.97 401.872C362.253 401.975 363.935 399.678 363.24 397.406Z" fill="#4E5C93"/>
<path fill-rule="evenodd" clip-rule="evenodd" d="M359.387 396.369L333.775 312.754C333.254 311.056 331.752 309.894 330.042 309.87L256.046 308.824C254.459 308.804 253.329 310.43 253.844 311.996L281.433 395.979C281.918 397.455 283.217 398.471 284.71 398.538L355.427 401.776C358.191 401.902 360.23 399.117 359.387 396.369Z" fill="#253368"/>
<path fill-rule="evenodd" clip-rule="evenodd" d="M323.755 317.928C322.928 318.888 323.225 320.575 324.42 321.697C325.614 322.818 327.254 322.948 328.082 321.989C328.909 321.028 328.612 319.34 327.418 318.219C326.223 317.097 324.582 316.967 323.755 317.928Z" fill="#ADC6FF"/>
<path fill-rule="evenodd" clip-rule="evenodd" d="M324.738 318.932C324.307 319.43 324.462 320.306 325.082 320.889C325.703 321.469 326.554 321.537 326.984 321.039C327.413 320.541 327.258 319.665 326.638 319.082C326.018 318.501 325.166 318.434 324.738 318.932Z" fill="#E4EBF7"/>
<path fill-rule="evenodd" clip-rule="evenodd" d="M330.703 381.406C326.503 380.981 324.294 379.147 324.693 375.496C319.641 373.838 320.205 369.373 320.205 369.373C320.205 369.373 310.482 369.217 308.846 364.881C308.21 363.197 309.444 361.395 311.174 361.273C332.005 359.799 346.859 348.28 346.859 348.28C346.859 348.28 338.669 335.73 339.535 329.937C339.791 328.224 341.937 327.672 342.94 329.053C351.528 340.881 368.749 350.156 368.749 350.156C368.749 350.156 389.422 370.369 366.998 379.535C366.998 379.535 349.903 386.644 338.002 385.743C332.367 385.318 330.703 381.406 330.703 381.406Z" fill="#FFC999"/>
<path d="M335.525 365.519C335.351 365.195 334.959 365.079 334.648 365.26C333.156 366.13 331.413 366.84 329.469 367.4C327.151 368.068 324.663 368.495 322.159 368.727L321.398 368.792C320.417 368.867 319.576 368.902 318.921 368.911L318.437 368.912C318.08 368.907 317.788 369.204 317.783 369.576C317.779 369.911 318.009 370.191 318.315 370.248L318.419 370.258L318.685 370.259C319.557 370.256 320.792 370.205 322.273 370.068C324.849 369.829 327.412 369.389 329.812 368.697C331.85 368.11 333.688 367.362 335.277 366.435C335.588 366.254 335.699 365.844 335.525 365.519Z" fill="#DD936F"/>
<path d="M337.486 372.2C337.331 371.865 336.945 371.725 336.625 371.887C336.433 371.984 336.239 372.078 336.043 372.17C333.57 373.335 330.914 374.082 328.246 374.492C326.599 374.745 325.279 374.827 324.458 374.821C324.091 374.816 323.799 375.113 323.794 375.485C323.79 375.819 324.02 376.1 324.326 376.156L324.43 376.167H324.661L325.138 376.156C325.989 376.124 327.113 376.027 328.434 375.824C331.212 375.397 333.982 374.618 336.574 373.398C336.78 373.301 336.984 373.201 337.186 373.099C337.507 372.937 337.641 372.535 337.486 372.2Z" fill="#DD936F"/>
<path d="M341.194 379.665C341.039 379.33 340.653 379.19 340.332 379.352C339.646 379.698 338.027 380.021 335.824 380.286C334.697 380.422 333.489 380.535 332.28 380.626L330.67 380.733C330.314 380.752 330.041 381.068 330.059 381.439C330.077 381.81 330.38 382.096 330.736 382.077L332.057 381.992L332.373 381.968C333.599 381.876 334.825 381.761 335.971 381.623L336.776 381.521C338.716 381.259 340.13 380.949 340.894 380.564C341.215 380.402 341.349 379.999 341.194 379.665Z" fill="#DD936F"/>
<path d="M482.233 332.298L367.763 348.617C367.41 348.667 367.163 349.007 367.211 349.375C367.255 349.707 367.523 349.948 367.833 349.957L367.938 349.951L482.407 333.631C482.76 333.581 483.007 333.242 482.959 332.873C482.915 332.542 482.648 332.3 482.337 332.292L482.233 332.298Z" fill="#DD936F"/>
</g>
</g>
<g clip-path="url(#clip2_503_10004)">
<path fill-rule="evenodd" clip-rule="evenodd" d="M133.167 195.885L136.051 191.663L103.678 167.583L100.794 171.806L133.167 195.885Z" fill="#A3B5D6"/>
<path fill-rule="evenodd" clip-rule="evenodd" d="M76.4314 181.289C95.1539 178.012 107.831 159.804 104.748 140.621C101.665 121.437 83.9884 108.542 65.2659 111.82C46.5438 115.097 33.8662 133.305 36.9495 152.489C40.0328 171.672 57.7093 184.567 76.4314 181.289Z" fill="white"/>
<path fill-rule="evenodd" clip-rule="evenodd" d="M76.0925 178.952C93.3445 175.932 104.984 158.888 102.09 140.884C99.1963 122.879 82.8652 110.732 65.6132 113.752C48.3615 116.772 36.7218 133.816 39.6155 151.82C42.5093 169.825 58.8408 181.972 76.0925 178.952ZM63.8666 102.885C86.8692 98.8585 108.644 115.055 112.503 139.061C116.361 163.067 100.842 185.792 77.839 189.819C54.8366 193.845 33.0615 177.649 29.2031 153.643C25.3447 129.637 40.8642 106.912 63.8666 102.885Z" fill="#4E5C93"/>
<path fill-rule="evenodd" clip-rule="evenodd" d="M148.847 207.548L151.73 203.325C152.527 202.159 152.266 200.54 151.149 199.709L122.724 178.567C121.607 177.736 120.056 178.007 119.26 179.173C119.26 179.173 119.26 179.173 119.26 179.173L116.376 183.396C115.58 184.562 115.84 186.181 116.957 187.012L145.382 208.154C146.499 208.985 148.051 208.714 148.847 207.548C148.847 207.548 148.847 207.548 148.847 207.548Z" fill="#4E5C93"/>
<path fill-rule="evenodd" clip-rule="evenodd" d="M50.298 139.354C50.5096 139.549 50.8327 139.526 51.0197 139.304C52.496 137.548 54.445 137.669 56.1653 138.325C57.0193 138.65 57.78 139.097 58.3303 139.467C58.6044 139.651 58.8238 139.814 58.9735 139.93C59.0483 139.988 59.1056 140.034 59.1435 140.065L59.168 140.085C58.7611 142.383 59.3337 145.153 60.7326 147.962L70.651 135.398C67.6823 134.482 64.9162 134.441 62.8174 135.353C62.7885 135.327 62.7544 135.295 62.7157 135.258C62.578 135.127 62.3829 134.933 62.1576 134.687C61.7052 134.194 61.1393 133.5 60.6701 132.687C59.7248 131.049 59.2393 129.075 60.6076 127.226C60.7808 126.992 60.7405 126.657 60.5175 126.477C60.2946 126.297 59.9733 126.341 59.8001 126.575C58.0469 128.944 58.76 131.452 59.7937 133.242C60.3139 134.144 60.9327 134.9 61.4174 135.429C61.5766 135.602 61.7222 135.752 61.8464 135.876C61.3137 136.225 60.8414 136.653 60.4402 137.161C60.0123 137.703 59.6857 138.311 59.4561 138.971C59.3043 138.857 59.1121 138.718 58.8862 138.567C58.2966 138.171 57.4671 137.681 56.5204 137.32C54.6393 136.603 52.145 136.351 50.2532 138.6C50.0663 138.823 50.0863 139.16 50.298 139.354ZM79.3355 140.399L80.1858 141.131C79.9117 140.876 79.6306 140.624 79.3428 140.377C79.0551 140.129 78.765 139.889 78.473 139.657L78.7057 139.857C77.8566 139.147 76.9888 138.504 76.1132 137.929L76.2412 134.052C76.2443 133.957 76.2232 133.863 76.1801 133.78L72.9795 127.601C72.8454 127.342 72.5352 127.247 72.2867 127.389C72.0382 127.53 71.9455 127.855 72.0796 128.114L75.2144 134.165L75.1109 137.303C74.1694 136.744 73.2239 136.264 72.2881 135.866L61.4623 149.58C62.0327 150.49 62.6864 151.395 63.4184 152.278L60.2581 153.039L53.9697 150.982C53.7007 150.894 53.4131 151.051 53.3274 151.333C53.2418 151.615 53.3904 151.914 53.6595 152.002L60.08 154.102C60.1665 154.13 60.2587 154.134 60.3473 154.113L64.2038 153.184C64.9807 154.042 65.8323 154.875 66.7535 155.667C69.0396 157.634 71.4739 159.115 73.8355 160.072C73.7632 160.163 73.7191 160.279 73.7174 160.407L73.6492 165.675C73.648 165.765 73.6688 165.854 73.7096 165.934L76.709 171.776C76.8422 172.035 77.1521 172.132 77.4011 171.991C77.65 171.85 77.7439 171.526 77.6107 171.267L74.6734 165.546L74.7399 160.415L74.7399 160.414C79.3169 162.021 83.5073 161.605 85.6561 158.883C87.7891 156.181 87.4019 151.851 85.0625 147.5L89.7265 146.484L95.6664 148.401C95.9358 148.488 96.2228 148.33 96.3075 148.048C96.3922 147.766 96.2424 147.467 95.973 147.38L89.9073 145.422C89.8248 145.395 89.737 145.391 89.6523 145.41L84.7123 146.486C84.6452 146.501 84.5839 146.528 84.5303 146.566C83.2406 144.423 81.4863 142.304 79.3355 140.399Z" fill="#FF7946"/>
</g>
<path d="M484.493 139.493H476.191C472.174 139.493 468.918 142.749 468.918 146.766L468.918 156.065C468.918 160.081 472.174 163.337 476.191 163.337H484.493C488.51 163.337 491.766 160.081 491.766 156.065V146.766C491.766 142.749 488.51 139.493 484.493 139.493Z" fill="#554AF0"/>
<path d="M448.051 198.76L448.051 198.175C448.051 194.473 451.052 191.473 454.753 191.473C458.454 191.473 461.455 194.473 461.455 198.175V198.76C461.455 202.461 458.454 205.461 454.753 205.461C451.052 205.461 448.051 202.461 448.051 198.76Z" fill="#554AF0"/>
<path d="M474.41 412.777H463.366C459.349 412.777 456.093 416.033 456.093 420.049L456.093 433.163C456.093 437.18 459.349 440.436 463.366 440.436H474.41C478.426 440.436 481.682 437.18 481.682 433.163V420.049C481.682 416.033 478.426 412.777 474.41 412.777Z" fill="#554AF0"/>
<path fill-rule="evenodd" clip-rule="evenodd" d="M123.018 218.305C121.105 212.677 120.824 209.119 121.676 205.257C122.524 201.393 120.232 196.921 120.232 196.921C119.622 183.763 132.257 194.566 134.168 193.374C135.124 192.779 131.155 190.18 130.152 185.187C129.144 180.193 132.38 177 134.276 179.145C138.793 184.244 151.456 195.623 158.245 200.106C167.008 205.891 173.49 217.682 173.49 217.682C186.642 234.884 172.036 249.158 163.145 246.346C149.986 242.187 123.308 234.163 123.708 225.79C123.708 225.79 124.577 222.888 123.018 218.305Z" fill="#FFC999"/>
<path d="M133.581 192.488L143.699 201.804" stroke="#DD936F" stroke-width="1.44535" stroke-linecap="round" stroke-linejoin="round"/>
<defs>
<clipPath id="clip0_503_10004">
<rect x="115.337" y="0.672852" width="529.434" height="473.746" rx="236.873" fill="white"/>
</clipPath>
<clipPath id="clip1_503_10004">
<rect width="614.923" height="1283.5" fill="white" transform="matrix(-1 0 0 1 640.271 -168.895)"/>
</clipPath>
<clipPath id="clip2_503_10004">
<rect width="132.653" height="138.116" fill="white" transform="matrix(-0.985021 0.172432 0.158689 0.987329 142.702 79.7471)"/>
</clipPath>
</defs>
</svg>
