<svg width="22" height="22" viewBox="0 0 22 22" fill="none" xmlns="http://www.w3.org/2000/svg">
<path d="M11.5209 10.5158L5.25234 2.50647C5.17868 2.41071 5.06327 2.35669 4.94296 2.35669H3.04497C2.88046 2.35669 2.78961 2.54575 2.89028 2.67343L9.4068 10.9995L2.89028 19.3257C2.86761 19.3546 2.85355 19.3894 2.84969 19.4259C2.84584 19.4625 2.85235 19.4994 2.86849 19.5325C2.88462 19.5655 2.90973 19.5933 2.94094 19.6128C2.97215 19.6322 3.0082 19.6425 3.04497 19.6424H4.94296C5.06327 19.6424 5.17868 19.5859 5.25234 19.4926L11.5209 11.4857C11.7443 11.1984 11.7443 10.8007 11.5209 10.5158ZM18.9851 10.5158L12.7166 2.50647C12.643 2.41071 12.5276 2.35669 12.4072 2.35669H10.5093C10.3447 2.35669 10.2539 2.54575 10.3546 2.67343L16.8711 10.9995L10.3546 19.3257C10.3319 19.3546 10.3178 19.3894 10.314 19.4259C10.3101 19.4625 10.3166 19.4994 10.3328 19.5325C10.3489 19.5655 10.374 19.5933 10.4052 19.6128C10.4364 19.6322 10.4725 19.6425 10.5093 19.6424H12.4072C12.5276 19.6424 12.643 19.5859 12.7166 19.4926L18.9851 11.4857C19.2086 11.1984 19.2086 10.8007 18.9851 10.5158Z" fill="black" fill-opacity="0.85"/>
</svg>
