<svg width="22" height="22" viewBox="0 0 22 22" fill="none" xmlns="http://www.w3.org/2000/svg">
<g clip-path="url(#clip0_957_19717)">
<path d="M19.7415 16.4032H18.0153C17.8975 16.4032 17.787 16.4548 17.7133 16.5456C17.5415 16.7543 17.3573 16.9557 17.1633 17.1472C16.37 17.9413 15.4303 18.5742 14.3961 19.0108C13.3248 19.4633 12.1732 19.6955 11.0102 19.6934C9.83409 19.6934 8.69481 19.4626 7.62427 19.0108C6.59014 18.5742 5.65042 17.9413 4.85708 17.1472C4.06232 16.3557 3.4286 15.4177 2.99101 14.3849C2.53677 13.3144 2.30842 12.1776 2.30842 11.0014C2.30842 9.82532 2.53922 8.68849 2.99101 7.61795C3.42806 6.58425 4.05664 5.65367 4.85708 4.85567C5.65753 4.05768 6.58811 3.42911 7.62427 2.99206C8.69481 2.54027 9.83409 2.30947 11.0102 2.30947C12.1863 2.30947 13.3256 2.53782 14.3961 2.99206C15.4323 3.42911 16.3629 4.05768 17.1633 4.85567C17.3573 5.04965 17.539 5.25099 17.7133 5.45724C17.787 5.54808 17.8999 5.59965 18.0153 5.59965H19.7415C19.8961 5.59965 19.9919 5.42777 19.906 5.29764C18.0227 2.37085 14.7276 0.433575 10.9832 0.443397C5.10016 0.458129 0.383421 5.2338 0.442349 11.1095C0.501278 16.8918 5.21065 21.5595 11.0102 21.5595C14.7448 21.5595 18.0252 19.6246 19.906 16.7052C19.9895 16.5751 19.8961 16.4032 19.7415 16.4032ZM21.9243 10.8467L18.4401 8.09675C18.31 7.99362 18.1209 8.08692 18.1209 8.25143V10.1175H10.4111C10.3031 10.1175 10.2147 10.2059 10.2147 10.3139V11.6889C10.2147 11.797 10.3031 11.8854 10.4111 11.8854H18.1209V13.7514C18.1209 13.9159 18.3124 14.0092 18.4401 13.9061L21.9243 11.1561C21.9477 11.1377 21.9667 11.1143 21.9798 11.0875C21.9929 11.0607 21.9996 11.0312 21.9996 11.0014C21.9996 10.9716 21.9929 10.9422 21.9798 10.9154C21.9667 10.8886 21.9477 10.8651 21.9243 10.8467Z" fill="#333333"/>
</g>
<defs>
<clipPath id="clip0_957_19717">
<rect width="22" height="22" fill="white"/>
</clipPath>
</defs>
</svg>
