<svg width="346" height="308" viewBox="0 0 346 308" fill="none" xmlns="http://www.w3.org/2000/svg">
<g clip-path="url(#clip0_2276_24115)">
<path fill-rule="evenodd" clip-rule="evenodd" d="M101.367 279.494C101.367 279.494 47.898 171.626 53.0129 161.397C58.1263 151.169 95.8756 128.17 152.935 132.098C210.243 136.043 230.281 159.324 230.281 159.324C230.281 159.324 215.548 227.69 203.191 272.056C209.699 283.679 197.867 291.929 197.867 291.929C197.867 291.929 123.593 288.496 105.925 289.426C97.6744 285.889 101.367 279.494 101.367 279.494Z" fill="#554AF0"/>
<path fill-rule="evenodd" clip-rule="evenodd" d="M210.242 369.726L162.599 396.886L146.747 399.079L81.6133 373.41C81.6133 373.41 89.5686 323.903 104.378 300.918C106.734 294.433 107.692 289.572 107.692 289.572C107.692 289.572 166.039 280.732 197.866 291.929L199.044 302.538C199.044 302.538 204.09 314.536 206.706 325.523C211.126 344.089 210.242 369.726 210.242 369.726Z" fill="#4E5C93"/>
<path fill-rule="evenodd" clip-rule="evenodd" d="M112.997 123.958L115.939 72.6321H164.563L164.515 128.083L150.569 154.605L112.997 123.958Z" fill="#FFC2BD"/>
<path fill-rule="evenodd" clip-rule="evenodd" d="M131.757 44.0528C131.757 44.0528 158.868 36.9802 166.235 49.6516C173.399 61.9758 173.896 106.526 159.752 113.304C148.223 118.828 124.684 116.251 119.085 94.7385C119.085 94.7385 114.371 78.2365 116.139 63.5027C117.907 48.7675 131.757 44.0528 131.757 44.0528Z" fill="#FFC2BD"/>
<path fill-rule="evenodd" clip-rule="evenodd" d="M119.086 81.7679C119.086 81.7679 111.719 67.6226 106.121 75.2851C100.522 82.9462 109.951 97.0916 118.202 96.5017C126.453 95.9133 119.086 81.7679 119.086 81.7679Z" fill="#FFC2BD"/>
<path fill-rule="evenodd" clip-rule="evenodd" d="M170.948 75.2863C170.948 75.2863 174.484 58.1945 170.359 47.5868C166.233 36.9778 160.928 26.3688 157.098 31.9689C156.508 29.3167 152.972 24.0122 150.321 22.244C147.669 20.4758 139.416 31.9689 139.416 31.9689C139.416 31.9689 140.006 26.6644 136.764 29.9052C133.523 33.1473 113.779 43.1664 110.538 48.4709C107.296 53.7754 109.018 73.2755 109.018 73.2755C109.018 73.2755 115.355 72.6857 118.743 84.7672C117.859 75.0423 121.907 69.9595 123.985 68.0254C124.773 67.2933 125.225 66.2739 125.307 65.2002C125.463 63.1406 125.696 59.6823 125.781 56.3036C125.82 54.8157 126.908 53.5844 128.376 53.3292C143.316 50.7425 159.74 53.0685 165.59 54.0766C166.912 54.3053 167.926 55.3665 168.102 56.6968L169.577 67.7493C169.577 67.7493 170.359 69.6876 170.948 75.2863Z" fill="#253368"/>
<path d="M134.523 71.3495C134.646 71.3167 134.774 71.3043 134.901 71.3125L135.027 71.3276L144.585 72.9968C145.226 73.1087 145.654 73.7187 145.542 74.3594C145.438 74.9601 144.895 75.3744 144.299 75.3316L144.18 75.3169L134.876 73.6923L130.143 74.9492C129.554 75.1057 128.95 74.7865 128.74 74.228L128.703 74.1132C128.546 73.5239 128.866 72.9203 129.424 72.7096L129.539 72.6728L134.523 71.3495Z" fill="#253368"/>
<path d="M163.573 70.319C163.736 70.2758 163.905 70.2681 164.07 70.2957L164.193 70.3231L167.877 71.3536C168.503 71.5288 168.869 72.1785 168.694 72.8049C168.53 73.3921 167.948 73.7502 167.36 73.6483L167.243 73.6218L163.868 72.6771L154.749 75.0998C154.159 75.2563 153.556 74.9371 153.345 74.3787L153.308 74.2639C153.152 73.6746 153.471 73.0709 154.029 72.8602L154.144 72.8234L163.573 70.319Z" fill="#253368"/>
<path fill-rule="evenodd" clip-rule="evenodd" d="M119.525 87.444C119.525 87.444 127.141 93.3886 131.119 99.5772C136.645 92.7262 142.466 89.7784 142.466 89.7784C142.466 89.7784 149.141 94.737 152.677 93.1906C153.782 91.8645 153.663 90.516 153.663 90.516C153.663 90.516 159.63 92.7262 163.829 98.9134C165.598 94.4944 170.579 88.7702 170.579 88.7702C170.579 88.7702 171.639 117.627 150.421 118.068C128.983 118.068 121.837 106.208 119.407 96.2612C118.845 93.1446 117.979 85.2338 119.525 87.444Z" fill="#EFADAB"/>
<path d="M137.464 95.0325C137.655 94.5485 138.202 94.3107 138.686 94.5014L139.131 94.665C139.252 94.7075 139.392 94.7555 139.549 94.8081C140.255 95.0441 141.048 95.2805 141.909 95.5013C144.823 96.2489 147.763 96.6355 150.481 96.4709C151.804 96.3909 153.037 96.1797 154.166 95.8271C154.662 95.6719 155.19 95.9487 155.346 96.4452C155.501 96.9418 155.224 97.4701 154.728 97.6253C153.446 98.0258 152.063 98.2625 150.595 98.3514C147.654 98.5294 144.529 98.1185 141.441 97.3262C140.686 97.1325 139.979 96.9271 139.333 96.7196L138.76 96.5301L138.096 96.2929C138.053 96.2766 138.019 96.2636 137.995 96.2542C137.511 96.0635 137.274 95.5165 137.464 95.0325Z" fill="#D18888"/>
<path d="M152.005 74.0029C152.357 74.0348 152.624 74.3224 152.639 74.6655L152.637 74.7603L152.351 77.8958L152.547 78.8271L152.599 79.0842C152.8 80.0872 153.002 81.1608 153.19 82.2624C153.384 83.3979 153.553 84.4998 153.689 85.5451L153.782 86.2841C154.272 90.3796 154.18 92.9053 153.108 93.7395C152.07 94.5473 150.273 94.2663 147.792 93.2818C147.172 93.0359 146.523 92.7489 145.855 92.4289C145.261 92.1443 144.674 91.8449 144.108 91.5418L143.362 91.1331L142.855 90.8448C142.732 90.773 142.644 90.7212 142.596 90.6927C142.266 90.4946 142.159 90.0663 142.357 89.7361C142.555 89.4059 142.984 89.2989 143.314 89.4971L143.554 89.6381L143.985 89.8835C144.062 89.9271 144.143 89.9718 144.226 90.0177C144.936 90.4111 145.692 90.8046 146.457 91.1712C147.098 91.4781 147.718 91.7524 148.306 91.9856C150.31 92.7808 151.775 93.0099 152.252 92.639C152.752 92.2495 152.8 89.6866 152.348 86.049L152.307 85.7253C152.173 84.6996 152.007 83.6156 151.816 82.4972C151.667 81.6274 151.51 80.7747 151.351 79.9613L151.084 78.6384L150.967 78.0895C150.957 78.0429 150.952 77.9954 150.951 77.9478L150.954 77.8764L151.248 74.6343C151.28 74.2828 151.568 74.016 151.911 74.0007L152.005 74.0029Z" fill="#D18888"/>
<path d="M151.23 102.308C151.555 102.306 151.819 102.569 151.821 102.894C151.822 103.189 151.606 103.435 151.322 103.478L151.235 103.485L146.271 103.508C145.946 103.51 145.681 103.248 145.68 102.923C145.678 102.627 145.895 102.382 146.178 102.338L146.265 102.332L151.23 102.308Z" fill="#D18888"/>
<path d="M137.186 77.4309C139.119 77.4309 140.559 79.4465 140.559 81.829C140.559 82.2757 140.197 82.6378 139.751 82.6378C139.304 82.6378 138.942 82.2757 138.942 81.829C138.942 80.2456 138.087 79.0485 137.186 79.0485C136.287 79.0485 135.432 80.2458 135.432 81.829C135.432 82.2757 135.07 82.6378 134.623 82.6378C134.177 82.6378 133.814 82.2757 133.814 81.829C133.814 79.4469 135.254 77.4309 137.186 77.4309Z" fill="#253368"/>
<path d="M159.703 77.4309C161.635 77.4309 163.075 79.4469 163.075 81.829C163.075 82.2757 162.713 82.6378 162.266 82.6378C161.82 82.6378 161.457 82.2757 161.457 81.829C161.457 80.2458 160.602 79.0485 159.703 79.0485C158.803 79.0485 157.948 80.2456 157.948 81.829C157.948 82.2757 157.586 82.6378 157.139 82.6378C156.692 82.6378 156.33 82.2757 156.33 81.829C156.33 79.4465 157.77 77.4309 159.703 77.4309Z" fill="#253368"/>
<path d="M139.026 92.5252C139.299 92.2529 139.74 92.253 140.013 92.5253C140.26 92.7729 140.282 93.1603 140.08 93.4332L140.012 93.5114L136.18 97.3419C135.908 97.6142 135.467 97.6141 135.194 97.3418C134.947 97.0942 134.924 96.7068 135.127 96.4339L135.195 96.3557L139.026 92.5252Z" fill="#D18888"/>
<path d="M119.487 96.574C119.803 96.4965 120.122 96.6894 120.199 97.005L120.29 97.3367C120.321 97.4452 120.36 97.5724 120.405 97.7172L120.453 97.8679C120.678 98.5697 120.966 99.3532 121.322 100.198C122.341 102.615 123.7 105.032 125.442 107.285C131.827 115.546 141.454 119.471 155.093 116.681C155.412 116.616 155.723 116.821 155.788 117.14C155.853 117.458 155.648 117.769 155.329 117.834C141.235 120.717 131.162 116.61 124.51 108.005C122.702 105.665 121.294 103.16 120.238 100.655C119.868 99.7775 119.568 98.9615 119.332 98.2277L119.218 97.8619L119.125 97.5405C119.09 97.4188 119.068 97.3331 119.056 97.2859C118.979 96.9703 119.172 96.6516 119.487 96.574Z" fill="#D18888"/>
<path d="M149.165 109.897C149.445 109.732 149.806 109.825 149.971 110.105C150.107 110.335 150.302 110.729 150.495 111.245C150.976 112.532 151.165 113.861 150.881 115.129C150.585 116.445 149.794 117.569 148.453 118.416C148.178 118.59 147.814 118.508 147.641 118.233C147.467 117.958 147.549 117.595 147.824 117.421C148.901 116.741 149.505 115.883 149.732 114.872C149.959 113.861 149.801 112.749 149.393 111.657C149.295 111.396 149.191 111.158 149.087 110.948L148.958 110.703C148.793 110.423 148.885 110.063 149.165 109.897Z" fill="#D18888"/>
<path d="M107.726 79.6782C108.002 78.2926 109.089 77.6525 110.85 78.3295C113.634 79.3993 113.921 81.4418 112.978 85.2085C112.46 87.2827 113.177 88.4517 115.102 88.8368C115.421 88.9006 115.628 89.2106 115.564 89.5293C115.5 89.848 115.19 90.0547 114.872 89.9909C112.28 89.4725 111.158 87.642 111.836 84.9231C112.649 81.6765 112.442 80.2019 110.428 79.428C109.364 79.0188 109.017 79.2229 108.88 79.908C108.828 80.1706 108.824 80.4654 108.85 80.736L108.863 80.8465C108.916 81.1673 108.698 81.4697 108.377 81.522C108.056 81.5742 107.754 81.3566 107.702 81.0358L107.687 80.9256C107.684 80.9023 107.681 80.8767 107.679 80.8489C107.643 80.4736 107.648 80.0708 107.726 79.6782Z" fill="#D18888"/>
<path fill-rule="evenodd" clip-rule="evenodd" d="M141.84 101.781C141.79 102.082 141.505 102.286 141.204 102.236C140.904 102.187 140.701 101.901 140.749 101.601C140.8 101.298 141.084 101.095 141.385 101.145C141.686 101.195 141.89 101.48 141.84 101.781Z" fill="#D18888"/>
<path fill-rule="evenodd" clip-rule="evenodd" d="M133.543 103.863C133.493 104.164 133.209 104.367 132.908 104.317C132.606 104.268 132.403 103.982 132.453 103.683C132.503 103.381 132.788 103.178 133.089 103.227C133.39 103.277 133.594 103.561 133.543 103.863Z" fill="#D18888"/>
<path fill-rule="evenodd" clip-rule="evenodd" d="M160.269 105.668C160.375 105.954 160.23 106.272 159.944 106.379C159.658 106.485 159.339 106.339 159.233 106.053C159.127 105.767 159.272 105.449 159.558 105.343C159.845 105.236 160.163 105.382 160.269 105.668Z" fill="#D18888"/>
<path fill-rule="evenodd" clip-rule="evenodd" d="M165.455 103.024C165.561 103.31 165.415 103.628 165.13 103.736C164.844 103.842 164.524 103.695 164.418 103.409C164.312 103.123 164.458 102.806 164.743 102.7C165.029 102.592 165.347 102.739 165.455 103.024Z" fill="#D18888"/>
<path fill-rule="evenodd" clip-rule="evenodd" d="M155.768 107.28C155.875 107.566 155.729 107.884 155.443 107.99C155.157 108.096 154.839 107.951 154.732 107.665C154.626 107.379 154.772 107.061 155.058 106.955C155.344 106.848 155.662 106.994 155.768 107.28Z" fill="#D18888"/>
<path fill-rule="evenodd" clip-rule="evenodd" d="M149.318 106.012C149.425 106.298 149.279 106.616 148.993 106.723C148.707 106.829 148.388 106.682 148.282 106.397C148.176 106.111 148.322 105.793 148.608 105.687C148.894 105.579 149.212 105.726 149.318 106.012Z" fill="#D18888"/>
<path fill-rule="evenodd" clip-rule="evenodd" d="M127.109 101.597C127.215 101.883 127.07 102.201 126.784 102.308C126.498 102.414 126.179 102.268 126.073 101.982C125.967 101.696 126.112 101.378 126.398 101.272C126.684 101.165 127.001 101.311 127.109 101.597Z" fill="#D18888"/>
<path fill-rule="evenodd" clip-rule="evenodd" d="M137.671 109.539C137.621 109.841 137.337 110.044 137.035 109.994C136.734 109.944 136.531 109.659 136.581 109.358C136.631 109.057 136.916 108.853 137.217 108.904C137.518 108.954 137.722 109.238 137.671 109.539Z" fill="#D18888"/>
<path fill-rule="evenodd" clip-rule="evenodd" d="M141.957 108.681C141.907 108.983 141.623 109.186 141.322 109.136C141.02 109.086 140.817 108.801 140.867 108.5C140.917 108.199 141.202 107.995 141.503 108.045C141.804 108.096 142.008 108.38 141.957 108.681Z" fill="#D18888"/>
<path fill-rule="evenodd" clip-rule="evenodd" d="M159.272 110.174C159.222 110.475 158.937 110.679 158.636 110.628C158.335 110.58 158.131 110.294 158.181 109.994C158.232 109.691 158.516 109.489 158.817 109.538C159.119 109.588 159.322 109.873 159.272 110.174Z" fill="#D18888"/>
<path fill-rule="evenodd" clip-rule="evenodd" d="M156.53 103.645C156.48 103.946 156.195 104.15 155.894 104.1C155.593 104.049 155.389 103.765 155.439 103.464C155.489 103.162 155.774 102.959 156.075 103.009C156.376 103.059 156.58 103.344 156.53 103.645Z" fill="#D18888"/>
<path fill-rule="evenodd" clip-rule="evenodd" d="M158.517 98.1198C158.467 98.421 158.182 98.6246 157.881 98.5744C157.58 98.5242 157.376 98.2397 157.427 97.9385C157.477 97.6373 157.761 97.4337 158.062 97.4839C158.364 97.5341 158.567 97.8186 158.517 98.1198Z" fill="#D18888"/>
<path fill-rule="evenodd" clip-rule="evenodd" d="M133 107.306C132.95 107.607 132.665 107.811 132.364 107.761C132.064 107.71 131.861 107.426 131.91 107.125C131.96 106.824 132.244 106.62 132.545 106.67C132.847 106.72 133.05 107.005 133 107.306Z" fill="#D18888"/>
<path fill-rule="evenodd" clip-rule="evenodd" d="M169.577 135.748L167.367 126.759L157.444 127.643L151.499 150.478L138.341 125.337L108.974 122.339L104.844 136.484C104.844 136.484 123.971 162.474 154.99 157.702C170.313 155.344 169.577 135.748 169.577 135.748Z" fill="#554AF0"/>
<path fill-rule="evenodd" clip-rule="evenodd" d="M203.855 144.976C203.855 144.976 221.14 186.241 204.936 223.638C217.899 245.817 231.401 262.065 239.503 269.287C247.606 276.509 278.685 274.874 281.093 250.719C283.253 229.053 243.673 177.517 237.883 168.188C229.241 154.26 209.797 144.976 203.855 144.976Z" fill="#FFC2BD"/>
<path fill-rule="evenodd" clip-rule="evenodd" d="M259.76 200.939C249.087 183.371 240.224 171.881 237.211 167.024C228.568 153.096 209.123 143.812 203.182 143.812C203.182 143.812 220.466 185.077 204.262 222.473C209.761 231.88 209.151 231.041 214.39 238.077C214.39 238.077 218.441 229.567 233.835 217.187C249.843 204.313 259.76 200.939 259.76 200.939Z" fill="#554AF0"/>
<path d="M218.962 182.377C219.249 182.31 219.537 182.489 219.604 182.777L219.657 183.02C219.697 183.216 219.742 183.448 219.791 183.717C219.929 184.48 220.066 185.38 220.194 186.412C220.961 192.593 221.057 200.223 220.05 209.079C218.659 221.324 215.304 234.352 209.557 247.938C209.442 248.21 209.128 248.337 208.856 248.222C208.584 248.107 208.457 247.793 208.572 247.521C214.279 234.031 217.607 221.103 218.988 208.958C219.984 200.189 219.89 192.644 219.133 186.543C219.025 185.676 218.911 184.905 218.796 184.234L218.738 183.907C218.658 183.464 218.597 183.166 218.563 183.02C218.495 182.732 218.674 182.444 218.962 182.377Z" fill="#253368"/>
<path fill-rule="evenodd" clip-rule="evenodd" d="M199.192 302.686C154.327 296.94 104.157 300.232 104.157 300.232L105.925 287.635C105.925 287.635 162.946 280.342 198.16 289.771C198.972 295.812 199.192 302.686 199.192 302.686Z" fill="#253368"/>
<path fill-rule="evenodd" clip-rule="evenodd" d="M144.527 298.633V286.05C144.527 284.406 145.781 283.06 147.369 283.013C152.631 282.855 164.326 282.714 174.935 284.06C176.416 284.248 177.531 285.538 177.531 287.08V298.911C177.531 300.604 176.205 301.97 174.569 301.949C168.557 301.875 154.856 301.712 147.438 301.67C145.823 301.662 144.527 300.304 144.527 298.633Z" fill="#E4EBF7"/>
<path fill-rule="evenodd" clip-rule="evenodd" d="M147.934 296.456L147.936 288.126C147.936 287.039 148.96 286.148 150.255 286.117C154.549 286.014 164.09 285.926 172.745 286.819C173.953 286.944 174.863 287.799 174.863 288.82L174.861 296.651C174.859 297.771 173.777 298.675 172.443 298.662C167.537 298.61 156.359 298.497 150.307 298.468C148.989 298.461 147.934 297.562 147.934 296.456Z" fill="#253368"/>
<path fill-rule="evenodd" clip-rule="evenodd" d="M174.768 285.215L146.907 297.649L148.058 300.182L176.15 287.517L174.768 285.215Z" fill="#E4EBF7"/>
<path fill-rule="evenodd" clip-rule="evenodd" d="M175.968 297.253L148.043 284.964L146.938 287.519L175.19 299.823L175.968 297.253Z" fill="#E4EBF7"/>
<path fill-rule="evenodd" clip-rule="evenodd" d="M61.7239 151.069C61.7239 151.069 45.8104 154.605 38.7391 181.716C31.6664 208.826 34.3187 233.58 36.0868 267.764C37.8536 301.946 50.2308 361.767 55.5353 383.574C60.8398 405.38 62.7823 412.659 68.2067 420.408C71.301 424.829 76.4577 425.86 79.994 424.534C84.7087 429.249 92.2234 426.008 92.2234 426.008C92.2234 426.008 103.569 428.955 105.925 422.472C115.208 423.798 111.23 410.979 112.409 406.264C113.588 401.548 108.725 392.119 95.7597 379.153C87.5087 364.419 94.8756 232.991 98.412 216.489C101.948 199.987 101.8 154.605 61.7239 151.069Z" fill="#FFC2BD"/>
<path fill-rule="evenodd" clip-rule="evenodd" d="M96.2005 237.706C96.2005 237.706 104.746 184.662 96.4947 168.16C88.2437 151.658 75.0215 139.134 54.0615 154.604C29.3071 172.875 34.3174 226.213 34.3174 226.213C34.3174 226.213 61.7226 232.401 96.2005 237.706Z" fill="#554AF0"/>
<path d="M74.473 161.119C75.8818 161.031 77.4708 161.122 79.3152 161.545C82.0163 162.164 84.6642 163.397 87.1397 165.386C94.5504 171.343 99.2338 182.97 99.9519 201.75L99.9748 202.393L96.7327 239.523C96.707 239.817 96.4477 240.035 96.1535 240.009C95.8887 239.986 95.6858 239.773 95.6667 239.517L95.6672 239.43L98.9076 202.364C98.2805 183.557 93.6917 172.025 86.4696 166.22C84.1249 164.335 81.6248 163.172 79.0762 162.587C77.4863 162.223 76.1027 162.121 74.8715 162.17L74.2079 162.208C74.1299 162.212 74.0622 162.214 74.0371 162.211C73.7438 162.176 73.5338 161.911 73.5681 161.617C73.6024 161.324 73.8681 161.114 74.1614 161.148C74.1167 161.143 74.2605 161.132 74.473 161.119Z" fill="#253368"/>
<path d="M107.191 136.743C107.281 136.493 107.539 136.352 107.792 136.4L107.876 136.423L127.324 143.496C127.602 143.597 127.745 143.903 127.644 144.181C127.553 144.431 127.296 144.572 127.043 144.524L126.959 144.501L107.51 137.428C107.233 137.327 107.09 137.02 107.191 136.743Z" fill="#253368"/>
<path d="M151.35 149.961C151.633 149.878 151.93 150.041 152.012 150.325L152.19 150.964L152.366 151.621C152.427 151.853 152.491 152.097 152.556 152.352L152.656 152.745C153.136 154.656 153.617 156.769 154.066 159.025C155.124 164.352 155.84 169.628 156.053 174.564C156.195 177.85 156.108 180.894 155.764 183.646C155.727 183.939 155.46 184.147 155.167 184.111C154.874 184.074 154.666 183.807 154.702 183.514C155.039 180.825 155.124 177.84 154.984 174.611C154.774 169.735 154.066 164.511 153.017 159.234C152.621 157.245 152.2 155.368 151.777 153.645L151.424 152.247L151.003 150.685C150.996 150.662 150.99 150.641 150.985 150.623C150.903 150.34 151.066 150.043 151.35 149.961Z" fill="#253368"/>
<path fill-rule="evenodd" clip-rule="evenodd" d="M279.607 141.472C268.687 160.663 255.88 194.855 229.694 233.003C229.694 233.003 219.948 262.812 247.445 270.973C274.255 278.931 282.661 248.028 282.661 248.028C296.899 213.754 305.535 179.735 309.447 155.473C309.848 152.984 310.439 150.499 309.84 148.046C309.017 144.687 306.648 140.552 300.461 137.452C285.779 130.096 279.607 141.472 279.607 141.472Z" fill="#FFC2BD"/>
<path fill-rule="evenodd" clip-rule="evenodd" d="M287.941 162.857C287.941 162.857 282.433 158.035 280.075 148.587C277.735 139.217 276.609 112.652 276.891 111.1C277.851 105.818 283.763 107.66 285.148 122.977C291.714 114.034 293.849 106.169 292.441 98.6743C291.031 91.1777 300.127 90.2727 305.298 100.099C310.47 109.926 316.947 117.076 315.384 127.553C313.409 140.776 310.949 152.532 306.254 160.927C301.082 170.174 296.709 169.156 287.941 162.857Z" fill="#FFC2BD"/>
<path d="M284.948 122.385C285.245 122.285 285.565 122.42 285.704 122.692L285.74 122.777L287.996 129.449L288.311 129.821L288.703 130.295C288.907 130.544 289.123 130.812 289.348 131.096C290.419 132.451 291.489 133.91 292.49 135.422C293.722 137.285 294.761 139.098 295.544 140.816C297.268 144.598 297.668 147.706 296.313 149.91C296.133 150.204 295.748 150.296 295.454 150.115C295.16 149.935 295.068 149.55 295.249 149.256C296.326 147.503 295.975 144.773 294.407 141.334C293.654 139.682 292.647 137.924 291.448 136.112C290.468 134.632 289.418 133.2 288.368 131.871L287.737 131.086L287.062 130.278C287.026 130.237 286.996 130.203 286.974 130.177C286.938 130.136 286.907 130.09 286.883 130.041L286.852 129.965L284.557 123.177C284.446 122.85 284.621 122.496 284.948 122.385Z" fill="#D18888"/>
<path d="M306.908 112.473C307.292 110.316 308.448 109.071 310.489 109.644C310.821 109.737 311.015 110.082 310.921 110.414C310.828 110.746 310.483 110.94 310.151 110.847C309.002 110.524 308.41 111.162 308.138 112.692C308.036 113.266 308.003 113.878 308.014 114.447L308.03 114.847L308.035 114.93L308.07 115.087L308.091 115.191C308.139 115.433 308.187 115.714 308.231 116.028C308.786 119.94 308.353 124.34 306.184 128.516C305.76 129.331 305.276 130.12 304.727 130.881C304.525 131.16 304.135 131.224 303.855 131.022C303.575 130.82 303.512 130.43 303.714 130.15C304.227 129.439 304.679 128.701 305.075 127.94C307.107 124.028 307.515 119.879 306.994 116.204L306.942 115.859C306.899 115.595 306.859 115.391 306.828 115.254L306.81 115.179L306.794 115.085L306.783 114.924L306.779 114.847C306.74 114.102 306.767 113.271 306.908 112.473Z" fill="#D18888"/>
<path d="M303.111 108.438C303.325 114.026 302.674 118.287 301.446 121.392C300.79 123.05 300.117 124.048 299.637 124.508C299.388 124.747 298.993 124.738 298.754 124.489C298.515 124.24 298.523 123.845 298.772 123.606L298.841 123.533C298.924 123.438 299.049 123.279 299.206 123.047C299.569 122.508 299.937 121.809 300.284 120.933C301.446 117.995 302.07 113.905 301.861 108.456L301.838 107.905L301.84 107.698C301.853 107.052 301.933 106.191 302.134 105.321C302.411 104.128 302.861 103.229 303.581 102.746C304.531 102.108 305.728 102.336 307.086 103.415C307.356 103.63 307.401 104.023 307.186 104.293C306.972 104.563 306.579 104.608 306.309 104.393C305.333 103.618 304.702 103.498 304.278 103.783C303.886 104.046 303.563 104.691 303.352 105.603C303.236 106.1 303.162 106.638 303.12 107.177L303.1 107.479C303.095 107.57 303.092 107.653 303.09 107.724L303.086 107.895L303.111 108.438Z" fill="#D18888"/>
<path d="M297.426 97.8297C297.983 96.0956 299.196 95.2679 301.163 95.4349C301.507 95.4641 301.762 95.7665 301.733 96.1102C301.703 96.454 301.401 96.709 301.057 96.6798C299.676 96.5626 298.996 97.0267 298.615 98.212C298.297 99.2006 298.218 100.294 298.213 103.064L298.21 105.147C298.2 107.003 298.154 108.156 298.024 109.547C297.764 112.344 297.233 114.839 296.511 117.026C296.139 118.151 295.74 119.123 295.339 119.941L295.166 120.285C295.004 120.6 294.873 120.825 294.785 120.961C294.598 121.251 294.212 121.334 293.922 121.147C293.632 120.96 293.549 120.573 293.736 120.283L293.818 120.149C293.914 119.984 294.051 119.732 294.217 119.392C294.593 118.624 294.971 117.704 295.324 116.634C296.018 114.536 296.529 112.133 296.78 109.431L296.821 108.962C296.935 107.575 296.964 106.316 296.963 104.09L296.964 102.749C296.975 100.053 297.067 98.9466 297.426 97.8297Z" fill="#D18888"/>
<path d="M253.168 193.194C253.328 192.889 253.706 192.771 254.011 192.931C254.289 193.076 254.412 193.401 254.312 193.689L254.275 193.774L229.088 241.881C228.928 242.187 228.551 242.305 228.245 242.145C227.967 241.999 227.845 241.674 227.945 241.387L227.982 241.302L253.168 193.194Z" fill="#D18888"/>
</g>
<rect x="184.812" y="14.5542" width="116.848" height="36.0096" rx="17.6374" fill="#EBEBFE"/>
<path d="M206.924 37.2061C206.121 37.2061 205.381 37.0787 204.705 36.8239C204.038 36.5594 203.455 36.1919 202.956 35.7216C202.456 35.2415 202.069 34.678 201.795 34.0313C201.52 33.3846 201.383 32.6791 201.383 31.9148C201.383 31.1506 201.52 30.4451 201.795 29.7984C202.069 29.1517 202.456 28.5931 202.956 28.1228C203.465 27.6427 204.058 27.2752 204.734 27.0205C205.41 26.7559 206.15 26.6236 206.954 26.6236C207.826 26.6236 208.609 26.7657 209.305 27.0499C210.011 27.334 210.603 27.7505 211.084 28.2992L209.878 29.475C209.477 29.0733 209.041 28.7793 208.57 28.5931C208.11 28.3972 207.6 28.2992 207.042 28.2992C206.503 28.2992 206.003 28.3874 205.543 28.5637C205.082 28.7401 204.685 28.99 204.352 29.3133C204.019 29.6367 203.759 30.0188 203.573 30.4598C203.397 30.9007 203.308 31.3857 203.308 31.9148C203.308 32.4342 203.397 32.9143 203.573 33.3552C203.759 33.7962 204.019 34.1832 204.352 34.5164C204.685 34.8397 205.077 35.0896 205.528 35.2659C205.979 35.4423 206.478 35.5305 207.027 35.5305C207.537 35.5305 208.026 35.4521 208.497 35.2953C208.977 35.1288 209.433 34.8544 209.864 34.4723L210.951 35.898C210.412 36.3291 209.785 36.6573 209.07 36.8827C208.364 37.0983 207.649 37.2061 206.924 37.2061ZM209.143 35.6481V31.7973H210.951V35.898L209.143 35.6481ZM216.823 37.162C216.019 37.162 215.304 36.9905 214.677 36.6475C214.05 36.2948 213.555 35.8147 213.192 35.2072C212.83 34.5996 212.648 33.9089 212.648 33.1348C212.648 32.3509 212.83 31.6601 213.192 31.0624C213.555 30.4549 214.05 29.9796 214.677 29.6367C215.304 29.2937 216.019 29.1223 216.823 29.1223C217.636 29.1223 218.356 29.2937 218.983 29.6367C219.62 29.9796 220.115 30.45 220.468 31.0477C220.83 31.6454 221.011 32.3411 221.011 33.1348C221.011 33.9089 220.83 34.5996 220.468 35.2072C220.115 35.8147 219.62 36.2948 218.983 36.6475C218.356 36.9905 217.636 37.162 216.823 37.162ZM216.823 35.5893C217.273 35.5893 217.675 35.4913 218.028 35.2953C218.38 35.0994 218.655 34.8152 218.851 34.4429C219.057 34.0705 219.159 33.6345 219.159 33.1348C219.159 32.6252 219.057 32.1892 218.851 31.8267C218.655 31.4543 218.38 31.1702 218.028 30.9742C217.675 30.7782 217.278 30.6802 216.837 30.6802C216.386 30.6802 215.985 30.7782 215.632 30.9742C215.289 31.1702 215.015 31.4543 214.809 31.8267C214.603 32.1892 214.5 32.6252 214.5 33.1348C214.5 33.6345 214.603 34.0705 214.809 34.4429C215.015 34.8152 215.289 35.0994 215.632 35.2953C215.985 35.4913 216.382 35.5893 216.823 35.5893ZM226.296 37.162C225.492 37.162 224.777 36.9905 224.15 36.6475C223.523 36.2948 223.028 35.8147 222.665 35.2072C222.303 34.5996 222.122 33.9089 222.122 33.1348C222.122 32.3509 222.303 31.6601 222.665 31.0624C223.028 30.4549 223.523 29.9796 224.15 29.6367C224.777 29.2937 225.492 29.1223 226.296 29.1223C227.109 29.1223 227.829 29.2937 228.456 29.6367C229.093 29.9796 229.588 30.45 229.941 31.0477C230.303 31.6454 230.485 32.3411 230.485 33.1348C230.485 33.9089 230.303 34.5996 229.941 35.2072C229.588 35.8147 229.093 36.2948 228.456 36.6475C227.829 36.9905 227.109 37.162 226.296 37.162ZM226.296 35.5893C226.746 35.5893 227.148 35.4913 227.501 35.2953C227.854 35.0994 228.128 34.8152 228.324 34.4429C228.53 34.0705 228.633 33.6345 228.633 33.1348C228.633 32.6252 228.53 32.1892 228.324 31.8267C228.128 31.4543 227.854 31.1702 227.501 30.9742C227.148 30.7782 226.751 30.6802 226.31 30.6802C225.86 30.6802 225.458 30.7782 225.105 30.9742C224.762 31.1702 224.488 31.4543 224.282 31.8267C224.076 32.1892 223.973 32.6252 223.973 33.1348C223.973 33.6345 224.076 34.0705 224.282 34.4429C224.488 34.8152 224.762 35.0994 225.105 35.2953C225.458 35.4913 225.855 35.5893 226.296 35.5893ZM235.563 37.162C234.809 37.162 234.128 36.9954 233.52 36.6622C232.922 36.3193 232.452 35.849 232.109 35.2513C231.766 34.6535 231.595 33.948 231.595 33.1348C231.595 32.3215 231.766 31.616 232.109 31.0183C232.452 30.4206 232.922 29.9551 233.52 29.622C234.128 29.2888 234.809 29.1223 235.563 29.1223C236.22 29.1223 236.808 29.2692 237.327 29.5632C237.846 29.8474 238.258 30.2834 238.561 30.8713C238.865 31.4592 239.017 32.2137 239.017 33.1348C239.017 34.046 238.87 34.8005 238.576 35.3982C238.282 35.9861 237.876 36.4271 237.356 36.721C236.837 37.015 236.239 37.162 235.563 37.162ZM235.784 35.5893C236.225 35.5893 236.616 35.4913 236.959 35.2953C237.312 35.0994 237.591 34.8152 237.797 34.4429C238.013 34.0705 238.121 33.6345 238.121 33.1348C238.121 32.6252 238.013 32.1892 237.797 31.8267C237.591 31.4543 237.312 31.1702 236.959 30.9742C236.616 30.7782 236.225 30.6802 235.784 30.6802C235.343 30.6802 234.946 30.7782 234.593 30.9742C234.25 31.1702 233.971 31.4543 233.755 31.8267C233.55 32.1892 233.447 32.6252 233.447 33.1348C233.447 33.6345 233.55 34.0705 233.755 34.4429C233.971 34.8152 234.25 35.0994 234.593 35.2953C234.946 35.4913 235.343 35.5893 235.784 35.5893ZM238.165 37.0591V35.2072L238.238 33.1201L238.091 31.033V26.1533H239.914V37.0591H238.165ZM250.744 37.162C250.078 37.162 249.485 37.015 248.966 36.721C248.447 36.4271 248.035 35.9861 247.731 35.3982C247.437 34.8005 247.29 34.046 247.29 33.1348C247.29 32.2137 247.442 31.4592 247.746 30.8713C248.06 30.2834 248.476 29.8474 248.995 29.5632C249.524 29.2692 250.107 29.1223 250.744 29.1223C251.518 29.1223 252.199 29.2888 252.787 29.622C253.385 29.9551 253.855 30.4206 254.198 31.0183C254.551 31.616 254.727 32.3215 254.727 33.1348C254.727 33.948 254.551 34.6535 254.198 35.2513C253.855 35.849 253.385 36.3193 252.787 36.6622C252.199 36.9954 251.518 37.162 250.744 37.162ZM246.394 37.0591V26.1533H248.231V31.033L248.084 33.1201L248.143 35.2072V37.0591H246.394ZM250.539 35.5893C250.98 35.5893 251.371 35.4913 251.714 35.2953C252.067 35.0994 252.346 34.8152 252.552 34.4429C252.758 34.0705 252.861 33.6345 252.861 33.1348C252.861 32.6252 252.758 32.1892 252.552 31.8267C252.346 31.4543 252.067 31.1702 251.714 30.9742C251.371 30.7782 250.98 30.6802 250.539 30.6802C250.098 30.6802 249.701 30.7782 249.348 30.9742C248.995 31.1702 248.716 31.4543 248.51 31.8267C248.305 32.1892 248.202 32.6252 248.202 33.1348C248.202 33.6345 248.305 34.0705 248.51 34.4429C248.716 34.8152 248.995 35.0994 249.348 35.2953C249.701 35.4913 250.098 35.5893 250.539 35.5893ZM256.901 40.0133C256.519 40.0133 256.137 39.9497 255.755 39.8223C255.373 39.6949 255.054 39.5185 254.799 39.2931L255.534 37.941C255.721 38.1075 255.931 38.2398 256.166 38.3378C256.402 38.4358 256.642 38.4848 256.887 38.4848C257.22 38.4848 257.489 38.4015 257.695 38.2349C257.901 38.0683 258.092 37.7891 258.268 37.3971L258.724 36.3683L258.871 36.1478L261.84 29.2105H263.603L259.929 37.6911C259.684 38.279 259.41 38.7444 259.106 39.0874C258.812 39.4303 258.479 39.6704 258.106 39.8076C257.744 39.9448 257.342 40.0133 256.901 40.0133ZM258.518 37.3383L254.976 29.2105H256.887L259.767 35.9861L258.518 37.3383ZM268.226 37.162C267.353 37.162 266.589 36.9905 265.933 36.6475C265.286 36.2948 264.781 35.8147 264.419 35.2072C264.066 34.5996 263.89 33.9089 263.89 33.1348C263.89 32.3509 264.061 31.6601 264.404 31.0624C264.757 30.4549 265.237 29.9796 265.845 29.6367C266.462 29.2937 267.162 29.1223 267.946 29.1223C268.711 29.1223 269.392 29.2888 269.989 29.622C270.587 29.9551 271.057 30.4255 271.4 31.033C271.743 31.6405 271.915 32.3558 271.915 33.1789C271.915 33.2572 271.91 33.3454 271.9 33.4434C271.9 33.5414 271.895 33.6345 271.885 33.7227H265.345V32.5028H270.915L270.195 32.8849C270.205 32.4342 270.112 32.0373 269.916 31.6944C269.72 31.3514 269.45 31.082 269.107 30.886C268.774 30.69 268.387 30.592 267.946 30.592C267.496 30.592 267.099 30.69 266.756 30.886C266.423 31.082 266.158 31.3563 265.962 31.7091C265.776 32.052 265.683 32.4587 265.683 32.929V33.223C265.683 33.6933 265.791 34.1097 266.006 34.4723C266.222 34.8348 266.526 35.1141 266.917 35.31C267.309 35.506 267.76 35.604 268.27 35.604C268.711 35.604 269.107 35.5354 269.46 35.3982C269.813 35.2611 270.126 35.0455 270.401 34.7515L271.386 35.8833C271.033 36.2948 270.587 36.6132 270.048 36.8386C269.519 37.0542 268.911 37.162 268.226 37.162ZM273.797 33.6492L273.444 26.7706H275.62L275.252 33.6492H273.797ZM274.532 37.162C274.189 37.162 273.905 37.0493 273.679 36.8239C273.454 36.5986 273.341 36.3291 273.341 36.0155C273.341 35.702 273.454 35.4374 273.679 35.2219C273.905 34.9965 274.189 34.8838 274.532 34.8838C274.875 34.8838 275.154 34.9965 275.37 35.2219C275.585 35.4374 275.693 35.702 275.693 36.0155C275.693 36.3291 275.585 36.5986 275.37 36.8239C275.154 37.0493 274.875 37.162 274.532 37.162ZM277.888 33.6492L277.535 26.7706H279.71L279.343 33.6492H277.888ZM278.623 37.162C278.28 37.162 277.996 37.0493 277.77 36.8239C277.545 36.5986 277.432 36.3291 277.432 36.0155C277.432 35.702 277.545 35.4374 277.77 35.2219C277.996 34.9965 278.28 34.8838 278.623 34.8838C278.966 34.8838 279.245 34.9965 279.46 35.2219C279.676 35.4374 279.784 35.702 279.784 36.0155C279.784 36.3291 279.676 36.5986 279.46 36.8239C279.245 37.0493 278.966 37.162 278.623 37.162ZM281.978 33.6492L281.626 26.7706H283.801L283.434 33.6492H281.978ZM282.713 37.162C282.37 37.162 282.086 37.0493 281.861 36.8239C281.636 36.5986 281.523 36.3291 281.523 36.0155C281.523 35.702 281.636 35.4374 281.861 35.2219C282.086 34.9965 282.37 34.8838 282.713 34.8838C283.056 34.8838 283.336 34.9965 283.551 35.2219C283.767 35.4374 283.874 35.702 283.874 36.0155C283.874 36.3291 283.767 36.5986 283.551 36.8239C283.336 37.0493 283.056 37.162 282.713 37.162Z" fill="#554AF0"/>
<path d="M197.085 48.9942C197.085 47.4248 198.357 46.1526 199.927 46.1526H209.332C211.767 46.1526 213.074 49.0151 211.48 50.8552L202.074 61.708C200.351 63.6958 197.085 62.4774 197.085 59.8469V48.9942Z" fill="#EBEBFE"/>
<defs>
<clipPath id="clip0_2276_24115">
<rect width="338.388" height="280.862" fill="white" transform="translate(5.58789 8.5249)"/>
</clipPath>
</defs>
</svg>
