<svg width="97" height="96" viewBox="0 0 97 96" fill="none" xmlns="http://www.w3.org/2000/svg">
<path d="M44.8428 20.4705C61.4053 20.4705 74.8319 33.897 74.8319 50.4596H44.8428V20.4705Z" fill="#9992F6"/>
<path fill-rule="evenodd" clip-rule="evenodd" d="M32.9285 0C15.2512 0 0.920898 14.3303 0.920898 32.0076V63.1502C0.920898 80.8275 15.2512 95.1578 32.9285 95.1578H48.4998V95.1563H64.0713C81.7486 95.1563 96.0789 80.826 96.0789 63.1487V56.2281C96.0789 51.4505 92.2058 47.5774 87.4282 47.5774H48.4998V8.65071C48.4998 3.87305 44.6267 0 39.8491 0L32.9285 0Z" fill="#F5F5F5"/>
<path fill-rule="evenodd" clip-rule="evenodd" d="M47.4993 95.1559C48.1543 92.3305 48.5005 89.3867 48.5005 86.3621C48.5005 64.9423 31.1363 47.5781 9.71653 47.5781C6.69125 47.5781 3.74688 47.9245 0.920898 48.5798V63.1483C0.920898 80.8256 15.2512 95.1559 32.9285 95.1559H47.4993Z" fill="#FAAD14"/>
</svg>
