<svg width="17" height="18" viewBox="0 0 17 18" fill="none" xmlns="http://www.w3.org/2000/svg">
<path d="M8.82568 2.37695H7.72153C7.62339 2.37695 7.57431 2.42603 7.57431 2.52417V8.30253H2.09082C1.99268 8.30253 1.9436 8.35161 1.9436 8.44975V9.5539C1.9436 9.65204 1.99268 9.70112 2.09082 9.70112H7.57431V15.4795C7.57431 15.5776 7.62339 15.6267 7.72153 15.6267H8.82568C8.92382 15.6267 8.9729 15.5776 8.9729 15.4795V9.70112H14.4572C14.5554 9.70112 14.6045 9.65204 14.6045 9.5539V8.44975C14.6045 8.35161 14.5554 8.30253 14.4572 8.30253H8.9729V2.52417C8.9729 2.42603 8.92382 2.37695 8.82568 2.37695Z" fill="#666666"/>
</svg>
