<svg width="10" height="10" viewBox="0 0 10 10" fill="none" xmlns="http://www.w3.org/2000/svg">
<path d="M5.22174 1.14062H4.57888C4.52174 1.14062 4.49316 1.1692 4.49316 1.22634V4.59063H1.30056C1.24342 4.59063 1.21484 4.6192 1.21484 4.67634V5.3192C1.21484 5.37634 1.24342 5.40491 1.30056 5.40491H4.49316V8.7692C4.49316 8.82634 4.52174 8.85491 4.57888 8.85491H5.22174C5.27888 8.85491 5.30745 8.82634 5.30745 8.7692V5.40491H8.50056C8.5577 5.40491 8.58627 5.37634 8.58627 5.3192V4.67634C8.58627 4.6192 8.5577 4.59063 8.50056 4.59063H5.30745V1.22634C5.30745 1.1692 5.27888 1.14062 5.22174 1.14062Z" fill="white"/>
</svg>
