<svg width="97" height="97" viewBox="0 0 97 97" fill="none" xmlns="http://www.w3.org/2000/svg">
<circle cx="48.5" cy="48.5" r="48.5" fill="#554AF0"/>
<path d="M67.1136 62.2514C66.1482 59.9647 64.7472 57.8875 62.9887 56.1357C61.2356 54.3789 59.1588 52.9781 56.8731 52.0109C56.8526 52.0006 56.8321 51.9955 56.8117 51.9853C60 49.6823 62.0727 45.9311 62.0727 41.6987C62.0727 34.6875 56.392 29.0068 49.3808 29.0068C42.3695 29.0068 36.6889 34.6875 36.6889 41.6987C36.6889 45.9311 38.7616 49.6823 41.9499 51.9904C41.9294 52.0006 41.9089 52.0058 41.8885 52.016C39.5958 52.9832 37.5384 54.3701 35.7728 56.1409C34.016 57.894 32.6152 59.9708 31.648 62.2565C30.6977 64.4942 30.1852 66.8934 30.1383 69.324C30.1369 69.3787 30.1465 69.433 30.1664 69.4839C30.1864 69.5347 30.2163 69.5811 30.2545 69.6202C30.2926 69.6593 30.3382 69.6904 30.3886 69.7116C30.4389 69.7328 30.493 69.7437 30.5477 69.7437H33.6183C33.8435 69.7437 34.0226 69.5646 34.0277 69.3445C34.1301 65.3937 35.7165 61.6936 38.521 58.8891C41.4228 55.9873 45.2764 54.3906 49.3808 54.3906C53.4852 54.3906 57.3388 55.9873 60.2405 58.8891C63.045 61.6936 64.6315 65.3937 64.7339 69.3445C64.739 69.5697 64.9181 69.7437 65.1433 69.7437H68.2139C68.2685 69.7437 68.3226 69.7328 68.373 69.7116C68.4233 69.6904 68.4689 69.6593 68.5071 69.6202C68.5452 69.5811 68.5752 69.5347 68.5951 69.4839C68.6151 69.433 68.6247 69.3787 68.6233 69.324C68.5721 66.8778 68.0655 64.4981 67.1136 62.2514ZM49.3808 50.5012C47.0318 50.5012 44.8209 49.5851 43.1577 47.9218C41.4944 46.2586 40.5783 44.0477 40.5783 41.6987C40.5783 39.3497 41.4944 37.1389 43.1577 35.4756C44.8209 33.8124 47.0318 32.8963 49.3808 32.8963C51.7298 32.8963 53.9406 33.8124 55.6039 35.4756C57.2671 37.1389 58.1832 39.3497 58.1832 41.6987C58.1832 44.0477 57.2671 46.2586 55.6039 47.9218C53.9406 49.5851 51.7298 50.5012 49.3808 50.5012Z" fill="white"/>
</svg>
