<svg width="16" height="16" viewBox="0 0 16 16" fill="none" xmlns="http://www.w3.org/2000/svg">
<path d="M13.9999 11.334C13.6319 11.334 13.3333 11.6327 13.3333 12.0007V14.0007H2.66659V12.0007C2.66659 11.6327 2.36792 11.334 1.99992 11.334C1.63192 11.334 1.33325 11.6327 1.33325 12.0007V14.6007C1.33325 15.0053 1.66192 15.334 2.06659 15.334H13.9333C14.3379 15.334 14.6666 15.0053 14.6666 14.6007V12.0007C14.6666 11.6327 14.3679 11.334 13.9999 11.334Z" fill="#030D1C"/>
<path d="M8.51851 1.54865C8.37984 1.40998 8.19584 1.33398 7.99984 1.33398C7.80384 1.33398 7.61984 1.40998 7.48117 1.54865L3.52851 5.50132C3.26784 5.76198 3.26784 6.18398 3.52851 6.44398C3.78917 6.70465 4.21117 6.70465 4.47117 6.44398L7.33317 3.58265V11.7067C7.33317 12.0747 7.63184 12.3733 7.99984 12.3733C8.36784 12.3733 8.66651 12.0747 8.66651 11.7067V3.58265L11.5285 6.44465C11.7892 6.70532 12.2112 6.70532 12.4712 6.44465C12.7312 6.18398 12.7312 5.76198 12.4712 5.50198L8.51851 1.54865Z" fill="#030D1C"/>
</svg>
