<svg width="323" height="242" viewBox="0 0 323 242" fill="none" xmlns="http://www.w3.org/2000/svg">
<path d="M71.9982 31.5134H21.6415C19.5585 31.5134 17.8699 33.202 17.8699 35.285L17.8699 85.6417C17.8699 87.7247 19.5585 89.4133 21.6415 89.4133H71.9982C74.0812 89.4133 75.7698 87.7247 75.7698 85.6417V35.285C75.7698 33.202 74.0812 31.5134 71.9982 31.5134Z" fill="#D6E4FF"/>
<path d="M257.044 92.5078H58.9788V177.793H257.044V92.5078Z" fill="#253368"/>
<path d="M150.492 19.9823L59.0676 92.4993L251.857 97.4874C252.271 97.4866 252.684 97.4403 253.089 97.3494C255.508 96.7427 257.195 94.9913 257.167 92.4993L162.829 19.7448C159.079 17.3052 154.242 17.5428 150.492 19.9823Z" fill="#253368"/>
<path d="M60.7303 221.715L157.88 169.221" stroke="white" stroke-width="1.27291"/>
<path d="M255.504 221.953L158.355 168.746" stroke="white" stroke-width="1.27291"/>
<path d="M232.328 80.1478H84.1446C83.0198 80.1478 82.1079 81.0597 82.1079 82.1845V181.436C82.1079 182.561 83.0198 183.473 84.1446 183.473H232.328C233.452 183.473 234.364 182.561 234.364 181.436V82.1845C234.364 81.0597 233.452 80.1478 232.328 80.1478Z" fill="white"/>
<path d="M163.33 168.312C160.059 169.405 156.467 168.943 153.579 167.058L58.8301 92.4993V218.104C58.8301 220.886 61.5701 223.14 64.4996 223.14H251.854C254.788 223.14 257.167 220.886 257.167 218.104V92.4993L166.689 166.463C165.686 167.27 164.549 167.896 163.33 168.312Z" fill="#CCD7EE"/>
<path d="M204.064 94.9971H138.737C137.248 94.9971 136.042 95.9303 136.042 97.0814V100.692C136.042 101.843 137.248 102.776 138.737 102.776H204.064C205.553 102.776 206.759 101.843 206.759 100.692V97.0814C206.759 95.9303 205.553 94.9971 204.064 94.9971Z" fill="#ADC6FF"/>
<path d="M204.118 110.319H140.097C138.639 110.319 137.456 111.224 137.456 112.34V115.841C137.456 116.957 138.639 117.862 140.097 117.862H204.118C205.577 117.862 206.759 116.957 206.759 115.841V112.34C206.759 111.224 205.577 110.319 204.118 110.319Z" fill="#ADC6FF"/>
<path fill-rule="evenodd" clip-rule="evenodd" d="M265.219 29.694C238.526 29.694 216.888 51.3324 216.888 78.0249C216.888 104.717 238.526 126.356 265.219 126.356C291.911 126.356 313.55 104.717 313.55 78.0249C313.55 51.3324 291.911 29.694 265.219 29.694Z" fill="#554AF0"/>
<path fill-rule="evenodd" clip-rule="evenodd" d="M257.431 94.4425L254.38 91.3912L283.948 61.715C284.959 60.7039 286.599 60.7039 287.61 61.715L288.83 62.9355C289.841 63.9467 289.841 65.586 288.83 66.5972L261.093 94.4425C260.082 95.4537 258.442 95.4537 257.431 94.4425Z" fill="white"/>
<path fill-rule="evenodd" clip-rule="evenodd" d="M264.139 91.3913L261.087 94.4426C260.076 95.4537 258.437 95.4537 257.426 94.4426L245.275 82.2923C244.264 81.2812 244.264 79.6419 245.275 78.6307L246.496 77.4102C247.507 76.3991 249.146 76.3991 250.158 77.4102L264.139 91.3913Z" fill="white"/>
<path d="M114.604 110.898C114.564 110.858 114.509 110.835 114.452 110.835C114.396 110.835 114.341 110.858 114.301 110.898L111.182 114.016C109.739 115.46 107.302 115.613 105.708 114.016C104.112 112.419 104.264 109.985 105.708 108.542L108.826 105.424C108.91 105.34 108.91 105.203 108.826 105.12L107.758 104.052C107.718 104.012 107.664 103.99 107.607 103.99C107.55 103.99 107.495 104.012 107.455 104.052L104.337 107.17C102.067 109.441 102.067 113.114 104.337 115.382C106.607 117.649 110.281 117.652 112.548 115.382L115.667 112.264C115.75 112.18 115.75 112.044 115.667 111.96L114.604 110.898ZM121.543 98.1781C119.273 95.9079 115.599 95.9079 113.332 98.1781L110.211 101.296C110.171 101.337 110.149 101.391 110.149 101.448C110.149 101.505 110.171 101.559 110.211 101.6L111.276 102.665C111.36 102.748 111.496 102.748 111.58 102.665L114.698 99.5467C116.142 98.103 118.578 97.95 120.172 99.5467C121.769 101.143 121.616 103.577 120.172 105.021L117.054 108.139C117.014 108.18 116.992 108.234 116.992 108.291C116.992 108.348 117.014 108.402 117.054 108.442L118.122 109.51C118.205 109.594 118.342 109.594 118.425 109.51L121.543 106.392C123.811 104.122 123.811 100.448 121.543 98.1781ZM115.573 103.033C115.532 102.993 115.478 102.97 115.421 102.97C115.364 102.97 115.31 102.993 115.269 103.033L109.191 109.108C109.151 109.148 109.129 109.203 109.129 109.26C109.129 109.316 109.151 109.371 109.191 109.411L110.254 110.474C110.337 110.557 110.474 110.557 110.557 110.474L116.633 104.398C116.716 104.315 116.716 104.178 116.633 104.095L115.573 103.033Z" fill="#ADC6FF" fill-opacity="0.85"/>
<path fill-rule="evenodd" clip-rule="evenodd" d="M35.1184 196.948C35.1184 211.612 47.0062 223.5 61.6706 223.5C76.3349 223.5 88.2228 211.612 88.2228 196.948C88.2228 182.284 76.3349 170.396 61.6706 170.396C47.0062 170.396 35.1184 182.284 35.1184 196.948Z" fill="#FABB18"/>
<path fill-rule="evenodd" clip-rule="evenodd" d="M61.7443 196.432C62.3091 196.432 62.767 196.877 62.767 197.426L62.7669 200.697C63.3473 201.045 63.7358 201.68 63.7358 202.406C63.7358 203.506 62.8441 204.397 61.7443 204.397C60.6445 204.397 59.7529 203.506 59.7529 202.406C59.7529 201.68 60.1414 201.045 60.7217 200.697L60.7217 197.426C60.7217 196.884 61.1689 196.442 61.7245 196.432L61.7443 196.432Z" fill="#FABB18"/>
<path d="M63.1442 201.805C63.0922 201.753 63.0219 201.724 62.9487 201.724C62.8755 201.724 62.8053 201.753 62.7532 201.805L58.7329 205.825C56.8715 207.686 53.73 207.884 51.6749 205.825C49.6163 203.766 49.8135 200.628 51.6749 198.767L55.6952 194.747C55.8025 194.639 55.8025 194.463 55.6952 194.356L54.3182 192.979C54.2662 192.927 54.1959 192.898 54.1227 192.898C54.0495 192.898 53.9793 192.927 53.9272 192.979L49.9069 196.999C46.9799 199.926 46.9799 204.662 49.9069 207.586C52.8339 210.51 57.5704 210.513 60.494 207.586L64.5143 203.566C64.6215 203.458 64.6215 203.282 64.5143 203.175L63.1442 201.805ZM72.0913 185.405C69.1643 182.478 64.4278 182.478 61.5042 185.405L57.4805 189.425C57.429 189.477 57.4001 189.548 57.4001 189.621C57.4001 189.694 57.429 189.764 57.4805 189.816L58.854 191.19C58.9613 191.297 59.1377 191.297 59.245 191.19L63.2653 187.17C65.1267 185.308 68.2682 185.111 70.3233 187.17C72.3819 189.228 72.1847 192.366 70.3233 194.228L66.303 198.248C66.2515 198.3 66.2226 198.37 66.2226 198.443C66.2226 198.517 66.2515 198.587 66.303 198.639L67.68 200.016C67.7873 200.123 67.9637 200.123 68.071 200.016L72.0913 195.996C75.0148 193.069 75.0148 188.332 72.0913 185.405ZM64.3932 191.664C64.3412 191.612 64.2709 191.584 64.1977 191.584C64.1245 191.584 64.0543 191.612 64.0022 191.664L56.1657 199.497C56.1142 199.549 56.0853 199.619 56.0853 199.692C56.0853 199.766 56.1142 199.836 56.1657 199.888L57.5358 201.258C57.6431 201.365 57.8195 201.365 57.9268 201.258L65.7598 193.425C65.8671 193.318 65.8671 193.141 65.7598 193.034L64.3932 191.664Z" fill="white"/>
<path d="M291.709 178.591H275.974C273.891 178.591 272.202 180.28 272.202 182.363L272.202 198.097C272.202 200.18 273.891 201.869 275.974 201.869H291.709C293.792 201.869 295.48 200.18 295.48 198.097V182.363C295.48 180.28 293.792 178.591 291.709 178.591Z" fill="#D6E4FF"/>
<path d="M291.9 219.651H287.804C285.721 219.651 284.033 221.34 284.033 223.423L284.033 227.519C284.033 229.602 285.721 231.29 287.804 231.29H291.9C293.983 231.29 295.672 229.602 295.672 227.519V223.423C295.672 221.34 293.983 219.651 291.9 219.651Z" fill="#FF7946"/>
<path d="M28.5955 97.7816H24.4998C22.4168 97.7816 20.7282 99.4702 20.7282 101.553L20.7282 105.649C20.7281 107.732 22.4168 109.421 24.4997 109.421H28.5955C30.6785 109.421 32.3671 107.732 32.3671 105.649V101.553C32.3671 99.4702 30.6785 97.7816 28.5955 97.7816Z" fill="#FAAD14"/>
</svg>
