<svg width="275" height="242" viewBox="0 0 275 242" fill="none" xmlns="http://www.w3.org/2000/svg">
<path d="M264.711 78.0577H250.614C248.748 78.0577 247.235 79.5705 247.235 81.4366L247.235 95.533C247.235 97.3991 248.748 98.9119 250.614 98.9119H264.711C266.577 98.9119 268.09 97.3991 268.09 95.533V81.4366C268.09 79.5705 266.577 78.0577 264.711 78.0577Z" fill="#D6E4FF"/>
<path d="M257.068 114.209H253.399C251.533 114.209 250.02 115.722 250.02 117.588L250.02 121.257C250.02 123.124 251.533 124.636 253.399 124.636H257.068C258.934 124.636 260.447 123.124 260.447 121.257V117.588C260.447 115.722 258.934 114.209 257.068 114.209Z" fill="#FF7946"/>
<path d="M64.7088 15.5614H19.5953C17.7291 15.5614 16.2164 17.0742 16.2164 18.9403L16.2163 64.0539C16.2163 65.92 17.7291 67.4328 19.5952 67.4328H64.7088C66.5749 67.4328 68.0877 65.92 68.0877 64.0539V18.9403C68.0877 17.0742 66.5749 15.5614 64.7088 15.5614Z" fill="#D6E4FF"/>
<path d="M25.8245 74.9297H22.1553C20.2892 74.9297 18.7764 76.4425 18.7764 78.3086L18.7764 81.9779C18.7764 83.844 20.2892 85.3568 22.1553 85.3568H25.8245C27.6907 85.3568 29.2034 83.844 29.2034 81.9779V78.3086C29.2034 76.4425 27.6907 74.9297 25.8245 74.9297Z" fill="#FAAD14"/>
<path d="M207.018 28.2587H203.349C201.483 28.2587 199.97 29.7714 199.97 31.6376L199.97 35.3068C199.97 37.1729 201.483 38.6857 203.349 38.6857H207.018C208.885 38.6857 210.397 37.1729 210.397 35.3068V31.6376C210.397 29.7715 208.885 28.2587 207.018 28.2587Z" fill="#FAAD14"/>
<path fill-rule="evenodd" clip-rule="evenodd" d="M47.5371 133.255C47.5371 183.64 88.3822 224.485 138.767 224.485C189.152 224.485 229.998 183.64 229.998 133.255C229.998 82.87 189.152 42.0249 138.767 42.0249C88.3822 42.0249 47.5371 82.87 47.5371 133.255Z" fill="#554AF0"/>
<path fill-rule="evenodd" clip-rule="evenodd" d="M119.323 106.661C119.323 95.9266 128.022 87.2242 138.752 87.2242C149.482 87.2242 158.181 95.9266 158.181 106.661V116.401H167.895V106.667C167.895 90.5734 154.854 77.5267 138.767 77.5267H138.767C122.681 77.5267 109.64 90.5734 109.64 106.667V116.401H119.323V106.661Z" fill="white"/>
<path fill-rule="evenodd" clip-rule="evenodd" d="M180.744 175.322H97.0448C95.0432 175.322 93.4058 173.687 93.4058 171.688V118.39C93.4058 116.391 95.0432 114.756 97.0448 114.756H180.744C182.745 114.756 184.383 116.391 184.383 118.39V171.688C184.383 173.687 182.745 175.322 180.744 175.322Z" fill="white"/>
<path fill-rule="evenodd" clip-rule="evenodd" d="M139.021 131.481C140.961 131.481 142.535 133.011 142.535 134.899L142.535 146.136C144.529 147.331 145.863 149.514 145.863 152.008C145.863 155.787 142.8 158.85 139.021 158.85C135.242 158.85 132.179 155.787 132.179 152.008C132.179 149.514 133.513 147.331 135.507 146.136L135.507 134.899C135.507 133.034 137.044 131.517 138.953 131.482L139.021 131.481Z" fill="#554AF0"/>
<path fill-rule="evenodd" clip-rule="evenodd" d="M162.014 180.454C162.014 208.845 185.029 231.86 213.42 231.86C241.811 231.86 264.826 208.845 264.826 180.454C264.826 152.063 241.811 129.048 213.42 129.048C185.029 129.048 162.014 152.063 162.014 180.454Z" fill="#FABB18"/>
<path fill-rule="evenodd" clip-rule="evenodd" d="M202.464 165.469C202.464 159.42 207.365 154.517 213.412 154.517C219.458 154.517 224.359 159.42 224.359 165.469V170.957H229.833V165.473C229.833 156.404 222.485 149.052 213.42 149.052H213.42C204.356 149.052 197.007 156.404 197.007 165.473V170.957H202.464V165.469Z" fill="white"/>
<path fill-rule="evenodd" clip-rule="evenodd" d="M237.073 204.158H189.91C188.783 204.158 187.86 203.237 187.86 202.11V172.078C187.86 170.952 188.783 170.03 189.91 170.03H237.073C238.2 170.03 239.123 170.952 239.123 172.078V202.11C239.123 203.237 238.2 204.158 237.073 204.158Z" fill="white"/>
<path fill-rule="evenodd" clip-rule="evenodd" d="M213.562 179.455C214.656 179.455 215.542 180.317 215.542 181.38L215.542 187.712C216.666 188.386 217.418 189.615 217.418 191.021C217.418 193.15 215.692 194.876 213.562 194.876C211.433 194.876 209.707 193.15 209.707 191.021C209.707 189.615 210.459 188.386 211.583 187.712L211.583 181.38C211.583 180.329 212.448 179.475 213.524 179.455L213.562 179.455Z" fill="#FABB18"/>
<path fill-rule="evenodd" clip-rule="evenodd" d="M67.1615 225.157C50.8045 226.208 36.6923 213.801 35.6409 197.444C34.5896 181.087 46.9973 166.975 63.3542 165.923C79.7112 164.872 93.8234 177.28 94.8747 193.636C95.9261 209.993 83.5185 224.106 67.1615 225.157Z" fill="#ADC6FF"/>
<path fill-rule="evenodd" clip-rule="evenodd" d="M63.7675 191.288C63.9889 194.732 61.3767 197.703 57.9331 197.924C54.4896 198.145 51.5186 195.533 51.2972 192.09C51.0759 188.646 53.6881 185.675 57.1316 185.454C60.5752 185.232 63.5462 187.845 63.7675 191.288Z" fill="white"/>
<path fill-rule="evenodd" clip-rule="evenodd" d="M78.6625 190.331C78.8839 193.774 76.2718 196.745 72.8282 196.967C69.3846 197.188 66.4136 194.576 66.1923 191.132C65.9709 187.689 68.5831 184.718 72.0266 184.496C75.4703 184.275 78.4412 186.887 78.6625 190.331Z" fill="white"/>
<path fill-rule="evenodd" clip-rule="evenodd" d="M60.2921 191.338C60.3843 192.772 59.2959 194.01 57.8611 194.103C56.4263 194.195 55.1884 193.106 55.0962 191.672C55.004 190.237 56.0923 188.999 57.5272 188.907C58.9619 188.814 60.1999 189.903 60.2921 191.338Z" fill="#253368"/>
<path fill-rule="evenodd" clip-rule="evenodd" d="M74.8409 190.402C74.9331 191.837 73.8448 193.075 72.4099 193.167C70.9752 193.26 69.7372 192.171 69.645 190.736C69.5528 189.302 70.6412 188.064 72.076 187.971C73.5108 187.879 74.7487 188.968 74.8409 190.402Z" fill="#253368"/>
<path fill-rule="evenodd" clip-rule="evenodd" d="M55.1611 203.55C54.8725 203.052 55.0417 202.415 55.5392 202.127C56.0367 201.838 56.6738 202.007 56.9625 202.505C58.6182 205.359 62.1585 207.044 65.9817 206.798C69.805 206.552 73.1003 204.428 74.3771 201.385C74.5997 200.855 75.2098 200.606 75.7404 200.828C76.2707 201.051 76.5201 201.661 76.2975 202.191C74.7174 205.956 70.7207 208.58 66.1153 208.876C61.5099 209.172 57.21 207.082 55.1611 203.55Z" fill="#253368"/>
</svg>
