<svg width="273" height="270" viewBox="0 0 273 270" fill="none" xmlns="http://www.w3.org/2000/svg">
<g clip-path="url(#clip0_700_39319)">
<path fill-rule="evenodd" clip-rule="evenodd" d="M76.6193 42.9791C51.3125 42.9791 30.7969 63.568 30.7969 88.9652C30.7969 114.362 51.3125 134.951 76.6193 134.951C101.925 134.951 122.442 114.362 122.442 88.9652C122.442 63.568 101.925 42.9791 76.6193 42.9791Z" fill="#597EF7"/>
<mask id="mask0_700_39319" style="mask-type:alpha" maskUnits="userSpaceOnUse" x="30" y="43" width="93" height="93">
<path d="M76.6193 43.2336C51.3125 43.2336 30.7969 63.8225 30.7969 89.2197C30.7969 114.618 51.3125 135.206 76.6193 135.206C101.926 135.206 122.441 114.618 122.441 89.2197" fill="white"/>
</mask>
<g mask="url(#mask0_700_39319)">
<path fill-rule="evenodd" clip-rule="evenodd" d="M105.719 130.45C113.015 130.45 119.641 127.646 124.647 123.083C123.363 113.892 115.519 101.395 106.005 101.395C96.3343 101.395 88.375 114.126 87.2944 123.541C92.2383 127.835 98.6684 130.45 105.719 130.45Z" fill="#A8C1EF"/>
<path fill-rule="evenodd" clip-rule="evenodd" d="M117.015 91.8955C117.015 98.017 112.071 102.979 105.971 102.979C99.871 102.979 94.9263 98.017 94.9263 91.8955C94.9263 85.7741 99.871 80.8118 105.971 80.8118C112.071 80.8118 117.015 85.7741 117.015 91.8955Z" fill="#E4EBF7"/>
<path fill-rule="evenodd" clip-rule="evenodd" d="M27.6255 122.458C32.5694 126.751 38.9995 129.367 46.0504 129.367C53.3465 129.367 59.9723 126.562 64.9781 122C63.694 112.809 55.8498 101.396 46.3362 101.396C36.6653 101.396 28.706 113.043 27.6255 122.458Z" fill="#A8C1EF"/>
<path fill-rule="evenodd" clip-rule="evenodd" d="M57.3465 91.8955C57.3465 98.0169 52.4025 102.979 46.3029 102.979C40.2017 102.979 35.2578 98.0169 35.2578 91.8955C35.2578 85.7741 40.2017 80.8118 46.3029 80.8118C52.4025 80.8118 57.3465 85.7741 57.3465 91.8955Z" fill="#E4EBF7"/>
<path fill-rule="evenodd" clip-rule="evenodd" d="M49.9062 126.767C57.1718 133.077 66.6227 136.92 76.985 136.92C87.7059 136.92 97.4442 132.799 104.801 126.095C102.915 112.586 91.3861 96.6389 77.4055 96.6389C63.1915 96.6389 51.4934 112.929 49.9062 126.767Z" fill="#CCD7EE"/>
<path fill-rule="evenodd" clip-rule="evenodd" d="M93.5856 85.2057C93.5856 94.2024 86.3185 101.495 77.3546 101.495C68.3892 101.495 61.1221 94.2024 61.1221 85.2057C61.1221 76.209 68.3892 68.9167 77.3546 68.9167C86.3185 68.9167 93.5856 76.209 93.5856 85.2057Z" fill="white"/>
</g>
<path fill-rule="evenodd" clip-rule="evenodd" d="M159.656 279.354C158.751 263.333 157.654 246.781 156.479 233.634C156.479 233.634 154.015 224.218 145.412 226.439C136.98 228.617 137.728 239.401 137.728 239.401L144.373 281.563C144.373 281.563 145.532 288.417 153.153 287.179C160.103 286.049 159.656 279.354 159.656 279.354Z" fill="#597EF7"/>
<path fill-rule="evenodd" clip-rule="evenodd" d="M117.61 281.016C118.141 264.978 118.853 248.405 119.721 235.235C119.721 235.235 121.966 225.764 130.618 227.784C139.099 229.764 138.601 240.564 138.601 240.564L132.939 282.868C132.939 282.868 131.941 289.748 124.293 288.687C117.318 287.72 117.61 281.016 117.61 281.016Z" fill="#597EF7"/>
<path fill-rule="evenodd" clip-rule="evenodd" d="M144.935 163.01L144.499 153.852L132.351 153.859L132.054 163.074C131.921 166.641 134.756 169.615 138.325 169.654C138.393 169.654 138.461 169.655 138.529 169.656C142.179 169.698 145.11 166.655 144.935 163.01Z" fill="#C99382"/>
<path fill-rule="evenodd" clip-rule="evenodd" d="M147.073 165.269L146.298 163.034L131.225 163.445L130.62 165.562C130.62 165.562 121.885 163.655 117.593 170.4C114.897 174.638 121.199 200.107 121.305 205.793C118.74 212.586 122.468 214.656 122.468 214.656L153.037 214.289C153.037 214.289 156.536 211.971 153.541 207.304C154.768 198.955 161.049 176.578 159.022 172.457C154.994 164.269 147.073 165.269 147.073 165.269Z" fill="#ADC6FF"/>
<path d="M145.905 165.562C146.032 165.55 146.144 165.642 146.156 165.769C146.168 165.895 146.075 166.007 145.949 166.019C144.942 166.115 143.865 166.195 142.727 166.262C139.253 166.465 135.616 166.523 132.434 166.498L131.253 166.484C131.126 166.481 131.025 166.376 131.028 166.249C131.031 166.123 131.135 166.022 131.262 166.024L131.912 166.033C135.207 166.069 139.046 166.016 142.7 165.803C143.833 165.737 144.904 165.657 145.905 165.562Z" fill="#597EF7"/>
<path fill-rule="evenodd" clip-rule="evenodd" d="M156.724 236.07C155.745 225.712 154.224 220.883 153.063 218.937C128.098 219.65 121.88 219.322 121.88 219.322C121.88 219.322 119.743 225.367 119.436 237.527C119.436 237.527 128.161 248.27 138.079 248.27C147.022 248.27 156.724 236.07 156.724 236.07Z" fill="#597EF7"/>
<path fill-rule="evenodd" clip-rule="evenodd" d="M153.063 218.937L152.591 214.239L122.022 214.605L121.88 219.311C121.88 219.311 138.058 219.933 153.063 218.937Z" fill="#597EF7"/>
<path d="M135.438 219.637C135.568 219.64 135.671 219.747 135.668 219.877L135.647 221.173C135.643 221.434 135.64 221.711 135.636 222.003C135.583 226.39 135.588 231.107 135.691 235.535L135.707 236.178C135.835 241.178 136.082 245.164 136.471 247.774C136.49 247.902 136.402 248.022 136.273 248.041C136.145 248.06 136.025 247.972 136.006 247.843L135.957 247.5C135.577 244.75 135.339 240.649 135.221 235.545C135.127 231.481 135.115 227.174 135.154 223.102L135.183 220.787L135.198 219.867C135.201 219.738 135.308 219.634 135.438 219.637Z" fill="#253368"/>
<path d="M139.802 219.738C139.931 219.738 140.036 219.844 140.036 219.974L140.036 221.46C140.038 222.164 140.043 222.964 140.052 223.837C140.073 225.856 140.112 227.853 140.171 229.742L140.192 230.368C140.295 233.336 140.445 235.799 140.65 237.585L140.671 237.767L140.672 237.813C140.537 239.531 139.576 240.579 138.083 241.072C137.262 241.344 136.408 241.413 135.678 241.372L135.565 241.364C135.556 241.363 135.548 241.362 135.542 241.362C135.413 241.349 135.319 241.233 135.332 241.104C135.345 240.975 135.461 240.881 135.59 240.894L135.705 240.902C136.381 240.941 137.18 240.876 137.936 240.626C139.221 240.201 140.035 239.342 140.191 237.908L140.201 237.798L140.183 237.639C140.004 236.087 139.868 234.034 139.767 231.588L139.722 230.384C139.658 228.516 139.615 226.531 139.59 224.515L139.575 223.076C139.57 222.413 139.566 221.801 139.565 221.252L139.565 219.972C139.566 219.842 139.672 219.737 139.802 219.738Z" fill="#253368"/>
<path d="M150.331 219.836C150.461 219.834 150.568 219.938 150.57 220.068L150.578 220.291C150.58 220.332 150.582 220.377 150.585 220.426C150.601 220.714 150.627 221.036 150.665 221.382C150.775 222.372 150.958 223.361 151.234 224.281C151.864 226.391 152.872 227.811 154.317 228.248C154.441 228.286 154.511 228.417 154.473 228.541C154.436 228.666 154.304 228.736 154.18 228.698C152.55 228.204 151.454 226.662 150.783 224.416C150.499 223.465 150.31 222.45 150.198 221.434C150.167 221.15 150.143 220.882 150.127 220.634L150.105 220.251C150.102 220.174 150.1 220.115 150.1 220.075C150.098 219.945 150.201 219.838 150.331 219.836Z" fill="#253368"/>
<path d="M124.614 220.38C124.731 220.379 124.828 220.464 124.847 220.575L124.851 220.621L124.849 220.864C124.844 221.163 124.829 221.557 124.797 222.019C124.73 222.989 124.608 223.954 124.417 224.858C123.916 227.228 123.03 228.795 121.622 229.161C121.497 229.193 121.368 229.118 121.336 228.992C121.303 228.866 121.379 228.738 121.504 228.705C122.682 228.4 123.49 226.97 123.957 224.76C124.143 223.88 124.263 222.936 124.328 221.987L124.345 221.724C124.367 221.341 124.377 221.018 124.38 220.774L124.38 220.617C124.379 220.487 124.484 220.381 124.614 220.38Z" fill="#253368"/>
<path d="M129.986 245.978C130.044 245.861 130.186 245.814 130.302 245.872L130.492 245.964L130.69 246.056C130.796 246.104 130.909 246.155 131.03 246.208C131.607 246.462 132.242 246.716 132.912 246.952C134.2 247.407 135.463 247.743 136.643 247.912C137.7 248.063 138.654 248.073 139.476 247.923C139.604 247.9 139.727 247.985 139.75 248.112C139.773 248.24 139.688 248.363 139.561 248.386C138.683 248.545 137.68 248.535 136.577 248.377C135.363 248.204 134.07 247.86 132.756 247.396C132.171 247.189 131.614 246.97 131.096 246.75L130.841 246.639C130.717 246.585 130.602 246.533 130.494 246.484L130.189 246.341C130.146 246.32 130.113 246.304 130.091 246.293C129.975 246.235 129.928 246.094 129.986 245.978Z" fill="#253368"/>
<path fill-rule="evenodd" clip-rule="evenodd" d="M149.501 145.294C149.501 145.294 152.604 141.763 154.404 145.103C156.116 148.275 152.592 152.607 149.605 151.737C148.3 148.764 149.501 145.294 149.501 145.294Z" fill="#C99382"/>
<path fill-rule="evenodd" clip-rule="evenodd" d="M127.879 145.294C127.879 145.294 124.777 141.763 122.976 145.103C121.265 148.275 124.788 152.607 127.775 151.737C129.08 148.764 127.879 145.294 127.879 145.294Z" fill="#C99382"/>
<path fill-rule="evenodd" clip-rule="evenodd" d="M150.775 146.043C150.775 157.013 145.325 159.913 138.604 159.913C131.883 159.913 126.894 157.128 126.434 146.043C126.01 135.846 131.883 132.422 138.604 132.422C145.325 132.422 150.775 136.413 150.775 146.043Z" fill="#C99382"/>
<path fill-rule="evenodd" clip-rule="evenodd" d="M139.576 147.251C139.602 149.467 141.42 151.241 143.635 151.215C145.85 151.188 147.625 149.37 147.598 147.155C147.572 144.94 145.754 143.165 143.539 143.192C141.324 143.219 139.549 145.036 139.576 147.251Z" fill="white"/>
<path d="M143.536 142.909C141.165 142.938 139.265 144.884 139.294 147.255C139.322 149.626 141.267 151.525 143.639 151.497C146.01 151.468 147.91 149.523 147.881 147.152C147.853 144.781 145.907 142.881 143.536 142.909ZM143.543 143.475C145.602 143.45 147.291 145.1 147.316 147.158C147.341 149.217 145.691 150.907 143.632 150.932C141.573 150.956 139.884 149.307 139.859 147.248C139.834 145.225 141.426 143.559 143.435 143.477L143.543 143.475Z" fill="#7D4556"/>
<path d="M142.606 147.445C142.589 147.584 142.472 147.691 142.329 147.693C142.186 147.695 142.066 147.59 142.046 147.452L142.043 147.414C142.042 147.182 142.084 146.869 142.218 146.551C142.452 145.991 142.901 145.636 143.577 145.628C144.248 145.62 144.722 145.938 145.006 146.456C145.168 146.751 145.239 147.042 145.257 147.247C145.271 147.403 145.156 147.54 145.001 147.554C144.845 147.568 144.708 147.453 144.694 147.298L144.687 147.248C144.682 147.216 144.674 147.175 144.662 147.126C144.629 146.989 144.579 146.853 144.511 146.728C144.321 146.382 144.031 146.188 143.584 146.193C143.152 146.199 142.892 146.404 142.739 146.77C142.682 146.905 142.645 147.053 142.625 147.203C142.617 147.258 142.613 147.306 142.61 147.345L142.606 147.445Z" fill="#7D4556"/>
<path d="M130.63 141.94C131.869 141.155 133.713 141.155 136.227 142.412C136.366 142.482 136.423 142.652 136.353 142.791C136.283 142.931 136.114 142.987 135.974 142.918C133.629 141.745 131.994 141.745 130.932 142.418C130.783 142.512 130.661 142.612 130.564 142.711L130.508 142.77C130.493 142.787 130.482 142.801 130.474 142.811L130.464 142.824C130.376 142.953 130.2 142.986 130.071 142.898C129.942 142.81 129.909 142.634 129.998 142.505C130.101 142.354 130.307 142.144 130.63 141.94Z" fill="#7D4556"/>
<path d="M144.083 141.321C144.86 141.28 145.553 141.405 146.135 141.728C146.272 141.804 146.321 141.976 146.245 142.112C146.169 142.249 145.997 142.298 145.861 142.222C145.381 141.956 144.792 141.85 144.113 141.886C143.411 141.923 142.652 142.109 141.886 142.396C141.643 142.487 141.412 142.583 141.199 142.68L141.042 142.753C140.889 142.826 140.781 142.882 140.725 142.913C140.589 142.988 140.417 142.938 140.341 142.802C140.266 142.665 140.316 142.493 140.452 142.418L140.565 142.358C140.627 142.326 140.706 142.287 140.799 142.243C141.069 142.114 141.368 141.986 141.688 141.866C142.504 141.561 143.316 141.362 144.083 141.321Z" fill="#7D4556"/>
<path d="M136.917 143.726C137.03 143.668 137.169 143.713 137.226 143.827L137.277 143.933C137.298 143.978 137.323 144.033 137.351 144.096C137.442 144.307 137.533 144.543 137.618 144.798C137.896 145.636 138.046 146.483 137.999 147.282C137.97 147.769 137.882 148.213 137.718 148.784L137.479 149.6C137.314 150.181 137.312 150.295 137.37 150.508C137.461 150.84 137.863 151.052 138.802 151.154C138.928 151.168 139.019 151.281 139.005 151.408C138.992 151.534 138.878 151.625 138.752 151.611C137.646 151.491 137.08 151.192 136.927 150.629L136.899 150.523C136.831 150.23 136.864 150.051 137.126 149.165L137.226 148.828C137.413 148.201 137.511 147.748 137.54 147.255C137.583 146.522 137.443 145.73 137.181 144.943C137.117 144.75 137.049 144.568 136.98 144.401L136.929 144.279C136.877 144.16 136.838 144.077 136.817 144.035C136.759 143.922 136.804 143.783 136.917 143.726Z" fill="#9B6160"/>
<path d="M141.296 152.176C141.425 152.142 141.557 152.22 141.591 152.349C141.624 152.478 141.547 152.61 141.417 152.643C139.654 153.101 137.826 153.101 136.137 152.827C135.94 152.795 135.759 152.761 135.595 152.727L135.37 152.677C135.308 152.663 135.261 152.651 135.231 152.643C135.103 152.608 135.027 152.475 135.062 152.346C135.097 152.217 135.23 152.141 135.358 152.177L135.58 152.23C135.765 152.271 135.977 152.312 136.215 152.35C137.843 152.614 139.607 152.614 141.296 152.176Z" fill="#7D4556"/>
<path fill-rule="evenodd" clip-rule="evenodd" d="M129.448 147.251C129.474 149.467 131.292 151.241 133.507 151.215C135.722 151.188 137.497 149.37 137.47 147.155C137.443 144.94 135.626 143.165 133.411 143.192C131.196 143.219 129.421 145.036 129.448 147.251Z" fill="white"/>
<path d="M133.408 142.909C131.036 142.938 129.137 144.883 129.165 147.255C129.194 149.626 131.139 151.525 133.511 151.497C135.882 151.468 137.782 149.523 137.753 147.152C137.724 144.78 135.779 142.881 133.408 142.909ZM133.415 143.475C135.474 143.45 137.163 145.099 137.188 147.159C137.213 149.218 135.563 150.907 133.504 150.932C131.445 150.956 129.755 149.307 129.731 147.248C129.707 145.225 131.298 143.559 133.307 143.477L133.415 143.475Z" fill="#7D4556"/>
<path d="M132.479 147.445C132.462 147.584 132.345 147.691 132.202 147.693C132.059 147.695 131.939 147.59 131.919 147.452L131.916 147.414C131.915 147.182 131.957 146.869 132.091 146.551C132.325 145.991 132.774 145.636 133.45 145.628C134.121 145.62 134.595 145.938 134.879 146.456C135.041 146.751 135.111 147.042 135.13 147.247C135.143 147.403 135.029 147.54 134.873 147.554C134.718 147.568 134.58 147.453 134.566 147.298L134.56 147.248C134.555 147.216 134.547 147.175 134.535 147.126C134.502 146.989 134.452 146.853 134.383 146.728C134.194 146.382 133.904 146.188 133.457 146.193C133.025 146.199 132.765 146.404 132.612 146.77C132.555 146.905 132.518 147.053 132.498 147.203L132.486 147.303C132.484 147.333 132.482 147.359 132.482 147.38L132.481 147.408L132.479 147.445Z" fill="#7D4556"/>
<path d="M137.705 145.532C138.285 145.347 138.899 145.323 139.484 145.569C139.537 145.592 139.589 145.616 139.64 145.642L139.716 145.683L139.437 146.175C139.381 146.143 139.323 146.115 139.265 146.09C138.822 145.904 138.34 145.923 137.878 146.071C137.767 146.106 137.682 146.141 137.63 146.166L137.602 146.179L137.339 145.679C137.414 145.64 137.539 145.586 137.705 145.532Z" fill="#7D4556"/>
<path d="M144.586 158.662C144.704 158.614 144.838 158.67 144.886 158.787C144.934 158.905 144.877 159.039 144.76 159.087C140.736 160.731 136.616 160.485 132.984 159.235C132.864 159.194 132.8 159.063 132.841 158.943C132.882 158.823 133.013 158.759 133.133 158.8C136.669 160.017 140.681 160.257 144.586 158.662Z" fill="#9B6160"/>
<path d="M139.381 154.433C139.508 154.433 139.611 154.536 139.611 154.663C139.611 154.777 139.527 154.872 139.418 154.89L139.381 154.893H137.568C137.441 154.893 137.338 154.79 137.338 154.663C137.338 154.548 137.421 154.454 137.531 154.436L137.568 154.433H139.381Z" fill="#9B6160"/>
<path d="M138.345 156.936C138.459 156.936 138.554 157.019 138.572 157.128L138.575 157.166V159.669C138.575 159.796 138.472 159.899 138.345 159.899C138.231 159.899 138.136 159.816 138.118 159.706L138.115 159.669V157.166C138.115 157.039 138.218 156.936 138.345 156.936Z" fill="#9B6160"/>
<path d="M139.35 157.629C139.463 157.613 139.568 157.683 139.601 157.789L139.609 157.825L139.867 159.724C139.885 159.85 139.796 159.966 139.671 159.983C139.557 159.998 139.452 159.929 139.42 159.823L139.412 159.786L139.153 157.887C139.136 157.762 139.224 157.646 139.35 157.629Z" fill="#9B6160"/>
<path d="M136.961 158.231L136.999 158.233C137.112 158.251 137.193 158.347 137.194 158.458L137.191 158.495L137.019 159.617C136.999 159.743 136.882 159.829 136.757 159.81C136.644 159.792 136.563 159.696 136.562 159.585L136.564 159.548L136.736 158.426C136.754 158.313 136.851 158.232 136.961 158.231Z" fill="#9B6160"/>
<path d="M140.27 158.065C140.381 158.036 140.494 158.092 140.539 158.193L140.552 158.228L140.897 159.523C140.93 159.646 140.857 159.772 140.734 159.805C140.624 159.834 140.51 159.778 140.465 159.677L140.453 159.642L140.107 158.347C140.075 158.224 140.148 158.098 140.27 158.065Z" fill="#9B6160"/>
<path d="M123.537 146.075C124.044 145.473 124.716 145.473 125.349 146.457C125.608 147.049 125.585 147.444 125.36 147.995L125.232 148.295C125.096 148.633 125.105 148.847 125.329 149.184C125.396 149.283 125.472 149.364 125.557 149.427C125.71 149.542 125.863 149.589 125.965 149.598L126.001 149.6C126.128 149.6 126.231 149.702 126.231 149.829C126.231 149.956 126.128 150.059 126.001 150.059C125.81 150.059 125.545 149.993 125.281 149.795C125.155 149.701 125.042 149.582 124.947 149.439C124.65 148.994 124.619 148.638 124.774 148.205L124.827 148.07C124.836 148.048 124.853 148.01 124.896 147.91C125.113 147.412 125.142 147.132 124.945 146.674C124.506 145.995 124.206 145.995 123.888 146.371C123.8 146.476 123.737 146.582 123.706 146.647C123.652 146.762 123.515 146.811 123.4 146.757C123.285 146.703 123.236 146.566 123.29 146.451C123.336 146.353 123.419 146.215 123.537 146.075Z" fill="#9B6160"/>
<path d="M151.626 146.424C152.241 145.473 152.913 145.473 153.42 146.074C153.538 146.214 153.621 146.353 153.667 146.451C153.721 146.566 153.672 146.703 153.557 146.757C153.442 146.811 153.305 146.762 153.251 146.647C153.22 146.582 153.157 146.475 153.069 146.371C152.752 145.995 152.451 145.995 152.029 146.641C151.828 147.101 151.841 147.376 152.022 147.819L152.152 148.123C152.34 148.593 152.325 148.966 152.01 149.438C151.914 149.582 151.802 149.701 151.675 149.795C151.412 149.993 151.147 150.059 150.956 150.059C150.829 150.059 150.726 149.956 150.726 149.829C150.726 149.715 150.809 149.62 150.919 149.602L150.956 149.599C151.056 149.599 151.227 149.556 151.4 149.427C151.484 149.364 151.561 149.283 151.627 149.183C151.837 148.869 151.858 148.661 151.75 148.36L151.685 148.198C151.674 148.174 151.66 148.141 151.639 148.093C151.376 147.489 151.334 147.083 151.626 146.424Z" fill="#9B6160"/>
<path fill-rule="evenodd" clip-rule="evenodd" d="M125.973 147.844C125.973 147.844 124.131 145.888 125.052 143.471C123.44 140.593 124.477 137.831 125.973 136.796C125.512 134.264 127.238 129.775 130.807 129.315C132.907 130.149 135.41 130.236 135.41 130.236C135.41 130.236 141.394 126.783 145.537 130.926C149.796 130.466 151.983 135.3 151.637 137.026C153.938 139.903 152.097 144.276 152.097 144.276C152.097 144.276 151.84 145.968 151.062 148.305C150.256 150.722 149.911 147.614 149.911 146.924C149.911 146.233 148.185 145.658 148.76 142.55C146.803 141.169 147.235 139.04 147.235 139.04C147.235 139.04 145.825 140.479 141.797 138.522C138.92 140.939 134.547 138.522 134.547 138.522C134.547 138.522 131.008 140.219 128.936 138.954C128.936 138.954 129.511 140.68 127.901 143.097C128.476 145.398 126.778 146.463 127.238 147.844C127.699 149.225 126.433 150.606 125.973 147.844Z" fill="#7D4556"/>
<path fill-rule="evenodd" clip-rule="evenodd" d="M119.554 185.505C119.554 185.505 124.911 192.21 130.971 187.199C137.151 182.089 131.465 175.516 131.465 175.516C131.465 175.516 127.8 170.781 123.179 165.194C119.569 160.828 116.815 157.463 114.24 154.89C111.459 152.113 107.113 151.599 104.275 153.945C99.9607 157.512 100.343 161.601 102.695 164.724C104.982 167.761 108.195 171.764 110.79 175.055C115.78 181.383 119.554 185.505 119.554 185.505Z" fill="#ADC6FF"/>
<path fill-rule="evenodd" clip-rule="evenodd" d="M89.2069 122.051C89.2069 122.051 90.7802 129.347 94.1941 130.153C97.2854 130.882 98.7496 127.064 98.7496 127.064C98.7496 127.064 99.5558 123.948 99.5105 120.359C99.481 118.007 100.092 113.527 98.8832 113.218C97.3087 112.816 97.4313 117.498 96.3492 117.977C94.1573 118.945 93.1879 111.598 92.3909 110.492C90.8342 108.328 87.2523 113.314 89.2069 122.051Z" fill="#C99382"/>
<path d="M91.1921 110.64C91.319 110.645 91.4185 110.751 91.4143 110.878C91.3629 112.43 91.6602 114.069 92.188 115.682C92.3588 116.203 92.5418 116.684 92.7246 117.112L92.8166 117.323L92.9575 117.625C92.9606 117.632 92.9633 117.637 92.9656 117.642C93.0227 117.755 92.9771 117.893 92.8637 117.95C92.7504 118.008 92.6121 117.962 92.5549 117.849L92.4841 117.701L92.3969 117.51C92.3665 117.442 92.3347 117.369 92.3017 117.292C92.1139 116.853 91.9262 116.36 91.751 115.825C91.2078 114.165 90.9013 112.476 90.9547 110.863C90.9589 110.736 91.0652 110.636 91.1921 110.64Z" fill="#9B6160"/>
<path d="M89.7971 111.85C89.9237 111.86 90.0184 111.97 90.0086 112.097L90.0036 112.193C89.982 112.732 90.0146 113.491 90.1452 114.432C90.3418 115.847 90.7243 117.369 91.3367 118.961C91.3823 119.08 91.3231 119.213 91.2046 119.258C91.0861 119.304 90.9531 119.245 90.9075 119.126C90.2821 117.5 89.891 115.944 89.6898 114.495C89.5642 113.591 89.5264 112.846 89.5403 112.291L89.5473 112.105C89.5484 112.086 89.5493 112.072 89.5501 112.061C89.5599 111.935 89.6705 111.84 89.7971 111.85Z" fill="#9B6160"/>
<path d="M88.8039 115.288C88.9301 115.273 89.0441 115.364 89.0585 115.49C89.178 116.536 89.3406 117.484 89.5354 118.334C89.687 118.995 89.8492 119.56 90.0109 120.028L90.0763 120.212C90.0973 120.269 90.1176 120.323 90.1371 120.372L90.2146 120.561C90.2172 120.567 90.2195 120.572 90.2214 120.576C90.2748 120.691 90.2246 120.828 90.1094 120.881C89.9942 120.935 89.8575 120.885 89.8041 120.769L89.7564 120.659L89.7393 120.617C89.6899 120.494 89.6351 120.348 89.5763 120.178C89.4092 119.695 89.2425 119.114 89.0872 118.437C88.8886 117.57 88.7231 116.605 88.6016 115.542C88.5872 115.416 88.6778 115.302 88.8039 115.288Z" fill="#9B6160"/>
<path fill-rule="evenodd" clip-rule="evenodd" d="M114.685 155.387C114.685 155.387 117.578 163.707 110.703 166.352C103.614 169.079 100.469 161.226 100.469 161.226C100.469 161.226 98.3931 155.645 95.8039 148.778C94.2233 144.586 92.5709 139.921 91.8566 136.363C91.0828 132.51 92.959 131.376 96.3962 130.054C100.478 128.484 102.325 128.25 104.229 131.665C106.045 134.921 107.903 139.586 109.507 143.138C112.562 149.907 114.685 155.387 114.685 155.387Z" fill="#ADC6FF"/>
<path fill-rule="evenodd" clip-rule="evenodd" d="M91.481 128.863L99.4295 125.805L102.068 130.955L92.9751 134.454L91.481 128.863Z" fill="#ADC6FF"/>
<path fill-rule="evenodd" clip-rule="evenodd" d="M159.701 185.505C159.701 185.505 154.344 192.21 148.284 187.199C142.104 182.089 147.79 175.516 147.79 175.516C147.79 175.516 151.456 170.781 156.076 165.194C159.686 160.828 162.44 157.463 165.016 154.89C167.796 152.113 172.143 151.599 174.981 153.945C179.295 157.512 178.912 161.601 176.56 164.724C174.273 167.761 171.06 171.764 168.466 175.055C163.475 181.383 159.701 185.505 159.701 185.505Z" fill="#ADC6FF"/>
<path fill-rule="evenodd" clip-rule="evenodd" d="M190.048 122.051C190.048 122.051 188.475 129.347 185.061 130.153C181.97 130.882 180.505 127.064 180.505 127.064C180.505 127.064 179.699 123.948 179.744 120.359C179.774 118.007 179.164 113.527 180.372 113.218C181.947 112.816 181.824 117.498 182.906 117.977C185.098 118.945 186.067 111.598 186.864 110.492C188.421 108.328 192.003 113.314 190.048 122.051Z" fill="#C99382"/>
<path d="M188.063 110.64C188.19 110.636 188.296 110.736 188.3 110.863C188.354 112.476 188.047 114.165 187.504 115.825C187.329 116.36 187.141 116.853 186.953 117.292L186.858 117.51L186.771 117.701C186.737 117.773 186.713 117.822 186.7 117.849C186.643 117.962 186.505 118.008 186.391 117.95C186.278 117.893 186.232 117.755 186.289 117.642L186.337 117.544L186.354 117.506C186.407 117.393 186.466 117.261 186.53 117.112C186.713 116.684 186.896 116.203 187.067 115.682C187.595 114.069 187.892 112.43 187.841 110.878C187.836 110.751 187.936 110.645 188.063 110.64Z" fill="#9B6160"/>
<path d="M189.458 111.85C189.585 111.84 189.695 111.935 189.705 112.061L189.711 112.175C189.734 112.74 189.7 113.526 189.566 114.495C189.364 115.944 188.973 117.5 188.348 119.126C188.302 119.245 188.169 119.304 188.051 119.258C187.932 119.213 187.873 119.08 187.919 118.961C188.531 117.369 188.914 115.847 189.11 114.432C189.232 113.554 189.269 112.834 189.255 112.304L189.252 112.193C189.25 112.144 189.248 112.112 189.247 112.097C189.237 111.97 189.332 111.86 189.458 111.85Z" fill="#9B6160"/>
<path d="M190.451 115.288C190.578 115.302 190.668 115.416 190.654 115.542C190.532 116.605 190.367 117.57 190.168 118.436C190.03 119.039 189.883 119.564 189.735 120.013L189.679 120.178C189.632 120.314 189.588 120.435 189.546 120.54L189.484 120.695C189.47 120.728 189.459 120.753 189.451 120.769C189.398 120.884 189.261 120.934 189.146 120.881C189.031 120.828 188.981 120.691 189.034 120.576L189.074 120.482L189.09 120.444C189.136 120.329 189.188 120.19 189.245 120.027C189.406 119.56 189.568 118.995 189.72 118.334C189.915 117.484 190.077 116.536 190.197 115.49C190.21 115.376 190.304 115.292 190.414 115.286L190.451 115.288Z" fill="#9B6160"/>
<path fill-rule="evenodd" clip-rule="evenodd" d="M164.57 155.387C164.57 155.387 161.678 163.707 168.552 166.352C175.642 169.079 178.786 161.226 178.786 161.226C178.786 161.226 180.862 155.645 183.452 148.778C185.032 144.586 186.685 139.921 187.399 136.363C188.173 132.51 186.296 131.376 182.859 130.054C178.778 128.484 176.93 128.25 175.026 131.665C173.21 134.921 171.353 139.586 169.749 143.138C166.693 149.907 164.57 155.387 164.57 155.387Z" fill="#ADC6FF"/>
<path fill-rule="evenodd" clip-rule="evenodd" d="M187.774 128.863L179.826 125.805L177.188 130.955L186.28 134.454L187.774 128.863Z" fill="#ADC6FF"/>
<path d="M152.848 214.616C152.978 214.616 153.083 214.721 153.083 214.851C153.083 214.968 152.998 215.065 152.886 215.083L152.848 215.086H122.192C122.062 215.086 121.957 214.981 121.957 214.851C121.957 214.734 122.042 214.637 122.154 214.619L122.192 214.616H152.848Z" fill="#253368"/>
<path d="M152.848 218.908C152.978 218.908 153.083 219.013 153.083 219.143C153.083 219.26 152.998 219.357 152.886 219.375L152.848 219.378H121.579C121.449 219.378 121.344 219.273 121.344 219.143C121.344 219.026 121.429 218.929 121.541 218.911L121.579 218.908H152.848Z" fill="#253368"/>
<path d="M59.3086 154.271C59.3086 154.445 59.4428 154.586 59.6084 154.586C59.774 154.586 59.9083 154.445 59.9083 154.271V150.07C59.9083 149.896 59.774 149.755 59.6084 149.755C59.4428 149.755 59.3086 149.896 59.3086 150.07V154.271Z" fill="#597EF7"/>
<path d="M56.148 155.293C56.2071 155.395 56.3143 155.452 56.4246 155.452C56.4787 155.452 56.5335 155.438 56.5838 155.409C56.7364 155.322 56.7887 155.128 56.7005 154.976L54.5736 151.313C54.4855 151.161 54.2905 151.109 54.1378 151.197C53.9852 151.284 53.9329 151.478 54.021 151.63L56.148 155.293Z" fill="#597EF7"/>
<path d="M54.0604 157.817C54.0066 157.817 53.9521 157.803 53.9021 157.774L50.239 155.647C50.0873 155.559 50.0353 155.364 50.1229 155.212C50.2105 155.059 50.4045 155.007 50.5563 155.095L54.2193 157.222C54.3711 157.31 54.423 157.505 54.3355 157.658C54.2767 157.76 54.17 157.817 54.0604 157.817Z" fill="#597EF7"/>
<path d="M48.9962 160.982H53.1968C53.3708 160.982 53.5118 160.848 53.5118 160.682C53.5118 160.517 53.3708 160.382 53.1968 160.382H48.9962C48.8222 160.382 48.6812 160.517 48.6812 160.682C48.6812 160.848 48.8222 160.982 48.9962 160.982Z" fill="#597EF7"/>
<path d="M50.398 166.246C50.2883 166.246 50.1817 166.189 50.1229 166.086C50.0353 165.934 50.0873 165.739 50.239 165.65L53.9021 163.524C54.0539 163.435 54.2479 163.488 54.3354 163.64C54.423 163.793 54.3711 163.988 54.2193 164.076L50.5563 166.203C50.5063 166.232 50.4518 166.246 50.398 166.246Z" fill="#597EF7"/>
<path d="M54.1378 170.101C54.1881 170.13 54.2429 170.144 54.297 170.144C54.4073 170.144 54.5145 170.087 54.5736 169.985L56.7006 166.322C56.7887 166.17 56.7364 165.976 56.5838 165.889C56.4311 165.801 56.2361 165.853 56.148 166.005L54.021 169.668C53.9329 169.82 53.9852 170.014 54.1378 170.101Z" fill="#597EF7"/>
<path d="M59.6084 171.543C59.4428 171.543 59.3086 171.402 59.3086 171.228V167.027C59.3086 166.853 59.4428 166.712 59.6084 166.712C59.774 166.712 59.9083 166.853 59.9083 167.027V171.228C59.9083 171.402 59.774 171.543 59.6084 171.543Z" fill="#597EF7"/>
<path d="M64.5766 169.985C64.6357 170.087 64.743 170.144 64.8532 170.144C64.9073 170.144 64.9622 170.13 65.0124 170.101C65.1651 170.014 65.2173 169.82 65.1292 169.668L63.0023 166.005C62.9142 165.853 62.7191 165.801 62.5665 165.889C62.4139 165.976 62.3616 166.17 62.4497 166.322L64.5766 169.985Z" fill="#597EF7"/>
<path d="M68.7523 166.246C68.6985 166.246 68.6439 166.232 68.594 166.203L64.9309 164.076C64.7792 163.988 64.7272 163.793 64.8148 163.64C64.9024 163.488 65.0964 163.435 65.2481 163.524L68.9112 165.65C69.0629 165.739 69.1149 165.934 69.0273 166.086C68.9686 166.189 68.8619 166.246 68.7523 166.246Z" fill="#597EF7"/>
<path d="M65.9535 160.982H70.1541C70.3281 160.982 70.4691 160.848 70.4691 160.682C70.4691 160.517 70.3281 160.382 70.1541 160.382H65.9535C65.7795 160.382 65.6384 160.517 65.6384 160.682C65.6384 160.848 65.7795 160.982 65.9535 160.982Z" fill="#597EF7"/>
<path d="M65.0898 157.817C64.9802 157.817 64.8736 157.76 64.8148 157.658C64.7272 157.505 64.7792 157.31 64.9309 157.222L68.594 155.095C68.7458 155.007 68.9398 155.059 69.0273 155.212C69.1149 155.364 69.063 155.559 68.9112 155.647L65.2481 157.774C65.1982 157.803 65.1436 157.817 65.0898 157.817Z" fill="#597EF7"/>
<path d="M62.5665 155.409C62.6167 155.438 62.6716 155.452 62.7257 155.452C62.8359 155.452 62.9432 155.395 63.0023 155.293L65.1292 151.63C65.2173 151.478 65.165 151.284 65.0125 151.197C64.8597 151.109 64.6647 151.161 64.5767 151.313L62.4497 154.976C62.3616 155.128 62.4139 155.322 62.5665 155.409Z" fill="#597EF7"/>
<path d="M149.843 90.6339C149.843 90.8079 149.977 90.9489 150.143 90.9489C150.308 90.9489 150.442 90.8079 150.442 90.6339V86.4333C150.442 86.2593 150.308 86.1183 150.143 86.1183C149.977 86.1183 149.843 86.2593 149.843 86.4333V90.6339Z" fill="#597EF7"/>
<path d="M146.682 91.6565C146.741 91.7582 146.848 91.8151 146.959 91.8151C147.013 91.8151 147.068 91.8014 147.118 91.7726C147.271 91.685 147.323 91.491 147.235 91.3392L145.108 87.6762C145.02 87.5245 144.825 87.4725 144.672 87.5601C144.519 87.6477 144.467 87.8417 144.555 87.9934L146.682 91.6565Z" fill="#597EF7"/>
<path d="M144.595 94.1805C144.541 94.1805 144.486 94.1667 144.436 94.1377L140.773 92.0107C140.621 91.9226 140.57 91.7275 140.657 91.5749C140.745 91.4224 140.939 91.37 141.09 91.4582L144.754 93.5851C144.905 93.6732 144.957 93.8683 144.87 94.0209C144.811 94.1232 144.704 94.1805 144.595 94.1805Z" fill="#597EF7"/>
<path d="M139.53 97.3454H143.731C143.905 97.3454 144.046 97.2112 144.046 97.0456C144.046 96.88 143.905 96.7457 143.731 96.7457H139.53C139.356 96.7457 139.215 96.88 139.215 97.0456C139.215 97.2112 139.356 97.3454 139.53 97.3454Z" fill="#597EF7"/>
<path d="M140.932 102.609C140.822 102.609 140.716 102.552 140.657 102.45C140.57 102.297 140.622 102.102 140.773 102.014L144.436 99.8868C144.588 99.7987 144.782 99.851 144.87 100.004C144.957 100.156 144.905 100.351 144.754 100.439L141.09 102.566C141.04 102.595 140.986 102.609 140.932 102.609Z" fill="#597EF7"/>
<path d="M144.672 106.464C144.722 106.493 144.777 106.507 144.831 106.507C144.941 106.507 145.049 106.45 145.108 106.348L147.235 102.685C147.323 102.534 147.271 102.34 147.118 102.252C146.965 102.164 146.77 102.216 146.682 102.368L144.555 106.031C144.467 106.183 144.519 106.377 144.672 106.464Z" fill="#597EF7"/>
<path d="M150.143 107.906C149.977 107.906 149.843 107.765 149.843 107.591V103.391C149.843 103.217 149.977 103.076 150.143 103.076C150.308 103.076 150.442 103.217 150.442 103.391V107.591C150.442 107.765 150.308 107.906 150.143 107.906Z" fill="#597EF7"/>
<path d="M155.111 106.348C155.17 106.45 155.277 106.507 155.387 106.507C155.442 106.507 155.496 106.493 155.547 106.464C155.699 106.377 155.752 106.183 155.663 106.031L153.536 102.368C153.448 102.216 153.253 102.164 153.101 102.252C152.948 102.34 152.896 102.534 152.984 102.685L155.111 106.348Z" fill="#597EF7"/>
<path d="M159.286 102.609C159.233 102.609 159.178 102.595 159.128 102.566L155.465 100.439C155.313 100.351 155.261 100.156 155.349 100.004C155.437 99.851 155.631 99.7987 155.782 99.8868L159.445 102.014C159.597 102.102 159.649 102.297 159.562 102.45C159.503 102.552 159.396 102.609 159.286 102.609Z" fill="#597EF7"/>
<path d="M156.488 97.3454H160.688C160.862 97.3454 161.003 97.2112 161.003 97.0456C161.003 96.88 160.862 96.7457 160.688 96.7457H156.488C156.314 96.7457 156.173 96.88 156.173 97.0456C156.173 97.2112 156.314 97.3454 156.488 97.3454Z" fill="#597EF7"/>
<path d="M155.624 94.1805C155.514 94.1805 155.408 94.1233 155.349 94.0209C155.261 93.8683 155.313 93.6732 155.465 93.5851L159.128 91.4581C159.28 91.3701 159.474 91.4223 159.562 91.5749C159.649 91.7275 159.597 91.9226 159.445 92.0107L155.782 94.1377C155.732 94.1667 155.678 94.1805 155.624 94.1805Z" fill="#597EF7"/>
<path d="M153.101 91.7726C153.151 91.8014 153.206 91.8151 153.26 91.8151C153.37 91.8151 153.477 91.7582 153.536 91.6565L155.663 87.9934C155.752 87.8417 155.699 87.6477 155.547 87.5601C155.394 87.4724 155.199 87.5245 155.111 87.6762L152.984 91.3392C152.896 91.491 152.948 91.685 153.101 91.7726Z" fill="#597EF7"/>
<path d="M218.728 173.296C218.728 173.47 218.862 173.611 219.028 173.611C219.193 173.611 219.328 173.47 219.328 173.296V169.095C219.328 168.921 219.193 168.78 219.028 168.78C218.862 168.78 218.728 168.921 218.728 169.095V173.296Z" fill="#597EF7"/>
<path d="M215.567 174.319C215.626 174.42 215.734 174.477 215.844 174.477C215.898 174.477 215.953 174.463 216.003 174.435C216.156 174.347 216.208 174.153 216.12 174.001L213.993 170.338C213.905 170.187 213.71 170.135 213.557 170.222C213.405 170.31 213.352 170.504 213.44 170.655L215.567 174.319Z" fill="#597EF7"/>
<path d="M213.48 176.843C213.426 176.843 213.371 176.829 213.322 176.8L209.658 174.673C209.507 174.585 209.455 174.39 209.542 174.237C209.63 174.084 209.824 174.032 209.976 174.12L213.639 176.247C213.79 176.335 213.842 176.53 213.755 176.683C213.696 176.785 213.589 176.843 213.48 176.843Z" fill="#597EF7"/>
<path d="M208.416 180.008H212.616C212.79 180.008 212.931 179.873 212.931 179.708C212.931 179.542 212.79 179.408 212.616 179.408H208.416C208.242 179.408 208.101 179.542 208.101 179.708C208.101 179.873 208.242 180.008 208.416 180.008Z" fill="#597EF7"/>
<path d="M209.817 185.271C209.708 185.271 209.601 185.214 209.542 185.112C209.455 184.959 209.507 184.764 209.658 184.676L213.322 182.549C213.473 182.461 213.667 182.513 213.755 182.666C213.842 182.818 213.791 183.013 213.639 183.102L209.976 185.228C209.926 185.257 209.871 185.271 209.817 185.271Z" fill="#597EF7"/>
<path d="M213.557 189.127C213.608 189.155 213.662 189.169 213.716 189.169C213.827 189.169 213.934 189.112 213.993 189.01L216.12 185.347C216.208 185.196 216.156 185.002 216.003 184.914C215.851 184.826 215.656 184.878 215.567 185.03L213.44 188.693C213.352 188.845 213.405 189.039 213.557 189.127Z" fill="#597EF7"/>
<path d="M219.028 190.568C218.862 190.568 218.728 190.427 218.728 190.253V186.053C218.728 185.879 218.862 185.738 219.028 185.738C219.193 185.738 219.328 185.879 219.328 186.053V190.253C219.328 190.427 219.193 190.568 219.028 190.568Z" fill="#597EF7"/>
<path d="M223.996 189.01C224.055 189.112 224.162 189.169 224.273 189.169C224.327 189.169 224.382 189.155 224.432 189.127C224.584 189.039 224.637 188.845 224.549 188.693L222.422 185.03C222.334 184.878 222.139 184.826 221.986 184.914C221.833 185.002 221.781 185.196 221.869 185.347L223.996 189.01Z" fill="#597EF7"/>
<path d="M228.172 185.271C228.118 185.271 228.063 185.257 228.013 185.228L224.35 183.102C224.199 183.013 224.147 182.818 224.234 182.666C224.322 182.513 224.516 182.461 224.668 182.549L228.331 184.676C228.482 184.764 228.534 184.959 228.447 185.112C228.388 185.214 228.281 185.271 228.172 185.271Z" fill="#597EF7"/>
<path d="M225.373 180.008H229.573C229.747 180.008 229.889 179.873 229.889 179.708C229.889 179.542 229.747 179.408 229.573 179.408H225.373C225.199 179.408 225.058 179.542 225.058 179.708C225.058 179.873 225.199 180.008 225.373 180.008Z" fill="#597EF7"/>
<path d="M224.509 176.843C224.4 176.843 224.293 176.785 224.234 176.683C224.147 176.53 224.199 176.335 224.35 176.247L228.013 174.12C228.165 174.032 228.359 174.084 228.447 174.237C228.534 174.39 228.482 174.585 228.331 174.673L224.668 176.8C224.618 176.829 224.563 176.843 224.509 176.843Z" fill="#597EF7"/>
<path d="M221.986 174.435C222.036 174.463 222.091 174.477 222.145 174.477C222.255 174.477 222.363 174.42 222.422 174.319L224.549 170.656C224.637 170.504 224.584 170.31 224.432 170.222C224.279 170.135 224.084 170.187 223.996 170.338L221.869 174.001C221.781 174.153 221.833 174.347 221.986 174.435Z" fill="#597EF7"/>
<path d="M90.6688 215.128H86.9995C85.1334 215.128 83.6206 216.641 83.6206 218.507L83.6206 222.176C83.6206 224.042 85.1334 225.555 86.9995 225.555H90.6688C92.5349 225.555 94.0477 224.042 94.0477 222.176V218.507C94.0477 216.641 92.5349 215.128 90.6688 215.128Z" fill="#FAAD14"/>
<path d="M206.432 73.5614H251.546C253.412 73.5614 254.925 75.0742 254.925 76.9403L254.925 122.054C254.925 123.92 253.412 125.433 251.546 125.433H206.432C204.566 125.433 203.053 123.92 203.053 122.054V76.9403C203.053 75.0742 204.566 73.5614 206.432 73.5614Z" fill="#D6E4FF"/>
<path d="M245.316 132.93H248.985C250.851 132.93 252.364 134.443 252.364 136.309L252.364 139.978C252.364 141.844 250.851 143.357 248.985 143.357H245.316C243.45 143.357 241.937 141.844 241.937 139.978V136.309C241.937 134.443 243.45 132.93 245.316 132.93Z" fill="#FAAD14"/>
</g>
<defs>
<clipPath id="clip0_700_39319">
<rect x="0.492676" width="272.015" height="270" rx="135" fill="white"/>
</clipPath>
</defs>
</svg>
