<svg width="47" height="47" viewBox="0 0 47 47" fill="none" xmlns="http://www.w3.org/2000/svg">
<path d="M21.9946 10.3896C29.9952 10.3896 36.481 16.8754 36.481 24.876H21.9946V10.3896Z" fill="#9992F6"/>
<path fill-rule="evenodd" clip-rule="evenodd" d="M16.0051 0.5C7.46602 0.5 0.543701 7.4223 0.543701 15.9614V31.005C0.543701 33.1398 0.976346 35.1735 1.75874 37.0233C4.10591 42.5726 9.60079 46.4664 16.0051 46.4664H23.5269L31.0487 46.4664C39.5878 46.4664 46.5101 39.5441 46.5101 31.005V27.662C46.5101 25.3541 44.6392 23.4832 42.3314 23.4832H23.5269V4.67876C23.5269 2.3709 21.656 0.5 19.3481 0.5H16.0051Z" fill="#554AF0"/>
<path fill-rule="evenodd" clip-rule="evenodd" d="M22.9991 46.5005C23.3155 45.1356 23.4828 43.7135 23.4828 42.2524C23.4828 31.9054 15.0949 23.5176 4.74799 23.5176C3.28681 23.5176 1.86469 23.6849 0.499756 24.0013V31.0391C0.499756 31.5728 0.526796 32.1002 0.579581 32.62C1.37136 40.4165 7.95576 46.5005 15.9612 46.5005H22.9991Z" fill="#FAAD14"/>
</svg>
