<svg width="37" height="37" viewBox="0 0 37 37" fill="none" xmlns="http://www.w3.org/2000/svg">
<path d="M31.4375 4.43799H5.5625C4.94023 4.43799 4.4375 4.94072 4.4375 5.56299V31.438C4.4375 32.0603 4.94023 32.563 5.5625 32.563H31.4375C32.0598 32.563 32.5625 32.0603 32.5625 31.438V5.56299C32.5625 4.94072 32.0598 4.43799 31.4375 4.43799ZM26.0691 14.6228C26.0797 14.788 26.0797 14.9603 26.0797 15.129C26.0797 20.2899 22.1492 26.2349 14.9668 26.2349C12.752 26.2349 10.6988 25.5915 8.96914 24.4841C9.28555 24.5192 9.58789 24.5333 9.91133 24.5333C11.7395 24.5333 13.4199 23.9146 14.7594 22.8669C13.0437 22.8317 11.6023 21.7067 11.1102 20.1599C11.7113 20.2478 12.2527 20.2478 12.8715 20.0896C11.9881 19.9101 11.1941 19.4303 10.6244 18.7318C10.0546 18.0332 9.74429 17.1589 9.74609 16.2575V16.2083C10.2629 16.5001 10.8711 16.6794 11.5074 16.704C10.9725 16.3475 10.5338 15.8645 10.2302 15.2979C9.92667 14.7312 9.76762 14.0984 9.76719 13.4556C9.76719 12.7278 9.95703 12.0634 10.298 11.4868C11.2786 12.6939 12.5021 13.6811 13.8891 14.3843C15.2762 15.0875 16.7957 15.491 18.3488 15.5685C17.7969 12.9142 19.7797 10.7661 22.1633 10.7661C23.2883 10.7661 24.3008 11.2372 25.0145 11.9966C25.8969 11.8313 26.7406 11.5009 27.493 11.0579C27.2012 11.9614 26.5895 12.7243 25.7773 13.206C26.5648 13.1216 27.3242 12.9036 28.0273 12.5978C27.4965 13.3782 26.832 14.0708 26.0691 14.6228Z" fill="#1A1A1A"/>
</svg>
