<svg width="24" height="20" viewBox="0 0 24 20" fill="none" xmlns="http://www.w3.org/2000/svg">
<path d="M23.1429 0.987549H0.857143C0.383036 0.987549 0 1.37058 0 1.84469V18.9876C0 19.4617 0.383036 19.8447 0.857143 19.8447H23.1429C23.617 19.8447 24 19.4617 24 18.9876V1.84469C24 1.37058 23.617 0.987549 23.1429 0.987549ZM22.0714 3.95541V17.9161H1.92857V3.95541L1.18929 3.37951L2.24196 2.02683L3.38839 2.9188H20.6143L21.7607 2.02683L22.8134 3.37951L22.0714 3.95541ZM20.6143 2.91612L12 9.61255L3.38571 2.91612L2.23929 2.02416L1.18661 3.37683L1.92589 3.95273L11.0759 11.067C11.339 11.2714 11.6628 11.3824 11.996 11.3824C12.3292 11.3824 12.6529 11.2714 12.9161 11.067L22.0714 3.95541L22.8107 3.37951L21.758 2.02683L20.6143 2.91612Z" fill="#4D4D4D"/>
</svg>
