<svg width="24" height="25" viewBox="0 0 24 25" fill="none" xmlns="http://www.w3.org/2000/svg">
<path d="M23.5234 11.7317C20.9841 6.38264 17.1457 3.69067 12.0002 3.69067C6.85194 3.69067 3.01623 6.38264 0.47694 11.7344C0.375089 11.9501 0.322266 12.1856 0.322266 12.4242C0.322266 12.6627 0.375089 12.8982 0.47694 13.1139C3.01623 18.463 6.85462 21.155 12.0002 21.155C17.1484 21.155 20.9841 18.463 23.5234 13.1112C23.7296 12.6773 23.7296 12.1737 23.5234 11.7317ZM12.0002 19.2264C7.67962 19.2264 4.51623 17.0353 2.28498 12.4228C4.51623 7.81032 7.67962 5.61925 12.0002 5.61925C16.3207 5.61925 19.4841 7.81032 21.7153 12.4228C19.4868 17.0353 16.3234 19.2264 12.0002 19.2264ZM11.893 7.70853C9.28944 7.70853 7.17873 9.81925 7.17873 12.4228C7.17873 15.0264 9.28944 17.1371 11.893 17.1371C14.4966 17.1371 16.6073 15.0264 16.6073 12.4228C16.6073 9.81925 14.4966 7.70853 11.893 7.70853ZM11.893 15.4228C10.235 15.4228 8.89301 14.0809 8.89301 12.4228C8.89301 10.7648 10.235 9.42282 11.893 9.42282C13.551 9.42282 14.893 10.7648 14.893 12.4228C14.893 14.0809 13.551 15.4228 11.893 15.4228Z" fill="#4D4D4D"/>
</svg>
