<svg width="20" height="32" viewBox="0 0 20 32" fill="none" xmlns="http://www.w3.org/2000/svg">
<path d="M19.5188 4.19888V1.09307C19.5188 0.823878 19.2095 0.675217 19.0005 0.83995L0.888023 14.9868C0.734132 15.1065 0.609609 15.2597 0.523952 15.4349C0.438295 15.61 0.393768 15.8024 0.393768 15.9973C0.393768 16.1923 0.438295 16.3846 0.523952 16.5598C0.609609 16.7349 0.734132 16.8881 0.888023 17.0078L19.0005 31.1547C19.2135 31.3194 19.5188 31.1708 19.5188 30.9016V27.7958C19.5188 27.5989 19.4264 27.41 19.2737 27.2895L4.80945 15.9993L19.2737 4.70513C19.4264 4.58459 19.5188 4.39575 19.5188 4.19888Z" fill="black" fill-opacity="0.85"/>
</svg>
