<svg width="367" height="372" viewBox="0 0 367 372" fill="none" xmlns="http://www.w3.org/2000/svg">
<path d="M238.591 97.8848H114.672C110.576 97.8848 107.256 101.205 107.256 105.301V346.031C107.256 350.127 110.576 353.447 114.672 353.447H238.591C242.687 353.447 246.007 350.127 246.007 346.031V105.301C246.007 101.205 242.687 97.8848 238.591 97.8848Z" fill="#253368"/>
<path d="M117.101 116.117H235.853C237.536 116.117 238.9 117.481 238.9 119.164V332.168C238.9 333.851 237.536 335.215 235.853 335.215H117.101C115.418 335.215 114.054 333.851 114.054 332.168V119.164C114.054 117.481 115.418 116.117 117.101 116.117Z" fill="white"/>
<path d="M161.953 109.319C162.977 109.319 163.807 108.489 163.807 107.464C163.807 106.44 162.977 105.61 161.953 105.61C160.929 105.61 160.099 106.44 160.099 107.464C160.099 108.489 160.929 109.319 161.953 109.319Z" fill="white"/>
<path d="M187.401 105.919H169.571C168.777 105.919 168.134 106.563 168.134 107.356V107.882C168.134 108.675 168.777 109.319 169.571 109.319H187.401C188.195 109.319 188.838 108.675 188.838 107.882V107.356C188.838 106.563 188.195 105.919 187.401 105.919Z" fill="white"/>
<path d="M113.837 118.772C113.837 116.086 116.015 113.908 118.701 113.908H234.013C236.699 113.908 238.877 116.086 238.877 118.772V186.586H113.837V118.772Z" fill="#597EF7"/>
<rect x="121.276" y="147.1" width="46.9258" height="4.29199" rx="2.146" fill="#FABB18"/>
<rect x="121.276" y="157.114" width="28.8994" height="4.29199" rx="2.146" fill="#FABB18"/>
<rect x="121.276" y="167.129" width="84.4092" height="4.29199" rx="2.146" fill="#ADC6FF"/>
<rect x="121.276" y="200.606" width="46.9258" height="4.29199" rx="2.146" fill="#253368"/>
<rect x="121.562" y="216.63" width="21.46" height="21.46" rx="2.86133" fill="#554AF0"/>
<rect x="147.028" y="221.351" width="69.2441" height="4.29199" rx="2.146" fill="#ADC6FF"/>
<rect x="147.028" y="229.077" width="33.4775" height="4.29199" rx="2.146" fill="#ADC6FF"/>
<rect x="121.562" y="249.535" width="21.46" height="21.46" rx="2.86133" fill="#FAAD14"/>
<rect x="147.028" y="254.256" width="69.2441" height="4.29199" rx="2.146" fill="#ADC6FF"/>
<rect x="147.028" y="261.982" width="33.4775" height="4.29199" rx="2.146" fill="#ADC6FF"/>
<rect x="121.562" y="282.44" width="21.46" height="21.46" rx="2.86133" fill="#FF7946"/>
<rect x="147.028" y="287.162" width="69.2441" height="4.29199" rx="2.146" fill="#ADC6FF"/>
<rect x="147.028" y="294.887" width="33.4775" height="4.29199" rx="2.146" fill="#ADC6FF"/>
<path d="M124.833 129.095C126.477 129.095 127.809 130.427 127.809 132.071H124.833V129.095Z" fill="#9992F6"/>
<path fill-rule="evenodd" clip-rule="evenodd" d="M123.594 127.07C121.84 127.07 120.418 128.492 120.418 130.246V131.792V133.337C120.418 135.091 121.84 136.513 123.594 136.513H125.139H126.684C128.438 136.513 129.86 135.091 129.86 133.337V132.65C129.86 132.176 129.476 131.792 129.002 131.792H125.139V127.929C125.139 127.455 124.755 127.07 124.281 127.07H123.594Z" fill="#F5F5F5"/>
<path fill-rule="evenodd" clip-rule="evenodd" d="M125.04 136.513C125.105 136.232 125.139 135.94 125.139 135.64C125.139 133.515 123.416 131.792 121.291 131.792C120.991 131.792 120.698 131.826 120.418 131.891V133.337C120.418 135.091 121.84 136.513 123.594 136.513H125.04Z" fill="#FAAD14"/>
<path d="M133.41 134.36C133.268 134.36 133.158 134.321 133.081 134.244C133.003 134.161 132.964 134.049 132.964 133.907V129.948C132.964 129.802 133.001 129.692 133.074 129.619C133.152 129.541 133.261 129.502 133.403 129.502C133.545 129.502 133.652 129.541 133.726 129.619C133.803 129.692 133.842 129.802 133.842 129.948V133.612H135.832C135.956 133.612 136.05 133.644 136.114 133.708C136.182 133.772 136.217 133.864 136.217 133.983C136.217 134.102 136.182 134.196 136.114 134.264C136.05 134.328 135.956 134.36 135.832 134.36H133.41ZM137.957 134.429C137.609 134.429 137.308 134.358 137.051 134.216C136.795 134.074 136.596 133.873 136.454 133.612C136.312 133.347 136.242 133.036 136.242 132.679C136.242 132.409 136.28 132.169 136.358 131.959C136.441 131.744 136.557 131.561 136.708 131.41C136.859 131.254 137.04 131.137 137.25 131.06C137.461 130.977 137.696 130.936 137.957 130.936C138.305 130.936 138.607 131.007 138.863 131.149C139.119 131.291 139.318 131.492 139.46 131.753C139.602 132.013 139.673 132.322 139.673 132.679C139.673 132.949 139.631 133.191 139.549 133.407C139.471 133.622 139.357 133.807 139.206 133.962C139.055 134.113 138.874 134.23 138.664 134.312C138.453 134.39 138.218 134.429 137.957 134.429ZM137.957 133.777C138.126 133.777 138.275 133.736 138.403 133.654C138.531 133.571 138.63 133.45 138.698 133.29C138.771 133.125 138.808 132.922 138.808 132.679C138.808 132.313 138.73 132.041 138.575 131.863C138.419 131.68 138.213 131.588 137.957 131.588C137.788 131.588 137.639 131.629 137.511 131.712C137.383 131.789 137.282 131.911 137.209 132.075C137.141 132.235 137.106 132.437 137.106 132.679C137.106 133.041 137.184 133.315 137.34 133.503C137.495 133.686 137.701 133.777 137.957 133.777ZM141.671 135.664C141.424 135.664 141.184 135.641 140.95 135.596C140.721 135.55 140.513 135.479 140.326 135.383C140.239 135.337 140.179 135.282 140.147 135.218C140.12 135.154 140.111 135.088 140.12 135.019C140.134 134.955 140.161 134.898 140.202 134.848C140.248 134.797 140.303 134.763 140.367 134.745C140.431 134.726 140.497 134.735 140.566 134.772C140.767 134.873 140.957 134.937 141.135 134.964C141.318 134.996 141.474 135.012 141.602 135.012C141.909 135.012 142.137 134.937 142.288 134.786C142.444 134.639 142.522 134.42 142.522 134.127V133.509H142.583C142.515 133.743 142.371 133.93 142.151 134.072C141.936 134.209 141.691 134.278 141.417 134.278C141.115 134.278 140.852 134.209 140.628 134.072C140.404 133.93 140.23 133.734 140.106 133.482C139.983 133.23 139.921 132.938 139.921 132.604C139.921 132.352 139.955 132.126 140.024 131.924C140.097 131.718 140.198 131.542 140.326 131.396C140.458 131.25 140.616 131.137 140.799 131.06C140.987 130.977 141.193 130.936 141.417 130.936C141.7 130.936 141.948 131.007 142.158 131.149C142.373 131.286 142.513 131.469 142.577 131.698L142.508 131.869V131.382C142.508 131.24 142.545 131.133 142.618 131.06C142.695 130.986 142.801 130.95 142.933 130.95C143.071 130.95 143.176 130.986 143.249 131.06C143.322 131.133 143.359 131.24 143.359 131.382V134.024C143.359 134.569 143.215 134.978 142.927 135.252C142.638 135.527 142.22 135.664 141.671 135.664ZM141.65 133.626C141.829 133.626 141.982 133.585 142.11 133.503C142.238 133.42 142.336 133.304 142.405 133.153C142.478 132.997 142.515 132.814 142.515 132.604C142.515 132.288 142.437 132.041 142.281 131.863C142.126 131.68 141.915 131.588 141.65 131.588C141.472 131.588 141.318 131.629 141.19 131.712C141.062 131.794 140.962 131.911 140.888 132.062C140.82 132.212 140.786 132.393 140.786 132.604C140.786 132.919 140.863 133.169 141.019 133.352C141.174 133.535 141.385 133.626 141.65 133.626ZM144.399 134.408C144.261 134.408 144.156 134.367 144.083 134.285C144.01 134.203 143.973 134.088 143.973 133.942V131.423C143.973 131.272 144.01 131.158 144.083 131.08C144.156 130.998 144.261 130.957 144.399 130.957C144.536 130.957 144.641 130.998 144.714 131.08C144.792 131.158 144.831 131.272 144.831 131.423V133.942C144.831 134.088 144.794 134.203 144.721 134.285C144.648 134.367 144.54 134.408 144.399 134.408ZM144.399 130.319C144.238 130.319 144.113 130.28 144.021 130.202C143.934 130.12 143.891 130.007 143.891 129.866C143.891 129.719 143.934 129.607 144.021 129.529C144.113 129.452 144.238 129.413 144.399 129.413C144.563 129.413 144.689 129.452 144.776 129.529C144.863 129.607 144.906 129.719 144.906 129.866C144.906 130.007 144.863 130.12 144.776 130.202C144.689 130.28 144.563 130.319 144.399 130.319ZM147.383 134.429C147.099 134.429 146.85 134.358 146.635 134.216C146.424 134.074 146.285 133.885 146.216 133.647L146.292 133.475V133.976C146.292 134.118 146.255 134.228 146.182 134.305C146.109 134.379 146.006 134.415 145.873 134.415C145.736 134.415 145.631 134.379 145.557 134.305C145.484 134.228 145.448 134.118 145.448 133.976V129.9C145.448 129.758 145.484 129.651 145.557 129.577C145.631 129.504 145.736 129.468 145.873 129.468C146.01 129.468 146.116 129.504 146.189 129.577C146.267 129.651 146.305 129.758 146.305 129.9V131.684H146.223C146.296 131.46 146.438 131.279 146.649 131.142C146.859 131.005 147.104 130.936 147.383 130.936C147.68 130.936 147.939 131.007 148.158 131.149C148.378 131.291 148.549 131.492 148.673 131.753C148.796 132.009 148.858 132.318 148.858 132.679C148.858 133.036 148.796 133.347 148.673 133.612C148.549 133.873 148.376 134.074 148.151 134.216C147.932 134.358 147.676 134.429 147.383 134.429ZM147.143 133.777C147.312 133.777 147.461 133.736 147.589 133.654C147.717 133.571 147.815 133.45 147.884 133.29C147.957 133.125 147.994 132.922 147.994 132.679C147.994 132.313 147.916 132.041 147.76 131.863C147.605 131.68 147.399 131.588 147.143 131.588C146.973 131.588 146.825 131.629 146.697 131.712C146.568 131.789 146.468 131.911 146.395 132.075C146.326 132.235 146.292 132.437 146.292 132.679C146.292 133.041 146.369 133.315 146.525 133.503C146.681 133.686 146.886 133.777 147.143 133.777ZM150.502 134.429C150.223 134.429 149.992 134.379 149.809 134.278C149.626 134.173 149.489 134.017 149.398 133.811C149.311 133.606 149.267 133.349 149.267 133.043V131.382C149.267 131.236 149.304 131.128 149.377 131.06C149.45 130.986 149.555 130.95 149.693 130.95C149.83 130.95 149.935 130.986 150.008 131.06C150.086 131.128 150.125 131.236 150.125 131.382V133.057C150.125 133.294 150.173 133.471 150.269 133.585C150.365 133.699 150.518 133.756 150.729 133.756C150.958 133.756 151.145 133.679 151.292 133.523C151.438 133.363 151.511 133.153 151.511 132.892V131.382C151.511 131.236 151.548 131.128 151.621 131.06C151.694 130.986 151.799 130.95 151.937 130.95C152.074 130.95 152.179 130.986 152.252 131.06C152.33 131.128 152.369 131.236 152.369 131.382V133.976C152.369 134.269 152.229 134.415 151.95 134.415C151.818 134.415 151.715 134.379 151.642 134.305C151.568 134.228 151.532 134.118 151.532 133.976V133.455L151.628 133.66C151.532 133.907 151.385 134.097 151.189 134.23C150.996 134.363 150.768 134.429 150.502 134.429ZM154.552 135.664C154.305 135.664 154.065 135.641 153.831 135.596C153.603 135.55 153.394 135.479 153.207 135.383C153.12 135.337 153.06 135.282 153.028 135.218C153.001 135.154 152.992 135.088 153.001 135.019C153.015 134.955 153.042 134.898 153.083 134.848C153.129 134.797 153.184 134.763 153.248 134.745C153.312 134.726 153.378 134.735 153.447 134.772C153.648 134.873 153.838 134.937 154.017 134.964C154.2 134.996 154.355 135.012 154.483 135.012C154.79 135.012 155.018 134.937 155.169 134.786C155.325 134.639 155.403 134.42 155.403 134.127V133.509H155.464C155.396 133.743 155.252 133.93 155.032 134.072C154.817 134.209 154.572 134.278 154.298 134.278C153.996 134.278 153.733 134.209 153.509 134.072C153.285 133.93 153.111 133.734 152.987 133.482C152.864 133.23 152.802 132.938 152.802 132.604C152.802 132.352 152.836 132.126 152.905 131.924C152.978 131.718 153.079 131.542 153.207 131.396C153.339 131.25 153.497 131.137 153.68 131.06C153.868 130.977 154.074 130.936 154.298 130.936C154.582 130.936 154.829 131.007 155.039 131.149C155.254 131.286 155.394 131.469 155.458 131.698L155.389 131.869V131.382C155.389 131.24 155.426 131.133 155.499 131.06C155.577 130.986 155.682 130.95 155.814 130.95C155.952 130.95 156.057 130.986 156.13 131.06C156.203 131.133 156.24 131.24 156.24 131.382V134.024C156.24 134.569 156.096 134.978 155.808 135.252C155.519 135.527 155.101 135.664 154.552 135.664ZM154.531 133.626C154.71 133.626 154.863 133.585 154.991 133.503C155.119 133.42 155.217 133.304 155.286 133.153C155.359 132.997 155.396 132.814 155.396 132.604C155.396 132.288 155.318 132.041 155.163 131.863C155.007 131.68 154.797 131.588 154.531 131.588C154.353 131.588 154.2 131.629 154.071 131.712C153.943 131.794 153.843 131.911 153.769 132.062C153.701 132.212 153.667 132.393 153.667 132.604C153.667 132.919 153.744 133.169 153.9 133.352C154.055 133.535 154.266 133.626 154.531 133.626Z" fill="white"/>
<path d="M72.5481 230.625H21.452C19.3385 230.625 17.6251 232.338 17.6251 234.452L17.625 285.548C17.625 287.662 19.3384 289.375 21.452 289.375H72.548C74.6616 289.375 76.375 287.662 76.375 285.548V234.452C76.375 232.338 74.6616 230.625 72.5481 230.625Z" fill="#E4EBF7"/>
<path d="M24.4104 311.391H19.1026C16.4031 311.391 14.2147 313.579 14.2147 316.279L14.2147 321.587C14.2147 324.286 16.4031 326.475 19.1026 326.475H24.4104C27.1099 326.475 29.2983 324.286 29.2983 321.587V316.279C29.2983 313.579 27.1099 311.391 24.4104 311.391Z" fill="#FAAD14"/>
<path d="M335.813 20.7649H290.187C284.146 20.7649 279.25 25.6614 279.25 31.7016L279.25 77.3282C279.25 83.3684 284.146 88.2649 290.187 88.2649H335.813C341.853 88.2649 346.75 83.3684 346.75 77.3282V31.7016C346.75 25.6614 341.853 20.7649 335.813 20.7649Z" fill="#E4EBF7"/>
<path d="M299.116 129.798H291.142C287.086 129.798 283.798 133.086 283.798 137.142L283.798 145.116C283.798 149.172 287.086 152.459 291.142 152.459H299.116C303.171 152.459 306.459 149.172 306.459 145.116V137.142C306.459 133.086 303.171 129.798 299.116 129.798Z" fill="#FF7946"/>
</svg>
