<svg width="456" height="316" viewBox="0 0 456 316" fill="none" xmlns="http://www.w3.org/2000/svg">
<path fill-rule="evenodd" clip-rule="evenodd" d="M105.917 267.931C101.558 267.931 98.0234 264.775 98.0234 260.881V93.0176H358.64V260.881C358.64 264.775 355.106 267.931 350.747 267.931H105.917Z" fill="#E4EBF7"/>
<path d="M339.063 109.412H188.153C186.416 109.412 185.008 110.82 185.008 112.557V253.341C185.008 255.078 186.416 256.486 188.153 256.486H339.063C340.8 256.486 342.208 255.078 342.208 253.341V112.557C342.208 110.82 340.8 109.412 339.063 109.412Z" fill="white"/>
<path d="M168.901 107.06H117.552C115.815 107.06 114.406 108.468 114.406 110.205V250.989C114.406 252.726 115.815 254.134 117.552 254.134H168.901C170.638 254.134 172.046 252.726 172.046 250.989V110.205C172.046 108.468 170.638 107.06 168.901 107.06Z" fill="white"/>
<path fill-rule="evenodd" clip-rule="evenodd" d="M358.889 95.847H98.2852V77.8745C98.2852 73.9759 101.459 70.8149 105.373 70.8149H351.8C355.715 70.8149 358.889 73.9759 358.889 77.8745V95.847Z" fill="#253368"/>
<path fill-rule="evenodd" clip-rule="evenodd" d="M116.559 82.5677C116.559 85.0144 114.58 86.9982 112.138 86.9982C109.697 86.9982 107.718 85.0144 107.718 82.5677C107.718 80.1209 109.697 78.1372 112.138 78.1372C114.58 78.1372 116.559 80.1209 116.559 82.5677Z" fill="#FF7946"/>
<path fill-rule="evenodd" clip-rule="evenodd" d="M133.065 82.5677C133.065 85.0144 131.086 86.9982 128.644 86.9982C126.203 86.9982 124.224 85.0144 124.224 82.5677C124.224 80.1209 126.203 78.1372 128.644 78.1372C131.086 78.1372 133.065 80.1209 133.065 82.5677Z" fill="#FAAD14"/>
<path fill-rule="evenodd" clip-rule="evenodd" d="M149.571 82.5677C149.571 85.0144 147.592 86.9982 145.15 86.9982C142.709 86.9982 140.729 85.0144 140.729 82.5677C140.729 80.1209 142.709 78.1372 145.15 78.1372C147.592 78.1372 149.571 80.1209 149.571 82.5677Z" fill="#7CB305"/>
<path d="M129.046 117.737C130.688 117.737 132.02 119.068 132.02 120.71H129.046V117.737Z" fill="#9992F6"/>
<path fill-rule="evenodd" clip-rule="evenodd" d="M127.817 115.707C126.064 115.707 124.643 117.127 124.643 118.88V120.424V121.968V121.968C124.643 123.721 126.064 125.142 127.817 125.142H130.905C132.657 125.142 134.078 123.721 134.078 121.968V121.282C134.078 120.808 133.694 120.424 133.221 120.424H129.361V116.564C129.361 116.091 128.977 115.707 128.503 115.707H127.817Z" fill="#554AF0"/>
<path fill-rule="evenodd" clip-rule="evenodd" d="M129.252 125.149C129.317 124.869 129.352 124.577 129.352 124.277C129.352 122.153 127.63 120.431 125.506 120.431C125.206 120.431 124.914 120.465 124.634 120.53V121.975V121.975C124.634 123.728 126.055 125.149 127.808 125.149H129.252Z" fill="#FAAD14"/>
<path d="M136.731 122.993C136.589 122.993 136.479 122.954 136.401 122.877C136.323 122.794 136.284 122.682 136.284 122.54V118.581C136.284 118.434 136.321 118.325 136.394 118.251C136.472 118.174 136.582 118.135 136.724 118.135C136.865 118.135 136.973 118.174 137.046 118.251C137.124 118.325 137.163 118.434 137.163 118.581V122.245H139.153C139.276 122.245 139.37 122.277 139.434 122.341C139.503 122.405 139.537 122.497 139.537 122.616C139.537 122.735 139.503 122.828 139.434 122.897C139.37 122.961 139.276 122.993 139.153 122.993H136.731ZM141.278 123.062C140.93 123.062 140.628 122.991 140.372 122.849C140.116 122.707 139.917 122.506 139.775 122.245C139.633 121.98 139.562 121.669 139.562 121.312C139.562 121.042 139.601 120.802 139.679 120.591C139.761 120.376 139.878 120.193 140.029 120.042C140.18 119.887 140.36 119.77 140.571 119.692C140.781 119.61 141.017 119.569 141.278 119.569C141.625 119.569 141.927 119.64 142.183 119.782C142.44 119.923 142.639 120.125 142.781 120.386C142.922 120.646 142.993 120.955 142.993 121.312C142.993 121.582 142.952 121.824 142.87 122.039C142.792 122.254 142.678 122.44 142.527 122.595C142.376 122.746 142.195 122.863 141.984 122.945C141.774 123.023 141.538 123.062 141.278 123.062ZM141.278 122.41C141.447 122.41 141.596 122.369 141.724 122.286C141.852 122.204 141.95 122.083 142.019 121.923C142.092 121.758 142.129 121.554 142.129 121.312C142.129 120.946 142.051 120.674 141.895 120.495C141.74 120.312 141.534 120.221 141.278 120.221C141.108 120.221 140.96 120.262 140.832 120.344C140.704 120.422 140.603 120.543 140.53 120.708C140.461 120.868 140.427 121.069 140.427 121.312C140.427 121.673 140.505 121.948 140.66 122.135C140.816 122.318 141.021 122.41 141.278 122.41ZM144.991 124.297C144.744 124.297 144.504 124.274 144.271 124.228C144.042 124.183 143.834 124.112 143.646 124.016C143.559 123.97 143.5 123.915 143.468 123.851C143.44 123.787 143.431 123.721 143.44 123.652C143.454 123.588 143.482 123.531 143.523 123.48C143.569 123.43 143.623 123.396 143.687 123.377C143.752 123.359 143.818 123.368 143.886 123.405C144.088 123.506 144.278 123.57 144.456 123.597C144.639 123.629 144.795 123.645 144.923 123.645C145.229 123.645 145.458 123.57 145.609 123.419C145.764 123.272 145.842 123.053 145.842 122.76V122.142H145.904C145.835 122.376 145.691 122.563 145.472 122.705C145.257 122.842 145.012 122.911 144.737 122.911C144.435 122.911 144.172 122.842 143.948 122.705C143.724 122.563 143.55 122.366 143.427 122.115C143.303 121.863 143.241 121.57 143.241 121.236C143.241 120.985 143.276 120.758 143.344 120.557C143.418 120.351 143.518 120.175 143.646 120.029C143.779 119.882 143.937 119.77 144.12 119.692C144.307 119.61 144.513 119.569 144.737 119.569C145.021 119.569 145.268 119.64 145.479 119.782C145.694 119.919 145.833 120.102 145.897 120.331L145.828 120.502V120.015C145.828 119.873 145.865 119.766 145.938 119.692C146.016 119.619 146.121 119.583 146.254 119.583C146.391 119.583 146.496 119.619 146.57 119.692C146.643 119.766 146.679 119.873 146.679 120.015V122.657C146.679 123.201 146.535 123.611 146.247 123.885C145.959 124.16 145.54 124.297 144.991 124.297ZM144.971 122.259C145.149 122.259 145.302 122.218 145.43 122.135C145.559 122.053 145.657 121.936 145.726 121.785C145.799 121.63 145.835 121.447 145.835 121.236C145.835 120.921 145.758 120.674 145.602 120.495C145.446 120.312 145.236 120.221 144.971 120.221C144.792 120.221 144.639 120.262 144.511 120.344C144.383 120.427 144.282 120.543 144.209 120.694C144.14 120.845 144.106 121.026 144.106 121.236C144.106 121.552 144.184 121.801 144.339 121.984C144.495 122.167 144.705 122.259 144.971 122.259ZM147.719 123.041C147.582 123.041 147.477 123 147.403 122.918C147.33 122.835 147.294 122.721 147.294 122.575V120.056C147.294 119.905 147.33 119.791 147.403 119.713C147.477 119.631 147.582 119.59 147.719 119.59C147.856 119.59 147.962 119.631 148.035 119.713C148.113 119.791 148.151 119.905 148.151 120.056V122.575C148.151 122.721 148.115 122.835 148.042 122.918C147.968 123 147.861 123.041 147.719 123.041ZM147.719 118.951C147.559 118.951 147.433 118.912 147.342 118.835C147.255 118.752 147.211 118.64 147.211 118.498C147.211 118.352 147.255 118.24 147.342 118.162C147.433 118.084 147.559 118.046 147.719 118.046C147.884 118.046 148.01 118.084 148.097 118.162C148.183 118.24 148.227 118.352 148.227 118.498C148.227 118.64 148.183 118.752 148.097 118.835C148.01 118.912 147.884 118.951 147.719 118.951ZM150.703 123.062C150.42 123.062 150.17 122.991 149.955 122.849C149.745 122.707 149.605 122.517 149.537 122.279L149.612 122.108V122.609C149.612 122.751 149.576 122.86 149.502 122.938C149.429 123.011 149.326 123.048 149.194 123.048C149.056 123.048 148.951 123.011 148.878 122.938C148.805 122.86 148.768 122.751 148.768 122.609V118.533C148.768 118.391 148.805 118.283 148.878 118.21C148.951 118.137 149.056 118.1 149.194 118.1C149.331 118.1 149.436 118.137 149.509 118.21C149.587 118.283 149.626 118.391 149.626 118.533V120.317H149.544C149.617 120.093 149.759 119.912 149.969 119.775C150.18 119.638 150.424 119.569 150.703 119.569C151.001 119.569 151.259 119.64 151.479 119.782C151.698 119.923 151.87 120.125 151.993 120.386C152.117 120.642 152.179 120.951 152.179 121.312C152.179 121.669 152.117 121.98 151.993 122.245C151.87 122.506 151.696 122.707 151.472 122.849C151.252 122.991 150.996 123.062 150.703 123.062ZM150.463 122.41C150.632 122.41 150.781 122.369 150.909 122.286C151.037 122.204 151.136 122.083 151.204 121.923C151.277 121.758 151.314 121.554 151.314 121.312C151.314 120.946 151.236 120.674 151.081 120.495C150.925 120.312 150.719 120.221 150.463 120.221C150.294 120.221 150.145 120.262 150.017 120.344C149.889 120.422 149.788 120.543 149.715 120.708C149.647 120.868 149.612 121.069 149.612 121.312C149.612 121.673 149.69 121.948 149.846 122.135C150.001 122.318 150.207 122.41 150.463 122.41ZM153.823 123.062C153.544 123.062 153.313 123.011 153.13 122.911C152.947 122.806 152.81 122.65 152.718 122.444C152.631 122.238 152.588 121.982 152.588 121.676V120.015C152.588 119.869 152.624 119.761 152.698 119.692C152.771 119.619 152.876 119.583 153.013 119.583C153.15 119.583 153.256 119.619 153.329 119.692C153.407 119.761 153.446 119.869 153.446 120.015V121.689C153.446 121.927 153.494 122.103 153.59 122.218C153.686 122.332 153.839 122.389 154.049 122.389C154.278 122.389 154.466 122.312 154.612 122.156C154.759 121.996 154.832 121.785 154.832 121.525V120.015C154.832 119.869 154.868 119.761 154.942 119.692C155.015 119.619 155.12 119.583 155.257 119.583C155.394 119.583 155.5 119.619 155.573 119.692C155.651 119.761 155.689 119.869 155.689 120.015V122.609C155.689 122.902 155.55 123.048 155.271 123.048C155.138 123.048 155.035 123.011 154.962 122.938C154.889 122.86 154.852 122.751 154.852 122.609V122.087L154.948 122.293C154.852 122.54 154.706 122.73 154.509 122.863C154.317 122.995 154.088 123.062 153.823 123.062ZM157.872 124.297C157.625 124.297 157.385 124.274 157.152 124.228C156.923 124.183 156.715 124.112 156.527 124.016C156.44 123.97 156.381 123.915 156.349 123.851C156.321 123.787 156.312 123.721 156.321 123.652C156.335 123.588 156.363 123.531 156.404 123.48C156.45 123.43 156.504 123.396 156.569 123.377C156.633 123.359 156.699 123.368 156.768 123.405C156.969 123.506 157.159 123.57 157.337 123.597C157.52 123.629 157.676 123.645 157.804 123.645C158.11 123.645 158.339 123.57 158.49 123.419C158.645 123.272 158.723 123.053 158.723 122.76V122.142H158.785C158.716 122.376 158.572 122.563 158.353 122.705C158.138 122.842 157.893 122.911 157.618 122.911C157.317 122.911 157.053 122.842 156.829 122.705C156.605 122.563 156.431 122.366 156.308 122.115C156.184 121.863 156.122 121.57 156.122 121.236C156.122 120.985 156.157 120.758 156.225 120.557C156.299 120.351 156.399 120.175 156.527 120.029C156.66 119.882 156.818 119.77 157.001 119.692C157.188 119.61 157.394 119.569 157.618 119.569C157.902 119.569 158.149 119.64 158.36 119.782C158.575 119.919 158.714 120.102 158.778 120.331L158.71 120.502V120.015C158.71 119.873 158.746 119.766 158.819 119.692C158.897 119.619 159.002 119.583 159.135 119.583C159.272 119.583 159.377 119.619 159.451 119.692C159.524 119.766 159.56 119.873 159.56 120.015V122.657C159.56 123.201 159.416 123.611 159.128 123.885C158.84 124.16 158.421 124.297 157.872 124.297ZM157.852 122.259C158.03 122.259 158.183 122.218 158.312 122.135C158.44 122.053 158.538 121.936 158.607 121.785C158.68 121.63 158.716 121.447 158.716 121.236C158.716 120.921 158.639 120.674 158.483 120.495C158.328 120.312 158.117 120.221 157.852 120.221C157.673 120.221 157.52 120.262 157.392 120.344C157.264 120.427 157.163 120.543 157.09 120.694C157.021 120.845 156.987 121.026 156.987 121.236C156.987 121.552 157.065 121.801 157.22 121.984C157.376 122.167 157.586 122.259 157.852 122.259Z" fill="#333333"/>
<path fill-rule="evenodd" clip-rule="evenodd" d="M133.475 135.302C133.475 137.749 131.496 139.733 129.054 139.733C126.613 139.733 124.634 137.749 124.634 135.302C124.634 132.855 126.613 130.872 129.054 130.872C131.496 130.872 133.475 132.855 133.475 135.302Z" fill="#554AF0"/>
<rect x="138.053" y="133.2" width="22.3184" height="4.20329" rx="2.10165" fill="#554AF0"/>
<path fill-rule="evenodd" clip-rule="evenodd" d="M133.475 149.886C133.475 152.332 131.496 154.316 129.054 154.316C126.613 154.316 124.634 152.332 124.634 149.886C124.634 147.439 126.613 145.455 129.054 145.455C131.496 145.455 133.475 147.439 133.475 149.886Z" fill="#ABAAFA"/>
<rect x="138.053" y="147.784" width="22.3184" height="4.20329" rx="2.10165" fill="#8787F8"/>
<path fill-rule="evenodd" clip-rule="evenodd" d="M133.475 164.469C133.475 166.916 131.496 168.9 129.054 168.9C126.613 168.9 124.634 166.916 124.634 164.469C124.634 162.022 126.613 160.039 129.054 160.039C131.496 160.039 133.475 162.022 133.475 164.469Z" fill="#ABAAFA"/>
<rect x="138.053" y="162.367" width="22.3184" height="4.20329" rx="2.10165" fill="#8787F8"/>
<rect x="200.459" y="133.161" width="46.9258" height="4.29199" rx="2.146" fill="#FABB18"/>
<rect x="200.459" y="143.175" width="28.8994" height="4.29199" rx="2.146" fill="#FABB18"/>
<rect x="200.459" y="164.063" width="46.9258" height="4.29199" rx="2.146" fill="#253368"/>
<rect x="295.455" y="162.918" width="28.3271" height="6.86719" rx="3.43359" fill="#554AF0"/>
<path d="M200.459 180.373C200.459 178.002 202.381 176.081 204.751 176.081H319.49C321.861 176.081 323.782 178.002 323.782 180.373V184.665H200.459V180.373Z" fill="#253368"/>
<path d="M200.459 184.665H323.782V193.249H200.459V184.665Z" fill="#597EF7"/>
<path d="M200.459 193.249H323.782V201.833H200.459V193.249Z" fill="#7B98F4"/>
<path d="M200.459 201.833H323.782V210.417H200.459V201.833Z" fill="#597EF7"/>
<path d="M200.459 210.417H323.782V219H200.459V210.417Z" fill="#7B98F4"/>
<path d="M200.459 219H323.782V227.584H200.459V219Z" fill="#597EF7"/>
<path d="M200.459 227.584H323.782V234.738C323.782 235.528 323.142 236.168 322.352 236.168H201.89C201.1 236.168 200.459 235.528 200.459 234.738V227.584Z" fill="#7B98F4"/>
<path d="M72.5481 18.575H21.452C19.3385 18.575 17.6251 20.2883 17.6251 22.4019L17.625 73.9137C17.625 76.0272 19.3384 77.7406 21.452 77.7406H72.548C74.6616 77.7406 76.375 76.0272 76.375 73.9137V22.4019C76.375 20.2883 74.6616 18.575 72.5481 18.575Z" fill="#E4EBF7"/>
<path d="M24.4106 99.9126H19.1027C16.4032 99.9126 14.2149 102.101 14.2149 104.8L14.2148 110.215C14.2148 112.914 16.4032 115.103 19.1027 115.103H24.4106C27.11 115.103 29.2984 112.914 29.2984 110.215V104.8C29.2984 102.101 27.11 99.9126 24.4106 99.9126Z" fill="#FAAD14"/>
<path d="M434.575 193.777H403.94C399.884 193.777 396.596 197.065 396.596 201.121L396.596 232.077C396.596 236.132 399.884 239.42 403.94 239.42H434.575C438.631 239.42 441.918 236.132 441.918 232.077V201.121C441.918 197.065 438.631 193.777 434.575 193.777Z" fill="#E4EBF7"/>
<path d="M434.948 274.287H426.974C422.918 274.287 419.63 277.575 419.63 281.63L419.63 289.765C419.63 293.821 422.918 297.108 426.974 297.108H434.948C439.003 297.108 442.291 293.821 442.291 289.765V281.63C442.291 277.575 439.003 274.287 434.948 274.287Z" fill="#FF7946"/>
</svg>
