<svg width="40" height="40" viewBox="0 0 40 40" fill="none" xmlns="http://www.w3.org/2000/svg">
<path d="M18.655 8.88477C25.4382 8.88477 30.937 14.3836 30.937 21.1667H18.655V8.88477Z" fill="#9992F6"/>
<path fill-rule="evenodd" clip-rule="evenodd" d="M13.5769 0.5C6.33718 0.5 0.468262 6.36891 0.468262 13.6086L0.468262 26.3629C0.468262 29.0778 1.29358 31.5999 2.707 33.6921C5.06271 37.179 9.05206 39.4715 13.5769 39.4715H19.954L26.3312 39.4715C33.5709 39.4715 39.4398 33.6026 39.4398 26.3629V23.5286C39.4398 21.572 37.8536 19.9858 35.8969 19.9858H19.954V4.04286C19.954 2.08619 18.3678 0.5 16.4112 0.5H13.5769Z" fill="#554AF0"/>
<path fill-rule="evenodd" clip-rule="evenodd" d="M19.5066 39.5001C19.7749 38.3428 19.9168 37.137 19.9168 35.8981C19.9168 27.1257 12.8053 20.0143 4.03292 20.0143C2.79409 20.0143 1.58838 20.1561 0.431152 20.4244V26.3915C0.431152 26.844 0.454078 27.2911 0.498831 27.7318C1.17012 34.3418 6.75255 39.5001 13.5398 39.5001H19.5066Z" fill="#FAAD14"/>
</svg>
