<svg width="32" height="36" viewBox="0 0 32 36" fill="none" xmlns="http://www.w3.org/2000/svg">
<path d="M7.32234 7.46568C7.14555 7.46568 7.00091 7.61032 7.00091 7.78711V9.71568C7.00091 9.89247 7.14555 10.0371 7.32234 10.0371H22.7509C22.9277 10.0371 23.0723 9.89247 23.0723 9.71568V7.78711C23.0723 7.61032 22.9277 7.46568 22.7509 7.46568H7.32234ZM14.7152 13.2514H7.32234C7.14555 13.2514 7.00091 13.396 7.00091 13.5728V15.5014C7.00091 15.6782 7.14555 15.8228 7.32234 15.8228H14.7152C14.892 15.8228 15.0366 15.6782 15.0366 15.5014V13.5728C15.0366 13.396 14.892 13.2514 14.7152 13.2514ZM12.7866 31.6532H3.78663V3.36747H26.2866V16.2246C26.2866 16.4014 26.4313 16.546 26.6081 16.546H28.8581C29.0348 16.546 29.1795 16.4014 29.1795 16.2246V1.76032C29.1795 1.04916 28.6049 0.474609 27.8938 0.474609H2.17948C1.46832 0.474609 0.893768 1.04916 0.893768 1.76032V33.2603C0.893768 33.9715 1.46832 34.546 2.17948 34.546H12.7866C12.9634 34.546 13.1081 34.4014 13.1081 34.2246V31.9746C13.1081 31.7978 12.9634 31.6532 12.7866 31.6532ZM30.4652 28.1175H24.6795V26.6469C26.5398 26.0925 27.8938 24.3728 27.8938 22.3318C27.8938 19.8447 25.8808 17.8318 23.3938 17.8318C20.9067 17.8318 18.8938 19.8447 18.8938 22.3318C18.8938 24.3688 20.2478 26.0925 22.1081 26.6469V28.1175H16.3223C15.9688 28.1175 15.6795 28.4068 15.6795 28.7603V34.8675C15.6795 35.221 15.9688 35.5103 16.3223 35.5103H30.4652C30.8188 35.5103 31.1081 35.221 31.1081 34.8675V28.7603C31.1081 28.4068 30.8188 28.1175 30.4652 28.1175ZM21.3848 22.3318C21.3848 21.2228 22.2848 20.3228 23.3938 20.3228C24.5027 20.3228 25.4027 21.2228 25.4027 22.3318C25.4027 23.4407 24.5027 24.3407 23.3938 24.3407C22.2848 24.3407 21.3848 23.4407 21.3848 22.3318ZM28.617 33.0193H18.1706V30.6085H28.617V33.0193Z" fill="black" fill-opacity="0.85"/>
</svg>
