<svg width="36" height="36" viewBox="0 0 36 36" fill="none" xmlns="http://www.w3.org/2000/svg">
<path d="M16.8183 7.73975C23.0782 7.73975 28.1529 12.8171 28.1529 19.0771H16.8183V7.73975Z" fill="#9992F6"/>
<path fill-rule="evenodd" clip-rule="evenodd" d="M12.1346 0C5.45179 0 0.0342865 5.4175 0.0342865 12.1003L0.0342865 17.9871L0.0342865 23.8739C0.0342865 24.7092 0.118935 25.5248 0.280123 26.3125C1.40843 31.8264 6.28715 35.9742 12.1346 35.9742H18.0172H23.8997C30.5825 35.9742 36 30.5567 36 23.8739V21.2575C36 19.4513 34.5358 17.9871 32.7297 17.9871H18.0172V3.27036C18.0172 1.46419 16.553 0 14.7468 0L12.1346 0Z" fill="#554AF0"/>
<path fill-rule="evenodd" clip-rule="evenodd" d="M17.6044 36.0002C17.852 34.9319 17.9829 33.819 17.9829 32.6754C17.9829 24.5777 11.4199 18.0132 3.32412 18.0132C2.18078 18.0132 1.06802 18.1441 0 18.3918V23.8998C0 24.7352 0.0846486 25.5508 0.245836 26.3385C1.37415 31.8524 6.25286 36.0002 12.1003 36.0002H17.6044Z" fill="#FAAD14"/>
</svg>
